<?xml version="1.0" encoding="utf-8" ?>
<svg baseProfile="tiny" height="715.837" version="1.2" viewBox="-4 -710 587 715" width="587.911" xmlns="http://www.w3.org/2000/svg" xmlns:ev="http://www.w3.org/2001/xml-events" xmlns:xlink="http://www.w3.org/1999/xlink"><defs /><rect fill="white" height="715.837" stroke="none" width="587.911" x="-4.0" y="-710.837" /><path d="M354.321,-51.8542C368.399,-53.1741 384.216,-54.657 398.322,-55.9796" fill="none" stroke="black" stroke-dasharray="1,0" /><path d="M343.909,-310.833C357.238,-309.614 372.063,-308.259 385.389,-307.041" fill="none" stroke="black" stroke-dasharray="1,0" /><path d="M270.659,-494.641C263.212,-508.845 254.672,-525.133 247.221,-539.345" fill="none" stroke="black" stroke-dasharray="1,0" /><path d="M157.551,-68.6059C166.452,-77.3211 176.248,-86.9133 185.146,-95.6265" fill="none" stroke="black" stroke-dasharray="1,0" /><path d="M343.694,-166.898C358.072,-169.003 374.303,-171.38 388.686,-173.485" fill="none" stroke="black" stroke-dasharray="1,0" /><path d="M232.379,-401.17C241.53,-410.377 251.666,-420.573 260.829,-429.792" fill="none" stroke="black" stroke-dasharray="1,0" /><path d="M328.37,-448.34C343.269,-444.382 360.271,-439.865 375.208,-435.896" fill="none" stroke="black" stroke-dasharray="1,0" /><path d="M152.812,-322.613C160.052,-329.685 167.82,-337.273 175.057,-344.342" fill="none" stroke="black" stroke-dasharray="1,0" /><path d="M69.0421,-637.964C76.709,-630.382 84.9865,-622.197 92.6485,-614.62" fill="none" stroke="black" stroke-dasharray="1,0" /><path d="M116.064,-372.434C131.202,-372.441 148.369,-372.448 163.483,-372.454" fill="none" stroke="black" stroke-dasharray="1,0" /><path d="M427.55,-219.93C427.236,-233.638 426.886,-248.936 426.572,-262.651" fill="none" stroke="black" stroke-dasharray="1,0" /><path d="M238.745,-352.201C248.409,-346.587 258.902,-340.492 268.575,-334.872" fill="none" stroke="black" stroke-dasharray="1,0" /><path d="M160.293,-277.056C168.125,-273.307 176.407,-269.341 184.247,-265.588" fill="none" stroke="black" stroke-dasharray="1,0" /><path d="M310.58,-88.2479C309.621,-98.7768 308.587,-110.134 307.627,-120.676" fill="none" stroke="black" stroke-dasharray="1,0" /><path d="M252.563,-273.59C258.951,-278.711 265.663,-284.092 272.044,-289.207" fill="none" stroke="black" stroke-dasharray="1,0" /><path d="M251.376,-139.343C256.395,-141.418 261.544,-143.547 266.563,-145.623" fill="none" stroke="black" stroke-dasharray="1,0" /><path d="M215.323,-288.138C213.391,-302.34 211.218,-318.314 209.287,-332.51" fill="none" stroke="black" stroke-dasharray="1,0" /><path d="M215.651,-535.836C215.75,-536.144 215.848,-536.452 215.947,-536.76" fill="none" stroke="black" stroke-dasharray="1,0" /><path d="M275.98,-577.366C261.866,-561.798 244.693,-542.857 230.583,-527.294" fill="none" stroke="black" stroke-dasharray="1,0" /><path d="M246.28,-99.4967C257.724,-90.8406 270.597,-81.104 282.036,-72.4518" fill="none" stroke="black" stroke-dasharray="1,0" /><path d="M240.357,-480.621C244.465,-478.786 248.649,-476.917 252.754,-475.084" fill="none" stroke="black" stroke-dasharray="1,0" /><path d="M216.21,-164.224C216.965,-178.107 217.809,-193.653 218.565,-207.554" fill="none" stroke="black" stroke-dasharray="1,0" /><path d="M161.847,-582.085C170.477,-581.218 179.59,-580.303 188.208,-579.437" fill="none" stroke="black" stroke-dasharray="1,0" /><path d="M102.541,-328.871C100.611,-331.972 98.6564,-335.111 96.7273,-338.21" fill="none" stroke="black" stroke-dasharray="1,0" /><path d="M248.929,-218.641C257.696,-209.469 267.354,-199.365 276.099,-190.216" fill="none" stroke="black" stroke-dasharray="1,0" /><path d="M421.948,-343.682C420.727,-357.019 419.369,-371.855 418.148,-385.189" fill="none" stroke="black" stroke-dasharray="1,0" /><path d="M435.279,-100.242C434.208,-112.705 433.028,-126.422 431.957,-138.882" fill="none" stroke="black" stroke-dasharray="6,4"><animate attributeName="stroke-dasharray" begin="2.50175" dur="0.5" fill="freeze" from="6,4" to="1,0" /></path><path d="M203.667,-412.96C203.603,-426.9 203.532,-442.509 203.468,-456.467" fill="none" stroke="black" stroke-dasharray="1,0" /><path d="M176.031,-526.804C167.29,-536.307 157.608,-546.832 148.856,-556.346" fill="none" stroke="black" stroke-dasharray="1,0" /><ellipse cx="75.4306" cy="-372.418" fill="white" rx="39.9593" ry="40.1111" stroke="black" stroke-width="1" /><text fill="black" font-family="sans-serif" font-size="10" text-anchor="middle" x="75.4306" y="-372.418">wpt_08</text><ellipse cx="203.852" cy="-372.47" fill="white" rx="39.9593" ry="40.1111" stroke="black" stroke-width="1" /><text fill="black" font-family="sans-serif" font-size="10" text-anchor="middle" x="203.852" y="-372.47">wpt_09</text><ellipse cx="128.649" cy="-40.3051" fill="white" rx="39.9593" ry="40.1111" stroke="black" stroke-width="1" /><text fill="black" font-family="sans-serif" font-size="10" text-anchor="middle" x="128.649" y="-40.3051">wpt_00</text><ellipse cx="214.019" cy="-123.898" fill="none" rx="39.9593" ry="40.1111" stroke="black" stroke-dasharray="6,4"><animate attributeName="stroke-dasharray" begin="0.5005" dur="0.75" fill="freeze" from="6,4" to="1,0" /></ellipse><text fill="black" font-family="sans-serif" font-size="10" text-anchor="middle" x="214.019" y="-123.898">wpt_01</text><ellipse cx="314.236" cy="-48.096" fill="white" rx="39.9593" ry="40.1111" stroke="black" stroke-width="1" /><text fill="black" font-family="sans-serif" font-size="10" text-anchor="middle" x="314.236" y="-48.096">wpt_02</text><ellipse cx="438.759" cy="-59.7708" fill="white" rx="39.9593" ry="40.1111" stroke="black" stroke-width="1" /><text fill="black" font-family="sans-serif" font-size="10" text-anchor="middle" x="438.759" y="-59.7708">wpt_03</text><ellipse cx="123.975" cy="-294.444" fill="white" rx="39.9593" ry="40.1111" stroke="black" stroke-width="1" /><text fill="black" font-family="sans-serif" font-size="10" text-anchor="middle" x="123.975" y="-294.444">wpt_04</text><ellipse cx="220.768" cy="-248.103" fill="white" rx="39.9593" ry="40.1111" stroke="black" stroke-width="1" /><text fill="black" font-family="sans-serif" font-size="10" text-anchor="middle" x="220.768" y="-248.103">wpt_05</text><ellipse cx="303.948" cy="-161.079" fill="white" rx="39.9593" ry="40.1111" stroke="black" stroke-width="1" /><text fill="black" font-family="sans-serif" font-size="10" text-anchor="middle" x="303.948" y="-161.079">wpt_06</text><ellipse cx="428.481" cy="-179.312" fill="white" rx="39.9593" ry="40.1111" stroke="black" stroke-width="1" /><text fill="black" font-family="sans-serif" font-size="10" text-anchor="middle" x="428.481" y="-179.312">wpt_07</text><ellipse cx="121.445" cy="-586.144" fill="white" rx="39.9593" ry="40.1111" stroke="black" stroke-width="1" /><text fill="black" font-family="sans-serif" font-size="10" text-anchor="middle" x="121.445" y="-586.144">wpt_17</text><ellipse cx="40.1525" cy="-666.532" fill="none" rx="39.9593" ry="40.1111" stroke="black" stroke-dasharray="6,4"><animate attributeName="stroke-dasharray" begin="1.001" dur="0.75" fill="freeze" from="6,4" to="1,0" /></ellipse><text fill="black" font-family="sans-serif" font-size="10" text-anchor="middle" x="40.1525" y="-666.532">wpt_16</text><ellipse cx="414.461" cy="-425.468" fill="white" rx="39.9593" ry="40.1111" stroke="black" stroke-width="1" /><text fill="black" font-family="sans-serif" font-size="10" text-anchor="middle" x="414.461" y="-425.468">wpt_15</text><ellipse cx="289.523" cy="-458.661" fill="white" rx="39.9593" ry="40.1111" stroke="black" stroke-width="1" /><text fill="black" font-family="sans-serif" font-size="10" text-anchor="middle" x="289.523" y="-458.661">wpt_14</text><ellipse cx="203.282" cy="-497.181" fill="white" rx="39.9593" ry="40.1111" stroke="black" stroke-width="1" /><text fill="black" font-family="sans-serif" font-size="10" text-anchor="middle" x="203.282" y="-497.181">wpt_13</text><ellipse cx="303.315" cy="-607.516" fill="white" rx="39.9593" ry="40.1111" stroke="black" stroke-width="1" /><text fill="black" font-family="sans-serif" font-size="10" text-anchor="middle" x="303.315" y="-607.516">wpt_12</text><ellipse cx="425.639" cy="-303.361" fill="white" rx="39.9593" ry="40.1111" stroke="black" stroke-width="1" /><text fill="black" font-family="sans-serif" font-size="10" text-anchor="middle" x="425.639" y="-303.361">wpt_11</text><ellipse cx="303.616" cy="-314.517" fill="white" rx="39.9593" ry="40.1111" stroke="black" stroke-width="1" /><text fill="black" font-family="sans-serif" font-size="10" text-anchor="middle" x="303.616" y="-314.517">wpt_10</text><ellipse cx="228.314" cy="-575.408" fill="white" rx="39.9593" ry="40.1111" stroke="black" stroke-width="1" /><text fill="black" font-family="sans-serif" font-size="10" text-anchor="middle" x="228.314" y="-575.408">wpt_18</text><ellipse cx="314.236" cy="-48.096" fill="none" rx="43.9593" ry="44.1111" stroke="red" stroke-width="2" /><ellipse cx="438.759" cy="-59.7708" fill="none" rx="43.9593" ry="44.1111" stroke="navy" stroke-width="2" /><ellipse cx="123.975" cy="-294.444" fill="none" rx="43.9593" ry="44.1111" stroke="orange" stroke-width="2" /><ellipse cx="314.236" cy="-48.096" fill="none" rx="35.9593" ry="36.1111" stroke="green" stroke-width="2" /><ellipse cx="123.975" cy="-294.444" fill="none" rx="35.9593" ry="36.1111" stroke="green" stroke-width="2" /><ellipse cx="438.759" cy="-59.7708" fill="none" rx="35.9593" ry="36.1111" stroke="green" stroke-width="2" /><rect fill="white" fill-opacity="1" height="7" stroke="black" stroke-opacity="1" width="7" x="224.019" y="-123.898"><animate attributeName="stroke-opacity" begin="3.002" dur="1.25" fill="freeze" from="1" to="0" /><animate attributeName="fill-opacity" begin="3.002" dur="1.25" fill="freeze" from="1" to="0" /></rect><rect fill="white" fill-opacity="0" height="7" stroke="black" stroke-opacity="0" width="7" x="324.236" y="-48.096"><animate attributeName="stroke-opacity" begin="4.5025" dur="0.25" fill="freeze" from="0" to="1" /><animate attributeName="fill-opacity" begin="4.5025" dur="0.25" fill="freeze" from="0" to="1" /></rect><rect fill="grey" fill-opacity="1" height="7" stroke="black" stroke-opacity="1" width="7" x="204.019" y="-123.898"><animate attributeName="stroke-opacity" begin="1.25125" dur="1.25" fill="freeze" from="1" to="0" /><animate attributeName="fill-opacity" begin="1.25125" dur="1.25" fill="freeze" from="1" to="0" /></rect><rect fill="grey" fill-opacity="0" height="7" stroke="black" stroke-opacity="0" width="7" x="428.759" y="-59.7708"><animate attributeName="stroke-opacity" begin="3.002" dur="0.25" fill="freeze" from="0" to="1" /><animate attributeName="fill-opacity" begin="3.002" dur="0.25" fill="freeze" from="0" to="1" /></rect><ellipse cx="214.019" cy="-123.898" fill="white" fill-opacity="1.0" rx="8" ry="3" stroke="black" stroke-opacity="1.0"><animate attributeName="fill" begin="0.25025" dur="0.5" fill="freeze" from="white" to="pink" /><animate attributeName="stroke-opacity" begin="1.501" dur="0.5" fill="freeze" from="1.0" to="0.0" /><animate attributeName="fill-opacity" begin="1.501" dur="0.5" fill="freeze" from="1.0" to="0.0" /></ellipse><ellipse cx="314.236" cy="-48.096" fill="pink" fill-opacity="0.0" rx="8" ry="3" stroke="black" stroke-opacity="0.0"><animate attributeName="stroke-opacity" begin="2.2515" dur="0.5" fill="freeze" from="0.0" to="1.0" /><animate attributeName="fill-opacity" begin="2.2515" dur="0.5" fill="freeze" from="0.0" to="1.0" /></ellipse><g transform="translate(123.975,-264.444)"><ellipse cx="0" cy="0" fill="red" rx="3" ry="8" stroke="black" /><animateTransform attributeName="transform" begin="0.0" dur="0.25" fill="freeze" from="123.975 -264.444" to="203.852 -342.47" type="translate" /><animateTransform attributeName="transform" begin="0.25025" dur="0.25" fill="freeze" from="203.852 -342.47" to="203.282 -467.181" type="translate" /><animateTransform attributeName="transform" begin="0.5005" dur="0.25" fill="freeze" from="203.282 -467.181" to="121.445 -556.144" type="translate" /><animateTransform attributeName="transform" begin="0.75075" dur="0.25" fill="freeze" from="121.445 -556.144" to="40.1525 -636.532" type="translate" /></g><g transform="translate(417.545796564,-38.5575965644)"><ellipse cx="0" cy="0" fill="navy" rx="5" ry="5" stroke="black" /><rect fill="pink" height="3" width="12" x="-6" y="-10" /><rect fill="red" height="3" width="0.0" x="-6" y="-10"><animate attributeName="width" begin="0.2505" dur="0.5" fill="freeze" from="0" to="12.0" /><animate attributeName="width" begin="0.75075" dur="0.25" fill="freeze" from="12.0" to="11.6571" /><animate attributeName="width" begin="1.001" dur="0.25" fill="freeze" from="11.6571" to="11.3143" /><animate attributeName="width" begin="1.25125" dur="1.25" fill="freeze" from="11.3143" to="10.9714" /><animate attributeName="width" begin="2.5015" dur="0.25" fill="freeze" from="10.9714" to="10.6286" /><animate attributeName="width" begin="2.75175" dur="0.25" fill="freeze" from="10.6286" to="10.2857" /><animate attributeName="width" begin="3.002" dur="0.25" fill="freeze" from="10.2857" to="9.9429" /></rect><animateTransform attributeName="transform" begin="0.75075" dur="0.25" fill="freeze" from="417.545796564 -38.5575965644" to="293.022796564 -26.8827965644" type="translate" /><animateTransform attributeName="transform" begin="1.001" dur="0.25" fill="freeze" from="293.022796564 -26.8827965644" to="192.805796564 -102.684796564" type="translate" /><animateTransform attributeName="transform" begin="2.5015" dur="0.25" fill="freeze" from="192.805796564 -102.684796564" to="293.022796564 -26.8827965644" type="translate" /><animateTransform attributeName="transform" begin="2.75175" dur="0.25" fill="freeze" from="293.022796564 -26.8827965644" to="417.545796564 -38.5575965644" type="translate" /></g><g transform="translate(284.236,-48.096)"><ellipse cx="0" cy="0" fill="white" rx="5" ry="5" stroke="black" /><rect fill="pink" height="3" width="12" x="-6" y="-10" /><rect fill="red" height="3" width="0.0" x="-6" y="-10"><animate attributeName="width" begin="0.7505" dur="0.5" fill="freeze" from="0" to="12.0" /><animate attributeName="width" begin="1.25075" dur="0.25" fill="freeze" from="12.0" to="11.6571" /><animate attributeName="width" begin="1.501" dur="0.5" fill="freeze" from="11.6571" to="11.3143" /><animate attributeName="width" begin="2.00125" dur="0.25" fill="freeze" from="11.3143" to="10.9714" /><animate attributeName="width" begin="2.2515" dur="0.5" fill="freeze" from="10.9714" to="10.6286" /><animate attributeName="width" begin="2.75175" dur="0.25" fill="freeze" from="10.6286" to="10.2857" /><animate attributeName="width" begin="3.002" dur="1.25" fill="freeze" from="10.2857" to="9.9429" /><animate attributeName="width" begin="4.25225" dur="0.25" fill="freeze" from="9.9429" to="9.6" /><animate attributeName="width" begin="4.5025" dur="0.25" fill="freeze" from="9.6" to="9.2571" /></rect><animateTransform attributeName="transform" begin="1.25075" dur="0.25" fill="freeze" from="284.236 -48.096" to="184.019 -123.898" type="translate" /><animateTransform attributeName="transform" begin="2.00125" dur="0.25" fill="freeze" from="184.019 -123.898" to="284.236 -48.096" type="translate" /><animateTransform attributeName="transform" begin="2.75175" dur="0.25" fill="freeze" from="284.236 -48.096" to="184.019 -123.898" type="translate" /><animateTransform attributeName="transform" begin="4.25225" dur="0.25" fill="freeze" from="184.019 -123.898" to="284.236 -48.096" type="translate" /></g><g transform="translate(417.545796564,-80.9840034356)"><ellipse cx="0" cy="0" fill="navy" rx="3" ry="8" stroke="black" /><animateTransform attributeName="transform" begin="0.0" dur="0.25" fill="freeze" from="417.545796564 -80.9840034356" to="293.022796564 -69.3092034356" type="translate" /><animateTransform attributeName="transform" begin="0.25025" dur="0.25" fill="freeze" from="293.022796564 -69.3092034356" to="192.805796564 -145.111203436" type="translate" /></g><g transform="translate(123.975,-324.444)"><ellipse cx="0" cy="0" fill="red" rx="3" ry="8" stroke="black" /><animateTransform attributeName="transform" begin="0.0" dur="0.25" fill="freeze" from="123.975 -324.444" to="220.768 -278.103" type="translate" /><animateTransform attributeName="transform" begin="0.25025" dur="0.25" fill="freeze" from="220.768 -278.103" to="214.019 -153.898" type="translate" /></g><g transform="translate(335.449203436,-69.3092034356)"><ellipse cx="0" cy="0" fill="white" rx="3" ry="8" stroke="black" /><animateTransform attributeName="transform" begin="0.0" dur="0.25" fill="freeze" from="335.449203436 -69.3092034356" to="235.232203436 -145.111203436" type="translate" /></g><g transform="translate(344.236,-48.096)"><ellipse cx="0" cy="0" fill="white" rx="3" ry="8" stroke="black" /><animateTransform attributeName="transform" begin="3.501" dur="0.25" fill="freeze" from="344.236 -48.096" to="333.948 -161.079" type="translate" /><animateTransform attributeName="transform" begin="3.75125" dur="0.25" fill="freeze" from="333.948 -161.079" to="250.768 -248.103" type="translate" /><animateTransform attributeName="transform" begin="4.0015" dur="0.25" fill="freeze" from="250.768 -248.103" to="233.852 -372.47" type="translate" /><animateTransform attributeName="transform" begin="4.25175" dur="0.25" fill="freeze" from="233.852 -372.47" to="105.4306 -372.418" type="translate" /></g><g transform="translate(93.975,-294.444)"><ellipse cx="0" cy="0" fill="red" rx="5" ry="5" stroke="black" /><rect fill="pink" height="3" width="12" x="-6" y="-10" /><rect fill="red" height="3" width="0.0" x="-6" y="-10"><animate attributeName="width" begin="1.25075" dur="0.5" fill="freeze" from="0" to="12.0" /><animate attributeName="width" begin="1.751" dur="0.25" fill="freeze" from="12.0" to="11.6571" /><animate attributeName="width" begin="2.00125" dur="0.25" fill="freeze" from="11.6571" to="11.3143" /><animate attributeName="width" begin="2.2515" dur="0.25" fill="freeze" from="11.3143" to="10.9714" /><animate attributeName="width" begin="2.50175" dur="0.5" fill="freeze" from="10.9714" to="10.6286" /></rect><animateTransform attributeName="transform" begin="1.751" dur="0.25" fill="freeze" from="93.975 -294.444" to="190.768 -248.103" type="translate" /><animateTransform attributeName="transform" begin="2.00125" dur="0.25" fill="freeze" from="190.768 -248.103" to="273.948 -161.079" type="translate" /><animateTransform attributeName="transform" begin="2.2515" dur="0.25" fill="freeze" from="273.948 -161.079" to="398.481 -179.312" type="translate" /></g><g transform="translate(482.911,-705.837)"><rect fill="white" height="300" stroke="black" width="100" x="0" y="0" /><ellipse cx="10" cy="10" fill="none" rx="5" ry="5" stroke="green" stroke-width="2" /><text fill="black" font-family="sans-serif" font-size="10" text-anchor="start" x="20" y="13">battery_charger</text><rect fill="white" height="7" stroke="black" stroke-width="1" width="7" x="7" y="27" /><text fill="black" font-family="sans-serif" font-size="10" text-anchor="start" x="20" y="33">drugs</text><ellipse cx="10" cy="50" fill="white" rx="3" ry="8" stroke="black" stroke-width="1" /><text fill="black" font-family="sans-serif" font-size="10" text-anchor="start" x="20" y="53">ems</text><ellipse cx="10" cy="70" fill="white" rx="5" ry="5" stroke="black" stroke-width="1" /><text fill="black" font-family="sans-serif" font-size="10" text-anchor="start" x="20" y="73">emsbot</text><ellipse cx="10" cy="90" fill="none" rx="5" ry="5" stroke="orange" stroke-width="2" /><text fill="black" font-family="sans-serif" font-size="10" text-anchor="start" x="20" y="93">fire_base</text><ellipse cx="10" cy="110" fill="red" rx="5" ry="5" stroke="black" stroke-width="1" /><text fill="black" font-family="sans-serif" font-size="10" text-anchor="start" x="20" y="113">firebot</text><ellipse cx="10" cy="130" fill="red" rx="3" ry="8" stroke="black" stroke-width="1" /><text fill="black" font-family="sans-serif" font-size="10" text-anchor="start" x="20" y="133">firefighter</text><ellipse cx="10" cy="150" fill="none" rx="5" ry="5" stroke="red" stroke-width="2" /><text fill="black" font-family="sans-serif" font-size="10" text-anchor="start" x="20" y="153">hospital</text><ellipse cx="10" cy="170" fill="navy" rx="3" ry="8" stroke="black" stroke-width="1" /><text fill="black" font-family="sans-serif" font-size="10" text-anchor="start" x="20" y="173">police</text><ellipse cx="10" cy="190" fill="none" rx="5" ry="5" stroke="navy" stroke-width="2" /><text fill="black" font-family="sans-serif" font-size="10" text-anchor="start" x="20" y="193">police_base</text><ellipse cx="10" cy="210" fill="navy" rx="5" ry="5" stroke="black" stroke-width="1" /><text fill="black" font-family="sans-serif" font-size="10" text-anchor="start" x="20" y="213">policebot</text><ellipse cx="10" cy="230" fill="green" rx="5" ry="5" stroke="black" stroke-width="1" /><text fill="black" font-family="sans-serif" font-size="10" text-anchor="start" x="20" y="233">quadrotor</text><ellipse cx="10" cy="250" fill="white" rx="8" ry="3" stroke="black" stroke-width="1" /><text fill="black" font-family="sans-serif" font-size="10" text-anchor="start" x="20" y="253">victim</text><rect fill="grey" height="7" stroke="black" stroke-width="1" width="7" x="7" y="267" /><text fill="black" font-family="sans-serif" font-size="10" text-anchor="start" x="20" y="273">weapons</text><ellipse cx="10" cy="290" fill="pink" rx="8" ry="3" stroke="black" stroke-width="1" /><text fill="black" font-family="sans-serif" font-size="10" text-anchor="start" x="20" y="293">Triaged Victim</text></g></svg>