<?xml version="1.0" encoding="utf-8" standalone="no"?>
<!DOCTYPE svg PUBLIC "-//W3C//DTD SVG 1.1//EN"
  "http://www.w3.org/Graphics/SVG/1.1/DTD/svg11.dtd">
<!-- Created with matplotlib (http://matplotlib.org/) -->
<svg height="304pt" version="1.1" viewBox="0 0 284 304" width="284pt" xmlns="http://www.w3.org/2000/svg" xmlns:xlink="http://www.w3.org/1999/xlink">
 <defs>
  <style type="text/css">
*{stroke-linecap:butt;stroke-linejoin:round;}
  </style>
 </defs>
 <g id="figure_1">
  <g id="patch_1">
   <path d="
M0 304.23
L284.883 304.23
L284.883 0
L0 0
z
" style="fill:#ffffff;"/>
  </g>
  <g id="axes_1">
   <g id="patch_2">
    <path d="
M89.9237 55.9023
L270.581 55.9023
L270.581 19.4945
L89.9237 19.4945
z
" style="fill:#ffffff;"/>
   </g>
   <g id="matplotlib.axis_1">
    <g id="xtick_1">
     <g id="line2d_1">
      <path clip-path="url(#pd182c93594)" d="
M89.9237 55.9023
L89.9237 19.4945" style="fill:none;stroke:#000000;stroke-dasharray:1.000000,3.000000;stroke-dashoffset:0.0;stroke-width:0.5;"/>
     </g>
     <g id="line2d_2">
      <defs>
       <path d="
M0 0
L0 -4" id="m93b0483c22" style="stroke:#000000;stroke-width:0.5;"/>
      </defs>
      <g>
       <use style="stroke:#000000;stroke-width:0.5;" x="89.92375" xlink:href="#m93b0483c22" y="55.9023125"/>
      </g>
     </g>
     <g id="line2d_3">
      <defs>
       <path d="
M0 0
L0 4" id="m741efc42ff" style="stroke:#000000;stroke-width:0.5;"/>
      </defs>
      <g>
       <use style="stroke:#000000;stroke-width:0.5;" x="89.92375" xlink:href="#m741efc42ff" y="19.4945"/>
      </g>
     </g>
     <g id="text_1">
      <!-- 0 -->
      <defs>
       <path d="
M31.7812 3.42188
Q39.2656 3.42188 42.9688 11.625
Q46.6875 19.8281 46.6875 36.375
Q46.6875 52.9844 42.9688 61.1875
Q39.2656 69.3906 31.7812 69.3906
Q24.3125 69.3906 20.5938 61.1875
Q16.8906 52.9844 16.8906 36.375
Q16.8906 19.8281 20.5938 11.625
Q24.3125 3.42188 31.7812 3.42188
M31.7812 -1.42188
Q19.9219 -1.42188 13.25 8.53125
Q6.59375 18.5 6.59375 36.375
Q6.59375 54.2969 13.25 64.25
Q19.9219 74.2188 31.7812 74.2188
Q43.7031 74.2188 50.3438 64.25
Q56.9844 54.2969 56.9844 36.375
Q56.9844 18.5 50.3438 8.53125
Q43.7031 -1.42188 31.7812 -1.42188" id="DejaVuSerif-30"/>
      </defs>
      <g transform="translate(87.908125 65.9810625)scale(0.08 -0.08)">
       <use xlink:href="#DejaVuSerif-30"/>
      </g>
     </g>
    </g>
    <g id="xtick_2">
     <g id="line2d_4">
      <path clip-path="url(#pd182c93594)" d="
M126.055 55.9023
L126.055 19.4945" style="fill:none;stroke:#000000;stroke-dasharray:1.000000,3.000000;stroke-dashoffset:0.0;stroke-width:0.5;"/>
     </g>
     <g id="line2d_5">
      <g>
       <use style="stroke:#000000;stroke-width:0.5;" x="126.05525" xlink:href="#m93b0483c22" y="55.9023125"/>
      </g>
     </g>
     <g id="line2d_6">
      <g>
       <use style="stroke:#000000;stroke-width:0.5;" x="126.05525" xlink:href="#m741efc42ff" y="19.4945"/>
      </g>
     </g>
     <g id="text_2">
      <!-- 5 -->
      <defs>
       <path d="
M50.2969 72.9062
L50.2969 64.8906
L16.8906 64.8906
L16.8906 44
Q19.4375 45.75 22.8281 46.625
Q26.2188 47.5156 30.4219 47.5156
Q42.2344 47.5156 49.0625 40.9688
Q55.9062 34.4219 55.9062 23.0938
Q55.9062 11.5312 49 5.04688
Q42.0938 -1.42188 29.5938 -1.42188
Q24.5625 -1.42188 19.2812 -0.1875
Q14.0156 1.03125 8.5 3.51562
L8.5 17.6719
L14.0156 17.6719
Q14.4531 10.75 18.4219 7.07812
Q22.4062 3.42188 29.5938 3.42188
Q37.3125 3.42188 41.4531 8.5
Q45.6094 13.5781 45.6094 23.0938
Q45.6094 32.5625 41.4844 37.6094
Q37.3594 42.6719 29.5938 42.6719
Q25.2031 42.6719 21.8438 41.1094
Q18.5 39.5469 15.9219 36.2812
L11.7188 36.2812
L11.7188 72.9062
z
" id="DejaVuSerif-35"/>
      </defs>
      <g transform="translate(124.159 65.9810625)scale(0.08 -0.08)">
       <use xlink:href="#DejaVuSerif-35"/>
      </g>
     </g>
    </g>
    <g id="xtick_3">
     <g id="line2d_7">
      <path clip-path="url(#pd182c93594)" d="
M162.187 55.9023
L162.187 19.4945" style="fill:none;stroke:#000000;stroke-dasharray:1.000000,3.000000;stroke-dashoffset:0.0;stroke-width:0.5;"/>
     </g>
     <g id="line2d_8">
      <g>
       <use style="stroke:#000000;stroke-width:0.5;" x="162.18675" xlink:href="#m93b0483c22" y="55.9023125"/>
      </g>
     </g>
     <g id="line2d_9">
      <g>
       <use style="stroke:#000000;stroke-width:0.5;" x="162.18675" xlink:href="#m741efc42ff" y="19.4945"/>
      </g>
     </g>
     <g id="text_3">
      <!-- 10 -->
      <defs>
       <path d="
M14.2031 0
L14.2031 5.17188
L26.9062 5.17188
L26.9062 65.8281
L12.2031 56.2969
L12.2031 62.7031
L29.9844 74.2188
L36.7188 74.2188
L36.7188 5.17188
L49.4219 5.17188
L49.4219 0
z
" id="DejaVuSerif-31"/>
      </defs>
      <g transform="translate(157.8505 65.9810625)scale(0.08 -0.08)">
       <use xlink:href="#DejaVuSerif-31"/>
       <use x="63.623046875" xlink:href="#DejaVuSerif-30"/>
      </g>
     </g>
    </g>
    <g id="xtick_4">
     <g id="line2d_10">
      <path clip-path="url(#pd182c93594)" d="
M198.318 55.9023
L198.318 19.4945" style="fill:none;stroke:#000000;stroke-dasharray:1.000000,3.000000;stroke-dashoffset:0.0;stroke-width:0.5;"/>
     </g>
     <g id="line2d_11">
      <g>
       <use style="stroke:#000000;stroke-width:0.5;" x="198.31825" xlink:href="#m93b0483c22" y="55.9023125"/>
      </g>
     </g>
     <g id="line2d_12">
      <g>
       <use style="stroke:#000000;stroke-width:0.5;" x="198.31825" xlink:href="#m741efc42ff" y="19.4945"/>
      </g>
     </g>
     <g id="text_4">
      <!-- 15 -->
      <g transform="translate(194.025125 65.9810625)scale(0.08 -0.08)">
       <use xlink:href="#DejaVuSerif-31"/>
       <use x="63.623046875" xlink:href="#DejaVuSerif-35"/>
      </g>
     </g>
    </g>
    <g id="xtick_5">
     <g id="line2d_13">
      <path clip-path="url(#pd182c93594)" d="
M234.45 55.9023
L234.45 19.4945" style="fill:none;stroke:#000000;stroke-dasharray:1.000000,3.000000;stroke-dashoffset:0.0;stroke-width:0.5;"/>
     </g>
     <g id="line2d_14">
      <g>
       <use style="stroke:#000000;stroke-width:0.5;" x="234.44975" xlink:href="#m93b0483c22" y="55.9023125"/>
      </g>
     </g>
     <g id="line2d_15">
      <g>
       <use style="stroke:#000000;stroke-width:0.5;" x="234.44975" xlink:href="#m741efc42ff" y="19.4945"/>
      </g>
     </g>
     <g id="text_5">
      <!-- 20 -->
      <defs>
       <path d="
M12.7969 55.5156
L7.32812 55.5156
L7.32812 68.5
Q12.5469 71.2969 17.8438 72.75
Q23.1406 74.2188 28.2188 74.2188
Q39.5938 74.2188 46.1875 68.7031
Q52.7812 63.1875 52.7812 53.7188
Q52.7812 43.0156 37.8438 28.125
Q36.6719 27 36.0781 26.4219
L17.6719 8.01562
L48.0938 8.01562
L48.0938 17
L53.8125 17
L53.8125 0
L6.78125 0
L6.78125 5.32812
L28.9062 27.3906
Q36.2344 34.7188 39.3594 40.8438
Q42.4844 46.9688 42.4844 53.7188
Q42.4844 61.0781 38.6406 65.2344
Q34.8125 69.3906 28.0781 69.3906
Q21.0938 69.3906 17.2812 65.9219
Q13.4844 62.4531 12.7969 55.5156" id="DejaVuSerif-32"/>
      </defs>
      <g transform="translate(229.896625 65.9810625)scale(0.08 -0.08)">
       <use xlink:href="#DejaVuSerif-32"/>
       <use x="63.623046875" xlink:href="#DejaVuSerif-30"/>
      </g>
     </g>
    </g>
    <g id="xtick_6">
     <g id="line2d_16">
      <path clip-path="url(#pd182c93594)" d="
M270.581 55.9023
L270.581 19.4945" style="fill:none;stroke:#000000;stroke-dasharray:1.000000,3.000000;stroke-dashoffset:0.0;stroke-width:0.5;"/>
     </g>
     <g id="line2d_17">
      <g>
       <use style="stroke:#000000;stroke-width:0.5;" x="270.58125" xlink:href="#m93b0483c22" y="55.9023125"/>
      </g>
     </g>
     <g id="line2d_18">
      <g>
       <use style="stroke:#000000;stroke-width:0.5;" x="270.58125" xlink:href="#m741efc42ff" y="19.4945"/>
      </g>
     </g>
     <g id="text_6">
      <!-- 25 -->
      <g transform="translate(266.07125 65.9810625)scale(0.08 -0.08)">
       <use xlink:href="#DejaVuSerif-32"/>
       <use x="63.623046875" xlink:href="#DejaVuSerif-35"/>
      </g>
     </g>
    </g>
   </g>
   <g id="matplotlib.axis_2">
    <g id="ytick_1">
     <g id="line2d_19">
      <defs>
       <path d="
M0 0
L4 0" id="m728421d6d4" style="stroke:#000000;stroke-width:0.5;"/>
      </defs>
      <g>
       <use style="stroke:#000000;stroke-width:0.5;" x="89.92375" xlink:href="#m728421d6d4" y="46.800359375"/>
      </g>
     </g>
     <g id="line2d_20">
      <defs>
       <path d="
M0 0
L-4 0" id="mcb0005524f" style="stroke:#000000;stroke-width:0.5;"/>
      </defs>
      <g>
       <use style="stroke:#000000;stroke-width:0.5;" x="270.58125" xlink:href="#mcb0005524f" y="46.800359375"/>
      </g>
     </g>
     <g id="text_7">
      <!-- CFP -->
      <defs>
       <path d="
M24.7031 37.1094
L37.5938 37.1094
Q44.875 37.1094 48.6719 41.0312
Q52.4844 44.9688 52.4844 52.3906
Q52.4844 59.8594 48.6719 63.7656
Q44.875 67.6719 37.5938 67.6719
L24.7031 67.6719
z

M5.51562 0
L5.51562 5.17188
L14.7969 5.17188
L14.7969 67.6719
L5.51562 67.6719
L5.51562 72.9062
L39.9844 72.9062
Q50.9219 72.9062 57.3125 67.3594
Q63.7188 61.8125 63.7188 52.3906
Q63.7188 43.0156 57.3125 37.4531
Q50.9219 31.8906 39.9844 31.8906
L24.7031 31.8906
L24.7031 5.17188
L35.9844 5.17188
L35.9844 0
z
" id="DejaVuSerif-50"/>
       <path d="
M5.51562 0
L5.51562 5.17188
L14.7969 5.17188
L14.7969 67.6719
L5.51562 67.6719
L5.51562 72.9062
L65.1875 72.9062
L65.1875 56.6875
L59.1875 56.6875
L59.1875 66.8906
L24.7031 66.8906
L24.7031 42.4844
L49.6094 42.4844
L49.6094 51.6094
L55.6094 51.6094
L55.6094 27.3906
L49.6094 27.3906
L49.6094 36.5312
L24.7031 36.5312
L24.7031 5.17188
L36.375 5.17188
L36.375 0
z
" id="DejaVuSerif-46"/>
       <path d="
M70.5156 19.2812
Q67.2812 9.07812 59.6875 3.82812
Q52.0938 -1.42188 40.4844 -1.42188
Q33.3438 -1.42188 27.2344 1.01562
Q21.1406 3.46875 16.4062 8.20312
Q10.9375 13.6719 8.26562 20.625
Q5.60938 27.5938 5.60938 36.375
Q5.60938 53.375 15.4219 63.7969
Q25.25 74.2188 41.3125 74.2188
Q47.2656 74.2188 54 72.6562
Q60.75 71.0938 68.5 67.9219
L68.5 51.125
L62.9844 51.125
Q61.1875 60.2969 55.7344 64.6406
Q50.2969 69 40.4844 69
Q28.8125 69 22.7969 60.7188
Q16.7969 52.4375 16.7969 36.375
Q16.7969 20.3594 22.7969 12.0781
Q28.8125 3.8125 40.4844 3.8125
Q48.6406 3.8125 53.9062 7.6875
Q59.1875 11.5781 61.5312 19.2812
z
" id="DejaVuSerif-43"/>
      </defs>
      <g transform="translate(69.6025 49.007859375)scale(0.08 -0.08)">
       <use xlink:href="#DejaVuSerif-43"/>
       <use x="76.513671875" xlink:href="#DejaVuSerif-46"/>
       <use x="145.8984375" xlink:href="#DejaVuSerif-50"/>
      </g>
     </g>
    </g>
    <g id="ytick_2">
     <g id="line2d_21">
      <g>
       <use style="stroke:#000000;stroke-width:0.5;" x="89.92375" xlink:href="#m728421d6d4" y="28.596453125"/>
      </g>
     </g>
     <g id="line2d_22">
      <g>
       <use style="stroke:#000000;stroke-width:0.5;" x="270.58125" xlink:href="#mcb0005524f" y="28.596453125"/>
      </g>
     </g>
     <g id="text_8">
      <!-- CoalitionAssistance -->
      <defs>
       <path d="
M54.2031 25
L15.4844 25
L15.4844 24.6094
Q15.4844 14.1094 19.4375 8.76562
Q23.3906 3.42188 31.1094 3.42188
Q37.0156 3.42188 40.7969 6.51562
Q44.5781 9.625 46.0938 15.7188
L53.3281 15.7188
Q51.1719 7.17188 45.375 2.875
Q39.5938 -1.42188 30.1719 -1.42188
Q18.7969 -1.42188 11.8906 6.07812
Q4.98438 13.5781 4.98438 25.9844
Q4.98438 38.2812 11.7656 45.7969
Q18.5625 53.3281 29.5938 53.3281
Q41.3594 53.3281 47.6562 46.0625
Q53.9531 38.8125 54.2031 25
M43.6094 30.1719
Q43.3125 39.2656 39.7656 43.875
Q36.2344 48.4844 29.5938 48.4844
Q23.3906 48.4844 19.8281 43.8438
Q16.2656 39.2031 15.4844 30.1719
z
" id="DejaVuSerif-65"/>
       <path d="
M10.7969 46.6875
L2.875 46.6875
L2.875 51.9062
L10.7969 51.9062
L10.7969 68.0156
L19.8281 68.0156
L19.8281 51.9062
L36.7188 51.9062
L36.7188 46.6875
L19.8281 46.6875
L19.8281 13.7188
Q19.8281 7.125 21.0938 5.26562
Q22.3594 3.42188 25.7812 3.42188
Q29.2969 3.42188 30.9062 5.48438
Q32.5156 7.5625 32.625 12.2031
L39.4062 12.2031
Q39.0156 5.125 35.5469 1.84375
Q32.0781 -1.42188 25 -1.42188
Q17.2344 -1.42188 14.0156 2.01562
Q10.7969 5.46875 10.7969 13.7188
z
" id="DejaVuSerif-74"/>
       <path d="
M39.7969 16.3125
L39.7969 27.2969
L28.2188 27.2969
Q21.5312 27.2969 18.25 24.4062
Q14.9844 21.5312 14.9844 15.5781
Q14.9844 10.1562 18.2969 6.98438
Q21.625 3.8125 27.2969 3.8125
Q32.9062 3.8125 36.3438 7.28125
Q39.7969 10.75 39.7969 16.3125
M48.7812 32.4219
L48.7812 5.17188
L56.7812 5.17188
L56.7812 0
L39.7969 0
L39.7969 5.60938
Q36.8125 2 32.9062 0.28125
Q29 -1.42188 23.7812 -1.42188
Q15.1406 -1.42188 10.0625 3.17188
Q4.98438 7.76562 4.98438 15.5781
Q4.98438 23.6406 10.7969 28.0781
Q16.6094 32.5156 27.2031 32.5156
L39.7969 32.5156
L39.7969 36.0781
Q39.7969 42 36.2031 45.2344
Q32.625 48.4844 26.125 48.4844
Q20.75 48.4844 17.5781 46.0469
Q14.4062 43.6094 13.625 38.8125
L8.98438 38.8125
L8.98438 49.3125
Q13.6719 51.3125 18.0938 52.3125
Q22.5156 53.3281 26.7031 53.3281
Q37.5 53.3281 43.1406 47.9688
Q48.7812 42.625 48.7812 32.4219" id="DejaVuSerif-61"/>
       <path d="
M5.60938 2.875
L5.60938 14.9844
L10.7969 14.9844
Q10.9844 9.1875 14.4219 6.29688
Q17.875 3.42188 24.6094 3.42188
Q30.6719 3.42188 33.8438 5.6875
Q37.0156 7.95312 37.0156 12.3125
Q37.0156 15.7188 34.6875 17.8125
Q32.375 19.9219 24.9062 22.3125
L18.4062 24.5156
Q11.7188 26.6562 8.71875 29.875
Q5.71875 33.1094 5.71875 38.0938
Q5.71875 45.2188 10.9375 49.2656
Q16.1562 53.3281 25.3906 53.3281
Q29.5 53.3281 34.0312 52.25
Q38.5781 51.1719 43.4062 49.125
L43.4062 37.7969
L38.2344 37.7969
Q38.0312 42.8281 34.7031 45.6562
Q31.3906 48.4844 25.6875 48.4844
Q20.0156 48.4844 17.1094 46.4844
Q14.2031 44.4844 14.2031 40.4844
Q14.2031 37.2031 16.4062 35.2188
Q18.6094 33.25 25.2031 31.2031
L32.3281 29
Q39.7031 26.7031 42.9375 23.2656
Q46.1875 19.8281 46.1875 14.4062
Q46.1875 7.03125 40.5469 2.79688
Q34.9062 -1.42188 25 -1.42188
Q19.9688 -1.42188 15.1875 -0.34375
Q10.4062 0.734375 5.60938 2.875" id="DejaVuSerif-73"/>
       <path d="
M51.4219 15.5781
Q49.5156 7.28125 44.0938 2.92188
Q38.6719 -1.42188 30.0781 -1.42188
Q18.75 -1.42188 11.8594 6.07812
Q4.98438 13.5781 4.98438 25.9844
Q4.98438 38.4219 11.8594 45.875
Q18.75 53.3281 30.0781 53.3281
Q35.0156 53.3281 39.8906 52.1719
Q44.7812 51.0312 49.7031 48.6875
L49.7031 35.4062
L44.4844 35.4062
Q43.4531 42.2344 40.0156 45.3594
Q36.5781 48.4844 30.1719 48.4844
Q22.9062 48.4844 19.1875 42.8438
Q15.4844 37.2031 15.4844 25.9844
Q15.4844 14.75 19.1719 9.07812
Q22.8594 3.42188 30.1719 3.42188
Q35.9844 3.42188 39.4531 6.4375
Q42.9219 9.46875 44.1875 15.5781
z
" id="DejaVuSerif-63"/>
       <path d="
M9.71875 68.0156
Q9.71875 70.2656 11.3438 71.9219
Q12.9844 73.5781 15.2812 73.5781
Q17.5312 73.5781 19.1562 71.9219
Q20.7969 70.2656 20.7969 68.0156
Q20.7969 65.7188 19.1875 64.1094
Q17.5781 62.5 15.2812 62.5
Q12.9844 62.5 11.3438 64.1094
Q9.71875 65.7188 9.71875 68.0156
M21.1875 5.17188
L29.6875 5.17188
L29.6875 0
L3.60938 0
L3.60938 5.17188
L12.2031 5.17188
L12.2031 46.6875
L3.60938 46.6875
L3.60938 51.9062
L21.1875 51.9062
z
" id="DejaVuSerif-69"/>
       <path d="
M4.10938 0
L4.10938 5.17188
L12.2031 5.17188
L12.2031 46.6875
L3.60938 46.6875
L3.60938 51.9062
L21.1875 51.9062
L21.1875 42.6719
Q23.6875 47.9531 27.6562 50.6406
Q31.6406 53.3281 36.9219 53.3281
Q45.5156 53.3281 49.5625 48.3906
Q53.6094 43.4531 53.6094 33.0156
L53.6094 5.17188
L61.625 5.17188
L61.625 0
L36.8125 0
L36.8125 5.17188
L44.5781 5.17188
L44.5781 30.1719
Q44.5781 39.7031 42.2344 43.2344
Q39.8906 46.7812 33.9844 46.7812
Q27.7344 46.7812 24.4531 42.2031
Q21.1875 37.6406 21.1875 28.9062
L21.1875 5.17188
L29 5.17188
L29 0
z
" id="DejaVuSerif-6e"/>
       <path d="
M30.0781 3.42188
Q37.3125 3.42188 40.9844 9.125
Q44.6719 14.8438 44.6719 25.9844
Q44.6719 37.1094 40.9844 42.7969
Q37.3125 48.4844 30.0781 48.4844
Q22.8594 48.4844 19.1719 42.7969
Q15.4844 37.1094 15.4844 25.9844
Q15.4844 14.8438 19.1875 9.125
Q22.9062 3.42188 30.0781 3.42188
M30.0781 -1.42188
Q18.75 -1.42188 11.8594 6.07812
Q4.98438 13.5781 4.98438 25.9844
Q4.98438 38.375 11.8438 45.8438
Q18.7031 53.3281 30.0781 53.3281
Q41.4531 53.3281 48.3125 45.8438
Q55.1719 38.375 55.1719 25.9844
Q55.1719 13.5781 48.3125 6.07812
Q41.4531 -1.42188 30.0781 -1.42188" id="DejaVuSerif-6f"/>
       <path d="
M20.5156 5.17188
L29 5.17188
L29 0
L2.875 0
L2.875 5.17188
L11.5312 5.17188
L11.5312 70.7969
L2.875 70.7969
L2.875 75.9844
L20.5156 75.9844
z
" id="DejaVuSerif-6c"/>
       <path d="
M20.0156 26.4219
L46.7812 26.4219
L33.4062 61.0781
z

M-0.59375 0
L-0.59375 5.17188
L5.8125 5.17188
L31.7812 72.9062
L39.9844 72.9062
L66.0156 5.17188
L73.1875 5.17188
L73.1875 0
L46.6875 0
L46.6875 5.17188
L54.7812 5.17188
L48.6875 21.1875
L18.0156 21.1875
L11.9219 5.17188
L19.9219 5.17188
L19.9219 0
z
" id="DejaVuSerif-41"/>
      </defs>
      <g transform="translate(7.2 30.803953125)scale(0.08 -0.08)">
       <use xlink:href="#DejaVuSerif-43"/>
       <use x="76.513671875" xlink:href="#DejaVuSerif-6f"/>
       <use x="136.71875" xlink:href="#DejaVuSerif-61"/>
       <use x="196.337890625" xlink:href="#DejaVuSerif-6c"/>
       <use x="228.3203125" xlink:href="#DejaVuSerif-69"/>
       <use x="260.302734375" xlink:href="#DejaVuSerif-74"/>
       <use x="300.48828125" xlink:href="#DejaVuSerif-69"/>
       <use x="332.470703125" xlink:href="#DejaVuSerif-6f"/>
       <use x="392.67578125" xlink:href="#DejaVuSerif-6e"/>
       <use x="457.080078125" xlink:href="#DejaVuSerif-41"/>
       <use x="529.296875" xlink:href="#DejaVuSerif-73"/>
       <use x="580.615234375" xlink:href="#DejaVuSerif-73"/>
       <use x="631.93359375" xlink:href="#DejaVuSerif-69"/>
       <use x="663.916015625" xlink:href="#DejaVuSerif-73"/>
       <use x="715.234375" xlink:href="#DejaVuSerif-74"/>
       <use x="755.419921875" xlink:href="#DejaVuSerif-61"/>
       <use x="815.0390625" xlink:href="#DejaVuSerif-6e"/>
       <use x="879.443359375" xlink:href="#DejaVuSerif-63"/>
       <use x="935.44921875" xlink:href="#DejaVuSerif-65"/>
      </g>
     </g>
    </g>
   </g>
   <g id="patch_3">
    <path clip-path="url(#pd182c93594)" d="
M89.9237 52.2615
L149.881 52.2615
L149.881 46.8004
L89.9237 46.8004
z
" style="fill:#0000ff;stroke:#000000;"/>
   </g>
   <g id="patch_4">
    <path clip-path="url(#pd182c93594)" d="
M89.9237 34.0576
L225.563 34.0576
L225.563 28.5965
L89.9237 28.5965
z
" style="fill:#0000ff;stroke:#000000;"/>
   </g>
   <g id="patch_5">
    <path clip-path="url(#pd182c93594)" d="
M89.9237 46.8004
L149.262 46.8004
L149.262 41.3392
L89.9237 41.3392
z
" style="fill:#008000;stroke:#000000;"/>
   </g>
   <g id="patch_6">
    <path clip-path="url(#pd182c93594)" d="
M89.9237 28.5965
L142.609 28.5965
L142.609 23.1353
L89.9237 23.1353
z
" style="fill:#008000;stroke:#000000;"/>
   </g>
   <g id="LineCollection_1">
    <defs>
     <path d="
M134.943 -254.699
L164.82 -254.699" id="C0_0_7d10d0fe61"/>
     <path d="
M192.678 -272.903
L258.447 -272.903" id="C0_1_3989832edb"/>
    </defs>
    <g clip-path="url(#pd182c93594)">
     <use style="fill:none;stroke:#000000;" x="0.0" xlink:href="#C0_0_7d10d0fe61" y="304.230125"/>
    </g>
    <g clip-path="url(#pd182c93594)">
     <use style="fill:none;stroke:#000000;" x="0.0" xlink:href="#C0_1_3989832edb" y="304.230125"/>
    </g>
   </g>
   <g id="LineCollection_2">
    <defs>
     <path d="
M130.772 -260.16
L167.752 -260.16" id="C1_0_a7ad7ae48d"/>
     <path d="
M123.175 -278.364
L162.043 -278.364" id="C1_1_848e2605c3"/>
    </defs>
    <g clip-path="url(#pd182c93594)">
     <use style="fill:none;stroke:#000000;" x="0.0" xlink:href="#C1_0_a7ad7ae48d" y="304.230125"/>
    </g>
    <g clip-path="url(#pd182c93594)">
     <use style="fill:none;stroke:#000000;" x="0.0" xlink:href="#C1_1_848e2605c3" y="304.230125"/>
    </g>
   </g>
   <g id="line2d_23">
    <defs>
     <path d="
M0 3
L0 -3" id="mca62528ba1" style="stroke:#000000;stroke-width:0.5;"/>
    </defs>
    <g clip-path="url(#pd182c93594)">
     <use style="stroke:#000000;stroke-width:0.5;" x="134.942608932" xlink:href="#mca62528ba1" y="49.5309453125"/>
     <use style="stroke:#000000;stroke-width:0.5;" x="192.678255461" xlink:href="#mca62528ba1" y="31.3270390625"/>
    </g>
   </g>
   <g id="line2d_24">
    <g clip-path="url(#pd182c93594)">
     <use style="stroke:#000000;stroke-width:0.5;" x="164.81951439" xlink:href="#mca62528ba1" y="49.5309453125"/>
     <use style="stroke:#000000;stroke-width:0.5;" x="258.446819234" xlink:href="#mca62528ba1" y="31.3270390625"/>
    </g>
   </g>
   <g id="line2d_25">
    <g clip-path="url(#pd182c93594)">
     <use style="stroke:#000000;stroke-width:0.5;" x="130.771974559" xlink:href="#mca62528ba1" y="44.0697734375"/>
     <use style="stroke:#000000;stroke-width:0.5;" x="123.175207247" xlink:href="#mca62528ba1" y="25.8658671875"/>
    </g>
   </g>
   <g id="line2d_26">
    <g clip-path="url(#pd182c93594)">
     <use style="stroke:#000000;stroke-width:0.5;" x="167.751716319" xlink:href="#mca62528ba1" y="44.0697734375"/>
     <use style="stroke:#000000;stroke-width:0.5;" x="162.042625288" xlink:href="#mca62528ba1" y="25.8658671875"/>
    </g>
   </g>
   <g id="patch_7">
    <path d="
M89.9237 19.4945
L270.581 19.4945" style="fill:none;stroke:#000000;"/>
   </g>
   <g id="patch_8">
    <path d="
M270.581 55.9023
L270.581 19.4945" style="fill:none;stroke:#000000;"/>
   </g>
   <g id="patch_9">
    <path d="
M89.9237 55.9023
L270.581 55.9023" style="fill:none;stroke:#000000;"/>
   </g>
   <g id="patch_10">
    <path d="
M89.9237 55.9023
L89.9237 19.4945" style="fill:none;stroke:#000000;"/>
   </g>
   <g id="text_9">
    <!-- Memory Usage (GB) -->
    <defs>
     <path d="
M52.4844 46.6875
L52.4844 1.125
Q52.4844 -10.0625 46.3281 -16.1406
Q40.1875 -22.2188 28.8125 -22.2188
Q23.6875 -22.2188 19 -21.2812
Q14.3125 -20.3594 10.0156 -18.5
L10.0156 -7.625
L14.7031 -7.625
Q15.5781 -12.7031 18.8438 -15.0469
Q22.125 -17.3906 28.2188 -17.3906
Q36.1406 -17.3906 39.8125 -12.9219
Q43.5 -8.45312 43.5 1.125
L43.5 8.10938
Q40.875 3.21875 36.7969 0.890625
Q32.7188 -1.42188 26.7031 -1.42188
Q17.1406 -1.42188 11.0625 6.17188
Q4.98438 13.7656 4.98438 25.9844
Q4.98438 38.1875 11.0312 45.75
Q17.0938 53.3281 26.7031 53.3281
Q32.7188 53.3281 36.7969 51
Q40.875 48.6875 43.5 43.7969
L43.5 51.9062
L61.0781 51.9062
L61.0781 46.6875
z

M43.5 28.5156
Q43.5 37.8438 39.9062 42.7656
Q36.3281 47.7031 29.5 47.7031
Q22.5625 47.7031 19.0156 42.2344
Q15.4844 36.7656 15.4844 25.9844
Q15.4844 15.2344 19.0156 9.71875
Q22.5625 4.20312 29.5 4.20312
Q36.3281 4.20312 39.9062 9.10938
Q43.5 14.0156 43.5 23.3906
z
" id="DejaVuSerif-67"/>
     <path d="
M47.7969 52
L47.7969 39.0156
L42.625 39.0156
Q42.3906 42.875 40.4844 44.7812
Q38.5781 46.6875 34.9062 46.6875
Q28.2656 46.6875 24.7188 42.0938
Q21.1875 37.5 21.1875 28.9062
L21.1875 5.17188
L31.5938 5.17188
L31.5938 0
L4.10938 0
L4.10938 5.17188
L12.2031 5.17188
L12.2031 46.7812
L3.60938 46.7812
L3.60938 51.9062
L21.1875 51.9062
L21.1875 42.6719
Q23.8281 48.0938 27.9688 50.7031
Q32.125 53.3281 38.0938 53.3281
Q40.2812 53.3281 42.7031 52.9844
Q45.125 52.6406 47.7969 52" id="DejaVuSerif-72"/>
     <path d="
M14.0156 67.6719
L4.6875 67.6719
L4.6875 72.9062
L33.2031 72.9062
L33.2031 67.6719
L23.875 67.6719
L23.875 29.9844
Q23.875 16.0156 28.4375 10.5
Q33.0156 4.98438 44.1875 4.98438
Q55.375 4.98438 59.9375 10.5
Q64.5 16.0156 64.5 29.9844
L64.5 67.6719
L55.1719 67.6719
L55.1719 72.9062
L79.7812 72.9062
L79.7812 67.6719
L70.5156 67.6719
L70.5156 29
Q70.5156 12.3594 64.1094 5.46875
Q57.7188 -1.42188 42.3906 -1.42188
Q27.0469 -1.42188 20.5312 5.51562
Q14.0156 12.4531 14.0156 29
z
" id="DejaVuSerif-55"/>
     <path d="
M31.8906 -15.5781
Q20.0156 -10.25 13.9531 1.29688
Q7.90625 12.8438 7.90625 30.1719
Q7.90625 47.5625 13.9531 59.1094
Q20.0156 70.6562 31.8906 75.9844
L31.8906 71.1875
Q24.3594 66.0156 21.0938 56.6094
Q17.8281 47.2188 17.8281 30.1719
Q17.8281 13.1875 21.0938 3.78125
Q24.3594 -5.60938 31.8906 -10.7969
z
" id="DejaVuSerif-28"/>
     <path d="
M5.51562 0
L5.51562 5.17188
L14.7969 5.17188
L14.7969 67.6719
L4.98438 67.6719
L4.98438 72.9062
L26.2188 72.9062
L51.8125 21
L77.3906 72.9062
L97.3125 72.9062
L97.3125 67.6719
L87.5938 67.6719
L87.5938 5.17188
L96.9219 5.17188
L96.9219 0
L68.4062 0
L68.4062 5.17188
L77.6875 5.17188
L77.6875 61.5312
L52.6875 10.6875
L45.7969 10.6875
L20.7969 61.5312
L20.7969 5.17188
L30.0781 5.17188
L30.0781 0
z
" id="DejaVuSerif-4d"/>
     <path d="
M21.5781 -9.51562
L25 -0.875
L5.60938 46.6875
L-0.296875 46.6875
L-0.296875 51.9062
L23.5781 51.9062
L23.5781 46.6875
L15.2812 46.6875
L29.8906 10.9844
L44.4844 46.6875
L36.7188 46.6875
L36.7188 51.9062
L56.2031 51.9062
L56.2031 46.6875
L50.3906 46.6875
L26.6094 -11.7188
Q24.1719 -17.7812 21.1875 -20
Q18.2188 -22.2188 12.7969 -22.2188
Q10.5 -22.2188 8.07812 -21.8281
Q5.67188 -21.4375 3.21875 -20.7031
L3.21875 -10.7969
L7.8125 -10.7969
Q8.10938 -14.1094 9.5 -15.5469
Q10.8906 -17 13.8125 -17
Q16.5 -17 18.1406 -15.5
Q19.7812 -14.0156 21.5781 -9.51562" id="DejaVuSerif-79"/>
     <path d="
M7.07812 -15.5781
L7.07812 -10.7969
Q14.5938 -5.60938 17.8906 3.78125
Q21.1875 13.1875 21.1875 30.1719
Q21.1875 47.2188 17.8906 56.6094
Q14.5938 66.0156 7.07812 71.1875
L7.07812 75.9844
Q19 70.6562 25.0469 59.1094
Q31.1094 47.5625 31.1094 30.1719
Q31.1094 12.8438 25.0469 1.29688
Q19 -10.25 7.07812 -15.5781" id="DejaVuSerif-29"/>
     <path d="
M51.8125 41.7969
Q54.3906 47.5156 58.4219 50.4219
Q62.4531 53.3281 67.8281 53.3281
Q75.9844 53.3281 79.9844 48.2656
Q83.9844 43.2188 83.9844 33.0156
L83.9844 5.17188
L92.0938 5.17188
L92.0938 0
L67.1875 0
L67.1875 5.17188
L75 5.17188
L75 31.9844
Q75 39.9375 72.6562 43.3125
Q70.3125 46.6875 64.8906 46.6875
Q58.8906 46.6875 55.7344 42.1406
Q52.5938 37.5938 52.5938 28.9062
L52.5938 5.17188
L60.4062 5.17188
L60.4062 0
L35.7969 0
L35.7969 5.17188
L43.6094 5.17188
L43.6094 32.3281
Q43.6094 40.0938 41.2656 43.3906
Q38.9219 46.6875 33.5 46.6875
Q27.4844 46.6875 24.3281 42.1406
Q21.1875 37.5938 21.1875 28.9062
L21.1875 5.17188
L29 5.17188
L29 0
L4.10938 0
L4.10938 5.17188
L12.2031 5.17188
L12.2031 46.7812
L3.60938 46.7812
L3.60938 51.9062
L21.1875 51.9062
L21.1875 42.6719
Q23.6875 47.8594 27.5312 50.5938
Q31.3906 53.3281 36.2812 53.3281
Q42.3281 53.3281 46.375 50.3125
Q50.4375 47.3125 51.8125 41.7969" id="DejaVuSerif-6d"/>
     <path d="
M64.0156 51.125
Q62.3125 60.25 56.8906 64.625
Q51.4688 69 41.7969 69
Q29.2031 69 23 60.8906
Q16.7969 52.7812 16.7969 36.375
Q16.7969 20.3125 23.1875 12.0625
Q29.5938 3.8125 42 3.8125
Q47.5156 3.8125 52.5312 5.17188
Q57.5625 6.54688 62.1094 9.28125
L62.1094 28.0781
L48.3906 28.0781
L48.3906 33.2969
L72.0156 33.2969
L72.0156 6.10938
Q65.5312 2.34375 58.0312 0.453125
Q50.5312 -1.42188 42 -1.42188
Q25.4844 -1.42188 15.5469 8.90625
Q5.60938 19.2344 5.60938 36.375
Q5.60938 53.6562 15.5625 63.9375
Q25.5312 74.2188 42.3906 74.2188
Q48.6406 74.2188 55.2969 72.7812
Q61.9688 71.3438 69.4844 68.4062
L69.4844 51.125
z
" id="DejaVuSerif-47"/>
     <path id="DejaVuSerif-20"/>
     <path d="
M24.7031 5.17188
L39.3125 5.17188
Q48.0938 5.17188 52.1406 8.98438
Q56.2031 12.7969 56.2031 21.0938
Q56.2031 29.3438 52.1719 33.125
Q48.1406 36.9219 39.3125 36.9219
L24.7031 36.9219
z

M24.7031 42.0938
L37.1094 42.0938
Q45.125 42.0938 48.7969 45.1719
Q52.4844 48.25 52.4844 54.8906
Q52.4844 61.5781 48.7969 64.625
Q45.125 67.6719 37.1094 67.6719
L24.7031 67.6719
z

M5.51562 0
L5.51562 5.17188
L14.7969 5.17188
L14.7969 67.6719
L5.51562 67.6719
L5.51562 72.9062
L41.5 72.9062
Q52.5469 72.9062 58.125 68.3906
Q63.7188 63.875 63.7188 54.8906
Q63.7188 48.3906 59.8281 44.5312
Q55.9531 40.6719 48.4844 39.7969
Q57.7656 38.625 62.5781 33.8594
Q67.3906 29.1094 67.3906 21.0938
Q67.3906 10.25 60.5469 5.125
Q53.7188 0 39.2031 0
z
" id="DejaVuSerif-42"/>
    </defs>
    <g transform="translate(130.98575 14.4945)scale(0.096 -0.096)">
     <use xlink:href="#DejaVuSerif-4d"/>
     <use x="102.392578125" xlink:href="#DejaVuSerif-65"/>
     <use x="161.572265625" xlink:href="#DejaVuSerif-6d"/>
     <use x="256.396484375" xlink:href="#DejaVuSerif-6f"/>
     <use x="316.6015625" xlink:href="#DejaVuSerif-72"/>
     <use x="364.404296875" xlink:href="#DejaVuSerif-79"/>
     <use x="420.8984375" xlink:href="#DejaVuSerif-20"/>
     <use x="452.685546875" xlink:href="#DejaVuSerif-55"/>
     <use x="536.962890625" xlink:href="#DejaVuSerif-73"/>
     <use x="588.28125" xlink:href="#DejaVuSerif-61"/>
     <use x="647.900390625" xlink:href="#DejaVuSerif-67"/>
     <use x="711.9140625" xlink:href="#DejaVuSerif-65"/>
     <use x="771.09375" xlink:href="#DejaVuSerif-20"/>
     <use x="802.880859375" xlink:href="#DejaVuSerif-28"/>
     <use x="841.89453125" xlink:href="#DejaVuSerif-47"/>
     <use x="921.77734375" xlink:href="#DejaVuSerif-42"/>
     <use x="995.263671875" xlink:href="#DejaVuSerif-29"/>
    </g>
   </g>
  </g>
  <g id="axes_2">
   <g id="patch_11">
    <path d="
M89.9237 125.742
L270.581 125.742
L270.581 89.3345
L89.9237 89.3345
z
" style="fill:#ffffff;"/>
   </g>
   <g id="matplotlib.axis_3">
    <g id="xtick_7">
     <g id="line2d_27">
      <path clip-path="url(#p7632a8cfbe)" d="
M89.9237 125.742
L89.9237 89.3345" style="fill:none;stroke:#000000;stroke-dasharray:1.000000,3.000000;stroke-dashoffset:0.0;stroke-width:0.5;"/>
     </g>
     <g id="line2d_28">
      <g>
       <use style="stroke:#000000;stroke-width:0.5;" x="89.92375" xlink:href="#m93b0483c22" y="125.7423125"/>
      </g>
     </g>
     <g id="line2d_29">
      <g>
       <use style="stroke:#000000;stroke-width:0.5;" x="89.92375" xlink:href="#m741efc42ff" y="89.3345"/>
      </g>
     </g>
     <g id="text_10">
      <!-- 0 -->
      <g transform="translate(87.908125 135.8210625)scale(0.08 -0.08)">
       <use xlink:href="#DejaVuSerif-30"/>
      </g>
     </g>
    </g>
    <g id="xtick_8">
     <g id="line2d_30">
      <path clip-path="url(#p7632a8cfbe)" d="
M112.506 125.742
L112.506 89.3345" style="fill:none;stroke:#000000;stroke-dasharray:1.000000,3.000000;stroke-dashoffset:0.0;stroke-width:0.5;"/>
     </g>
     <g id="line2d_31">
      <g>
       <use style="stroke:#000000;stroke-width:0.5;" x="112.5059375" xlink:href="#m93b0483c22" y="125.7423125"/>
      </g>
     </g>
     <g id="line2d_32">
      <g>
       <use style="stroke:#000000;stroke-width:0.5;" x="112.5059375" xlink:href="#m741efc42ff" y="89.3345"/>
      </g>
     </g>
     <g id="text_11">
      <!-- 100 -->
      <g transform="translate(105.6246875 135.8210625)scale(0.08 -0.08)">
       <use xlink:href="#DejaVuSerif-31"/>
       <use x="63.623046875" xlink:href="#DejaVuSerif-30"/>
       <use x="127.24609375" xlink:href="#DejaVuSerif-30"/>
      </g>
     </g>
    </g>
    <g id="xtick_9">
     <g id="line2d_33">
      <path clip-path="url(#p7632a8cfbe)" d="
M135.088 125.742
L135.088 89.3345" style="fill:none;stroke:#000000;stroke-dasharray:1.000000,3.000000;stroke-dashoffset:0.0;stroke-width:0.5;"/>
     </g>
     <g id="line2d_34">
      <g>
       <use style="stroke:#000000;stroke-width:0.5;" x="135.088125" xlink:href="#m93b0483c22" y="125.7423125"/>
      </g>
     </g>
     <g id="line2d_35">
      <g>
       <use style="stroke:#000000;stroke-width:0.5;" x="135.088125" xlink:href="#m741efc42ff" y="89.3345"/>
      </g>
     </g>
     <g id="text_12">
      <!-- 200 -->
      <g transform="translate(127.99 135.8210625)scale(0.08 -0.08)">
       <use xlink:href="#DejaVuSerif-32"/>
       <use x="63.623046875" xlink:href="#DejaVuSerif-30"/>
       <use x="127.24609375" xlink:href="#DejaVuSerif-30"/>
      </g>
     </g>
    </g>
    <g id="xtick_10">
     <g id="line2d_36">
      <path clip-path="url(#p7632a8cfbe)" d="
M157.67 125.742
L157.67 89.3345" style="fill:none;stroke:#000000;stroke-dasharray:1.000000,3.000000;stroke-dashoffset:0.0;stroke-width:0.5;"/>
     </g>
     <g id="line2d_37">
      <g>
       <use style="stroke:#000000;stroke-width:0.5;" x="157.6703125" xlink:href="#m93b0483c22" y="125.7423125"/>
      </g>
     </g>
     <g id="line2d_38">
      <g>
       <use style="stroke:#000000;stroke-width:0.5;" x="157.6703125" xlink:href="#m741efc42ff" y="89.3345"/>
      </g>
     </g>
     <g id="text_13">
      <!-- 300 -->
      <defs>
       <path d="
M9.71875 69.8281
Q15.4375 71.9688 20.6719 73.0938
Q25.9219 74.2188 30.5156 74.2188
Q41.2188 74.2188 47.2188 69.5938
Q53.2188 64.9844 53.2188 56.7812
Q53.2188 50.2031 49.0625 45.7812
Q44.9219 41.3594 37.3125 39.7969
Q46.2969 38.5312 51.25 33.2812
Q56.2031 28.0312 56.2031 19.6719
Q56.2031 9.46875 49.3438 4.01562
Q42.4844 -1.42188 29.5938 -1.42188
Q23.875 -1.42188 18.4219 -0.1875
Q12.9844 1.03125 7.625 3.51562
L7.625 17.6719
L13.0938 17.6719
Q13.5781 10.6406 17.8281 7.03125
Q22.0781 3.42188 29.7812 3.42188
Q37.25 3.42188 41.5781 7.73438
Q45.9062 12.0625 45.9062 19.5781
Q45.9062 28.1719 41.4531 32.5938
Q37.0156 37.0156 28.4219 37.0156
L23.7812 37.0156
L23.7812 42
L26.2188 42
Q34.7656 42 39.0312 45.5312
Q43.3125 49.0781 43.3125 56.2031
Q43.3125 62.5938 39.7969 65.9844
Q36.2812 69.3906 29.6875 69.3906
Q23.0938 69.3906 19.4531 66.2656
Q15.8281 63.1406 15.1875 56.9844
L9.71875 56.9844
z
" id="DejaVuSerif-33"/>
      </defs>
      <g transform="translate(150.6059375 135.8210625)scale(0.08 -0.08)">
       <use xlink:href="#DejaVuSerif-33"/>
       <use x="63.623046875" xlink:href="#DejaVuSerif-30"/>
       <use x="127.24609375" xlink:href="#DejaVuSerif-30"/>
      </g>
     </g>
    </g>
    <g id="xtick_11">
     <g id="line2d_39">
      <path clip-path="url(#p7632a8cfbe)" d="
M180.252 125.742
L180.252 89.3345" style="fill:none;stroke:#000000;stroke-dasharray:1.000000,3.000000;stroke-dashoffset:0.0;stroke-width:0.5;"/>
     </g>
     <g id="line2d_40">
      <g>
       <use style="stroke:#000000;stroke-width:0.5;" x="180.2525" xlink:href="#m93b0483c22" y="125.7423125"/>
      </g>
     </g>
     <g id="line2d_41">
      <g>
       <use style="stroke:#000000;stroke-width:0.5;" x="180.2525" xlink:href="#m741efc42ff" y="89.3345"/>
      </g>
     </g>
     <g id="text_14">
      <!-- 400 -->
      <defs>
       <path d="
M34.9062 24.7031
L34.9062 63.4844
L10.0156 24.7031
z

M56.3906 0
L23.1875 0
L23.1875 5.17188
L34.9062 5.17188
L34.9062 19.4844
L3.07812 19.4844
L3.07812 24.8125
L35.0156 74.2188
L44.6719 74.2188
L44.6719 24.7031
L58.5938 24.7031
L58.5938 19.4844
L44.6719 19.4844
L44.6719 5.17188
L56.3906 5.17188
z
" id="DejaVuSerif-34"/>
      </defs>
      <g transform="translate(173.00625 135.8210625)scale(0.08 -0.08)">
       <use xlink:href="#DejaVuSerif-34"/>
       <use x="63.623046875" xlink:href="#DejaVuSerif-30"/>
       <use x="127.24609375" xlink:href="#DejaVuSerif-30"/>
      </g>
     </g>
    </g>
    <g id="xtick_12">
     <g id="line2d_42">
      <path clip-path="url(#p7632a8cfbe)" d="
M202.835 125.742
L202.835 89.3345" style="fill:none;stroke:#000000;stroke-dasharray:1.000000,3.000000;stroke-dashoffset:0.0;stroke-width:0.5;"/>
     </g>
     <g id="line2d_43">
      <g>
       <use style="stroke:#000000;stroke-width:0.5;" x="202.8346875" xlink:href="#m93b0483c22" y="125.7423125"/>
      </g>
     </g>
     <g id="line2d_44">
      <g>
       <use style="stroke:#000000;stroke-width:0.5;" x="202.8346875" xlink:href="#m741efc42ff" y="89.3345"/>
      </g>
     </g>
     <g id="text_15">
      <!-- 500 -->
      <g transform="translate(195.8053125 135.8210625)scale(0.08 -0.08)">
       <use xlink:href="#DejaVuSerif-35"/>
       <use x="63.623046875" xlink:href="#DejaVuSerif-30"/>
       <use x="127.24609375" xlink:href="#DejaVuSerif-30"/>
      </g>
     </g>
    </g>
    <g id="xtick_13">
     <g id="line2d_45">
      <path clip-path="url(#p7632a8cfbe)" d="
M225.417 125.742
L225.417 89.3345" style="fill:none;stroke:#000000;stroke-dasharray:1.000000,3.000000;stroke-dashoffset:0.0;stroke-width:0.5;"/>
     </g>
     <g id="line2d_46">
      <g>
       <use style="stroke:#000000;stroke-width:0.5;" x="225.416875" xlink:href="#m93b0483c22" y="125.7423125"/>
      </g>
     </g>
     <g id="line2d_47">
      <g>
       <use style="stroke:#000000;stroke-width:0.5;" x="225.416875" xlink:href="#m741efc42ff" y="89.3345"/>
      </g>
     </g>
     <g id="text_16">
      <!-- 600 -->
      <defs>
       <path d="
M32.7188 3.42188
Q39.5938 3.42188 43.2969 8.46875
Q47.0156 13.5312 47.0156 23
Q47.0156 32.4688 43.2969 37.5156
Q39.5938 42.5781 32.7188 42.5781
Q25.7344 42.5781 22.0625 37.6875
Q18.4062 32.8125 18.4062 23.5781
Q18.4062 13.875 22.1094 8.64062
Q25.8281 3.42188 32.7188 3.42188
M16.7969 40.1406
Q20.125 43.7969 24.3125 45.5938
Q28.5156 47.4062 33.7969 47.4062
Q44.6719 47.4062 51 40.8594
Q57.3281 34.3281 57.3281 23
Q57.3281 11.9219 50.5156 5.25
Q43.7031 -1.42188 32.3281 -1.42188
Q19.9688 -1.42188 13.3281 7.78125
Q6.6875 17 6.6875 34.0781
Q6.6875 53.2188 14.5469 63.7188
Q22.4062 74.2188 36.7188 74.2188
Q40.5781 74.2188 44.8281 73.4844
Q49.0781 72.75 53.5156 71.2969
L53.5156 59.2812
L48 59.2812
Q47.4062 64.2031 44.2344 66.7969
Q41.0625 69.3906 35.6875 69.3906
Q26.2188 69.3906 21.5781 62.2031
Q16.9375 55.0312 16.7969 40.1406" id="DejaVuSerif-36"/>
      </defs>
      <g transform="translate(218.315 135.8210625)scale(0.08 -0.08)">
       <use xlink:href="#DejaVuSerif-36"/>
       <use x="63.623046875" xlink:href="#DejaVuSerif-30"/>
       <use x="127.24609375" xlink:href="#DejaVuSerif-30"/>
      </g>
     </g>
    </g>
    <g id="xtick_14">
     <g id="line2d_48">
      <path clip-path="url(#p7632a8cfbe)" d="
M247.999 125.742
L247.999 89.3345" style="fill:none;stroke:#000000;stroke-dasharray:1.000000,3.000000;stroke-dashoffset:0.0;stroke-width:0.5;"/>
     </g>
     <g id="line2d_49">
      <g>
       <use style="stroke:#000000;stroke-width:0.5;" x="247.9990625" xlink:href="#m93b0483c22" y="125.7423125"/>
      </g>
     </g>
     <g id="line2d_50">
      <g>
       <use style="stroke:#000000;stroke-width:0.5;" x="247.9990625" xlink:href="#m741efc42ff" y="89.3345"/>
      </g>
     </g>
     <g id="text_17">
      <!-- 700 -->
      <defs>
       <path d="
M56.3906 67.9219
L27.875 0
L20.6094 0
L47.7969 64.8906
L14.1094 64.8906
L14.1094 55.9062
L8.40625 55.9062
L8.40625 72.9062
L56.3906 72.9062
z
" id="DejaVuSerif-37"/>
      </defs>
      <g transform="translate(240.9659375 135.8210625)scale(0.08 -0.08)">
       <use xlink:href="#DejaVuSerif-37"/>
       <use x="63.623046875" xlink:href="#DejaVuSerif-30"/>
       <use x="127.24609375" xlink:href="#DejaVuSerif-30"/>
      </g>
     </g>
    </g>
    <g id="xtick_15">
     <g id="line2d_51">
      <path clip-path="url(#p7632a8cfbe)" d="
M270.581 125.742
L270.581 89.3345" style="fill:none;stroke:#000000;stroke-dasharray:1.000000,3.000000;stroke-dashoffset:0.0;stroke-width:0.5;"/>
     </g>
     <g id="line2d_52">
      <g>
       <use style="stroke:#000000;stroke-width:0.5;" x="270.58125" xlink:href="#m93b0483c22" y="125.7423125"/>
      </g>
     </g>
     <g id="line2d_53">
      <g>
       <use style="stroke:#000000;stroke-width:0.5;" x="270.58125" xlink:href="#m741efc42ff" y="89.3345"/>
      </g>
     </g>
     <g id="text_18">
      <!-- 800 -->
      <defs>
       <path d="
M46.5781 19.9219
Q46.5781 27.7344 42.6875 32.0469
Q38.8125 36.375 31.7812 36.375
Q24.75 36.375 20.875 32.0469
Q17 27.7344 17 19.9219
Q17 12.0625 20.875 7.73438
Q24.75 3.42188 31.7812 3.42188
Q38.8125 3.42188 42.6875 7.73438
Q46.5781 12.0625 46.5781 19.9219
M44.5781 55.3281
Q44.5781 61.9688 41.2031 65.6719
Q37.8438 69.3906 31.7812 69.3906
Q25.7812 69.3906 22.3906 65.6719
Q19 61.9688 19 55.3281
Q19 48.6406 22.3906 44.9219
Q25.7812 41.2188 31.7812 41.2188
Q37.8438 41.2188 41.2031 44.9219
Q44.5781 48.6406 44.5781 55.3281
M39.3125 38.8125
Q47.6094 37.7031 52.25 32.6875
Q56.8906 27.6875 56.8906 19.9219
Q56.8906 9.67188 50.3906 4.125
Q43.8906 -1.42188 31.7812 -1.42188
Q19.7344 -1.42188 13.2031 4.125
Q6.6875 9.67188 6.6875 19.9219
Q6.6875 27.6875 11.3281 32.6875
Q15.9688 37.7031 24.3125 38.8125
Q16.9375 40.1406 13 44.4062
Q9.07812 48.6875 9.07812 55.3281
Q9.07812 64.1094 15.125 69.1562
Q21.1875 74.2188 31.7812 74.2188
Q42.3906 74.2188 48.4375 69.1562
Q54.5 64.1094 54.5 55.3281
Q54.5 48.6875 50.5625 44.4062
Q46.625 40.1406 39.3125 38.8125" id="DejaVuSerif-38"/>
      </defs>
      <g transform="translate(263.479375 135.8210625)scale(0.08 -0.08)">
       <use xlink:href="#DejaVuSerif-38"/>
       <use x="63.623046875" xlink:href="#DejaVuSerif-30"/>
       <use x="127.24609375" xlink:href="#DejaVuSerif-30"/>
      </g>
     </g>
    </g>
   </g>
   <g id="matplotlib.axis_4">
    <g id="ytick_3">
     <g id="line2d_54">
      <g>
       <use style="stroke:#000000;stroke-width:0.5;" x="89.92375" xlink:href="#m728421d6d4" y="116.640359375"/>
      </g>
     </g>
     <g id="line2d_55">
      <g>
       <use style="stroke:#000000;stroke-width:0.5;" x="270.58125" xlink:href="#mcb0005524f" y="116.640359375"/>
      </g>
     </g>
     <g id="text_19">
      <!-- CFP -->
      <g transform="translate(69.6025 118.847859375)scale(0.08 -0.08)">
       <use xlink:href="#DejaVuSerif-43"/>
       <use x="76.513671875" xlink:href="#DejaVuSerif-46"/>
       <use x="145.8984375" xlink:href="#DejaVuSerif-50"/>
      </g>
     </g>
    </g>
    <g id="ytick_4">
     <g id="line2d_56">
      <g>
       <use style="stroke:#000000;stroke-width:0.5;" x="89.92375" xlink:href="#m728421d6d4" y="98.436453125"/>
      </g>
     </g>
     <g id="line2d_57">
      <g>
       <use style="stroke:#000000;stroke-width:0.5;" x="270.58125" xlink:href="#mcb0005524f" y="98.436453125"/>
      </g>
     </g>
     <g id="text_20">
      <!-- CoalitionAssistance -->
      <g transform="translate(7.2 100.643953125)scale(0.08 -0.08)">
       <use xlink:href="#DejaVuSerif-43"/>
       <use x="76.513671875" xlink:href="#DejaVuSerif-6f"/>
       <use x="136.71875" xlink:href="#DejaVuSerif-61"/>
       <use x="196.337890625" xlink:href="#DejaVuSerif-6c"/>
       <use x="228.3203125" xlink:href="#DejaVuSerif-69"/>
       <use x="260.302734375" xlink:href="#DejaVuSerif-74"/>
       <use x="300.48828125" xlink:href="#DejaVuSerif-69"/>
       <use x="332.470703125" xlink:href="#DejaVuSerif-6f"/>
       <use x="392.67578125" xlink:href="#DejaVuSerif-6e"/>
       <use x="457.080078125" xlink:href="#DejaVuSerif-41"/>
       <use x="529.296875" xlink:href="#DejaVuSerif-73"/>
       <use x="580.615234375" xlink:href="#DejaVuSerif-73"/>
       <use x="631.93359375" xlink:href="#DejaVuSerif-69"/>
       <use x="663.916015625" xlink:href="#DejaVuSerif-73"/>
       <use x="715.234375" xlink:href="#DejaVuSerif-74"/>
       <use x="755.419921875" xlink:href="#DejaVuSerif-61"/>
       <use x="815.0390625" xlink:href="#DejaVuSerif-6e"/>
       <use x="879.443359375" xlink:href="#DejaVuSerif-63"/>
       <use x="935.44921875" xlink:href="#DejaVuSerif-65"/>
      </g>
     </g>
    </g>
   </g>
   <g id="patch_12">
    <path clip-path="url(#p7632a8cfbe)" d="
M89.9237 122.102
L144.465 122.102
L144.465 116.64
L89.9237 116.64
z
" style="fill:#0000ff;stroke:#000000;"/>
   </g>
   <g id="patch_13">
    <path clip-path="url(#p7632a8cfbe)" d="
M89.9237 103.898
L214.375 103.898
L214.375 98.4365
L89.9237 98.4365
z
" style="fill:#0000ff;stroke:#000000;"/>
   </g>
   <g id="patch_14">
    <path clip-path="url(#p7632a8cfbe)" d="
M89.9237 116.64
L223.886 116.64
L223.886 111.179
L89.9237 111.179
z
" style="fill:#008000;stroke:#000000;"/>
   </g>
   <g id="patch_15">
    <path clip-path="url(#p7632a8cfbe)" d="
M89.9237 98.4365
L198.405 98.4365
L198.405 92.9753
L89.9237 92.9753
z
" style="fill:#008000;stroke:#000000;"/>
   </g>
   <g id="LineCollection_3">
    <defs>
     <path d="
M130.927 -184.859
L158.003 -184.859" id="C2_0_ae48a607d8"/>
     <path d="
M185.522 -203.063
L243.227 -203.063" id="C2_1_d47967846a"/>
    </defs>
    <g clip-path="url(#p7632a8cfbe)">
     <use style="fill:none;stroke:#000000;" x="0.0" xlink:href="#C2_0_ae48a607d8" y="304.230125"/>
    </g>
    <g clip-path="url(#p7632a8cfbe)">
     <use style="fill:none;stroke:#000000;" x="0.0" xlink:href="#C2_1_d47967846a" y="304.230125"/>
    </g>
   </g>
   <g id="LineCollection_4">
    <defs>
     <path d="
M185.392 -190.32
L262.381 -190.32" id="C3_0_fafc286621"/>
     <path d="
M161.39 -208.524
L235.421 -208.524" id="C3_1_b3b5b849f1"/>
    </defs>
    <g clip-path="url(#p7632a8cfbe)">
     <use style="fill:none;stroke:#000000;" x="0.0" xlink:href="#C3_0_fafc286621" y="304.230125"/>
    </g>
    <g clip-path="url(#p7632a8cfbe)">
     <use style="fill:none;stroke:#000000;" x="0.0" xlink:href="#C3_1_b3b5b849f1" y="304.230125"/>
    </g>
   </g>
   <g id="line2d_58">
    <g clip-path="url(#p7632a8cfbe)">
     <use style="stroke:#000000;stroke-width:0.5;" x="130.926863385" xlink:href="#mca62528ba1" y="119.370945312"/>
     <use style="stroke:#000000;stroke-width:0.5;" x="185.52208217" xlink:href="#mca62528ba1" y="101.167039062"/>
    </g>
   </g>
   <g id="line2d_59">
    <g clip-path="url(#p7632a8cfbe)">
     <use style="stroke:#000000;stroke-width:0.5;" x="158.002866871" xlink:href="#mca62528ba1" y="119.370945312"/>
     <use style="stroke:#000000;stroke-width:0.5;" x="243.227446516" xlink:href="#mca62528ba1" y="101.167039062"/>
    </g>
   </g>
   <g id="line2d_60">
    <g clip-path="url(#p7632a8cfbe)">
     <use style="stroke:#000000;stroke-width:0.5;" x="185.391589276" xlink:href="#mca62528ba1" y="113.909773437"/>
     <use style="stroke:#000000;stroke-width:0.5;" x="161.389607879" xlink:href="#mca62528ba1" y="95.7058671875"/>
    </g>
   </g>
   <g id="line2d_61">
    <g clip-path="url(#p7632a8cfbe)">
     <use style="stroke:#000000;stroke-width:0.5;" x="262.381019752" xlink:href="#mca62528ba1" y="113.909773437"/>
     <use style="stroke:#000000;stroke-width:0.5;" x="235.420601255" xlink:href="#mca62528ba1" y="95.7058671875"/>
    </g>
   </g>
   <g id="patch_16">
    <path d="
M89.9237 89.3345
L270.581 89.3345" style="fill:none;stroke:#000000;"/>
   </g>
   <g id="patch_17">
    <path d="
M270.581 125.742
L270.581 89.3345" style="fill:none;stroke:#000000;"/>
   </g>
   <g id="patch_18">
    <path d="
M89.9237 125.742
L270.581 125.742" style="fill:none;stroke:#000000;"/>
   </g>
   <g id="patch_19">
    <path d="
M89.9237 125.742
L89.9237 89.3345" style="fill:none;stroke:#000000;"/>
   </g>
   <g id="text_21">
    <!-- Processing Time (s) -->
    <defs>
     <path d="
M19.0938 0
L19.0938 5.17188
L28.4219 5.17188
L28.4219 67.0938
L6.98438 67.0938
L6.98438 55.7188
L0.984375 55.7188
L0.984375 72.9062
L65.7188 72.9062
L65.7188 55.7188
L59.7188 55.7188
L59.7188 67.0938
L38.2812 67.0938
L38.2812 5.17188
L47.6094 5.17188
L47.6094 0
z
" id="DejaVuSerif-54"/>
    </defs>
    <g transform="translate(132.67475 84.3345)scale(0.096 -0.096)">
     <use xlink:href="#DejaVuSerif-50"/>
     <use x="67.28515625" xlink:href="#DejaVuSerif-72"/>
     <use x="115.087890625" xlink:href="#DejaVuSerif-6f"/>
     <use x="175.29296875" xlink:href="#DejaVuSerif-63"/>
     <use x="231.298828125" xlink:href="#DejaVuSerif-65"/>
     <use x="290.478515625" xlink:href="#DejaVuSerif-73"/>
     <use x="341.796875" xlink:href="#DejaVuSerif-73"/>
     <use x="393.115234375" xlink:href="#DejaVuSerif-69"/>
     <use x="425.09765625" xlink:href="#DejaVuSerif-6e"/>
     <use x="489.501953125" xlink:href="#DejaVuSerif-67"/>
     <use x="553.515625" xlink:href="#DejaVuSerif-20"/>
     <use x="585.302734375" xlink:href="#DejaVuSerif-54"/>
     <use x="652.001953125" xlink:href="#DejaVuSerif-69"/>
     <use x="683.984375" xlink:href="#DejaVuSerif-6d"/>
     <use x="778.80859375" xlink:href="#DejaVuSerif-65"/>
     <use x="837.98828125" xlink:href="#DejaVuSerif-20"/>
     <use x="869.775390625" xlink:href="#DejaVuSerif-28"/>
     <use x="908.7890625" xlink:href="#DejaVuSerif-73"/>
     <use x="960.107421875" xlink:href="#DejaVuSerif-29"/>
    </g>
   </g>
  </g>
  <g id="axes_3">
   <g id="patch_20">
    <path d="
M89.9237 195.582
L270.581 195.582
L270.581 159.175
L89.9237 159.175
z
" style="fill:#ffffff;"/>
   </g>
   <g id="matplotlib.axis_5">
    <g id="xtick_16">
     <g id="line2d_62">
      <path clip-path="url(#pa116d35c7d)" d="
M89.9237 195.582
L89.9237 159.175" style="fill:none;stroke:#000000;stroke-dasharray:1.000000,3.000000;stroke-dashoffset:0.0;stroke-width:0.5;"/>
     </g>
     <g id="line2d_63">
      <g>
       <use style="stroke:#000000;stroke-width:0.5;" x="89.92375" xlink:href="#m93b0483c22" y="195.5823125"/>
      </g>
     </g>
     <g id="line2d_64">
      <g>
       <use style="stroke:#000000;stroke-width:0.5;" x="89.92375" xlink:href="#m741efc42ff" y="159.1745"/>
      </g>
     </g>
     <g id="text_22">
      <!-- 0 -->
      <g transform="translate(87.908125 205.6610625)scale(0.08 -0.08)">
       <use xlink:href="#DejaVuSerif-30"/>
      </g>
     </g>
    </g>
    <g id="xtick_17">
     <g id="line2d_65">
      <path clip-path="url(#pa116d35c7d)" d="
M109.997 195.582
L109.997 159.175" style="fill:none;stroke:#000000;stroke-dasharray:1.000000,3.000000;stroke-dashoffset:0.0;stroke-width:0.5;"/>
     </g>
     <g id="line2d_66">
      <g>
       <use style="stroke:#000000;stroke-width:0.5;" x="109.996805556" xlink:href="#m93b0483c22" y="195.5823125"/>
      </g>
     </g>
     <g id="line2d_67">
      <g>
       <use style="stroke:#000000;stroke-width:0.5;" x="109.996805556" xlink:href="#m741efc42ff" y="159.1745"/>
      </g>
     </g>
     <g id="text_23">
      <!-- 10 -->
      <g transform="translate(105.660555556 205.6610625)scale(0.08 -0.08)">
       <use xlink:href="#DejaVuSerif-31"/>
       <use x="63.623046875" xlink:href="#DejaVuSerif-30"/>
      </g>
     </g>
    </g>
    <g id="xtick_18">
     <g id="line2d_68">
      <path clip-path="url(#pa116d35c7d)" d="
M130.07 195.582
L130.07 159.175" style="fill:none;stroke:#000000;stroke-dasharray:1.000000,3.000000;stroke-dashoffset:0.0;stroke-width:0.5;"/>
     </g>
     <g id="line2d_69">
      <g>
       <use style="stroke:#000000;stroke-width:0.5;" x="130.069861111" xlink:href="#m93b0483c22" y="195.5823125"/>
      </g>
     </g>
     <g id="line2d_70">
      <g>
       <use style="stroke:#000000;stroke-width:0.5;" x="130.069861111" xlink:href="#m741efc42ff" y="159.1745"/>
      </g>
     </g>
     <g id="text_24">
      <!-- 20 -->
      <g transform="translate(125.516736111 205.6610625)scale(0.08 -0.08)">
       <use xlink:href="#DejaVuSerif-32"/>
       <use x="63.623046875" xlink:href="#DejaVuSerif-30"/>
      </g>
     </g>
    </g>
    <g id="xtick_19">
     <g id="line2d_71">
      <path clip-path="url(#pa116d35c7d)" d="
M150.143 195.582
L150.143 159.175" style="fill:none;stroke:#000000;stroke-dasharray:1.000000,3.000000;stroke-dashoffset:0.0;stroke-width:0.5;"/>
     </g>
     <g id="line2d_72">
      <g>
       <use style="stroke:#000000;stroke-width:0.5;" x="150.142916667" xlink:href="#m93b0483c22" y="195.5823125"/>
      </g>
     </g>
     <g id="line2d_73">
      <g>
       <use style="stroke:#000000;stroke-width:0.5;" x="150.142916667" xlink:href="#m741efc42ff" y="159.1745"/>
      </g>
     </g>
     <g id="text_25">
      <!-- 30 -->
      <g transform="translate(145.623541667 205.6610625)scale(0.08 -0.08)">
       <use xlink:href="#DejaVuSerif-33"/>
       <use x="63.623046875" xlink:href="#DejaVuSerif-30"/>
      </g>
     </g>
    </g>
    <g id="xtick_20">
     <g id="line2d_74">
      <path clip-path="url(#pa116d35c7d)" d="
M170.216 195.582
L170.216 159.175" style="fill:none;stroke:#000000;stroke-dasharray:1.000000,3.000000;stroke-dashoffset:0.0;stroke-width:0.5;"/>
     </g>
     <g id="line2d_75">
      <g>
       <use style="stroke:#000000;stroke-width:0.5;" x="170.215972222" xlink:href="#m93b0483c22" y="195.5823125"/>
      </g>
     </g>
     <g id="line2d_76">
      <g>
       <use style="stroke:#000000;stroke-width:0.5;" x="170.215972222" xlink:href="#m741efc42ff" y="159.1745"/>
      </g>
     </g>
     <g id="text_26">
      <!-- 40 -->
      <g transform="translate(165.514722222 205.6610625)scale(0.08 -0.08)">
       <use xlink:href="#DejaVuSerif-34"/>
       <use x="63.623046875" xlink:href="#DejaVuSerif-30"/>
      </g>
     </g>
    </g>
    <g id="xtick_21">
     <g id="line2d_77">
      <path clip-path="url(#pa116d35c7d)" d="
M190.289 195.582
L190.289 159.175" style="fill:none;stroke:#000000;stroke-dasharray:1.000000,3.000000;stroke-dashoffset:0.0;stroke-width:0.5;"/>
     </g>
     <g id="line2d_78">
      <g>
       <use style="stroke:#000000;stroke-width:0.5;" x="190.289027778" xlink:href="#m93b0483c22" y="195.5823125"/>
      </g>
     </g>
     <g id="line2d_79">
      <g>
       <use style="stroke:#000000;stroke-width:0.5;" x="190.289027778" xlink:href="#m741efc42ff" y="159.1745"/>
      </g>
     </g>
     <g id="text_27">
      <!-- 50 -->
      <g transform="translate(185.804652778 205.6610625)scale(0.08 -0.08)">
       <use xlink:href="#DejaVuSerif-35"/>
       <use x="63.623046875" xlink:href="#DejaVuSerif-30"/>
      </g>
     </g>
    </g>
    <g id="xtick_22">
     <g id="line2d_80">
      <path clip-path="url(#pa116d35c7d)" d="
M210.362 195.582
L210.362 159.175" style="fill:none;stroke:#000000;stroke-dasharray:1.000000,3.000000;stroke-dashoffset:0.0;stroke-width:0.5;"/>
     </g>
     <g id="line2d_81">
      <g>
       <use style="stroke:#000000;stroke-width:0.5;" x="210.362083333" xlink:href="#m93b0483c22" y="195.5823125"/>
      </g>
     </g>
     <g id="line2d_82">
      <g>
       <use style="stroke:#000000;stroke-width:0.5;" x="210.362083333" xlink:href="#m741efc42ff" y="159.1745"/>
      </g>
     </g>
     <g id="text_28">
      <!-- 60 -->
      <g transform="translate(205.805208333 205.6610625)scale(0.08 -0.08)">
       <use xlink:href="#DejaVuSerif-36"/>
       <use x="63.623046875" xlink:href="#DejaVuSerif-30"/>
      </g>
     </g>
    </g>
    <g id="xtick_23">
     <g id="line2d_83">
      <path clip-path="url(#pa116d35c7d)" d="
M230.435 195.582
L230.435 159.175" style="fill:none;stroke:#000000;stroke-dasharray:1.000000,3.000000;stroke-dashoffset:0.0;stroke-width:0.5;"/>
     </g>
     <g id="line2d_84">
      <g>
       <use style="stroke:#000000;stroke-width:0.5;" x="230.435138889" xlink:href="#m93b0483c22" y="195.5823125"/>
      </g>
     </g>
     <g id="line2d_85">
      <g>
       <use style="stroke:#000000;stroke-width:0.5;" x="230.435138889" xlink:href="#m741efc42ff" y="159.1745"/>
      </g>
     </g>
     <g id="text_29">
      <!-- 70 -->
      <g transform="translate(225.947013889 205.6610625)scale(0.08 -0.08)">
       <use xlink:href="#DejaVuSerif-37"/>
       <use x="63.623046875" xlink:href="#DejaVuSerif-30"/>
      </g>
     </g>
    </g>
    <g id="xtick_24">
     <g id="line2d_86">
      <path clip-path="url(#pa116d35c7d)" d="
M250.508 195.582
L250.508 159.175" style="fill:none;stroke:#000000;stroke-dasharray:1.000000,3.000000;stroke-dashoffset:0.0;stroke-width:0.5;"/>
     </g>
     <g id="line2d_87">
      <g>
       <use style="stroke:#000000;stroke-width:0.5;" x="250.508194444" xlink:href="#m93b0483c22" y="195.5823125"/>
      </g>
     </g>
     <g id="line2d_88">
      <g>
       <use style="stroke:#000000;stroke-width:0.5;" x="250.508194444" xlink:href="#m741efc42ff" y="159.1745"/>
      </g>
     </g>
     <g id="text_30">
      <!-- 80 -->
      <g transform="translate(245.951319444 205.6610625)scale(0.08 -0.08)">
       <use xlink:href="#DejaVuSerif-38"/>
       <use x="63.623046875" xlink:href="#DejaVuSerif-30"/>
      </g>
     </g>
    </g>
    <g id="xtick_25">
     <g id="line2d_89">
      <path clip-path="url(#pa116d35c7d)" d="
M270.581 195.582
L270.581 159.175" style="fill:none;stroke:#000000;stroke-dasharray:1.000000,3.000000;stroke-dashoffset:0.0;stroke-width:0.5;"/>
     </g>
     <g id="line2d_90">
      <g>
       <use style="stroke:#000000;stroke-width:0.5;" x="270.58125" xlink:href="#m93b0483c22" y="195.5823125"/>
      </g>
     </g>
     <g id="line2d_91">
      <g>
       <use style="stroke:#000000;stroke-width:0.5;" x="270.58125" xlink:href="#m741efc42ff" y="159.1745"/>
      </g>
     </g>
     <g id="text_31">
      <!-- 90 -->
      <defs>
       <path d="
M46.7812 32.6719
Q43.5 29 39.25 27.1875
Q35.0156 25.3906 29.6875 25.3906
Q18.8438 25.3906 12.5625 31.9375
Q6.29688 38.4844 6.29688 49.8125
Q6.29688 60.8906 13.1094 67.5469
Q19.9219 74.2188 31.2969 74.2188
Q43.6562 74.2188 50.2656 65.0156
Q56.8906 55.8125 56.8906 38.7188
Q56.8906 19.5781 49.0156 9.07812
Q41.1562 -1.42188 26.9062 -1.42188
Q23.0469 -1.42188 18.7969 -0.6875
Q14.5469 0.046875 10.1094 1.51562
L10.1094 13.625
L15.5781 13.625
Q16.2188 8.6875 19.3906 6.04688
Q22.5625 3.42188 27.875 3.42188
Q37.3594 3.42188 41.9844 10.5625
Q46.625 17.7188 46.7812 32.6719
M30.9062 69.3906
Q23.9688 69.3906 20.2812 64.3281
Q16.6094 59.2812 16.6094 49.8125
Q16.6094 40.3281 20.2812 35.25
Q23.9688 30.1719 30.9062 30.1719
Q37.8438 30.1719 41.5312 35.0781
Q45.2188 39.9844 45.2188 49.2188
Q45.2188 58.9375 41.5 64.1562
Q37.7969 69.3906 30.9062 69.3906" id="DejaVuSerif-39"/>
      </defs>
      <g transform="translate(266.00875 205.6610625)scale(0.08 -0.08)">
       <use xlink:href="#DejaVuSerif-39"/>
       <use x="63.623046875" xlink:href="#DejaVuSerif-30"/>
      </g>
     </g>
    </g>
   </g>
   <g id="matplotlib.axis_6">
    <g id="ytick_5">
     <g id="line2d_92">
      <g>
       <use style="stroke:#000000;stroke-width:0.5;" x="89.92375" xlink:href="#m728421d6d4" y="186.480359375"/>
      </g>
     </g>
     <g id="line2d_93">
      <g>
       <use style="stroke:#000000;stroke-width:0.5;" x="270.58125" xlink:href="#mcb0005524f" y="186.480359375"/>
      </g>
     </g>
     <g id="text_32">
      <!-- CFP -->
      <g transform="translate(69.6025 188.687859375)scale(0.08 -0.08)">
       <use xlink:href="#DejaVuSerif-43"/>
       <use x="76.513671875" xlink:href="#DejaVuSerif-46"/>
       <use x="145.8984375" xlink:href="#DejaVuSerif-50"/>
      </g>
     </g>
    </g>
    <g id="ytick_6">
     <g id="line2d_94">
      <g>
       <use style="stroke:#000000;stroke-width:0.5;" x="89.92375" xlink:href="#m728421d6d4" y="168.276453125"/>
      </g>
     </g>
     <g id="line2d_95">
      <g>
       <use style="stroke:#000000;stroke-width:0.5;" x="270.58125" xlink:href="#mcb0005524f" y="168.276453125"/>
      </g>
     </g>
     <g id="text_33">
      <!-- CoalitionAssistance -->
      <g transform="translate(7.2 170.483953125)scale(0.08 -0.08)">
       <use xlink:href="#DejaVuSerif-43"/>
       <use x="76.513671875" xlink:href="#DejaVuSerif-6f"/>
       <use x="136.71875" xlink:href="#DejaVuSerif-61"/>
       <use x="196.337890625" xlink:href="#DejaVuSerif-6c"/>
       <use x="228.3203125" xlink:href="#DejaVuSerif-69"/>
       <use x="260.302734375" xlink:href="#DejaVuSerif-74"/>
       <use x="300.48828125" xlink:href="#DejaVuSerif-69"/>
       <use x="332.470703125" xlink:href="#DejaVuSerif-6f"/>
       <use x="392.67578125" xlink:href="#DejaVuSerif-6e"/>
       <use x="457.080078125" xlink:href="#DejaVuSerif-41"/>
       <use x="529.296875" xlink:href="#DejaVuSerif-73"/>
       <use x="580.615234375" xlink:href="#DejaVuSerif-73"/>
       <use x="631.93359375" xlink:href="#DejaVuSerif-69"/>
       <use x="663.916015625" xlink:href="#DejaVuSerif-73"/>
       <use x="715.234375" xlink:href="#DejaVuSerif-74"/>
       <use x="755.419921875" xlink:href="#DejaVuSerif-61"/>
       <use x="815.0390625" xlink:href="#DejaVuSerif-6e"/>
       <use x="879.443359375" xlink:href="#DejaVuSerif-63"/>
       <use x="935.44921875" xlink:href="#DejaVuSerif-65"/>
      </g>
     </g>
    </g>
   </g>
   <g id="patch_21">
    <path clip-path="url(#pa116d35c7d)" d="
M89.9237 191.942
L248.136 191.942
L248.136 186.48
L89.9237 186.48
z
" style="fill:#0000ff;stroke:#000000;"/>
   </g>
   <g id="patch_22">
    <path clip-path="url(#pa116d35c7d)" d="
M89.9237 173.738
L235.119 173.738
L235.119 168.276
L89.9237 168.276
z
" style="fill:#0000ff;stroke:#000000;"/>
   </g>
   <g id="patch_23">
    <path clip-path="url(#pa116d35c7d)" d="
M89.9237 186.48
L258.463 186.48
L258.463 181.019
L89.9237 181.019
z
" style="fill:#008000;stroke:#000000;"/>
   </g>
   <g id="patch_24">
    <path clip-path="url(#pa116d35c7d)" d="
M89.9237 168.276
L241.167 168.276
L241.167 162.815
L89.9237 162.815
z
" style="fill:#008000;stroke:#000000;"/>
   </g>
   <g id="LineCollection_5">
    <defs>
     <path d="
M240.982 -115.019
L255.29 -115.019" id="C4_0_fd669eef2c"/>
     <path d="
M227.241 -133.223
L242.997 -133.223" id="C4_1_3127fc18ca"/>
    </defs>
    <g clip-path="url(#pa116d35c7d)">
     <use style="fill:none;stroke:#000000;" x="0.0" xlink:href="#C4_0_fd669eef2c" y="304.230125"/>
    </g>
    <g clip-path="url(#pa116d35c7d)">
     <use style="fill:none;stroke:#000000;" x="0.0" xlink:href="#C4_1_3127fc18ca" y="304.230125"/>
    </g>
   </g>
   <g id="LineCollection_6">
    <defs>
     <path d="
M250.686 -120.48
L266.241 -120.48" id="C5_0_ef82cb6e11"/>
     <path d="
M234.582 -138.684
L247.751 -138.684" id="C5_1_144f663cbd"/>
    </defs>
    <g clip-path="url(#pa116d35c7d)">
     <use style="fill:none;stroke:#000000;" x="0.0" xlink:href="#C5_0_ef82cb6e11" y="304.230125"/>
    </g>
    <g clip-path="url(#pa116d35c7d)">
     <use style="fill:none;stroke:#000000;" x="0.0" xlink:href="#C5_1_144f663cbd" y="304.230125"/>
    </g>
   </g>
   <g id="line2d_96">
    <g clip-path="url(#pa116d35c7d)">
     <use style="stroke:#000000;stroke-width:0.5;" x="240.981562801" xlink:href="#mca62528ba1" y="189.210945313"/>
     <use style="stroke:#000000;stroke-width:0.5;" x="227.240948776" xlink:href="#mca62528ba1" y="171.007039063"/>
    </g>
   </g>
   <g id="line2d_97">
    <g clip-path="url(#pa116d35c7d)">
     <use style="stroke:#000000;stroke-width:0.5;" x="255.290285684" xlink:href="#mca62528ba1" y="189.210945313"/>
     <use style="stroke:#000000;stroke-width:0.5;" x="242.996754927" xlink:href="#mca62528ba1" y="171.007039063"/>
    </g>
   </g>
   <g id="line2d_98">
    <g clip-path="url(#pa116d35c7d)">
     <use style="stroke:#000000;stroke-width:0.5;" x="250.685503071" xlink:href="#mca62528ba1" y="183.749773438"/>
     <use style="stroke:#000000;stroke-width:0.5;" x="234.582105729" xlink:href="#mca62528ba1" y="165.545867188"/>
    </g>
   </g>
   <g id="line2d_99">
    <g clip-path="url(#pa116d35c7d)">
     <use style="stroke:#000000;stroke-width:0.5;" x="266.240640962" xlink:href="#mca62528ba1" y="183.749773438"/>
     <use style="stroke:#000000;stroke-width:0.5;" x="247.750900682" xlink:href="#mca62528ba1" y="165.545867188"/>
    </g>
   </g>
   <g id="patch_25">
    <path d="
M89.9237 159.175
L270.581 159.175" style="fill:none;stroke:#000000;"/>
   </g>
   <g id="patch_26">
    <path d="
M270.581 195.582
L270.581 159.175" style="fill:none;stroke:#000000;"/>
   </g>
   <g id="patch_27">
    <path d="
M89.9237 195.582
L270.581 195.582" style="fill:none;stroke:#000000;"/>
   </g>
   <g id="patch_28">
    <path d="
M89.9237 195.582
L89.9237 159.175" style="fill:none;stroke:#000000;"/>
   </g>
   <g id="text_34">
    <!-- Plan Actions -->
    <g transform="translate(150.19175 154.1745)scale(0.096 -0.096)">
     <use xlink:href="#DejaVuSerif-50"/>
     <use x="67.28515625" xlink:href="#DejaVuSerif-6c"/>
     <use x="99.267578125" xlink:href="#DejaVuSerif-61"/>
     <use x="158.88671875" xlink:href="#DejaVuSerif-6e"/>
     <use x="223.291015625" xlink:href="#DejaVuSerif-20"/>
     <use x="255.078125" xlink:href="#DejaVuSerif-41"/>
     <use x="327.294921875" xlink:href="#DejaVuSerif-63"/>
     <use x="383.30078125" xlink:href="#DejaVuSerif-74"/>
     <use x="423.486328125" xlink:href="#DejaVuSerif-69"/>
     <use x="455.46875" xlink:href="#DejaVuSerif-6f"/>
     <use x="515.673828125" xlink:href="#DejaVuSerif-6e"/>
     <use x="580.078125" xlink:href="#DejaVuSerif-73"/>
    </g>
   </g>
  </g>
  <g id="axes_4">
   <g id="patch_29">
    <path d="
M89.9237 265.422
L270.581 265.422
L270.581 229.015
L89.9237 229.015
z
" style="fill:#ffffff;"/>
   </g>
   <g id="matplotlib.axis_7">
    <g id="xtick_26">
     <g id="line2d_100">
      <path clip-path="url(#pea2f10970c)" d="
M89.9237 265.422
L89.9237 229.015" style="fill:none;stroke:#000000;stroke-dasharray:1.000000,3.000000;stroke-dashoffset:0.0;stroke-width:0.5;"/>
     </g>
     <g id="line2d_101">
      <g>
       <use style="stroke:#000000;stroke-width:0.5;" x="89.92375" xlink:href="#m93b0483c22" y="265.4223125"/>
      </g>
     </g>
     <g id="line2d_102">
      <g>
       <use style="stroke:#000000;stroke-width:0.5;" x="89.92375" xlink:href="#m741efc42ff" y="229.0145"/>
      </g>
     </g>
     <g id="text_35">
      <!-- 0 -->
      <g transform="translate(87.908125 275.5010625)scale(0.08 -0.08)">
       <use xlink:href="#DejaVuSerif-30"/>
      </g>
     </g>
    </g>
    <g id="xtick_27">
     <g id="line2d_103">
      <path clip-path="url(#pea2f10970c)" d="
M115.732 265.422
L115.732 229.015" style="fill:none;stroke:#000000;stroke-dasharray:1.000000,3.000000;stroke-dashoffset:0.0;stroke-width:0.5;"/>
     </g>
     <g id="line2d_104">
      <g>
       <use style="stroke:#000000;stroke-width:0.5;" x="115.731964286" xlink:href="#m93b0483c22" y="265.4223125"/>
      </g>
     </g>
     <g id="line2d_105">
      <g>
       <use style="stroke:#000000;stroke-width:0.5;" x="115.731964286" xlink:href="#m741efc42ff" y="229.0145"/>
      </g>
     </g>
     <g id="text_36">
      <!-- 10 -->
      <g transform="translate(111.395714286 275.5010625)scale(0.08 -0.08)">
       <use xlink:href="#DejaVuSerif-31"/>
       <use x="63.623046875" xlink:href="#DejaVuSerif-30"/>
      </g>
     </g>
    </g>
    <g id="xtick_28">
     <g id="line2d_106">
      <path clip-path="url(#pea2f10970c)" d="
M141.54 265.422
L141.54 229.015" style="fill:none;stroke:#000000;stroke-dasharray:1.000000,3.000000;stroke-dashoffset:0.0;stroke-width:0.5;"/>
     </g>
     <g id="line2d_107">
      <g>
       <use style="stroke:#000000;stroke-width:0.5;" x="141.540178571" xlink:href="#m93b0483c22" y="265.4223125"/>
      </g>
     </g>
     <g id="line2d_108">
      <g>
       <use style="stroke:#000000;stroke-width:0.5;" x="141.540178571" xlink:href="#m741efc42ff" y="229.0145"/>
      </g>
     </g>
     <g id="text_37">
      <!-- 20 -->
      <g transform="translate(136.987053571 275.5010625)scale(0.08 -0.08)">
       <use xlink:href="#DejaVuSerif-32"/>
       <use x="63.623046875" xlink:href="#DejaVuSerif-30"/>
      </g>
     </g>
    </g>
    <g id="xtick_29">
     <g id="line2d_109">
      <path clip-path="url(#pea2f10970c)" d="
M167.348 265.422
L167.348 229.015" style="fill:none;stroke:#000000;stroke-dasharray:1.000000,3.000000;stroke-dashoffset:0.0;stroke-width:0.5;"/>
     </g>
     <g id="line2d_110">
      <g>
       <use style="stroke:#000000;stroke-width:0.5;" x="167.348392857" xlink:href="#m93b0483c22" y="265.4223125"/>
      </g>
     </g>
     <g id="line2d_111">
      <g>
       <use style="stroke:#000000;stroke-width:0.5;" x="167.348392857" xlink:href="#m741efc42ff" y="229.0145"/>
      </g>
     </g>
     <g id="text_38">
      <!-- 30 -->
      <g transform="translate(162.829017857 275.5010625)scale(0.08 -0.08)">
       <use xlink:href="#DejaVuSerif-33"/>
       <use x="63.623046875" xlink:href="#DejaVuSerif-30"/>
      </g>
     </g>
    </g>
    <g id="xtick_30">
     <g id="line2d_112">
      <path clip-path="url(#pea2f10970c)" d="
M193.157 265.422
L193.157 229.015" style="fill:none;stroke:#000000;stroke-dasharray:1.000000,3.000000;stroke-dashoffset:0.0;stroke-width:0.5;"/>
     </g>
     <g id="line2d_113">
      <g>
       <use style="stroke:#000000;stroke-width:0.5;" x="193.156607143" xlink:href="#m93b0483c22" y="265.4223125"/>
      </g>
     </g>
     <g id="line2d_114">
      <g>
       <use style="stroke:#000000;stroke-width:0.5;" x="193.156607143" xlink:href="#m741efc42ff" y="229.0145"/>
      </g>
     </g>
     <g id="text_39">
      <!-- 40 -->
      <g transform="translate(188.455357143 275.5010625)scale(0.08 -0.08)">
       <use xlink:href="#DejaVuSerif-34"/>
       <use x="63.623046875" xlink:href="#DejaVuSerif-30"/>
      </g>
     </g>
    </g>
    <g id="xtick_31">
     <g id="line2d_115">
      <path clip-path="url(#pea2f10970c)" d="
M218.965 265.422
L218.965 229.015" style="fill:none;stroke:#000000;stroke-dasharray:1.000000,3.000000;stroke-dashoffset:0.0;stroke-width:0.5;"/>
     </g>
     <g id="line2d_116">
      <g>
       <use style="stroke:#000000;stroke-width:0.5;" x="218.964821429" xlink:href="#m93b0483c22" y="265.4223125"/>
      </g>
     </g>
     <g id="line2d_117">
      <g>
       <use style="stroke:#000000;stroke-width:0.5;" x="218.964821429" xlink:href="#m741efc42ff" y="229.0145"/>
      </g>
     </g>
     <g id="text_40">
      <!-- 50 -->
      <g transform="translate(214.480446429 275.5010625)scale(0.08 -0.08)">
       <use xlink:href="#DejaVuSerif-35"/>
       <use x="63.623046875" xlink:href="#DejaVuSerif-30"/>
      </g>
     </g>
    </g>
    <g id="xtick_32">
     <g id="line2d_118">
      <path clip-path="url(#pea2f10970c)" d="
M244.773 265.422
L244.773 229.015" style="fill:none;stroke:#000000;stroke-dasharray:1.000000,3.000000;stroke-dashoffset:0.0;stroke-width:0.5;"/>
     </g>
     <g id="line2d_119">
      <g>
       <use style="stroke:#000000;stroke-width:0.5;" x="244.773035714" xlink:href="#m93b0483c22" y="265.4223125"/>
      </g>
     </g>
     <g id="line2d_120">
      <g>
       <use style="stroke:#000000;stroke-width:0.5;" x="244.773035714" xlink:href="#m741efc42ff" y="229.0145"/>
      </g>
     </g>
     <g id="text_41">
      <!-- 60 -->
      <g transform="translate(240.216160714 275.5010625)scale(0.08 -0.08)">
       <use xlink:href="#DejaVuSerif-36"/>
       <use x="63.623046875" xlink:href="#DejaVuSerif-30"/>
      </g>
     </g>
    </g>
    <g id="xtick_33">
     <g id="line2d_121">
      <path clip-path="url(#pea2f10970c)" d="
M270.581 265.422
L270.581 229.015" style="fill:none;stroke:#000000;stroke-dasharray:1.000000,3.000000;stroke-dashoffset:0.0;stroke-width:0.5;"/>
     </g>
     <g id="line2d_122">
      <g>
       <use style="stroke:#000000;stroke-width:0.5;" x="270.58125" xlink:href="#m93b0483c22" y="265.4223125"/>
      </g>
     </g>
     <g id="line2d_123">
      <g>
       <use style="stroke:#000000;stroke-width:0.5;" x="270.58125" xlink:href="#m741efc42ff" y="229.0145"/>
      </g>
     </g>
     <g id="text_42">
      <!-- 70 -->
      <g transform="translate(266.093125 275.5010625)scale(0.08 -0.08)">
       <use xlink:href="#DejaVuSerif-37"/>
       <use x="63.623046875" xlink:href="#DejaVuSerif-30"/>
      </g>
     </g>
    </g>
   </g>
   <g id="matplotlib.axis_8">
    <g id="ytick_7">
     <g id="line2d_124">
      <g>
       <use style="stroke:#000000;stroke-width:0.5;" x="89.92375" xlink:href="#m728421d6d4" y="256.320359375"/>
      </g>
     </g>
     <g id="line2d_125">
      <g>
       <use style="stroke:#000000;stroke-width:0.5;" x="270.58125" xlink:href="#mcb0005524f" y="256.320359375"/>
      </g>
     </g>
     <g id="text_43">
      <!-- CFP -->
      <g transform="translate(69.6025 258.527859375)scale(0.08 -0.08)">
       <use xlink:href="#DejaVuSerif-43"/>
       <use x="76.513671875" xlink:href="#DejaVuSerif-46"/>
       <use x="145.8984375" xlink:href="#DejaVuSerif-50"/>
      </g>
     </g>
    </g>
    <g id="ytick_8">
     <g id="line2d_126">
      <g>
       <use style="stroke:#000000;stroke-width:0.5;" x="89.92375" xlink:href="#m728421d6d4" y="238.116453125"/>
      </g>
     </g>
     <g id="line2d_127">
      <g>
       <use style="stroke:#000000;stroke-width:0.5;" x="270.58125" xlink:href="#mcb0005524f" y="238.116453125"/>
      </g>
     </g>
     <g id="text_44">
      <!-- CoalitionAssistance -->
      <g transform="translate(7.2 240.323953125)scale(0.08 -0.08)">
       <use xlink:href="#DejaVuSerif-43"/>
       <use x="76.513671875" xlink:href="#DejaVuSerif-6f"/>
       <use x="136.71875" xlink:href="#DejaVuSerif-61"/>
       <use x="196.337890625" xlink:href="#DejaVuSerif-6c"/>
       <use x="228.3203125" xlink:href="#DejaVuSerif-69"/>
       <use x="260.302734375" xlink:href="#DejaVuSerif-74"/>
       <use x="300.48828125" xlink:href="#DejaVuSerif-69"/>
       <use x="332.470703125" xlink:href="#DejaVuSerif-6f"/>
       <use x="392.67578125" xlink:href="#DejaVuSerif-6e"/>
       <use x="457.080078125" xlink:href="#DejaVuSerif-41"/>
       <use x="529.296875" xlink:href="#DejaVuSerif-73"/>
       <use x="580.615234375" xlink:href="#DejaVuSerif-73"/>
       <use x="631.93359375" xlink:href="#DejaVuSerif-69"/>
       <use x="663.916015625" xlink:href="#DejaVuSerif-73"/>
       <use x="715.234375" xlink:href="#DejaVuSerif-74"/>
       <use x="755.419921875" xlink:href="#DejaVuSerif-61"/>
       <use x="815.0390625" xlink:href="#DejaVuSerif-6e"/>
       <use x="879.443359375" xlink:href="#DejaVuSerif-63"/>
       <use x="935.44921875" xlink:href="#DejaVuSerif-65"/>
      </g>
     </g>
    </g>
   </g>
   <g id="patch_30">
    <path clip-path="url(#pea2f10970c)" d="
M89.9237 261.782
L257.078 261.782
L257.078 256.32
L89.9237 256.32
z
" style="fill:#0000ff;stroke:#000000;"/>
   </g>
   <g id="patch_31">
    <path clip-path="url(#pea2f10970c)" d="
M89.9237 243.578
L235.596 243.578
L235.596 238.116
L89.9237 238.116
z
" style="fill:#0000ff;stroke:#000000;"/>
   </g>
   <g id="patch_32">
    <path clip-path="url(#pea2f10970c)" d="
M89.9237 256.32
L233.557 256.32
L233.557 250.859
L89.9237 250.859
z
" style="fill:#008000;stroke:#000000;"/>
   </g>
   <g id="patch_33">
    <path clip-path="url(#pea2f10970c)" d="
M89.9237 238.116
L213.836 238.116
L213.836 232.655
L89.9237 232.655
z
" style="fill:#008000;stroke:#000000;"/>
   </g>
   <g id="LineCollection_7">
    <defs>
     <path d="
M246.87 -45.1792
L267.286 -45.1792" id="C6_0_26c161cde9"/>
     <path d="
M225.72 -63.3831
L245.472 -63.3831" id="C6_1_4e785a694d"/>
    </defs>
    <g clip-path="url(#pea2f10970c)">
     <use style="fill:none;stroke:#000000;" x="0.0" xlink:href="#C6_0_26c161cde9" y="304.230125"/>
    </g>
    <g clip-path="url(#pea2f10970c)">
     <use style="fill:none;stroke:#000000;" x="0.0" xlink:href="#C6_1_4e785a694d" y="304.230125"/>
    </g>
   </g>
   <g id="LineCollection_8">
    <defs>
     <path d="
M225.289 -50.6404
L241.825 -50.6404" id="C7_0_b3fc0c1ca2"/>
     <path d="
M209.295 -68.8443
L218.377 -68.8443" id="C7_1_bc89350bc0"/>
    </defs>
    <g clip-path="url(#pea2f10970c)">
     <use style="fill:none;stroke:#000000;" x="0.0" xlink:href="#C7_0_b3fc0c1ca2" y="304.230125"/>
    </g>
    <g clip-path="url(#pea2f10970c)">
     <use style="fill:none;stroke:#000000;" x="0.0" xlink:href="#C7_1_bc89350bc0" y="304.230125"/>
    </g>
   </g>
   <g id="line2d_128">
    <g clip-path="url(#pea2f10970c)">
     <use style="stroke:#000000;stroke-width:0.5;" x="246.869699303" xlink:href="#mca62528ba1" y="259.050945313"/>
     <use style="stroke:#000000;stroke-width:0.5;" x="225.720152765" xlink:href="#mca62528ba1" y="240.847039063"/>
    </g>
   </g>
   <g id="line2d_129">
    <g clip-path="url(#pea2f10970c)">
     <use style="stroke:#000000;stroke-width:0.5;" x="267.286264098" xlink:href="#mca62528ba1" y="259.050945313"/>
     <use style="stroke:#000000;stroke-width:0.5;" x="245.472307812" xlink:href="#mca62528ba1" y="240.847039063"/>
    </g>
   </g>
   <g id="line2d_130">
    <g clip-path="url(#pea2f10970c)">
     <use style="stroke:#000000;stroke-width:0.5;" x="225.288648814" xlink:href="#mca62528ba1" y="253.589773438"/>
     <use style="stroke:#000000;stroke-width:0.5;" x="209.294557349" xlink:href="#mca62528ba1" y="235.385867188"/>
    </g>
   </g>
   <g id="line2d_131">
    <g clip-path="url(#pea2f10970c)">
     <use style="stroke:#000000;stroke-width:0.5;" x="241.824540414" xlink:href="#mca62528ba1" y="253.589773438"/>
     <use style="stroke:#000000;stroke-width:0.5;" x="218.377312954" xlink:href="#mca62528ba1" y="235.385867188"/>
    </g>
   </g>
   <g id="patch_34">
    <path d="
M89.9237 229.015
L270.581 229.015" style="fill:none;stroke:#000000;"/>
   </g>
   <g id="patch_35">
    <path d="
M270.581 265.422
L270.581 229.015" style="fill:none;stroke:#000000;"/>
   </g>
   <g id="patch_36">
    <path d="
M89.9237 265.422
L270.581 265.422" style="fill:none;stroke:#000000;"/>
   </g>
   <g id="patch_37">
    <path d="
M89.9237 265.422
L89.9237 229.015" style="fill:none;stroke:#000000;"/>
   </g>
   <g id="text_45">
    <!-- Plan Length - Makespan (s) -->
    <defs>
     <path d="
M28.6094 0
L3.42188 0
L3.42188 5.17188
L11.5312 5.17188
L11.5312 70.7969
L2.875 70.7969
L2.875 75.9844
L20.5156 75.9844
L20.5156 26.5156
L42.3906 46.6875
L34.9062 46.6875
L34.9062 51.9062
L58.4062 51.9062
L58.4062 46.6875
L49.5156 46.6875
L34.0781 32.4219
L53.8125 5.17188
L61.2812 5.17188
L61.2812 0
L35.6875 0
L35.6875 5.17188
L43.1094 5.17188
L27.5938 26.5156
L20.5156 19.9219
L20.5156 5.17188
L28.6094 5.17188
z
" id="DejaVuSerif-6b"/>
     <path d="
M5.51562 0
L5.51562 5.17188
L14.7969 5.17188
L14.7969 67.6719
L5.51562 67.6719
L5.51562 72.9062
L33.9844 72.9062
L33.9844 67.6719
L24.7031 67.6719
L24.7031 6
L58.0156 6
L58.0156 18.2188
L64.0156 18.2188
L64.0156 0
z
" id="DejaVuSerif-4c"/>
     <path d="
M4.10938 0
L4.10938 5.17188
L12.2031 5.17188
L12.2031 70.7969
L3.60938 70.7969
L3.60938 75.9844
L21.1875 75.9844
L21.1875 42.6719
Q23.6875 47.9531 27.6562 50.6406
Q31.6406 53.3281 36.9219 53.3281
Q45.5156 53.3281 49.5625 48.3906
Q53.6094 43.4531 53.6094 33.0156
L53.6094 5.17188
L61.625 5.17188
L61.625 0
L36.8125 0
L36.8125 5.17188
L44.5781 5.17188
L44.5781 30.1719
Q44.5781 39.7031 42.25 43.1875
Q39.9375 46.6875 33.9844 46.6875
Q27.7344 46.6875 24.4531 42.1406
Q21.1875 37.5938 21.1875 28.9062
L21.1875 5.17188
L29 5.17188
L29 0
z
" id="DejaVuSerif-68"/>
     <path d="
M20.5156 28.5156
L20.5156 23.3906
Q20.5156 14.0156 24.0938 9.10938
Q27.6875 4.20312 34.5156 4.20312
Q41.4062 4.20312 44.9375 9.71875
Q48.4844 15.2344 48.4844 25.9844
Q48.4844 36.7656 44.9375 42.2344
Q41.4062 47.7031 34.5156 47.7031
Q27.6875 47.7031 24.0938 42.7656
Q20.5156 37.8438 20.5156 28.5156
M11.5312 46.6875
L2.875 46.6875
L2.875 51.9062
L20.5156 51.9062
L20.5156 43.7969
Q23.1406 48.6875 27.2188 51
Q31.2969 53.3281 37.3125 53.3281
Q46.875 53.3281 52.9219 45.75
Q58.9844 38.1875 58.9844 25.9844
Q58.9844 13.7656 52.9219 6.17188
Q46.875 -1.42188 37.3125 -1.42188
Q31.2969 -1.42188 27.2188 0.890625
Q23.1406 3.21875 20.5156 8.10938
L20.5156 -15.5781
L29 -15.5781
L29 -20.7969
L2.875 -20.7969
L2.875 -15.5781
L11.5312 -15.5781
z
" id="DejaVuSerif-70"/>
     <path d="
M4.39062 30.6094
L29.3906 30.6094
L29.3906 23
L4.39062 23
z
" id="DejaVuSerif-2d"/>
    </defs>
    <g transform="translate(113.75225 224.0145)scale(0.096 -0.096)">
     <use xlink:href="#DejaVuSerif-50"/>
     <use x="67.28515625" xlink:href="#DejaVuSerif-6c"/>
     <use x="99.267578125" xlink:href="#DejaVuSerif-61"/>
     <use x="158.88671875" xlink:href="#DejaVuSerif-6e"/>
     <use x="223.291015625" xlink:href="#DejaVuSerif-20"/>
     <use x="255.078125" xlink:href="#DejaVuSerif-4c"/>
     <use x="321.484375" xlink:href="#DejaVuSerif-65"/>
     <use x="380.6640625" xlink:href="#DejaVuSerif-6e"/>
     <use x="445.068359375" xlink:href="#DejaVuSerif-67"/>
     <use x="509.08203125" xlink:href="#DejaVuSerif-74"/>
     <use x="549.267578125" xlink:href="#DejaVuSerif-68"/>
     <use x="613.671875" xlink:href="#DejaVuSerif-20"/>
     <use x="645.458984375" xlink:href="#DejaVuSerif-2d"/>
     <use x="679.248046875" xlink:href="#DejaVuSerif-20"/>
     <use x="711.03515625" xlink:href="#DejaVuSerif-4d"/>
     <use x="813.427734375" xlink:href="#DejaVuSerif-61"/>
     <use x="873.046875" xlink:href="#DejaVuSerif-6b"/>
     <use x="933.642578125" xlink:href="#DejaVuSerif-65"/>
     <use x="992.822265625" xlink:href="#DejaVuSerif-73"/>
     <use x="1044.140625" xlink:href="#DejaVuSerif-70"/>
     <use x="1108.15429688" xlink:href="#DejaVuSerif-61"/>
     <use x="1167.7734375" xlink:href="#DejaVuSerif-6e"/>
     <use x="1232.17773438" xlink:href="#DejaVuSerif-20"/>
     <use x="1263.96484375" xlink:href="#DejaVuSerif-28"/>
     <use x="1302.97851562" xlink:href="#DejaVuSerif-73"/>
     <use x="1354.296875" xlink:href="#DejaVuSerif-29"/>
    </g>
   </g>
   <g id="legend_1">
    <g id="patch_38">
     <path d="
M110.67 297.03
L249.835 297.03
L249.835 280.059
L110.67 280.059
L110.67 297.03
z
" style="fill:#ffffff;stroke:#000000;"/>
    </g>
    <g id="patch_39">
     <path d="
M114.51 291.194
L133.71 291.194
L133.71 284.474
L114.51 284.474
z
" style="fill:#0000ff;stroke:#000000;"/>
    </g>
    <g id="text_46">
     <!-- COLIN2 -->
     <defs>
      <path d="
M41.0156 3.8125
Q52.9844 3.8125 59.0781 12.0312
Q65.1875 20.2656 65.1875 36.375
Q65.1875 52.5469 59.0781 60.7656
Q52.9844 69 41.0156 69
Q29 69 22.8906 60.7656
Q16.7969 52.5469 16.7969 36.375
Q16.7969 20.2656 22.8906 12.0312
Q29 3.8125 41.0156 3.8125
M41.0156 -1.42188
Q33.5938 -1.42188 27.3594 1.01562
Q21.1406 3.46875 16.4062 8.20312
Q10.9375 13.6719 8.26562 20.6094
Q5.60938 27.5469 5.60938 36.375
Q5.60938 45.2188 8.26562 52.1719
Q10.9375 59.125 16.4062 64.5938
Q21.1875 69.3906 27.3438 71.7969
Q33.5 74.2188 41.0156 74.2188
Q56.8906 74.2188 66.6562 63.8125
Q76.4219 53.4219 76.4219 36.375
Q76.4219 27.6406 73.7344 20.625
Q71.0469 13.625 65.5781 8.20312
Q60.7969 3.42188 54.6406 1
Q48.4844 -1.42188 41.0156 -1.42188" id="DejaVuSerif-4f"/>
      <path d="
M4.89062 0
L4.89062 5.17188
L14.7031 5.17188
L14.7031 67.6719
L4.89062 67.6719
L4.89062 72.9062
L23.5781 72.9062
L67.2812 15.375
L67.2812 67.6719
L57.5156 67.6719
L57.5156 72.9062
L83.1094 72.9062
L83.1094 67.6719
L73.2969 67.6719
L73.2969 -1.42188
L67.3906 -1.42188
L20.7031 60.0156
L20.7031 5.17188
L30.5156 5.17188
L30.5156 0
z
" id="DejaVuSerif-4e"/>
      <path d="
M24.7031 5.17188
L33.9844 5.17188
L33.9844 0
L5.51562 0
L5.51562 5.17188
L14.7969 5.17188
L14.7969 67.6719
L5.51562 67.6719
L5.51562 72.9062
L33.9844 72.9062
L33.9844 67.6719
L24.7031 67.6719
z
" id="DejaVuSerif-49"/>
     </defs>
     <g transform="translate(141.38975 291.193625)scale(0.096 -0.096)">
      <use xlink:href="#DejaVuSerif-43"/>
      <use x="76.513671875" xlink:href="#DejaVuSerif-4f"/>
      <use x="158.49609375" xlink:href="#DejaVuSerif-4c"/>
      <use x="224.90234375" xlink:href="#DejaVuSerif-49"/>
      <use x="264.404296875" xlink:href="#DejaVuSerif-4e"/>
      <use x="351.904296875" xlink:href="#DejaVuSerif-32"/>
     </g>
    </g>
    <g id="patch_40">
     <path d="
M199 291.194
L218.2 291.194
L218.2 284.474
L199 284.474
z
" style="fill:#008000;stroke:#000000;"/>
    </g>
    <g id="text_47">
     <!-- TFD -->
     <defs>
      <path d="
M24.7031 5.17188
L33.7969 5.17188
Q48 5.17188 55.5938 13.2812
Q63.1875 21.3906 63.1875 36.5312
Q63.1875 51.6562 55.6094 59.6562
Q48.0469 67.6719 33.7969 67.6719
L24.7031 67.6719
z

M5.51562 0
L5.51562 5.17188
L14.7969 5.17188
L14.7969 67.6719
L5.51562 67.6719
L5.51562 72.9062
L34.5156 72.9062
Q53.375 72.9062 63.8906 63.2812
Q74.4219 53.6562 74.4219 36.5312
Q74.4219 19.3438 63.875 9.67188
Q53.3281 0 34.5156 0
z
" id="DejaVuSerif-44"/>
     </defs>
     <g transform="translate(225.88025 291.193625)scale(0.096 -0.096)">
      <use xlink:href="#DejaVuSerif-54"/>
      <use x="66.69921875" xlink:href="#DejaVuSerif-46"/>
      <use x="136.083984375" xlink:href="#DejaVuSerif-44"/>
     </g>
    </g>
   </g>
  </g>
 </g>
 <defs>
  <clipPath id="pd182c93594">
   <rect height="36.4078125" width="180.6575" x="89.92375" y="19.4945"/>
  </clipPath>
  <clipPath id="pea2f10970c">
   <rect height="36.4078125" width="180.6575" x="89.92375" y="229.0145"/>
  </clipPath>
  <clipPath id="p7632a8cfbe">
   <rect height="36.4078125" width="180.6575" x="89.92375" y="89.3345"/>
  </clipPath>
  <clipPath id="pa116d35c7d">
   <rect height="36.4078125" width="180.6575" x="89.92375" y="159.1745"/>
  </clipPath>
 </defs>
</svg>
