<?xml version="1.0" encoding="UTF-8" standalone="no"?>
<!DOCTYPE svg PUBLIC "-//W3C//DTD SVG 1.1//EN"
 "http://www.w3.org/Graphics/SVG/1.1/DTD/svg11.dtd">
<!-- Generated by graphviz version 2.28.0 (20170704.0136)
 -->
<!-- Title: _anonymous_0 Pages: 1 -->
<svg width="549pt" height="398pt"
 viewBox="0.00 0.00 549.44 397.88" xmlns="http://www.w3.org/2000/svg" xmlns:xlink="http://www.w3.org/1999/xlink">
<g id="graph1" class="graph" transform="scale(1 1) rotate(0) translate(4 393.884)">
<title>_anonymous_0</title>
<polygon fill="white" stroke="white" points="-4,5 -4,-393.884 546.44,-393.884 546.44,5 -4,5"/>
<!-- wpt_08 -->
<g id="node1" class="node"><title>wpt_08</title>
<ellipse fill="none" stroke="black" cx="271.902" cy="-66.3258" rx="39.9593" ry="40.1111"/>
<text text-anchor="middle" x="271.902" y="-62.6258" font-family="Times,serif" font-size="14.00">wpt_08</text>
</g>
<!-- wpt_11 -->
<g id="node11" class="node"><title>wpt_11</title>
<ellipse fill="none" stroke="black" cx="392.003" cy="-40.3051" rx="39.9593" ry="40.1111"/>
<text text-anchor="middle" x="392.003" y="-36.6051" font-family="Times,serif" font-size="14.00">wpt_11</text>
</g>
<!-- wpt_08&#45;&#45;wpt_11 -->
<g id="edge8" class="edge"><title>wpt_08&#45;&#45;wpt_11</title>
<path fill="none" stroke="black" d="M311.56,-57.7335C324.679,-54.8913 339.27,-51.7299 352.386,-48.8883"/>
</g>
<!-- wpt_09 -->
<g id="node2" class="node"><title>wpt_09</title>
<ellipse fill="none" stroke="black" cx="501.287" cy="-251.479" rx="39.9593" ry="40.1111"/>
<text text-anchor="middle" x="501.287" y="-247.779" font-family="Times,serif" font-size="14.00">wpt_09</text>
</g>
<!-- wpt_10 -->
<g id="node12" class="node"><title>wpt_10</title>
<ellipse fill="none" stroke="black" cx="444.338" cy="-154.491" rx="39.9593" ry="40.1111"/>
<text text-anchor="middle" x="444.338" y="-150.791" font-family="Times,serif" font-size="14.00">wpt_10</text>
</g>
<!-- wpt_09&#45;&#45;wpt_10 -->
<g id="edge16" class="edge"><title>wpt_09&#45;&#45;wpt_10</title>
<path fill="none" stroke="black" d="M480.727,-216.464C475.566,-207.674 470.027,-198.242 464.867,-189.454"/>
</g>
<!-- wpt_00 -->
<g id="node3" class="node"><title>wpt_00</title>
<ellipse fill="none" stroke="black" cx="171.188" cy="-349.579" rx="39.9593" ry="40.1111"/>
<text text-anchor="middle" x="171.188" y="-345.879" font-family="Times,serif" font-size="14.00">wpt_00</text>
</g>
<!-- wpt_01 -->
<g id="node4" class="node"><title>wpt_01</title>
<ellipse fill="none" stroke="black" cx="55.39" cy="-291.648" rx="39.9593" ry="40.1111"/>
<text text-anchor="middle" x="55.39" y="-287.948" font-family="Times,serif" font-size="14.00">wpt_01</text>
</g>
<!-- wpt_00&#45;&#45;wpt_01 -->
<g id="edge20" class="edge"><title>wpt_00&#45;&#45;wpt_01</title>
<path fill="none" stroke="black" d="M134.867,-331.408C121.07,-324.506 105.367,-316.65 91.5827,-309.754"/>
</g>
<!-- wpt_03 -->
<g id="node6" class="node"><title>wpt_03</title>
<ellipse fill="none" stroke="black" cx="272.396" cy="-278.287" rx="39.9593" ry="40.1111"/>
<text text-anchor="middle" x="272.396" y="-274.587" font-family="Times,serif" font-size="14.00">wpt_03</text>
</g>
<!-- wpt_00&#45;&#45;wpt_03 -->
<g id="edge14" class="edge"><title>wpt_00&#45;&#45;wpt_03</title>
<path fill="none" stroke="black" d="M204.327,-326.235C215.511,-318.357 227.992,-309.565 239.182,-301.683"/>
</g>
<!-- wpt_02 -->
<g id="node5" class="node"><title>wpt_02</title>
<ellipse fill="none" stroke="black" cx="40.1525" cy="-162.12" rx="39.9593" ry="40.1111"/>
<text text-anchor="middle" x="40.1525" y="-158.42" font-family="Times,serif" font-size="14.00">wpt_02</text>
</g>
<!-- wpt_01&#45;&#45;wpt_02 -->
<g id="edge2" class="edge"><title>wpt_01&#45;&#45;wpt_02</title>
<path fill="none" stroke="black" d="M50.6523,-251.374C48.8177,-235.779 46.7217,-217.962 44.8873,-202.369"/>
</g>
<!-- wpt_05 -->
<g id="node8" class="node"><title>wpt_05</title>
<ellipse fill="none" stroke="black" cx="147.828" cy="-92.0058" rx="39.9593" ry="40.1111"/>
<text text-anchor="middle" x="147.828" y="-88.3058" font-family="Times,serif" font-size="14.00">wpt_05</text>
</g>
<!-- wpt_02&#45;&#45;wpt_05 -->
<g id="edge32" class="edge"><title>wpt_02&#45;&#45;wpt_05</title>
<path fill="none" stroke="black" d="M74.2217,-139.936C86.9138,-131.671 101.308,-122.298 113.98,-114.046"/>
</g>
<!-- wpt_04 -->
<g id="node7" class="node"><title>wpt_04</title>
<ellipse fill="none" stroke="black" cx="185.46" cy="-197.919" rx="39.9593" ry="40.1111"/>
<text text-anchor="middle" x="185.46" y="-194.219" font-family="Times,serif" font-size="14.00">wpt_04</text>
</g>
<!-- wpt_03&#45;&#45;wpt_04 -->
<g id="edge30" class="edge"><title>wpt_03&#45;&#45;wpt_04</title>
<path fill="none" stroke="black" d="M242.477,-250.629C233.637,-242.456 223.965,-233.515 215.139,-225.356"/>
</g>
<!-- wpt_06 -->
<g id="node9" class="node"><title>wpt_06</title>
<ellipse fill="none" stroke="black" cx="390.227" cy="-259.412" rx="39.9593" ry="40.1111"/>
<text text-anchor="middle" x="390.227" y="-255.712" font-family="Times,serif" font-size="14.00">wpt_06</text>
</g>
<!-- wpt_03&#45;&#45;wpt_06 -->
<g id="edge26" class="edge"><title>wpt_03&#45;&#45;wpt_06</title>
<path fill="none" stroke="black" d="M312.288,-271.897C324.573,-269.929 338.094,-267.763 350.376,-265.796"/>
</g>
<!-- wpt_07 -->
<g id="node10" class="node"><title>wpt_07</title>
<ellipse fill="none" stroke="black" cx="331.196" cy="-176.626" rx="39.9593" ry="40.1111"/>
<text text-anchor="middle" x="331.196" y="-172.926" font-family="Times,serif" font-size="14.00">wpt_07</text>
</g>
<!-- wpt_03&#45;&#45;wpt_07 -->
<g id="edge28" class="edge"><title>wpt_03&#45;&#45;wpt_07</title>
<path fill="none" stroke="black" d="M292.632,-243.301C298.545,-233.078 305.008,-221.904 310.923,-211.677"/>
</g>
<!-- wpt_04&#45;&#45;wpt_05 -->
<g id="edge10" class="edge"><title>wpt_04&#45;&#45;wpt_05</title>
<path fill="none" stroke="black" d="M171.874,-159.682C168.463,-150.083 164.804,-139.783 161.394,-130.187"/>
</g>
<!-- wpt_05&#45;&#45;wpt_08 -->
<g id="edge34" class="edge"><title>wpt_05&#45;&#45;wpt_08</title>
<path fill="none" stroke="black" d="M187.427,-83.8099C201.753,-80.8448 217.923,-77.4979 232.254,-74.532"/>
</g>
<!-- wpt_06&#45;&#45;wpt_09 -->
<g id="edge22" class="edge"><title>wpt_06&#45;&#45;wpt_09</title>
<path fill="none" stroke="black" d="M430.322,-256.548C440.263,-255.838 450.921,-255.076 460.878,-254.365"/>
</g>
<!-- wpt_06&#45;&#45;wpt_07 -->
<g id="edge24" class="edge"><title>wpt_06&#45;&#45;wpt_07</title>
<path fill="none" stroke="black" d="M366.557,-226.217C362.644,-220.729 358.588,-215.04 354.679,-209.559"/>
</g>
<!-- wpt_06&#45;&#45;wpt_10 -->
<g id="edge12" class="edge"><title>wpt_06&#45;&#45;wpt_10</title>
<path fill="none" stroke="black" d="M408.697,-223.597C414.208,-212.912 420.249,-201.198 425.767,-190.5"/>
</g>
<!-- wpt_07&#45;&#45;wpt_08 -->
<g id="edge18" class="edge"><title>wpt_07&#45;&#45;wpt_08</title>
<path fill="none" stroke="black" d="M312.109,-141.119C305.406,-128.65 297.874,-114.639 291.157,-102.144"/>
</g>
<!-- wpt_07&#45;&#45;wpt_10 -->
<g id="edge4" class="edge"><title>wpt_07&#45;&#45;wpt_10</title>
<path fill="none" stroke="black" d="M370.768,-168.884C381.728,-166.74 393.627,-164.412 404.597,-162.266"/>
</g>
<!-- wpt_10&#45;&#45;wpt_11 -->
<g id="edge6" class="edge"><title>wpt_10&#45;&#45;wpt_11</title>
<path fill="none" stroke="black" d="M427.49,-117.733C421.514,-104.694 414.792,-90.0273 408.818,-76.9939"/>
</g>
</g>
</svg>
