<?xml version="1.0" encoding="UTF-8" standalone="no"?>
<!DOCTYPE svg PUBLIC "-//W3C//DTD SVG 1.1//EN"
 "http://www.w3.org/Graphics/SVG/1.1/DTD/svg11.dtd">
<!-- Generated by graphviz version 2.28.0 (20170704.0136)
 -->
<!-- Title: _anonymous_0 Pages: 1 -->
<svg width="672pt" height="728pt"
 viewBox="0.00 0.00 672.30 728.43" xmlns="http://www.w3.org/2000/svg" xmlns:xlink="http://www.w3.org/1999/xlink">
<g id="graph1" class="graph" transform="scale(1 1) rotate(0) translate(4 724.43)">
<title>_anonymous_0</title>
<polygon fill="white" stroke="white" points="-4,5 -4,-724.43 669.297,-724.43 669.297,5 -4,5"/>
<!-- wpt_17 -->
<g id="node1" class="node"><title>wpt_17</title>
<ellipse fill="none" stroke="black" cx="236.868" cy="-118.726" rx="39.9593" ry="40.1111"/>
<text text-anchor="middle" x="236.868" y="-115.026" font-family="Times,serif" font-size="14.00">wpt_17</text>
</g>
<!-- wpt_21 -->
<g id="node9" class="node"><title>wpt_21</title>
<ellipse fill="none" stroke="black" cx="148.44" cy="-40.3051" rx="39.9593" ry="40.1111"/>
<text text-anchor="middle" x="148.44" y="-36.6051" font-family="Times,serif" font-size="14.00">wpt_21</text>
</g>
<!-- wpt_17&#45;&#45;wpt_21 -->
<g id="edge60" class="edge"><title>wpt_17&#45;&#45;wpt_21</title>
<path fill="none" stroke="black" d="M206.436,-91.7381C197.444,-83.7631 187.606,-75.0386 178.628,-67.0772"/>
</g>
<!-- wpt_18 -->
<g id="node11" class="node"><title>wpt_18</title>
<ellipse fill="none" stroke="black" cx="366.68" cy="-109.462" rx="39.9593" ry="40.1111"/>
<text text-anchor="middle" x="366.68" y="-105.762" font-family="Times,serif" font-size="14.00">wpt_18</text>
</g>
<!-- wpt_17&#45;&#45;wpt_18 -->
<g id="edge54" class="edge"><title>wpt_17&#45;&#45;wpt_18</title>
<path fill="none" stroke="black" d="M277.23,-115.846C292.86,-114.73 310.716,-113.456 326.343,-112.34"/>
</g>
<!-- wpt_16 -->
<g id="node2" class="node"><title>wpt_16</title>
<ellipse fill="none" stroke="black" cx="128.295" cy="-146.187" rx="39.9593" ry="40.1111"/>
<text text-anchor="middle" x="128.295" y="-142.487" font-family="Times,serif" font-size="14.00">wpt_16</text>
</g>
<!-- wpt_16&#45;&#45;wpt_17 -->
<g id="edge20" class="edge"><title>wpt_16&#45;&#45;wpt_17</title>
<path fill="none" stroke="black" d="M167.493,-136.273C177.333,-133.784 187.891,-131.114 197.729,-128.625"/>
</g>
<!-- wpt_16&#45;&#45;wpt_21 -->
<g id="edge36" class="edge"><title>wpt_16&#45;&#45;wpt_21</title>
<path fill="none" stroke="black" d="M135.854,-106.459C137.506,-97.7743 139.255,-88.5829 140.906,-79.9032"/>
</g>
<!-- wpt_20 -->
<g id="node12" class="node"><title>wpt_20</title>
<ellipse fill="none" stroke="black" cx="40.1525" cy="-77.2902" rx="39.9593" ry="40.1111"/>
<text text-anchor="middle" x="40.1525" y="-73.5902" font-family="Times,serif" font-size="14.00">wpt_20</text>
</g>
<!-- wpt_16&#45;&#45;wpt_20 -->
<g id="edge50" class="edge"><title>wpt_16&#45;&#45;wpt_20</title>
<path fill="none" stroke="black" d="M96.4739,-121.313C88.4854,-115.069 79.9136,-108.369 71.9275,-102.127"/>
</g>
<!-- wpt_15 -->
<g id="node3" class="node"><title>wpt_15</title>
<ellipse fill="none" stroke="black" cx="519.693" cy="-246.869" rx="39.9593" ry="40.1111"/>
<text text-anchor="middle" x="519.693" y="-243.169" font-family="Times,serif" font-size="14.00">wpt_15</text>
</g>
<!-- wpt_19 -->
<g id="node10" class="node"><title>wpt_19</title>
<ellipse fill="none" stroke="black" cx="491.53" cy="-123.766" rx="39.9593" ry="40.1111"/>
<text text-anchor="middle" x="491.53" y="-120.066" font-family="Times,serif" font-size="14.00">wpt_19</text>
</g>
<!-- wpt_15&#45;&#45;wpt_19 -->
<g id="edge22" class="edge"><title>wpt_15&#45;&#45;wpt_19</title>
<path fill="none" stroke="black" d="M510.627,-207.241C507.411,-193.183 503.794,-177.371 500.579,-163.32"/>
</g>
<!-- wpt_14 -->
<g id="node4" class="node"><title>wpt_14</title>
<ellipse fill="none" stroke="black" cx="404.13" cy="-227.009" rx="39.9593" ry="40.1111"/>
<text text-anchor="middle" x="404.13" y="-223.309" font-family="Times,serif" font-size="14.00">wpt_14</text>
</g>
<!-- wpt_14&#45;&#45;wpt_15 -->
<g id="edge16" class="edge"><title>wpt_14&#45;&#45;wpt_15</title>
<path fill="none" stroke="black" d="M443.9,-233.844C455.522,-235.841 468.223,-238.024 479.849,-240.021"/>
</g>
<!-- wpt_14&#45;&#45;wpt_18 -->
<g id="edge8" class="edge"><title>wpt_14&#45;&#45;wpt_18</title>
<path fill="none" stroke="black" d="M391.867,-188.52C387.729,-175.53 383.111,-161.034 378.97,-148.038"/>
</g>
<!-- wpt_13 -->
<g id="node5" class="node"><title>wpt_13</title>
<ellipse fill="none" stroke="black" cx="285.451" cy="-262.34" rx="39.9593" ry="40.1111"/>
<text text-anchor="middle" x="285.451" y="-258.64" font-family="Times,serif" font-size="14.00">wpt_13</text>
</g>
<!-- wpt_13&#45;&#45;wpt_14 -->
<g id="edge46" class="edge"><title>wpt_13&#45;&#45;wpt_14</title>
<path fill="none" stroke="black" d="M324.311,-250.771C337.561,-246.827 352.363,-242.42 365.588,-238.483"/>
</g>
<!-- wpt_12 -->
<g id="node6" class="node"><title>wpt_12</title>
<ellipse fill="none" stroke="black" cx="187.987" cy="-240.051" rx="39.9593" ry="40.1111"/>
<text text-anchor="middle" x="187.987" y="-236.351" font-family="Times,serif" font-size="14.00">wpt_12</text>
</g>
<!-- wpt_12&#45;&#45;wpt_17 -->
<g id="edge4" class="edge"><title>wpt_12&#45;&#45;wpt_17</title>
<path fill="none" stroke="black" d="M203.052,-202.659C208.999,-187.899 215.819,-170.972 221.769,-156.203"/>
</g>
<!-- wpt_12&#45;&#45;wpt_16 -->
<g id="edge48" class="edge"><title>wpt_12&#45;&#45;wpt_16</title>
<path fill="none" stroke="black" d="M166.268,-205.898C161.001,-197.616 155.369,-188.759 150.098,-180.471"/>
</g>
<!-- wpt_12&#45;&#45;wpt_13 -->
<g id="edge40" class="edge"><title>wpt_12&#45;&#45;wpt_13</title>
<path fill="none" stroke="black" d="M227.348,-249.052C233.582,-250.478 240.029,-251.953 246.259,-253.377"/>
</g>
<!-- wpt_11 -->
<g id="node7" class="node"><title>wpt_11</title>
<ellipse fill="none" stroke="black" cx="569.308" cy="-359.101" rx="39.9593" ry="40.1111"/>
<text text-anchor="middle" x="569.308" y="-355.401" font-family="Times,serif" font-size="14.00">wpt_11</text>
</g>
<!-- wpt_11&#45;&#45;wpt_15 -->
<g id="edge66" class="edge"><title>wpt_11&#45;&#45;wpt_15</title>
<path fill="none" stroke="black" d="M552.924,-322.041C547.505,-309.782 541.477,-296.146 536.059,-283.89"/>
</g>
<!-- wpt_10 -->
<g id="node8" class="node"><title>wpt_10</title>
<ellipse fill="none" stroke="black" cx="456.687" cy="-333.865" rx="39.9593" ry="40.1111"/>
<text text-anchor="middle" x="456.687" y="-330.165" font-family="Times,serif" font-size="14.00">wpt_10</text>
</g>
<!-- wpt_10&#45;&#45;wpt_15 -->
<g id="edge70" class="edge"><title>wpt_10&#45;&#45;wpt_15</title>
<path fill="none" stroke="black" d="M480.507,-300.975C485.595,-293.95 490.967,-286.532 496.048,-279.516"/>
</g>
<!-- wpt_10&#45;&#45;wpt_14 -->
<g id="edge38" class="edge"><title>wpt_10&#45;&#45;wpt_14</title>
<path fill="none" stroke="black" d="M438.893,-297.688C433.473,-286.669 427.514,-274.553 422.084,-263.512"/>
</g>
<!-- wpt_10&#45;&#45;wpt_11 -->
<g id="edge6" class="edge"><title>wpt_10&#45;&#45;wpt_11</title>
<path fill="none" stroke="black" d="M496.076,-342.691C506.986,-345.136 518.831,-347.79 529.75,-350.237"/>
</g>
<!-- wpt_18&#45;&#45;wpt_19 -->
<g id="edge26" class="edge"><title>wpt_18&#45;&#45;wpt_19</title>
<path fill="none" stroke="black" d="M406.871,-114.067C421.128,-115.7 437.164,-117.537 451.415,-119.17"/>
</g>
<!-- wpt_20&#45;&#45;wpt_21 -->
<g id="edge42" class="edge"><title>wpt_20&#45;&#45;wpt_21</title>
<path fill="none" stroke="black" d="M78.3306,-64.2507C88.6822,-60.7151 99.8889,-56.8875 110.242,-53.3516"/>
</g>
<!-- wpt_08 -->
<g id="node13" class="node"><title>wpt_08</title>
<ellipse fill="none" stroke="black" cx="229.53" cy="-357.746" rx="39.9593" ry="40.1111"/>
<text text-anchor="middle" x="229.53" y="-354.046" font-family="Times,serif" font-size="14.00">wpt_08</text>
</g>
<!-- wpt_08&#45;&#45;wpt_13 -->
<g id="edge14" class="edge"><title>wpt_08&#45;&#45;wpt_13</title>
<path fill="none" stroke="black" d="M250.035,-322.762C254.898,-314.466 260.085,-305.616 264.948,-297.32"/>
</g>
<!-- wpt_08&#45;&#45;wpt_12 -->
<g id="edge64" class="edge"><title>wpt_08&#45;&#45;wpt_12</title>
<path fill="none" stroke="black" d="M216.042,-319.534C211.351,-306.244 206.093,-291.346 201.407,-278.071"/>
</g>
<!-- wpt_09 -->
<g id="node14" class="node"><title>wpt_09</title>
<ellipse fill="none" stroke="black" cx="339.383" cy="-383.348" rx="39.9593" ry="40.1111"/>
<text text-anchor="middle" x="339.383" y="-379.648" font-family="Times,serif" font-size="14.00">wpt_09</text>
</g>
<!-- wpt_08&#45;&#45;wpt_09 -->
<g id="edge28" class="edge"><title>wpt_08&#45;&#45;wpt_09</title>
<path fill="none" stroke="black" d="M268.879,-366.917C278.976,-369.27 289.838,-371.801 299.939,-374.155"/>
</g>
<!-- wpt_09&#45;&#45;wpt_10 -->
<g id="edge32" class="edge"><title>wpt_09&#45;&#45;wpt_10</title>
<path fill="none" stroke="black" d="M376.821,-367.555C390.499,-361.785 405.956,-355.265 419.604,-349.508"/>
</g>
<!-- wpt_00 -->
<g id="node15" class="node"><title>wpt_00</title>
<ellipse fill="none" stroke="black" cx="277.632" cy="-593.269" rx="39.9593" ry="40.1111"/>
<text text-anchor="middle" x="277.632" y="-589.569" font-family="Times,serif" font-size="14.00">wpt_00</text>
</g>
<!-- wpt_01 -->
<g id="node16" class="node"><title>wpt_01</title>
<ellipse fill="none" stroke="black" cx="399.183" cy="-638.968" rx="39.9593" ry="40.1111"/>
<text text-anchor="middle" x="399.183" y="-635.268" font-family="Times,serif" font-size="14.00">wpt_01</text>
</g>
<!-- wpt_00&#45;&#45;wpt_01 -->
<g id="edge10" class="edge"><title>wpt_00&#45;&#45;wpt_01</title>
<path fill="none" stroke="black" d="M315.425,-607.478C330.06,-612.98 346.78,-619.266 361.413,-624.768"/>
</g>
<!-- wpt_04 -->
<g id="node19" class="node"><title>wpt_04</title>
<ellipse fill="none" stroke="black" cx="281.269" cy="-470.81" rx="39.9593" ry="40.1111"/>
<text text-anchor="middle" x="281.269" y="-467.11" font-family="Times,serif" font-size="14.00">wpt_04</text>
</g>
<!-- wpt_00&#45;&#45;wpt_04 -->
<g id="edge62" class="edge"><title>wpt_00&#45;&#45;wpt_04</title>
<path fill="none" stroke="black" d="M278.833,-552.832C279.23,-539.456 279.672,-524.578 280.069,-511.205"/>
</g>
<!-- wpt_02 -->
<g id="node17" class="node"><title>wpt_02</title>
<ellipse fill="none" stroke="black" cx="520.499" cy="-680.125" rx="39.9593" ry="40.1111"/>
<text text-anchor="middle" x="520.499" y="-676.425" font-family="Times,serif" font-size="14.00">wpt_02</text>
</g>
<!-- wpt_01&#45;&#45;wpt_02 -->
<g id="edge44" class="edge"><title>wpt_01&#45;&#45;wpt_02</title>
<path fill="none" stroke="black" d="M437.235,-651.877C451.55,-656.734 467.825,-662.255 482.165,-667.12"/>
</g>
<!-- wpt_05 -->
<g id="node20" class="node"><title>wpt_05</title>
<ellipse fill="none" stroke="black" cx="403.105" cy="-518.449" rx="39.9593" ry="40.1111"/>
<text text-anchor="middle" x="403.105" y="-514.749" font-family="Times,serif" font-size="14.00">wpt_05</text>
</g>
<!-- wpt_01&#45;&#45;wpt_05 -->
<g id="edge52" class="edge"><title>wpt_01&#45;&#45;wpt_05</title>
<path fill="none" stroke="black" d="M400.5,-598.502C400.914,-585.782 401.371,-571.74 401.785,-559.014"/>
</g>
<!-- wpt_03 -->
<g id="node18" class="node"><title>wpt_03</title>
<ellipse fill="none" stroke="black" cx="624.144" cy="-598.673" rx="39.9593" ry="40.1111"/>
<text text-anchor="middle" x="624.144" y="-594.973" font-family="Times,serif" font-size="14.00">wpt_03</text>
</g>
<!-- wpt_02&#45;&#45;wpt_03 -->
<g id="edge2" class="edge"><title>wpt_02&#45;&#45;wpt_03</title>
<path fill="none" stroke="black" d="M552.159,-655.244C564.899,-645.232 579.565,-633.707 592.321,-623.682"/>
</g>
<!-- wpt_07 -->
<g id="node22" class="node"><title>wpt_07</title>
<ellipse fill="none" stroke="black" cx="618.403" cy="-470.635" rx="39.9593" ry="40.1111"/>
<text text-anchor="middle" x="618.403" y="-466.935" font-family="Times,serif" font-size="14.00">wpt_07</text>
</g>
<!-- wpt_03&#45;&#45;wpt_07 -->
<g id="edge68" class="edge"><title>wpt_03&#45;&#45;wpt_07</title>
<path fill="none" stroke="black" d="M622.328,-558.161C621.658,-543.215 620.899,-526.284 620.228,-511.323"/>
</g>
<!-- wpt_04&#45;&#45;wpt_08 -->
<g id="edge56" class="edge"><title>wpt_04&#45;&#45;wpt_08</title>
<path fill="none" stroke="black" d="M264.471,-434.102C258.688,-421.463 252.212,-407.312 246.421,-394.658"/>
</g>
<!-- wpt_04&#45;&#45;wpt_09 -->
<g id="edge18" class="edge"><title>wpt_04&#45;&#45;wpt_09</title>
<path fill="none" stroke="black" d="M303.571,-437.245C307.988,-430.597 312.626,-423.617 317.044,-416.968"/>
</g>
<!-- wpt_04&#45;&#45;wpt_05 -->
<g id="edge34" class="edge"><title>wpt_04&#45;&#45;wpt_05</title>
<path fill="none" stroke="black" d="M318.818,-485.492C333.641,-491.288 350.639,-497.935 365.47,-503.734"/>
</g>
<!-- wpt_06 -->
<g id="node21" class="node"><title>wpt_06</title>
<ellipse fill="none" stroke="black" cx="506.308" cy="-442.494" rx="39.9593" ry="40.1111"/>
<text text-anchor="middle" x="506.308" y="-438.794" font-family="Times,serif" font-size="14.00">wpt_06</text>
</g>
<!-- wpt_05&#45;&#45;wpt_06 -->
<g id="edge58" class="edge"><title>wpt_05&#45;&#45;wpt_06</title>
<path fill="none" stroke="black" d="M435.759,-494.416C447.806,-485.55 461.453,-475.506 473.512,-466.631"/>
</g>
<!-- wpt_06&#45;&#45;wpt_11 -->
<g id="edge72" class="edge"><title>wpt_06&#45;&#45;wpt_11</title>
<path fill="none" stroke="black" d="M530.846,-410.013C535.475,-403.885 540.316,-397.477 544.94,-391.356"/>
</g>
<!-- wpt_06&#45;&#45;wpt_10 -->
<g id="edge24" class="edge"><title>wpt_06&#45;&#45;wpt_10</title>
<path fill="none" stroke="black" d="M489.508,-405.717C484.335,-394.391 478.641,-381.926 473.469,-370.604"/>
</g>
<!-- wpt_06&#45;&#45;wpt_07 -->
<g id="edge12" class="edge"><title>wpt_06&#45;&#45;wpt_07</title>
<path fill="none" stroke="black" d="M545.513,-452.336C556.499,-455.094 568.436,-458.091 579.409,-460.846"/>
</g>
<!-- wpt_07&#45;&#45;wpt_11 -->
<g id="edge30" class="edge"><title>wpt_07&#45;&#45;wpt_11</title>
<path fill="none" stroke="black" d="M602.055,-433.496C596.755,-421.456 590.879,-408.107 585.584,-396.078"/>
</g>
</g>
</svg>
