<?xml version="1.0" encoding="utf-8" standalone="no"?>
<!DOCTYPE svg PUBLIC "-//W3C//DTD SVG 1.1//EN"
  "http://www.w3.org/Graphics/SVG/1.1/DTD/svg11.dtd">
<!-- Created with matplotlib (http://matplotlib.org/) -->
<svg height="140pt" version="1.1" viewBox="0 0 430 140" width="430pt" xmlns="http://www.w3.org/2000/svg" xmlns:xlink="http://www.w3.org/1999/xlink">
 <defs>
  <style type="text/css">
*{stroke-linecap:butt;stroke-linejoin:round;}
  </style>
 </defs>
 <g id="figure_1">
  <g id="patch_1">
   <path d="
M0 140.811
L430.504 140.811
L430.504 0
L0 0
z
" style="fill:#ffffff;"/>
  </g>
  <g id="axes_1">
   <g id="patch_2">
    <path d="
M34.6133 101.117
L215.443 101.117
L215.443 8.27563
L34.6133 8.27563
z
" style="fill:#ffffff;"/>
   </g>
   <g id="line2d_1">
    <defs>
     <path d="
M1.83697e-16 -3
L-2.59808 1.5
L2.59808 1.5
z
" id="mc410542f95" style="stroke:#000000;stroke-linejoin:miter;stroke-width:0.5;"/>
    </defs>
    <g clip-path="url(#p1cc5465780)">
     <use style="fill:#ff0000;stroke:#000000;stroke-linejoin:miter;stroke-width:0.5;" x="80.8713512638" xlink:href="#mc410542f95" y="60.270016741"/>
    </g>
   </g>
   <g id="line2d_2">
    <defs>
     <path d="
M1.83697e-16 -3
L-3 -3.67394e-16
L-5.51091e-16 3
L3 7.34788e-16
z
" id="mf0561904c8" style="stroke:#000000;stroke-linejoin:miter;stroke-width:0.5;"/>
    </defs>
    <g clip-path="url(#p1cc5465780)">
     <use style="fill:#008000;stroke:#000000;stroke-linejoin:miter;stroke-width:0.5;" x="51.047812683" xlink:href="#mf0561904c8" y="93.3798089759"/>
    </g>
   </g>
   <g id="line2d_3">
    <defs>
     <path d="
M1.83697e-16 -3
L-2.85317 -0.927051
L-1.76336 2.42705
L1.76336 2.42705
L2.85317 -0.927051
z
" id="md1766d921c" style="stroke:#000000;stroke-linejoin:miter;stroke-width:0.5;"/>
    </defs>
    <g clip-path="url(#p1cc5465780)">
     <use style="fill:#0000ff;stroke:#000000;stroke-linejoin:miter;stroke-width:0.5;" x="49.6824045304" xlink:href="#md1766d921c" y="81.6026451456"/>
    </g>
   </g>
   <g id="line2d_4">
    <defs>
     <path d="
M-5.51091e-16 3
L2.59808 -1.5
L-2.59808 -1.5
z
" id="m051b0b15d7" style="stroke:#000000;stroke-linejoin:miter;stroke-width:0.5;"/>
    </defs>
    <g clip-path="url(#p1cc5465780)">
     <use style="fill:#ff8080;stroke:#000000;stroke-linejoin:miter;stroke-width:0.5;" x="99.2424634421" xlink:href="#m051b0b15d7" y="58.9207593306"/>
    </g>
   </g>
   <g id="line2d_5">
    <defs>
     <path d="
M-2.12132 -2.12132
L-2.12132 2.12132
L2.12132 2.12132
L2.12132 -2.12132
z
" id="mdd41192fad" style="stroke:#000000;stroke-linejoin:miter;stroke-width:0.5;"/>
    </defs>
    <g clip-path="url(#p1cc5465780)">
     <use style="fill:#80ff80;stroke:#000000;stroke-linejoin:miter;stroke-width:0.5;" x="129.259776457" xlink:href="#mdd41192fad" y="56.4412202023"/>
    </g>
   </g>
   <g id="line2d_6">
    <defs>
     <path d="
M-5.51091e-16 3
L2.85317 0.927051
L1.76336 -2.42705
L-1.76336 -2.42705
L-2.85317 0.927051
z
" id="m7d84e5d48f" style="stroke:#000000;stroke-linejoin:miter;stroke-width:0.5;"/>
    </defs>
    <g clip-path="url(#p1cc5465780)">
     <use style="fill:#00bfff;stroke:#000000;stroke-linejoin:miter;stroke-width:0.5;" x="63.1736664565" xlink:href="#m7d84e5d48f" y="73.3800072755"/>
    </g>
   </g>
   <g id="line2d_7">
    <defs>
     <path d="
M1.83697e-16 -3
L-2.59808 -1.5
L-2.59808 1.5
L-5.51091e-16 3
L2.59808 1.5
L2.59808 -1.5
z
" id="mb701dc2a58" style="stroke:#000000;stroke-linejoin:miter;stroke-width:0.5;"/>
    </defs>
    <g clip-path="url(#p1cc5465780)">
     <use style="fill:#800080;stroke:#000000;stroke-linejoin:miter;stroke-width:0.5;" x="200.373948667" xlink:href="#mb701dc2a58" y="16.0123710721"/>
    </g>
   </g>
   <g id="line2d_8">
    <defs>
     <path d="
M-1.5 -2.59808
L-3 -1.33227e-15
L-1.5 2.59808
L1.5 2.59808
L3 1.77636e-15
L1.5 -2.59808
z
" id="m0676c59740" style="stroke:#000000;stroke-linejoin:miter;stroke-width:0.5;"/>
    </defs>
    <g clip-path="url(#p1cc5465780)">
     <use style="fill:#ff80ff;stroke:#000000;stroke-linejoin:miter;stroke-width:0.5;" x="139.026853956" xlink:href="#m0676c59740" y="87.8792792524"/>
    </g>
   </g>
   <g id="line2d_9">
    <defs>
     <path d="
M1.83697e-16 -3
L-2.34549 -1.87047
L-2.92478 0.667563
L-1.30165 2.70291
L1.30165 2.70291
L2.92478 0.667563
L2.34549 -1.87047
z
" id="m293bd019ba" style="stroke:#000000;stroke-linejoin:miter;stroke-width:0.5;"/>
    </defs>
    <g clip-path="url(#p1cc5465780)">
     <use style="stroke:#000000;stroke-linejoin:miter;stroke-width:0.5;" x="126.661523542" xlink:href="#m293bd019ba" y="24.4794190037"/>
    </g>
   </g>
   <g id="matplotlib.axis_1">
    <g id="xtick_1">
     <g id="line2d_10">
      <defs>
       <path d="
M0 0
L0 -4" id="m93b0483c22" style="stroke:#000000;stroke-width:0.5;"/>
      </defs>
      <g>
       <use style="stroke:#000000;stroke-width:0.5;" x="72.5484549602" xlink:href="#m93b0483c22" y="101.116552766"/>
      </g>
     </g>
     <g id="line2d_11">
      <defs>
       <path d="
M0 0
L0 4" id="m741efc42ff" style="stroke:#000000;stroke-width:0.5;"/>
      </defs>
      <g>
       <use style="stroke:#000000;stroke-width:0.5;" x="72.5484549602" xlink:href="#m741efc42ff" y="8.27562728176"/>
      </g>
     </g>
     <g id="text_1">
      <!-- $65$ -->
      <defs>
       <path d="
M11.4062 57.6875
C12.4062 57.2812 16.5 56 20.7031 56
C30 56 35.0938 61.0156 38 63.9219
C38 64.7344 38 65.25 37.4062 65.25
C37.2969 65.25 37.0938 65.25 36.2969 64.8281
C32.7969 63.3125 28.7031 62.0781 23.7031 62.0781
C20.7031 62.0781 16.2031 62.5 11.2969 64.7344
C10.2031 65.25 10 65.25 9.90625 65.25
C9.40625 65.25 9.29688 65.1406 9.29688 63.1562
L9.29688 34.2812
C9.29688 32.5 9.29688 32 10.2969 32
C10.7969 32 11 32.2031 11.5 32.9062
C14.7031 37.4844 19.0938 39.4062 24.0938 39.4062
C27.5938 39.4062 35.0938 37.2188 35.0938 20.1406
C35.0938 16.9531 35.0938 11.1719 32.0938 6.57812
C29.5938 2.48438 25.7031 0.390625 21.4062 0.390625
C14.7969 0.390625 8.09375 5 6.29688 12.7188
C6.70312 12.6094 7.5 12.4219 7.90625 12.4219
C9.20312 12.4219 11.7031 13.125 11.7031 16.2188
C11.7031 18.9062 9.79688 20 7.90625 20
C5.59375 20 4.09375 18.5938 4.09375 15.7969
C4.09375 7.09375 11 -2 21.5938 -2
C31.9062 -2 41.7031 6.875 41.7031 19.75
C41.7031 31.7188 33.9062 41 24.2031 41
C19.0938 41 14.7969 39.0938 11.4062 35.4531
z
" id="CMR17-53"/>
       <path d="
M10.5938 34
C10.5938 57.6562 21.7969 63 28.2969 63
C30.4062 63 35.5 62.6406 37.5 59
C35.9062 59 32.9062 59 32.9062 55.5156
C32.9062 52.8281 35.0938 51.9219 36.5 51.9219
C37.4062 51.9219 40.0938 52.3125 40.0938 55.625
C40.0938 61.7812 35.0938 65.2969 28.2031 65.2969
C16.2969 65.2969 3.79688 52.9688 3.79688 31
C3.79688 3.95312 15.0938 -2 23.0938 -2
C32.7969 -2 42 6.67188 42 20.0469
C42 32.5156 33.9062 41.5938 23.7031 41.5938
C17.5938 41.5938 13.0938 37.6094 10.5938 30.625
z

M23.0938 0.390625
C10.7969 0.390625 10.7969 18.75 10.7969 22.4375
C10.7969 29.625 14.2031 40 23.5 40
C25.2031 40 30.0938 40 33.4062 33.125
C35.2031 29.2188 35.2031 25.1406 35.2031 20.1406
C35.2031 14.75 35.2031 10.7812 33.0938 6.78125
C30.9062 2.67188 27.7031 0.390625 23.0938 0.390625" id="CMR17-54"/>
      </defs>
      <g transform="translate(68.5772173406 110.29108747)scale(0.07 -0.07)">
       <use transform="scale(0.996264009963)" xlink:href="#CMR17-54"/>
       <use transform="translate(45.6904771171 0.0)scale(0.996264009963)" xlink:href="#CMR17-53"/>
      </g>
     </g>
    </g>
    <g id="xtick_2">
     <g id="line2d_12">
      <g>
       <use style="stroke:#000000;stroke-width:0.5;" x="112.848878409" xlink:href="#m93b0483c22" y="101.116552766"/>
      </g>
     </g>
     <g id="line2d_13">
      <g>
       <use style="stroke:#000000;stroke-width:0.5;" x="112.848878409" xlink:href="#m741efc42ff" y="8.27562728176"/>
      </g>
     </g>
     <g id="text_2">
      <!-- $70$ -->
      <defs>
       <path d="
M42 31.6406
C42 37.75 41.9062 48.125 37.7031 56.1094
C34 63.1094 28.0938 65.5938 22.9062 65.5938
C18.0938 65.5938 12 63.4062 8.20312 56.2031
C4.20312 48.7188 3.79688 39.4375 3.79688 31.6406
C3.79688 25.9531 3.90625 17.2812 7 9.67188
C11.2969 -0.609375 19 -2 22.9062 -2
C27.5 -2 34.5 -0.109375 38.5938 9.375
C41.5938 16.2812 42 24.3594 42 31.6406
M22.9062 -0.40625
C16.5 -0.40625 12.7031 5.07812 11.2969 12.6875
C10.2031 18.5625 10.2031 27.1562 10.2031 32.75
C10.2031 40.4375 10.2031 46.8281 11.5 52.9219
C13.4062 61.3906 19 64 22.9062 64
C27 64 32.2969 61.2969 34.2031 53.125
C35.5 47.4375 35.5938 40.7344 35.5938 32.75
C35.5938 26.25 35.5938 18.2656 34.4062 12.375
C32.2969 1.48438 26.4062 -0.40625 22.9062 -0.40625" id="CMR17-48"/>
       <path d="
M45.0938 61.5781
L45.0938 63.7656
L21.5938 63.7656
C9.90625 63.7656 9.70312 65.0781 9.29688 67
L7.5 67
L4.59375 48.3438
L6.40625 48.3438
C6.70312 50.2344 7.40625 55.3125 8.59375 57.2031
C9.20312 58 16.5938 58 18.2969 58
L40.2969 58
L29.2031 41.5781
C21.7969 30.5312 16.7031 15.6094 16.7031 2.57812
C16.7031 1.39062 16.7031 -2 20.2969 -2
C23.9062 -2 23.9062 1.39062 23.9062 2.67188
L23.9062 7.26562
C23.9062 23.5625 26.7031 34.3125 31.2969 41.1875
z
" id="CMR17-55"/>
      </defs>
      <g transform="translate(108.877640789 110.29108747)scale(0.07 -0.07)">
       <use transform="scale(0.996264009963)" xlink:href="#CMR17-55"/>
       <use transform="translate(45.6904771171 0.0)scale(0.996264009963)" xlink:href="#CMR17-48"/>
      </g>
     </g>
    </g>
    <g id="xtick_3">
     <g id="line2d_14">
      <g>
       <use style="stroke:#000000;stroke-width:0.5;" x="153.149301857" xlink:href="#m93b0483c22" y="101.116552766"/>
      </g>
     </g>
     <g id="line2d_15">
      <g>
       <use style="stroke:#000000;stroke-width:0.5;" x="153.149301857" xlink:href="#m741efc42ff" y="8.27562728176"/>
      </g>
     </g>
     <g id="text_3">
      <!-- $75$ -->
      <g transform="translate(149.178064238 110.29108747)scale(0.07 -0.07)">
       <use transform="scale(0.996264009963)" xlink:href="#CMR17-55"/>
       <use transform="translate(45.6904771171 0.0)scale(0.996264009963)" xlink:href="#CMR17-53"/>
      </g>
     </g>
    </g>
    <g id="xtick_4">
     <g id="line2d_16">
      <g>
       <use style="stroke:#000000;stroke-width:0.5;" x="193.449725306" xlink:href="#m93b0483c22" y="101.116552766"/>
      </g>
     </g>
     <g id="line2d_17">
      <g>
       <use style="stroke:#000000;stroke-width:0.5;" x="193.449725306" xlink:href="#m741efc42ff" y="8.27562728176"/>
      </g>
     </g>
     <g id="text_4">
      <!-- $80$ -->
      <defs>
       <path d="
M27.2031 35.375
C33.5 38.5625 39.9062 43.3281 39.9062 50.9844
C39.9062 60.0312 31.0938 65.2969 23 65.2969
C13.9062 65.2969 5.90625 58.7344 5.90625 49.6875
C5.90625 47.2031 6.5 42.9219 10.4062 39.1406
C11.4062 38.1562 15.5938 35.1719 18.2969 33.2812
C13.7969 30.9844 3.29688 25.5312 3.29688 14.5938
C3.29688 4.35938 13.0938 -2 22.7969 -2
C33.5 -2 42.5 5.65625 42.5 15.7969
C42.5 24.8438 36.4062 29.0312 32.4062 31.7031
z

M14.0938 44.125
C13.2969 44.625 9.29688 47.7031 9.29688 52.375
C9.29688 58.4375 15.5938 63 22.7969 63
C30.7031 63 36.5 57.4531 36.5 50.9844
C36.5 41.7344 26.0938 36.4688 25.5938 36.4688
C25.5 36.4688 25.4062 36.4688 24.5938 37.0781
z

M32.5 23.7344
C34 22.6406 38.7969 19.375 38.7969 13.2969
C38.7969 5.95312 31.4062 0.390625 23 0.390625
C13.9062 0.390625 7 6.84375 7 14.6875
C7 22.5469 13.0938 29.0938 20 32.1875
z
" id="CMR17-56"/>
      </defs>
      <g transform="translate(189.478487686 110.29108747)scale(0.07 -0.07)">
       <use transform="scale(0.996264009963)" xlink:href="#CMR17-56"/>
       <use transform="translate(45.6904771171 0.0)scale(0.996264009963)" xlink:href="#CMR17-48"/>
      </g>
     </g>
    </g>
    <g id="text_5">
     <!-- Makespan (s) -->
     <defs>
      <path d="
M46.5 23
C46.5938 37.8125 38.0938 48.2812 25.9062 48.2812
C13.0938 48.2812 3.5 37.25 3.5 22.3438
C3.5 8.4375 12.5938 -1 26.0938 -1
C35.5938 -1 42.4062 3.6875 46.5 13.1875
L43 15.0938
C38.9062 7.39062 34.7031 4.39062 28 4.39062
C22.9062 4.39062 19.2031 6.59375 16.5938 11
C14.7969 14 14 17.5 14.0938 23
z

M14.2031 27.2969
C14.2031 30.3438 14.5938 32.5 15.5938 35.25
C17.7031 41.1406 20.9062 44 25.7031 44
C31.7969 44 35.7969 38.7812 35.7969 30.9219
C35.7969 28.0781 34.9062 27.2969 31.7031 27.2969
z
" id="Century_Schoolbook_L_Roman-101"/>
      <path d="
M39 48
L35.5 48
L32.5938 44.4062
C29 47.2031 25.4062 48.3906 20.4062 48.3906
C11.5938 48.3906 5.79688 42.625 5.79688 33.9531
C5.79688 30.0781 7.09375 26.7812 9.29688 24.8125
C11.5938 22.7031 13.9062 21.7188 19.9062 20.3125
L25.2031 19.125
C33.0938 17.2344 35.9062 15.2344 35.9062 11.2656
C35.9062 6.57812 31.7969 3.29688 25.9062 3.29688
C17.5 3.29688 11.5 8.76562 9.09375 18.875
L5.09375 18.875
L5.09375 0
L8.59375 0
L12.0938 3.90625
C16.2031 0.59375 20.7969 -1 25.7969 -1
C35.5938 -1 42.0938 5.07812 42.0938 14.3438
C42.0938 18.7188 40.7031 22.0938 37.9062 24.3906
C35.5 26.4844 33.5 27.2812 27.4062 28.5625
L22.4062 29.6719
C16.9062 30.8594 16.9062 30.8594 15.0938 31.8594
C12.9062 32.8594 11.5938 34.9375 11.5938 37.1406
C11.5938 41.1094 15.4062 44 20.9062 44
C24.7031 44 27.7969 42.7031 30.5938 40.0156
C32.7969 37.8125 33.9062 35.8281 35.5 31.2344
L39 31.2344
z
" id="Century_Schoolbook_L_Roman-115"/>
      <path d="
M20.0938 46
L2.79688 46
L2.79688 41.2188
L6.40625 41.2188
C10.0938 41.2188 10.7031 40.5156 10.7031 36.2188
L10.7031 -7.75
L10.7031 -11.7188
C10.7031 -15.7188 9.59375 -16.4062 3.20312 -16.4062
L2.79688 -16.4062
L2.79688 -20
L28.7969 -20
L28.7969 -16.4062
L27.7031 -16.4062
C21.2031 -16.4062 20.0938 -15.7188 20.0938 -11.7344
L20.0938 -7.75
L20.0938 6.6875
C23.4062 0.90625 27.2031 -1.39062 33.2969 -1.39062
C44.9062 -1.39062 53.5 9.26562 53.5 23.5
C53.5 37.2656 44.9062 48 33.9062 48
C27.7031 48 23.5938 45.4375 20.0938 39.5156
z

M32.0938 42.6094
C39 42.6094 43 35.75 43 24.0938
C43 11.2656 38.9062 4 31.7969 4
C24.7031 4 20 11.375 20 22.8125
C20 35.1406 24.5 42.6094 32.0938 42.6094" id="Century_Schoolbook_L_Roman-112"/>
      <path d="
M28.7031 72
L2.90625 72
L2.90625 67.3125
L4.79688 67.3125
C12.9062 67.3125 13.7969 66.8125 13.7969 62.5938
L13.7969 59.7031
L13.7969 21.3906
C13.7969 7.78125 11.7969 4.89062 2.20312 4.89062
L2.20312 0
L30.7031 0
L30.7031 4.89062
C21.2031 4.89062 19.2031 7.78125 19.2031 21.4062
L19.2031 65.625
L43 0
L47 0
L69.2969 65.625
L69.2969 12.4531
L69.2969 9.5625
C69.2969 5.29688 68.4062 4.89062 60.2969 4.89062
L58.5 4.89062
L58.5 0
L91.2969 0
L91.2969 4.89062
L89.5 4.89062
C81.4062 4.89062 80.5 5.29688 80.5 9.5625
L80.5 12.4531
L80.5 59.75
L80.5 62.625
C80.5 66.8125 81.4062 67.3125 89.5 67.3125
L91.2969 67.3125
L91.2969 72
L66.2031 72
L47.9062 18.8438
z
" id="Century_Schoolbook_L_Roman-77"/>
      <path d="
M19.9062 24.2031
L19.9062 73
L1.40625 73
L1.40625 68.2188
L6.20312 68.2188
C9.90625 68.2188 10.5 67.5156 10.5 63.2188
L10.5 12.2812
L10.5 8.28125
C10.5 4.29688 9.40625 3.59375 3 3.59375
L2.59375 3.59375
L2.59375 0
L27.9062 0
L27.9062 3.59375
L27.5 3.59375
C21 3.59375 19.9062 4.29688 19.9062 8.29688
L19.9062 12.2969
L19.9062 18
L26 23.7969
L37.9062 7.10938
C38.2969 6.39062 38.5938 5.78125 38.5938 5.29688
C38.5938 4 37.5 3.59375 34.2031 3.59375
L32.2969 3.59375
L32.2969 0
L58.7031 0
L58.7031 3.59375
C53.0938 4.09375 51.0938 5.29688 47 10.5
L32.7969 29.8906
L37.2969 34.2969
C43.0938 40 47.4062 42.2031 54.2031 43
L54.2031 46.5938
L27.9062 46.5938
L27.9062 43
L31 43
C34.2031 43 35.7031 42.3906 35.7031 41.0938
C35.7031 40 35 38.7969 33.4062 37.1875
z
" id="Century_Schoolbook_L_Roman-107"/>
      <path d="
M20 46
L2.70312 46
L2.70312 41.2188
L6.29688 41.2188
C10 41.2188 10.5938 40.5156 10.5938 36.2031
L10.5938 12.2969
L10.5938 8.29688
C10.5938 4.29688 9.5 3.59375 3.09375 3.59375
L2.70312 3.59375
L2.70312 0
L28 0
L28 3.59375
L27.5938 3.59375
C21.0938 3.59375 20 4.29688 20 8.28125
L20 12.2812
L20 22.6562
C20 27.5469 20.7031 32.0312 21.7969 34.3281
C23.9062 38.8281 28.4062 41.9219 32.7031 41.9219
C35.2969 41.9219 38.2969 40.4219 39.7969 38.4219
C41.2969 36.3281 42 33.2344 42 28.4375
L42 12.2812
L42 8.28125
C42 4.29688 40.9062 3.59375 34.4062 3.59375
L34 3.59375
L34 0
L59.2969 0
L59.2969 3.59375
L58.9062 3.59375
C52.5 3.59375 51.4062 4.29688 51.4062 8.28125
L51.4062 12.2812
L51.4062 27.9531
C51.4062 35.125 51.0938 36.9219 49.2969 40.3281
C46.7969 45.1094 41.7031 48 35.7969 48
C29.4062 48 24.4062 45.0469 20 38.5156
z
" id="Century_Schoolbook_L_Roman-110"/>
      <path d="
M45.2031 32.5781
C45.2031 38.7969 44.0938 41.9688 41.2031 44.3438
C37.9062 46.9062 33 48.2812 26.5938 48.2812
C15.4062 48.2812 7.09375 43.0469 7.09375 35.9219
C7.09375 32.1562 9.40625 29.7812 12.9062 29.7812
C16 29.7812 18.2969 31.8594 18.2969 34.8125
C18.2969 36.1094 17.7969 37.4844 16.7969 38.875
C16.2031 39.5469 16.0938 39.8438 16.0938 40.1562
C16.0938 42.2188 20.2031 44 25 44
C28.0938 44 31.5938 43.0156 33.2031 41.5312
C35.0938 39.9531 35.7969 37.5781 35.7969 33.125
L35.7969 29.2812
C25.2969 27.4844 22.0938 26.6875 17.2031 24.8125
C8.59375 21.6094 4.40625 16.9375 4.40625 10.6562
C4.40625 3.57812 10.0938 -1 18.9062 -1
C25.7969 -1 32 1.85938 36.2969 7.0625
C37.9062 1.98438 40.4062 0 45.0938 0
C49.5938 0 54.2969 2.90625 54.2969 5.78125
C54.2969 6.46875 53.7969 6.96875 53.2969 6.96875
C52.9062 6.96875 52.5 6.875 51.7969 6.57812
C50.2031 6 49.7969 5.89062 49 5.89062
C46.2031 5.89062 45.2031 7.78125 45.2031 12.7188
z

M35.7969 20.4688
C35.7969 14.4688 35.5 13.0781 33.7969 10.4844
C31.2969 6.78125 26.7031 4.29688 22.4062 4.29688
C17.9062 4.29688 14.5 7.59375 14.5 12.0781
C14.5 16.2656 16.5938 19.2656 21 21.3594
C24.0938 22.75 28 23.75 35.7969 25.0469
z
" id="Century_Schoolbook_L_Roman-97"/>
      <path d="
M5.40625 -12.2812
C11.4062 -8.57812 14.5938 -5.98438 18 -1.89062
C25.5938 6.98438 29.7031 18.5625 29.7031 30.6406
C29.7031 42.0156 26.0938 52.7031 19.4062 61.4844
C15.5938 66.375 12.2031 69.3594 5.40625 73.4531
L5.40625 69.7656
C15.4062 60.9844 19.4062 49.7969 19.4062 30.6406
C19.4062 11.375 15.4062 0.203125 5.40625 -8.57812
z
" id="Century_Schoolbook_L_Roman-41"/>
      <path d="
M27.9062 73.4531
C21.9062 69.7656 18.7031 67.1719 15.2969 63.1719
C7.70312 54.1875 3.59375 42.7188 3.59375 30.6406
C3.59375 19.2656 7.20312 8.57812 13.9062 -0.296875
C17.7031 -5.09375 21.0938 -8.07812 27.9062 -12.2812
L27.9062 -8.57812
C17.9062 0.203125 13.9062 11.4844 13.9062 30.6406
C13.9062 49.7969 17.9062 60.9844 27.9062 69.7656
z
" id="Century_Schoolbook_L_Roman-40"/>
     </defs>
     <g transform="translate(103.395576619 121.790624728)scale(0.07 -0.07)">
      <use transform="scale(0.996264009963)" xlink:href="#Century_Schoolbook_L_Roman-77"/>
      <use transform="translate(94.0467691956 0.0)scale(0.996264009963)" xlink:href="#Century_Schoolbook_L_Roman-97"/>
      <use transform="translate(149.438446159 0.0)scale(0.996264009963)" xlink:href="#Century_Schoolbook_L_Roman-107"/>
      <use transform="translate(208.516175305 0.0)scale(0.996264009963)" xlink:href="#Century_Schoolbook_L_Roman-101"/>
      <use transform="translate(258.329375803 0.0)scale(0.996264009963)" xlink:href="#Century_Schoolbook_L_Roman-115"/>
      <use transform="translate(304.455186362 0.0)scale(0.996264009963)" xlink:href="#Century_Schoolbook_L_Roman-112"/>
      <use transform="translate(361.640673646 0.0)scale(0.996264009963)" xlink:href="#Century_Schoolbook_L_Roman-97"/>
      <use transform="translate(417.032350609 0.0)scale(0.996264009963)" xlink:href="#Century_Schoolbook_L_Roman-110"/>
      <use transform="translate(505.599150889 0.0)scale(0.996264009963)" xlink:href="#Century_Schoolbook_L_Roman-40"/>
      <use transform="translate(538.774380619 0.0)scale(0.996264009963)" xlink:href="#Century_Schoolbook_L_Roman-115"/>
      <use transform="translate(584.900191178 0.0)scale(0.996264009963)" xlink:href="#Century_Schoolbook_L_Roman-41"/>
     </g>
    </g>
   </g>
   <g id="matplotlib.axis_2">
    <g id="ytick_1">
     <g id="line2d_18">
      <defs>
       <path d="
M0 0
L4 0" id="m728421d6d4" style="stroke:#000000;stroke-width:0.5;"/>
      </defs>
      <g>
       <use style="stroke:#000000;stroke-width:0.5;" x="34.6132501167" xlink:href="#m728421d6d4" y="94.4341584586"/>
      </g>
     </g>
     <g id="line2d_19">
      <defs>
       <path d="
M0 0
L-4 0" id="mcb0005524f" style="stroke:#000000;stroke-width:0.5;"/>
      </defs>
      <g>
       <use style="stroke:#000000;stroke-width:0.5;" x="215.44310308" xlink:href="#mcb0005524f" y="94.4341584586"/>
      </g>
     </g>
     <g id="text_6">
      <!-- $140$ -->
      <defs>
       <path d="
M26.5938 63.3125
C26.5938 65.4062 26.5 65.5 25.0938 65.5
C21.2031 61.1875 15.2969 59.7969 9.70312 59.7969
C9.40625 59.7969 8.90625 59.7969 8.79688 59.6094
C8.70312 59.3906 8.70312 59.1719 8.70312 57
C11.7969 57 17 57.5938 21 59.9844
L21 7.20312
C21 3.6875 20.7969 2.5 12.2031 2.5
L9.20312 2.5
L9.20312 0
C14 0 19 0 23.7969 0
C28.5938 0 33.5938 0 38.4062 0
L38.4062 2.5
L35.4062 2.5
C26.7969 2.5 26.5938 3.59375 26.5938 7.15625
z
" id="CMR17-49"/>
       <path d="
M33.5938 64.3281
C33.5938 66.4062 33.5 66.5 31.7031 66.5
L2 19.5938
L2 17
L27.7969 17
L27.7969 7.14062
C27.7969 3.5 27.5938 2.5 20.5938 2.5
L18.7031 2.5
L18.7031 0
C21.9062 0 27.2969 0 30.7031 0
C34.0938 0 39.5 0 42.7031 0
L42.7031 2.5
L40.7969 2.5
C33.7969 2.5 33.5938 3.5 33.5938 7.14062
L33.5938 17
L43.7969 17
L43.7969 19.5938
L33.5938 19.5938
z

M28.0938 57.7656
L28.0938 19.5938
L4 19.5938
z
" id="CMR17-52"/>
      </defs>
      <g transform="translate(18.6995372577 96.3589245336)scale(0.07 -0.07)">
       <use transform="scale(0.996264009963)" xlink:href="#CMR17-49"/>
       <use transform="translate(45.6904771171 0.0)scale(0.996264009963)" xlink:href="#CMR17-52"/>
       <use transform="translate(91.3809542341 0.0)scale(0.996264009963)" xlink:href="#CMR17-48"/>
      </g>
     </g>
    </g>
    <g id="ytick_2">
     <g id="line2d_20">
      <g>
       <use style="stroke:#000000;stroke-width:0.5;" x="34.6132501167" xlink:href="#m728421d6d4" y="82.4363884829"/>
      </g>
     </g>
     <g id="line2d_21">
      <g>
       <use style="stroke:#000000;stroke-width:0.5;" x="215.44310308" xlink:href="#mcb0005524f" y="82.4363884829"/>
      </g>
     </g>
     <g id="text_7">
      <!-- $150$ -->
      <g transform="translate(18.6995372577 84.3611545579)scale(0.07 -0.07)">
       <use transform="scale(0.996264009963)" xlink:href="#CMR17-49"/>
       <use transform="translate(45.6904771171 0.0)scale(0.996264009963)" xlink:href="#CMR17-53"/>
       <use transform="translate(91.3809542341 0.0)scale(0.996264009963)" xlink:href="#CMR17-48"/>
      </g>
     </g>
    </g>
    <g id="ytick_3">
     <g id="line2d_22">
      <g>
       <use style="stroke:#000000;stroke-width:0.5;" x="34.6132501167" xlink:href="#m728421d6d4" y="70.4386185073"/>
      </g>
     </g>
     <g id="line2d_23">
      <g>
       <use style="stroke:#000000;stroke-width:0.5;" x="215.44310308" xlink:href="#mcb0005524f" y="70.4386185073"/>
      </g>
     </g>
     <g id="text_8">
      <!-- $160$ -->
      <g transform="translate(18.6995372577 72.3633845822)scale(0.07 -0.07)">
       <use transform="scale(0.996264009963)" xlink:href="#CMR17-49"/>
       <use transform="translate(45.6904771171 0.0)scale(0.996264009963)" xlink:href="#CMR17-54"/>
       <use transform="translate(91.3809542341 0.0)scale(0.996264009963)" xlink:href="#CMR17-48"/>
      </g>
     </g>
    </g>
    <g id="ytick_4">
     <g id="line2d_24">
      <g>
       <use style="stroke:#000000;stroke-width:0.5;" x="34.6132501167" xlink:href="#m728421d6d4" y="58.4408485316"/>
      </g>
     </g>
     <g id="line2d_25">
      <g>
       <use style="stroke:#000000;stroke-width:0.5;" x="215.44310308" xlink:href="#mcb0005524f" y="58.4408485316"/>
      </g>
     </g>
     <g id="text_9">
      <!-- $170$ -->
      <g transform="translate(18.6995372577 60.3656146066)scale(0.07 -0.07)">
       <use transform="scale(0.996264009963)" xlink:href="#CMR17-49"/>
       <use transform="translate(45.6904771171 0.0)scale(0.996264009963)" xlink:href="#CMR17-55"/>
       <use transform="translate(91.3809542341 0.0)scale(0.996264009963)" xlink:href="#CMR17-48"/>
      </g>
     </g>
    </g>
    <g id="ytick_5">
     <g id="line2d_26">
      <g>
       <use style="stroke:#000000;stroke-width:0.5;" x="34.6132501167" xlink:href="#m728421d6d4" y="46.4430785559"/>
      </g>
     </g>
     <g id="line2d_27">
      <g>
       <use style="stroke:#000000;stroke-width:0.5;" x="215.44310308" xlink:href="#mcb0005524f" y="46.4430785559"/>
      </g>
     </g>
     <g id="text_10">
      <!-- $180$ -->
      <g transform="translate(18.6995372577 48.3678446309)scale(0.07 -0.07)">
       <use transform="scale(0.996264009963)" xlink:href="#CMR17-49"/>
       <use transform="translate(45.6904771171 0.0)scale(0.996264009963)" xlink:href="#CMR17-56"/>
       <use transform="translate(91.3809542341 0.0)scale(0.996264009963)" xlink:href="#CMR17-48"/>
      </g>
     </g>
    </g>
    <g id="ytick_6">
     <g id="line2d_28">
      <g>
       <use style="stroke:#000000;stroke-width:0.5;" x="34.6132501167" xlink:href="#m728421d6d4" y="34.4453085802"/>
      </g>
     </g>
     <g id="line2d_29">
      <g>
       <use style="stroke:#000000;stroke-width:0.5;" x="215.44310308" xlink:href="#mcb0005524f" y="34.4453085802"/>
      </g>
     </g>
     <g id="text_11">
      <!-- $190$ -->
      <defs>
       <path d="
M35.2031 29.125
C35.2031 7.25 26.0938 0.484375 18.5938 0.484375
C16.2969 0.484375 10.7031 0.484375 8.40625 4.59375
C11 4.1875 12.9062 5.57812 12.9062 8.09375
C12.9062 10.8125 10.7031 11.7031 9.29688 11.7031
C8.40625 11.7031 5.70312 11.2969 5.70312 7.90625
C5.70312 1.10938 11.5938 -2 18.7969 -2
C30.2969 -2 42 10.5312 42 32.3906
C42 59.6406 30.7969 65.2969 23.2031 65.2969
C13.2969 65.2969 3.79688 56.6875 3.79688 43.4062
C3.79688 31.1094 11.9062 22 22.0938 22
C30.5 22 34.2031 29.7344 35.2031 33
z

M22.2969 23.5938
C19.5938 23.5938 15.7969 24.0938 12.7031 30.0312
C10.5938 33.8906 10.5938 38.4531 10.5938 43.2969
C10.5938 49.1562 10.5938 53.2031 13.4062 57.5625
C14.7969 59.6406 17.4062 63 23.2031 63
C35 63 35 45.0781 35 41.125
C35 34.0938 31.7969 23.5938 22.2969 23.5938" id="CMR17-57"/>
      </defs>
      <g transform="translate(18.6995372577 36.3700746552)scale(0.07 -0.07)">
       <use transform="scale(0.996264009963)" xlink:href="#CMR17-49"/>
       <use transform="translate(45.6904771171 0.0)scale(0.996264009963)" xlink:href="#CMR17-57"/>
       <use transform="translate(91.3809542341 0.0)scale(0.996264009963)" xlink:href="#CMR17-48"/>
      </g>
     </g>
    </g>
    <g id="ytick_7">
     <g id="line2d_30">
      <g>
       <use style="stroke:#000000;stroke-width:0.5;" x="34.6132501167" xlink:href="#m728421d6d4" y="22.4475386045"/>
      </g>
     </g>
     <g id="line2d_31">
      <g>
       <use style="stroke:#000000;stroke-width:0.5;" x="215.44310308" xlink:href="#mcb0005524f" y="22.4475386045"/>
      </g>
     </g>
     <g id="text_12">
      <!-- $200$ -->
      <defs>
       <path d="
M41.7031 15.4531
L39.9062 15.4531
C38.9062 8.375 38.0938 7.17188 37.7031 6.5625
C37.2031 5.76562 30 5.76562 28.5938 5.76562
L9.40625 5.76562
C13 9.67188 20 16.75 28.5 24.9531
C34.5938 30.7344 41.7031 37.5312 41.7031 47.4219
C41.7031 59.2188 32.2969 66 21.7969 66
C10.7969 66 4.09375 56.3125 4.09375 47.3438
C4.09375 43.4375 7 42.9375 8.20312 42.9375
C9.20312 42.9375 12.2031 43.5469 12.2031 47.0312
C12.2031 50.1094 9.59375 51 8.20312 51
C7.59375 51 7 50.9062 6.59375 50.7031
C8.5 59.2188 14.2969 63.4062 20.4062 63.4062
C29.0938 63.4062 34.7969 56.5156 34.7969 47.4219
C34.7969 38.7344 29.7031 31.25 24 24.75
L4.09375 2.28125
L4.09375 0
L39.2969 0
z
" id="CMR17-50"/>
      </defs>
      <g transform="translate(18.6995372577 24.3723046795)scale(0.07 -0.07)">
       <use transform="scale(0.996264009963)" xlink:href="#CMR17-50"/>
       <use transform="translate(45.6904771171 0.0)scale(0.996264009963)" xlink:href="#CMR17-48"/>
       <use transform="translate(91.3809542341 0.0)scale(0.996264009963)" xlink:href="#CMR17-48"/>
      </g>
     </g>
    </g>
    <g id="ytick_8">
     <g id="line2d_32">
      <g>
       <use style="stroke:#000000;stroke-width:0.5;" x="34.6132501167" xlink:href="#m728421d6d4" y="10.4497686289"/>
      </g>
     </g>
     <g id="line2d_33">
      <g>
       <use style="stroke:#000000;stroke-width:0.5;" x="215.44310308" xlink:href="#mcb0005524f" y="10.4497686289"/>
      </g>
     </g>
     <g id="text_13">
      <!-- $210$ -->
      <g transform="translate(18.6995372577 12.3745347038)scale(0.07 -0.07)">
       <use transform="scale(0.996264009963)" xlink:href="#CMR17-50"/>
       <use transform="translate(45.6904771171 0.0)scale(0.996264009963)" xlink:href="#CMR17-49"/>
       <use transform="translate(91.3809542341 0.0)scale(0.996264009963)" xlink:href="#CMR17-48"/>
      </g>
     </g>
    </g>
    <g id="text_14">
     <!-- Number of Actions -->
     <defs>
      <path d="
M19.4062 47
L19.4062 67
L15.2969 67
C14.2969 53.875 9.90625 47.1875 1.79688 46.5938
L1.79688 42.7031
L10 42.7031
L10 17.2656
C10 10.2812 10.2031 7.78125 11.2031 5.48438
C12.7969 1.29688 16.7969 -1 22.5938 -1
C26.5 -1 29.9062 0.203125 32.2031 2.39062
C35.5 5.59375 37.4062 10.875 37.4062 16.375
C37.4062 16.9688 37.4062 17.6719 37.2969 18.6719
L33.0938 18.6719
C32.7969 9.6875 30.2031 5.09375 25.2969 5.09375
C23 5.09375 21 6.28125 20.2969 7.98438
C19.7031 9.375 19.4062 11.875 19.4062 15.4688
L19.4062 42.7031
L34.0938 42.7031
L34.0938 47
z
" id="Century_Schoolbook_L_Roman-116"/>
      <path d="
M41.2031 0
L59.4062 0
L59.4062 4.70312
L56.9062 4.70312
C51.4062 4.70312 50.5938 5.59375 50.5938 11.9531
L50.5938 46.7812
L31.7969 46.7812
L31.7969 42
L36.9062 42
C40.5938 42 41.2031 41.2969 41.2031 36.9531
L41.2031 24.5625
C41.2031 18.8125 40.5938 15.4844 39.0938 12.1562
C37 7.71875 33 5.09375 28.0938 5.09375
C25 5.09375 22.4062 6.1875 21.0938 8.17188
C19.7969 10.0469 19.5938 11.0469 19.5938 16.5
L19.5938 46.7812
L2.09375 46.7812
L2.09375 42
L5.90625 42
C9.59375 42 10.2031 41.2969 10.2031 36.9531
L10.2031 15.2188
C10.2031 10.0781 10.5938 7.76562 12.0938 5.45312
C14.7969 1.3125 19.5938 -1 25.5938 -1
C32.2031 -1 36.7969 1.71875 41.2031 8.125
z
" id="Century_Schoolbook_L_Roman-117"/>
      <path d="
M19.7969 46
L2.09375 46
L2.09375 41.2188
L6.20312 41.2188
C9.90625 41.2188 10.5 40.5156 10.5 36.2031
L10.5 12.2969
L10.5 8.29688
C10.5 4.29688 9.40625 3.59375 2.90625 3.59375
L2.5 3.59375
L2.5 0
L29.2031 0
L29.2031 3.59375
L27.2969 3.59375
C20.9062 3.59375 19.7969 4.29688 19.7969 8.29688
L19.7969 12.2969
L19.7969 13.2969
C19.7969 20.8125 21.2031 28.4062 23.7031 34.1094
C26.0938 39.7031 29.5 42.8125 33.7031 43.3125
C32.2969 41.7031 31.9062 40.6875 31.9062 38.7656
C31.9062 35.5469 34.2031 33.2344 37.4062 33.2344
C41 33.2344 43.5 35.9375 43.5 40.0156
C43.5 44.8125 40.0938 48 34.7969 48
C28.5 48 23 42.9219 19.7969 34.1406
z
" id="Century_Schoolbook_L_Roman-114"/>
      <path d="
M20.0938 46.2969
L20.0938 52.1406
C20.0938 57.2656 20.4062 60.6562 21.2031 62.7188
C22.7969 67.2344 26.2969 70 30.2969 70
C32.4062 70 33.7031 69.3906 33.7031 68.2656
C33.7031 67.9375 33.5938 67.75 33.0938 66.9219
C32.5 65.9062 32.2031 64.7656 32.2031 63.6406
C32.2031 60.5469 34.5938 58.2031 37.7031 58.2031
C41 58.2031 43.2969 60.7344 43.2969 64.4062
C43.2969 70.3281 38.2969 74 30.2031 74
C23.2969 74 18.2969 71.5312 14.7031 66.4375
C11.7031 62.1406 10.7031 57.7344 10.7031 49.4688
L10.7031 46.2969
L1.90625 46.2969
L1.90625 42
L10.7031 42
L10.7031 12.2344
L10.7031 8.25
C10.7031 4.29688 9.59375 3.59375 3.20312 3.59375
L2.79688 3.59375
L2.79688 0
L29.5 0
L29.5 3.59375
L27.7031 3.59375
C21.2031 3.59375 20.0938 4.29688 20.0938 8.25
L20.0938 12.2344
L20.0938 42
L31.0938 42
L31.0938 46.2969
z
" id="Century_Schoolbook_L_Roman-102"/>
      <path d="
M18 73
L0.796875 73
L0.796875 68.2188
L4.29688 68.2188
C8 68.2188 8.59375 67.5156 8.59375 63.25
L8.59375 24.625
C8.59375 11.3125 8.09375 4.84375 6.79688 -1
L10.5938 -1
L15.5 6.75
C19.5938 1.45312 24.2969 -1 30.5 -1
C42.7969 -1 52 9.59375 52 23.8281
C52 38.0781 43.5938 48.0781 31.5938 48.0781
C25.5 48.0781 21.7969 46 18 40.3281
z

M29.7969 43
C37.2969 43 41.5 35.7656 41.5 22.7969
C41.5 10.3125 37.4062 3.1875 30.0938 3.1875
C22.2031 3.1875 17.5 10.4062 17.5 22.5938
C17.5 35.7656 21.7969 43 29.7969 43" id="Century_Schoolbook_L_Roman-98"/>
      <path d="
M38.7031 15.1094
C35.5 7.96875 32.0938 5.09375 26.9062 5.09375
C18.9062 5.09375 13.9062 12.3281 13.9062 23.9375
C13.9062 35.9531 18.7969 44 26.2031 44
C29.2031 44 31.7969 42.5938 31.7969 41.0156
C31.7969 40.7188 31.5938 40.4219 31.2031 39.8125
C29.5938 37.9375 29.2031 36.9375 29.2031 35.2656
C29.2031 31.9844 31.7031 29.7031 35.2031 29.7031
C38.7031 29.7031 41.2969 32.4844 41.2969 36.4531
C41.2969 43.1094 34.5938 48.2812 25.7031 48.2812
C12.7031 48.2812 3.40625 37.6562 3.40625 22.8438
C3.40625 8.73438 11.9062 -1 24.2969 -1
C33.2031 -1 38.2969 3.07812 42.5938 13.625
z
" id="Century_Schoolbook_L_Roman-99"/>
      <path d="
M25.2031 48.2812
C13 48.2812 3.40625 37.4531 3.40625 23.5469
C3.40625 9.9375 13 -1 25 -1
C37 -1 46.5938 9.9375 46.5938 23.6406
C46.5938 37.25 37 48.2812 25.2031 48.2812
M25.2031 44
C32.2031 44 36.0938 36.7344 36.0938 23.6406
C36.0938 10.4531 32.2031 3.29688 25 3.29688
C17.7969 3.29688 13.9062 10.4531 13.9062 23.5469
C13.9062 37.0469 17.7031 44 25.2031 44" id="Century_Schoolbook_L_Roman-111"/>
      <path d="
M20.0938 46
L2.29688 46
L2.29688 41.2188
L6.40625 41.2188
C10.0938 41.2188 10.7031 40.5156 10.7031 36.2031
L10.7031 12.2969
L10.7031 8.40625
C10.7031 4.29688 9.59375 3.59375 3.20312 3.59375
L2.79688 3.59375
L2.79688 0
L28 0
L28 3.59375
L27.5938 3.59375
C21.2031 3.59375 20.0938 4.29688 20.0938 8.39062
L20.0938 12.2812
L20.0938 26.4531
C20.0938 35.3281 25 41.9219 31.5 41.9219
C34.0938 41.9219 36.9062 40.5156 38.0938 38.625
C39.5 36.7344 40.0938 33.8281 40.0938 29.7344
L40.0938 12.2812
L40.0938 8.28125
C40.0938 4.29688 39 3.59375 32.5 3.59375
L32.0938 3.59375
L32.0938 0
L57.4062 0
L57.4062 3.59375
L57 3.59375
C50.5938 3.59375 49.5 4.29688 49.5 8.28125
L49.5 12.2812
L49.5 25.5469
C49.5 35.5312 54 41.9219 61 41.9219
C64.2969 41.9219 67 40.0156 68.2969 36.9219
C69.2031 34.7344 69.5 32.5312 69.5 28.6406
L69.5 12.2812
L69.5 8.28125
C69.5 4.29688 68.4062 3.59375 61.9062 3.59375
L61.5 3.59375
L61.5 0
L86.7969 0
L86.7969 3.59375
L86.4062 3.59375
C80 3.59375 78.9062 4.29688 78.9062 8.39062
L78.9062 12.2812
L78.9062 30.6406
C78.9062 36.8281 78.2969 38.9219 75.7031 42.3125
C72.7969 46.0156 68.7031 48 63.9062 48
C57.4062 48 52.5938 44.9375 48.2969 38.1094
C46.5938 44.0469 41.2031 48 34.5 48
C28.5 48 24 45.1406 20.0938 38.9219
z
" id="Century_Schoolbook_L_Roman-109"/>
      <path d="
M22.5 72
L1.90625 72
L1.90625 67.3125
L4.40625 67.3125
C9.5 67.3125 11.7969 66.5 13.5938 64.0156
L13.5938 21.5
C13.5938 7.78125 11.5938 4.89062 2 4.89062
L2 0
L30.5 0
L30.5 4.89062
C21 4.89062 19 7.79688 19 21.5
L19 58.6406
L63.5938 -1.6875
L67.7969 -1.6875
L67.7969 50.5938
C67.7969 64.3906 69.7969 67.3125 79.4062 67.3125
L79.4062 72
L50.9062 72
L50.9062 67.3125
C60.4062 67.3125 62.4062 64.4062 62.4062 50.625
L62.4062 19.0469
z
" id="Century_Schoolbook_L_Roman-78"/>
      <path d="
M37.7969 73.5
L33.5938 73.5
L10.5938 15.2656
C8.59375 10.0781 8.20312 9.375 6.70312 7.78125
C5.09375 5.89062 2.29688 4.6875 -0.40625 4.6875
L-0.796875 4.6875
L-0.796875 0
L25.7031 0
L25.7031 4.6875
L23.7031 4.6875
C18.2969 4.6875 15.5938 6.625 15.5938 10.4531
C15.5938 11.6719 15.9062 13.0781 16.5 14.7031
L19.7969 23.6094
L46.2969 23.6094
L51.7031 10.0625
C52.2969 8.53125 52.5 7.82812 52.5 7.3125
C52.5 5.70312 50 4.6875 46.2969 4.6875
L42.0938 4.6875
L42.0938 0
L73.0938 0
L73.0938 4.6875
L71.7031 4.6875
C66.7031 4.6875 65.5938 5.48438 63.2969 11.0781
z

M32.9062 57.2031
L44.2031 29
L21.7969 29
z
" id="Century_Schoolbook_L_Roman-65"/>
      <path d="
M20.5938 46
L1.79688 46
L1.79688 41.2188
L6.90625 41.2188
C10.5938 41.2188 11.2031 40.5156 11.2031 36.2031
L11.2031 12.2969
L11.2031 8.29688
C11.2031 4.29688 10.0938 3.59375 3.70312 3.59375
L3 3.59375
L3 0
L28.9062 0
L28.9062 3.59375
L28.2031 3.59375
C21.7031 3.59375 20.5938 4.28125 20.5938 8.21875
L20.5938 12.1719
z

M15.9062 71.5781
C12.7031 71.5781 10.0938 68.9844 10.0938 65.7969
C10.0938 62.7031 12.7031 60 15.7969 60
C19.0938 60 21.7031 62.5938 21.7031 65.7969
C21.7031 68.9844 19.0938 71.5781 15.9062 71.5781" id="Century_Schoolbook_L_Roman-105"/>
     </defs>
     <g transform="translate(12.3745347038 84.850634384)rotate(-90.0)scale(0.07 -0.07)">
      <use transform="scale(0.996264009963)" xlink:href="#Century_Schoolbook_L_Roman-78"/>
      <use transform="translate(81.1945134943 0.0)scale(0.996264009963)" xlink:href="#Century_Schoolbook_L_Roman-117"/>
      <use transform="translate(142.066144171 0.0)scale(0.996264009963)" xlink:href="#Century_Schoolbook_L_Roman-109"/>
      <use transform="translate(230.633050864 0.0)scale(0.996264009963)" xlink:href="#Century_Schoolbook_L_Roman-98"/>
      <use transform="translate(286.024727827 0.0)scale(0.996264009963)" xlink:href="#Century_Schoolbook_L_Roman-101"/>
      <use transform="translate(335.837928325 0.0)scale(0.996264009963)" xlink:href="#Century_Schoolbook_L_Roman-114"/>
      <use transform="translate(407.766666626 0.0)scale(0.996264009963)" xlink:href="#Century_Schoolbook_L_Roman-111"/>
      <use transform="translate(457.579867124 0.0)scale(0.996264009963)" xlink:href="#Century_Schoolbook_L_Roman-102"/>
      <use transform="translate(518.450266457 0.0)scale(0.996264009963)" xlink:href="#Century_Schoolbook_L_Roman-65"/>
      <use transform="translate(590.380251304 0.0)scale(0.996264009963)" xlink:href="#Century_Schoolbook_L_Roman-99"/>
      <use transform="translate(634.613820001 0.0)scale(0.996264009963)" xlink:href="#Century_Schoolbook_L_Roman-116"/>
      <use transform="translate(673.367526196 0.0)scale(0.996264009963)" xlink:href="#Century_Schoolbook_L_Roman-105"/>
      <use transform="translate(704.748839192 0.0)scale(0.996264009963)" xlink:href="#Century_Schoolbook_L_Roman-111"/>
      <use transform="translate(754.56203969 0.0)scale(0.996264009963)" xlink:href="#Century_Schoolbook_L_Roman-110"/>
      <use transform="translate(815.433670367 0.0)scale(0.996264009963)" xlink:href="#Century_Schoolbook_L_Roman-115"/>
     </g>
    </g>
   </g>
   <g id="patch_3">
    <path d="
M34.6133 8.27563
L215.443 8.27563" style="fill:none;stroke:#000000;"/>
   </g>
   <g id="patch_4">
    <path d="
M215.443 101.117
L215.443 8.27563" style="fill:none;stroke:#000000;"/>
   </g>
   <g id="patch_5">
    <path d="
M34.6133 101.117
L215.443 101.117" style="fill:none;stroke:#000000;"/>
   </g>
   <g id="patch_6">
    <path d="
M34.6133 101.117
L34.6133 8.27563" style="fill:none;stroke:#000000;"/>
   </g>
   <g id="text_15">
    <!-- 4 -->
    <defs>
     <path d="
M36.7969 70.5
L2.79688 23
L2.79688 17.4062
L30.9062 17.4062
L30.9062 12.25
L30.9062 9.35938
C30.9062 5.1875 30 4.6875 21.9062 4.6875
L20.7969 4.6875
L20.7969 0
L50 0
L50 4.6875
L49.5938 4.6875
C41.5 4.6875 40.5938 5.1875 40.5938 9.35938
L40.5938 12.25
L40.5938 17.4062
L52.7031 17.4062
L52.7031 23
L40.5938 23
L40.5938 50.4062
C40.5938 62.9688 40.5938 62.9688 41.0938 70.5
z

M30.9062 23
L8.90625 23
L30.9062 53.4219
z
" id="Century_Schoolbook_L_Roman-52"/>
    </defs>
    <g transform="translate(85.8713512638 65.270016741)scale(0.07 -0.07)">
     <use transform="scale(0.996264009963)" xlink:href="#Century_Schoolbook_L_Roman-52"/>
    </g>
   </g>
   <g id="text_16">
    <!-- 7 -->
    <defs>
     <path d="
M5.90625 45.5938
L10.2969 44.9062
L12.0938 52.8125
C13.5938 59.4062 14.2969 60.3906 17.2031 60.3906
C17.7031 60.3906 18.5938 60.3906 19.4062 60
C25.2031 60 32.4062 60 36.5 60
C37.9062 60 40 60 42.7031 60
L35.9062 46.25
C28.4062 31.2969 27.5938 29.6094 25.0938 23.4844
C22.0938 15.9531 20.4062 9.64062 20.4062 5.42188
C20.4062 0.90625 22.7969 -2 26.7031 -2
C31.5 -2 33.4062 1.28125 33.2969 9.89062
C32.7969 24.1875 34.7031 31.2969 45.2969 54.6875
C46.7969 57.8906 48.2969 60.9844 49.7969 64.0938
C49.9062 64.2812 50.2031 65.1875 50.7969 66.4844
L50.7969 69.375
C44.5938 69.2812 41.2969 69.2812 35.2031 69.2812
C26.7031 69.2812 19.9062 69.2812 9 69.2812
z
" id="Century_Schoolbook_L_Roman-55"/>
    </defs>
    <g transform="translate(56.047812683 98.3798089759)scale(0.07 -0.07)">
     <use transform="scale(0.996264009963)" xlink:href="#Century_Schoolbook_L_Roman-55"/>
    </g>
   </g>
   <g id="text_17">
    <!-- 6 -->
    <defs>
     <path d="
M15.2969 34.1406
C16.2969 46.8125 16.7969 50.1719 19 55.3438
C21.9062 62.5469 27.2031 66.7031 33.5 66.7031
C37 66.7031 39.0938 65.5781 39.0938 63.75
C39.0938 63.3281 39 63.0156 38.5938 62.2969
C37.5938 60.3594 37.0938 58.9375 37.0938 57.5
C37.0938 54.0312 39.7031 51.4688 43.2031 51.4688
C47 51.4688 49.7969 54.5312 49.7969 58.7969
C49.7969 65.8125 42.7969 71 33.4062 71
C25.2031 71 17.5 67.0938 12.7031 60.3906
C7.29688 52.6719 4.20312 42.2656 4.20312 31.3438
C4.20312 11.8281 13.7969 -1 28.5938 -1
C35.0938 -1 40.5 1.1875 44.7031 5.54688
C49 9.90625 51.5938 16.4375 51.5938 22.6875
C51.5938 34.375 43.0938 43.0938 31.7969 43.0938
C25 43.0938 20 40.4062 15.2969 34.1406
M29.0938 37
C36.2969 37 40.7031 31.375 40.7031 21.9688
C40.7031 10.6094 36.0938 3.29688 28.7969 3.29688
C24.2969 3.29688 20.7969 5.76562 18.4062 10.5156
C16.7969 13.5781 16 16.9375 16 20.5938
C16 30.7812 21 37 29.0938 37" id="Century_Schoolbook_L_Roman-54"/>
    </defs>
    <g transform="translate(54.6824045304 86.6026451456)scale(0.07 -0.07)">
     <use transform="scale(0.996264009963)" xlink:href="#Century_Schoolbook_L_Roman-54"/>
    </g>
   </g>
   <g id="text_18">
    <!-- 3 -->
    <defs>
     <path d="
M34.5938 36.8125
C36 37.3125 36.2031 37.3125 36.9062 37.6094
C43.9062 40.5625 47.9062 46.2656 47.9062 53.4844
C47.9062 64.0625 39.9062 71 27.5 71
C15.7969 71 6.90625 63.9688 6.90625 54.7188
C6.90625 50.5469 9.70312 47.5938 13.5 47.5938
C17 47.5938 19.4062 50.0469 19.4062 53.7188
C19.4062 55.875 18.5938 57.2969 16.2969 58.9375
C15.2969 59.6406 15 60.1562 15 60.7812
C15 63.6406 20.9062 66.7031 26.5 66.7031
C33.7031 66.7031 37.5 62.125 37.5 53.4688
C37.5 43.9844 33.7031 39 26.5 39
C25.5938 39 24 39 22.5 39
C21.7031 39 20.9062 39 20.2969 39
C18.2031 39 17.0938 38.125 17.0938 36.4062
C17.0938 34.7812 18.2031 34.0156 20.2031 34.0156
C20.5 34.0156 21.2969 34.0156 22.5938 34.0156
C26.4062 34.0156 26.5 34.0156 27.2969 34.0156
C34.7031 34.0156 38.7031 28.8281 38.7031 19.1406
C38.7031 9.0625 33.5938 3.29688 24.7031 3.29688
C18.4062 3.29688 11.5938 6.64062 11.5938 9.6875
C11.5938 10.5938 11.7969 10.7656 13.7969 11.875
C16.5938 13.5312 17.7031 15.2188 17.7031 17.6562
C17.7031 21.2031 15 23.875 11.2969 23.875
C7.09375 23.875 4.20312 20.3281 4.20312 15.1875
C4.20312 5.60938 13.0938 -1 25.9062 -1
C40.2969 -1 49.7969 6.89062 49.7969 19.0469
C49.7969 28.3125 44.9062 33.9375 34.5938 36.8125" id="Century_Schoolbook_L_Roman-51"/>
    </defs>
    <g transform="translate(104.242463442 63.9207593306)scale(0.07 -0.07)">
     <use transform="scale(0.996264009963)" xlink:href="#Century_Schoolbook_L_Roman-51"/>
    </g>
   </g>
   <g id="text_19">
    <!-- 1 -->
    <defs>
     <path d="
M32.2031 70.5
C28.7969 66.2344 19.5938 63 10.4062 63
L10.4062 58.5938
L19.2031 58.5938
C25 58.5938 25.4062 58.2031 25.4062 52.3125
L25.4062 12.2812
L25.4062 9.375
C25.4062 5.1875 24.5 4.6875 16.5 4.6875
L10 4.6875
L10 0
L49.5938 0
L49.5938 4.6875
L44.0938 4.6875
C38.7969 4.6875 36.5938 5.09375 35.7969 6.09375
C35.0938 6.78125 35.0938 6.78125 35.0938 12.3125
L35.0938 53.6719
C35.0938 58.5781 35.2969 63.375 35.7969 70.5
z
" id="Century_Schoolbook_L_Roman-49"/>
    </defs>
    <g transform="translate(134.259776457 61.4412202023)scale(0.07 -0.07)">
     <use transform="scale(0.996264009963)" xlink:href="#Century_Schoolbook_L_Roman-49"/>
    </g>
   </g>
   <g id="text_20">
    <!-- 5 -->
    <defs>
     <path d="
M16.4062 59.7031
C21.7969 58.4062 24.5938 58 28.5 58
C37 58 43.2031 61 46.5 66.5
C47.5938 68.4062 48 69.2969 48 70.0938
C48 70.7031 47.7031 71 47.2031 71
C46.9062 71 46.4062 70.8906 45.9062 70.5938
C41 68.4844 38.2969 67.9844 32.5938 67.9844
C26.2031 67.9844 22.5 68.4844 12 71
C11.5938 62.6406 10.7031 52 9.29688 39.6562
C7.20312 37.4688 6.5 36.1719 6.5 34.5781
C6.5 32.5938 7.79688 31.2031 9.70312 31.2031
C12.2031 31.2031 13.7969 33.3281 14.2031 37.3594
C17.7031 39.8906 21 41 25 41
C33.9062 41 39.2969 34.0312 39.2969 22.5
C39.2969 15.7344 37.5938 9.95312 34.5938 6.82812
C32.5938 4.70312 28.5 3.29688 24.4062 3.29688
C18.4062 3.29688 12.2031 6.4375 12.2031 9.5625
C12.2031 10.2812 12.7969 11.0781 14 11.7812
C17.0938 13.7188 18 15.0312 18 17.75
C18 21.2969 15.2969 24.0156 11.7031 24.0156
C7.70312 24.0156 4.5 20.2812 4.5 15.5469
C4.5 10.5 7.40625 5.45312 11.9062 2.32812
C15.2969 0.109375 19.4062 -1 24.5938 -1
C40.2969 -1 50.2031 8.28125 50.2031 23.1094
C50.2031 36.8281 41.0938 46 27.5938 46
C23.4062 46 20.2031 45.2969 14.7031 43
z
" id="Century_Schoolbook_L_Roman-53"/>
    </defs>
    <g transform="translate(68.1736664565 78.3800072755)scale(0.07 -0.07)">
     <use transform="scale(0.996264009963)" xlink:href="#Century_Schoolbook_L_Roman-53"/>
    </g>
   </g>
   <g id="text_21">
    <!-- 0 -->
    <defs>
     <path d="
M28.4062 71
C14.4062 71 4.20312 55.6875 4.20312 34.75
C4.20312 14.125 14.0938 -1 27.5938 -1
C41.5938 -1 51.4062 13.625 51.4062 34.4375
C51.4062 45.0625 49.2031 53.875 45 60.7812
C41.0938 67.0938 34.7031 71 28.4062 71
M27.7031 66.7031
C31 66.7031 34.2031 64.5 36.5938 60.5
C39.2969 55.875 40.2031 49.9688 40.2031 36.25
C40.2031 22.2188 39.5 15.625 37.5 11.2031
C35.2031 6.29688 31.5938 3.29688 27.7969 3.29688
C24.5 3.29688 21.2969 5.5 18.9062 9.5
C16.0938 14.2188 15.2969 20.5312 15.2969 36.8594
C15.2969 48.4844 16 54.375 18 58.6875
C20.2969 63.7969 23.9062 66.7031 27.7031 66.7031" id="Century_Schoolbook_L_Roman-48"/>
    </defs>
    <g transform="translate(205.373948667 21.0123710721)scale(0.07 -0.07)">
     <use transform="scale(0.996264009963)" xlink:href="#Century_Schoolbook_L_Roman-48"/>
    </g>
   </g>
   <g id="text_22">
    <!-- 1 -->
    <g transform="translate(144.026853956 92.8792792524)scale(0.07 -0.07)">
     <use transform="scale(0.996264009963)" xlink:href="#Century_Schoolbook_L_Roman-49"/>
    </g>
   </g>
   <g id="text_23">
    <!-- 1 -->
    <g transform="translate(131.661523542 29.4794190037)scale(0.07 -0.07)">
     <use transform="scale(0.996264009963)" xlink:href="#Century_Schoolbook_L_Roman-49"/>
    </g>
   </g>
   <g id="text_24">
    <!-- e) First Response Quality Objectives (COLIN) -->
    <defs>
     <path d="
M26 59.7188
L26 62.6094
C26 66.8125 26.9062 67.3125 34.9062 67.3125
L36.9062 67.3125
L36.9062 72
L3.79688 72
L3.79688 67.3125
L5.79688 67.3125
C13.9062 67.3125 14.7969 66.8125 14.7969 62.6094
L14.7969 59.7188
L14.7969 12.2812
L14.7969 9.375
C14.7969 5.1875 13.9062 4.6875 5.79688 4.6875
L3.79688 4.6875
L3.79688 0
L36.9062 0
L36.9062 4.6875
L34.9062 4.6875
C26.9062 4.6875 26 5.1875 26 9.375
L26 12.2812
z
" id="Century_Schoolbook_L_Roman-73"/>
     <path d="
M62.4062 72
L2.90625 72
L2.90625 67.3125
L4.70312 67.3125
C12.7969 67.3125 13.7031 66.8125 13.7031 62.6094
L13.7031 59.7188
L13.7031 12.2812
L13.7031 9.375
C13.7031 5.1875 12.7969 4.6875 4.70312 4.6875
L2.90625 4.6875
L2.90625 0
L37.2031 0
L37.2031 4.6875
L33.9062 4.6875
C25.7969 4.6875 24.9062 5.1875 24.9062 9.39062
L24.9062 12.2969
L24.9062 35
L26.9062 35
C33.0938 35 35.5 34.375 37.5938 32.2344
C40.0938 29.5781 41.0938 26.2969 41.2969 20.2656
L46 20.2656
L46 53
L41.2969 53
C40.7969 43.4688 36.7969 39.6875 27.2969 39.6875
L24.9062 39.6875
L24.9062 62.3281
C24.9062 66.6094 25.7969 67.3125 31.2031 67.3125
L35.7969 67.3125
C52.2969 67.3125 56.5938 63.5 59.4062 46.3906
L63.7969 46.3906
z
" id="Century_Schoolbook_L_Roman-70"/>
     <path d="
M64.5938 27.3281
L60.2031 27.3281
C59.2031 20.5469 56.7969 13.7656 54.2031 10.4844
C51.0938 6.59375 45.2969 4.6875 36.9062 4.6875
L32.7031 4.6875
C29.7031 4.6875 27.2031 5.29688 26.2969 6.1875
C25.5938 6.78125 25.5 7.39062 25.5 9.48438
L25.5 59.7188
L25.5 62.6094
C25.5 66.8125 26.4062 67.3125 34.5 67.3125
L36.2969 67.3125
L36.2969 72
L3.5 72
L3.5 67.3125
L5.29688 67.3125
C13.4062 67.3125 14.2969 66.8125 14.2969 62.6094
L14.2969 59.7188
L14.2969 12.2812
L14.2969 9.375
C14.2969 5.1875 13.4062 4.6875 5.29688 4.6875
L3.5 4.6875
L3.5 0
L62.5 0
z
" id="Century_Schoolbook_L_Roman-76"/>
     <path d="
M20.7031 46
L1.20312 46
L1.20312 41.2188
L7 41.2188
C10.7031 41.2188 11.2969 40.5156 11.2969 36.2188
L11.2969 2.4375
C11.2969 -5.64062 10.7969 -9.42188 9.40625 -12.3125
C8.40625 -14.3125 6 -15.8125 3.90625 -15.8125
C2.5 -15.8125 1.40625 -15.2188 1.40625 -14.5156
C1.40625 -14.1094 1.5 -13.9219 1.90625 -12.9219
C2.40625 -11.8281 2.59375 -11.2188 2.59375 -10.5312
C2.59375 -8.04688 0.203125 -5.84375 -2.59375 -5.84375
C-5.79688 -5.84375 -8.20312 -8.4375 -8.20312 -11.8438
C-8.20312 -16.7031 -3.70312 -20 3 -20
C8.59375 -20 13.7031 -17.5469 16.5938 -13.5781
C19.7031 -9.23438 20.7031 -4.1875 20.7031 6.96875
z

M16 71.5781
C12.7969 71.5781 10.2031 68.9844 10.2031 65.7969
C10.2031 62.7031 12.7969 60 15.9062 60
C19.2031 60 21.7969 62.5938 21.7969 65.7969
C21.7969 68.9844 19.2031 71.5781 16 71.5781" id="Century_Schoolbook_L_Roman-106"/>
     <path d="
M20.4062 73
L1.90625 73
L1.90625 68.2188
L6.79688 68.2188
C10.4062 68.2188 11 67.5156 11 63.2188
L11 12.2812
L11 8.28125
C11 4.29688 9.90625 3.59375 3.5 3.59375
L2.79688 3.59375
L2.79688 0
L28.7031 0
L28.7031 3.59375
L28 3.59375
C21.5 3.59375 20.4062 4.29688 20.4062 8.25
L20.4062 12.2188
z
" id="Century_Schoolbook_L_Roman-108"/>
     <path d="
M39.2969 74
C30.4062 74 22.7969 71.2031 16.7031 65.6094
C9 58.5469 4.5 47.7656 4.5 36.4062
C4.5 15.1562 19.4062 -1 38.9062 -1
C58.5 -1 73.2969 15.1562 73.2969 36.5
C73.2969 57.6406 58.5 74 39.2969 74
M39.2031 69.2969
C45.9062 69.2969 51.5 66.2031 55.0938 60.7344
C58.7969 54.8438 60.0938 48.6562 60.0938 36.5
C60.0938 24.3438 58.7969 18.25 55.0938 12.2656
C51.5 6.6875 46 3.6875 38.9062 3.6875
C31.7969 3.6875 26.2969 6.6875 22.7031 12.2656
C18.9062 18.3438 17.7031 24.3438 17.7031 36.7031
C17.7031 48.6562 19 54.75 22.7031 60.7344
C26.4062 66.5156 31.7031 69.2969 39.2031 69.2969" id="Century_Schoolbook_L_Roman-79"/>
     <path d="
M24.5938 35
L30.4062 35
C34.2969 35 38.2969 33.7969 40.5 31.9844
C43.4062 29.6875 44.9062 26.0781 45.5938 19.4688
L46.0938 14.3438
C47.2969 3.01562 51 -1.59375 58.9062 -1.59375
C67.0938 -1.59375 71 3.92188 71.2969 15.9219
L67.0938 15.9219
C66.7031 9 65.5 6 62.7969 6
C60.5 6 59.5 7.70312 57.7969 14.625
L56.2031 20.9375
C54 30.1719 50.0938 34.375 42.2969 36.3906
C56.7031 38.3906 63.5938 44.1406 63.5938 54.1875
C63.5938 65.5312 54 72 37.2031 72
L2.59375 72
L2.59375 67.3125
L4.40625 67.3125
C12.5 67.3125 13.4062 66.8125 13.4062 62.6094
L13.4062 59.7188
L13.4062 12.1719
L13.4062 9.375
C13.4062 5.1875 12.5 4.6875 4.40625 4.6875
L2.59375 4.6875
L2.59375 0
L35.4062 0
L35.4062 4.6875
L33.5938 4.6875
C25.5 4.6875 24.5938 5.1875 24.5938 9.39062
L24.5938 12.1875
z

M24.5938 39.6875
L24.5938 61.5469
C24.5938 65.5312 24.7031 65.8125 25.7031 66.6094
C26.5 67.2031 27.2031 67.3125 31.5 67.3125
L36.9062 67.3125
C46.7969 67.3125 51.2969 63.125 51.2969 54.0938
C51.2969 49.0156 50 45.1406 47.4062 43.0625
C44.9062 40.9844 40.4062 39.6875 35.5938 39.6875
z
" id="Century_Schoolbook_L_Roman-82"/>
     <path d="
M70.2969 -2.1875
C69.7969 -8.54688 68.7969 -10.9219 66.2969 -10.9219
C63.4062 -10.9219 61 -6.75 57.5938 4.07812
C68 12.7031 73.4062 23.9375 73.4062 36.7812
C73.4062 57.3438 58.0938 73.7031 38.7969 73.7031
C30.5938 73.7031 23.5938 71.0938 17.5 65.5781
C9.29688 58.2656 4.5 47.3438 4.5 35.9062
C4.5 14.9688 20 -1.6875 39.5 -1.6875
C42.9062 -1.6875 45.0938 -1.28125 48.4062 -0.1875
C48.7969 -12.1406 53.7969 -19 62 -19
C70 -19 74.9062 -12.625 74.7969 -2.1875
z

M55 11.5625
C52.4062 20.8594 46.2969 26 37.9062 26
C29.5 26 23.5 20.4531 23.5 12.5469
C23.5 12.25 23.5 11.5625 23.5938 10.7656
C19.5938 16.1094 17.7031 24.1562 17.7031 35.8125
C17.7031 45.6562 19.4062 54.0312 22.7969 60.1562
C25.9062 65.7812 31.7031 69 39 69
C46.5938 69 53 65.2812 56.0938 59.0469
C59 53.4062 60.2031 46.375 60.2031 36.1094
C60.2031 24.3281 58.7969 17.7969 55 11.5625
M48 5.17188
C44.9062 3.59375 42.5 3 38.5938 3
C32 3 28.0938 6.15625 28.0938 11.5625
C28.0938 17.375 31.9062 21.2969 37.4062 21.2969
C44.2031 21.2969 48 15.7969 48 6.15625
z
" id="Century_Schoolbook_L_Roman-81"/>
     <path d="
M29.5 12.0938
L18.0938 38.5938
C17.7969 39.2031 17.5938 40.0938 17.5938 40.7031
C17.5938 42.3906 18.9062 43 23 43
L24.4062 43
L24.4062 46.5938
L0.796875 46.5938
L0.796875 43
L1.59375 43
C5.40625 43 6.79688 42.0938 8.20312 38.7031
L25.4062 -1.5
L28.9062 -1.5
L43.0938 33.5938
C45.7969 40.2031 48.5938 43 52.4062 43
L52.7969 43
L52.7969 46.5938
L32.7969 46.5938
L32.7969 43
L34.2031 43
C37.7031 43 39.5938 41.7969 39.5938 39.5
C39.5938 38.3906 39.2031 36.7969 38.7031 35.2969
z
" id="Century_Schoolbook_L_Roman-118"/>
     <path d="
M30 13.2031
L19 38.8125
C18.5938 39.7031 18.4062 40.4062 18.4062 40.9062
C18.4062 42.7031 19.5938 43.4062 23 43.4062
L25.0938 43.4062
L25.0938 47
L1.29688 47
L1.29688 43.4062
L2.40625 43.4062
C5.59375 43.4062 7.40625 42 9.20312 38.0156
L25.5 1.23438
L23.7969 -2.26562
C20.2031 -9.82812 15.5 -15.1094 12.2969 -15.1094
C11.4062 -15.1094 10.7031 -14.7031 10.7031 -14.125
C10.7031 -13.9219 10.7969 -13.625 10.9062 -13.2188
C11.2031 -12.3281 11.4062 -11.4375 11.4062 -10.625
C11.4062 -8.03125 9.20312 -6.14062 6.29688 -6.14062
C2.79688 -6.14062 0.296875 -8.73438 0.296875 -12.3281
C0.296875 -16.7031 4.20312 -20 9.40625 -20
C14.7031 -20 19.2031 -17.4062 23.2031 -12.0312
C26.2969 -7.84375 28.2969 -3.84375 32.7031 7.21875
L44.0938 35.3281
C46.5938 41.4062 48.7031 43.4062 52.5 43.4062
L53.0938 43.4062
L53.0938 47
L33.0938 47
L33.0938 43.4062
L34.7031 43.4062
C38.5 43.4062 40.0938 42.2969 40.0938 39.7031
C40.0938 38.7031 39.7969 37.4219 39.0938 35.7344
z
" id="Century_Schoolbook_L_Roman-121"/>
     <path d="
M63.9062 72
L60.0938 72
L56.0938 66.0156
C49 71.2031 45.0938 72.7031 38.4062 72.7031
C28.7031 72.7031 20.7031 68.8125 13.9062 60.7812
C7.5 53.2344 4.5 44.8906 4.5 34.6562
C4.5 13.2969 18.5938 -2 38.2969 -2
C54.2969 -2 64.5 7.34375 66.7969 24.0156
L62.0938 24.8125
C61.0938 19.5469 59.9062 15.9844 58.0938 13.0156
C54 6.17188 47.5938 2.6875 39.5 2.6875
C24.7031 2.6875 17.7031 12.9062 17.7031 34.2656
C17.7031 45.4688 19.2031 53.0156 22.5938 58.9688
C25.7031 64.5312 31.9062 68 38.2969 68
C45.2969 68 51.5 64.3281 55.2969 57.9688
C57.2031 54.6875 58.7031 50.8125 61 43.1719
L65.4062 43.1719
z
" id="Century_Schoolbook_L_Roman-67"/>
    </defs>
    <g transform="translate(34.6132501167 132.285874132)scale(0.07 -0.07)">
     <use transform="scale(0.996264009963)" xlink:href="#Century_Schoolbook_L_Roman-101"/>
     <use transform="translate(49.8132004981 0.0)scale(0.996264009963)" xlink:href="#Century_Schoolbook_L_Roman-41"/>
     <use transform="translate(110.683599831 0.0)scale(0.996264009963)" xlink:href="#Century_Schoolbook_L_Roman-70"/>
     <use transform="translate(176.137534174 0.0)scale(0.996264009963)" xlink:href="#Century_Schoolbook_L_Roman-105"/>
     <use transform="translate(207.51884717 0.0)scale(0.996264009963)" xlink:href="#Century_Schoolbook_L_Roman-114"/>
     <use transform="translate(251.752415867 0.0)scale(0.996264009963)" xlink:href="#Century_Schoolbook_L_Roman-115"/>
     <use transform="translate(297.878226426 0.0)scale(0.996264009963)" xlink:href="#Century_Schoolbook_L_Roman-116"/>
     <use transform="translate(364.327102224 0.0)scale(0.996264009963)" xlink:href="#Century_Schoolbook_L_Roman-82"/>
     <use transform="translate(436.257087071 0.0)scale(0.996264009963)" xlink:href="#Century_Schoolbook_L_Roman-101"/>
     <use transform="translate(486.070287569 0.0)scale(0.996264009963)" xlink:href="#Century_Schoolbook_L_Roman-115"/>
     <use transform="translate(532.196098128 0.0)scale(0.996264009963)" xlink:href="#Century_Schoolbook_L_Roman-112"/>
     <use transform="translate(589.381585412 0.0)scale(0.996264009963)" xlink:href="#Century_Schoolbook_L_Roman-111"/>
     <use transform="translate(639.19478591 0.0)scale(0.996264009963)" xlink:href="#Century_Schoolbook_L_Roman-110"/>
     <use transform="translate(700.066416587 0.0)scale(0.996264009963)" xlink:href="#Century_Schoolbook_L_Roman-115"/>
     <use transform="translate(746.192227146 0.0)scale(0.996264009963)" xlink:href="#Century_Schoolbook_L_Roman-101"/>
     <use transform="translate(823.700597248 0.0)scale(0.996264009963)" xlink:href="#Century_Schoolbook_L_Roman-81"/>
     <use transform="translate(901.208967349 0.0)scale(0.996264009963)" xlink:href="#Century_Schoolbook_L_Roman-117"/>
     <use transform="translate(962.080598026 0.0)scale(0.996264009963)" xlink:href="#Century_Schoolbook_L_Roman-97"/>
     <use transform="translate(1017.47227499 0.0)scale(0.996264009963)" xlink:href="#Century_Schoolbook_L_Roman-108"/>
     <use transform="translate(1048.85358799 0.0)scale(0.996264009963)" xlink:href="#Century_Schoolbook_L_Roman-105"/>
     <use transform="translate(1080.23490098 0.0)scale(0.996264009963)" xlink:href="#Century_Schoolbook_L_Roman-116"/>
     <use transform="translate(1118.98860718 0.0)scale(0.996264009963)" xlink:href="#Century_Schoolbook_L_Roman-121"/>
     <use transform="translate(1200.18312067 0.0)scale(0.996264009963)" xlink:href="#Century_Schoolbook_L_Roman-79"/>
     <use transform="translate(1277.69149077 0.0)scale(0.996264009963)" xlink:href="#Century_Schoolbook_L_Roman-98"/>
     <use transform="translate(1333.08316774 0.0)scale(0.996264009963)" xlink:href="#Century_Schoolbook_L_Roman-106"/>
     <use transform="translate(1362.57214766 0.0)scale(0.996264009963)" xlink:href="#Century_Schoolbook_L_Roman-101"/>
     <use transform="translate(1412.38534816 0.0)scale(0.996264009963)" xlink:href="#Century_Schoolbook_L_Roman-99"/>
     <use transform="translate(1456.61891685 0.0)scale(0.996264009963)" xlink:href="#Century_Schoolbook_L_Roman-116"/>
     <use transform="translate(1495.37262305 0.0)scale(0.996264009963)" xlink:href="#Century_Schoolbook_L_Roman-105"/>
     <use transform="translate(1526.75393605 0.0)scale(0.996264009963)" xlink:href="#Century_Schoolbook_L_Roman-118"/>
     <use transform="translate(1580.25327994 0.0)scale(0.996264009963)" xlink:href="#Century_Schoolbook_L_Roman-101"/>
     <use transform="translate(1630.06648043 0.0)scale(0.996264009963)" xlink:href="#Century_Schoolbook_L_Roman-115"/>
     <use transform="translate(1703.8874606 0.0)scale(0.996264009963)" xlink:href="#Century_Schoolbook_L_Roman-40"/>
     <use transform="translate(1737.06269033 0.0)scale(0.996264009963)" xlink:href="#Century_Schoolbook_L_Roman-67"/>
     <use transform="translate(1808.99267517 0.0)scale(0.996264009963)" xlink:href="#Century_Schoolbook_L_Roman-79"/>
     <use transform="translate(1886.50104527 0.0)scale(0.996264009963)" xlink:href="#Century_Schoolbook_L_Roman-76"/>
     <use transform="translate(1952.95107641 0.0)scale(0.996264009963)" xlink:href="#Century_Schoolbook_L_Roman-73"/>
     <use transform="translate(1993.49850171 0.0)scale(0.996264009963)" xlink:href="#Century_Schoolbook_L_Roman-78"/>
     <use transform="translate(2074.69301521 0.0)scale(0.996264009963)" xlink:href="#Century_Schoolbook_L_Roman-41"/>
    </g>
   </g>
  </g>
  <g id="axes_2">
   <g id="patch_7">
    <path d="
M242.474 101.117
L423.304 101.117
L423.304 8.27563
L242.474 8.27563
z
" style="fill:#ffffff;"/>
   </g>
   <g id="line2d_34">
    <g clip-path="url(#p81edc15d31)">
     <use style="fill:#ff0000;stroke:#000000;stroke-linejoin:miter;stroke-width:0.5;" x="302.698509172" xlink:href="#mc410542f95" y="66.8700547752"/>
    </g>
   </g>
   <g id="line2d_35">
    <g clip-path="url(#p81edc15d31)">
     <use style="fill:#008000;stroke:#000000;stroke-linejoin:miter;stroke-width:0.5;" x="345.254444299" xlink:href="#mf0561904c8" y="37.2601992068"/>
    </g>
   </g>
   <g id="line2d_36">
    <g clip-path="url(#p81edc15d31)">
     <use style="fill:#0000ff;stroke:#000000;stroke-linejoin:miter;stroke-width:0.5;" x="280.113212886" xlink:href="#md1766d921c" y="73.7996539415"/>
    </g>
   </g>
   <g id="line2d_37">
    <g clip-path="url(#p81edc15d31)">
     <use style="fill:#ff8080;stroke:#000000;stroke-linejoin:miter;stroke-width:0.5;" x="354.293135138" xlink:href="#m051b0b15d7" y="41.3666888295"/>
    </g>
   </g>
   <g id="line2d_38">
    <g clip-path="url(#p81edc15d31)">
     <use style="fill:#80ff80;stroke:#000000;stroke-linejoin:miter;stroke-width:0.5;" x="350.788603293" xlink:href="#mdd41192fad" y="32.4231232956"/>
    </g>
   </g>
   <g id="line2d_39">
    <g clip-path="url(#p81edc15d31)">
     <use style="fill:#00bfff;stroke:#000000;stroke-linejoin:miter;stroke-width:0.5;" x="313.797690807" xlink:href="#m7d84e5d48f" y="54.5037648366"/>
    </g>
   </g>
   <g id="line2d_40">
    <g clip-path="url(#p81edc15d31)">
     <use style="fill:#800080;stroke:#000000;stroke-linejoin:miter;stroke-width:0.5;" x="297.045486016" xlink:href="#mb701dc2a58" y="67.6836067044"/>
    </g>
   </g>
   <g id="line2d_41">
    <g clip-path="url(#p81edc15d31)">
     <use style="fill:#ff80ff;stroke:#000000;stroke-linejoin:miter;stroke-width:0.5;" x="408.234576507" xlink:href="#m0676c59740" y="16.0123710721"/>
    </g>
   </g>
   <g id="line2d_42">
    <g clip-path="url(#p81edc15d31)">
     <use style="stroke:#000000;stroke-linejoin:miter;stroke-width:0.5;" x="257.543032371" xlink:href="#m293bd019ba" y="93.3798089759"/>
    </g>
   </g>
   <g id="matplotlib.axis_3">
    <g id="xtick_5">
     <g id="line2d_43">
      <g>
       <use style="stroke:#000000;stroke-width:0.5;" x="271.261098195" xlink:href="#m93b0483c22" y="101.116552766"/>
      </g>
     </g>
     <g id="line2d_44">
      <g>
       <use style="stroke:#000000;stroke-width:0.5;" x="271.261098195" xlink:href="#m741efc42ff" y="8.27562728176"/>
      </g>
     </g>
     <g id="text_25">
      <!-- $100$ -->
      <g transform="translate(265.304241766 110.29108747)scale(0.07 -0.07)">
       <use transform="scale(0.996264009963)" xlink:href="#CMR17-49"/>
       <use transform="translate(45.6904771171 0.0)scale(0.996264009963)" xlink:href="#CMR17-48"/>
       <use transform="translate(91.3809542341 0.0)scale(0.996264009963)" xlink:href="#CMR17-48"/>
      </g>
     </g>
    </g>
    <g id="xtick_6">
     <g id="line2d_45">
      <g>
       <use style="stroke:#000000;stroke-width:0.5;" x="307.732799785" xlink:href="#m93b0483c22" y="101.116552766"/>
      </g>
     </g>
     <g id="line2d_46">
      <g>
       <use style="stroke:#000000;stroke-width:0.5;" x="307.732799785" xlink:href="#m741efc42ff" y="8.27562728176"/>
      </g>
     </g>
     <g id="text_26">
      <!-- $200$ -->
      <g transform="translate(301.775943355 110.29108747)scale(0.07 -0.07)">
       <use transform="scale(0.996264009963)" xlink:href="#CMR17-50"/>
       <use transform="translate(45.6904771171 0.0)scale(0.996264009963)" xlink:href="#CMR17-48"/>
       <use transform="translate(91.3809542341 0.0)scale(0.996264009963)" xlink:href="#CMR17-48"/>
      </g>
     </g>
    </g>
    <g id="xtick_7">
     <g id="line2d_47">
      <g>
       <use style="stroke:#000000;stroke-width:0.5;" x="344.204501375" xlink:href="#m93b0483c22" y="101.116552766"/>
      </g>
     </g>
     <g id="line2d_48">
      <g>
       <use style="stroke:#000000;stroke-width:0.5;" x="344.204501375" xlink:href="#m741efc42ff" y="8.27562728176"/>
      </g>
     </g>
     <g id="text_27">
      <!-- $300$ -->
      <defs>
       <path d="
M22.0938 33.7031
C31 33.7031 34.9062 25.9688 34.9062 17.0312
C34.9062 5 28.5 0.390625 22.7031 0.390625
C17.4062 0.390625 8.79688 3.03125 6.09375 10.8281
C6.59375 10.625 7.09375 10.625 7.59375 10.625
C10 10.625 11.7969 12.2188 11.7969 14.8125
C11.7969 17.7031 9.59375 19 7.59375 19
C5.90625 19 3.29688 18.2031 3.29688 14.4688
C3.29688 5.23438 12.2969 -2 22.9062 -2
C34 -2 42.5 6.71875 42.5 16.9531
C42.5 26.6719 34.5 33.6875 25 34.7969
C32.5938 36.375 39.9062 43.0625 39.9062 52.0156
C39.9062 59.6875 32 65.2969 23 65.2969
C13.9062 65.2969 5.90625 59.8281 5.90625 52.0156
C5.90625 48.5938 8.5 48 9.79688 48
C11.9062 48 13.7031 49.2969 13.7031 51.8906
C13.7031 54.4688 11.9062 55.7656 9.79688 55.7656
C9.40625 55.7656 8.90625 55.7656 8.5 55.5625
C11.4062 61.8594 19.2969 63 22.7969 63
C26.2969 63 32.9062 61.3281 32.9062 51.875
C32.9062 49.1094 32.5 44.1875 29.0938 39.8438
C26.0938 36 22.7031 36 19.4062 35.5938
C18.9062 35.5938 16.5938 35.5938 16.2031 35.5938
C15.5 35.4844 15.0938 35.3906 15.0938 34.5938
C15.0938 33.8125 15.2031 33.7031 17.2031 33.7031
z
" id="CMR17-51"/>
      </defs>
      <g transform="translate(338.247644945 110.29108747)scale(0.07 -0.07)">
       <use transform="scale(0.996264009963)" xlink:href="#CMR17-51"/>
       <use transform="translate(45.6904771171 0.0)scale(0.996264009963)" xlink:href="#CMR17-48"/>
       <use transform="translate(91.3809542341 0.0)scale(0.996264009963)" xlink:href="#CMR17-48"/>
      </g>
     </g>
    </g>
    <g id="xtick_8">
     <g id="line2d_49">
      <g>
       <use style="stroke:#000000;stroke-width:0.5;" x="380.676202965" xlink:href="#m93b0483c22" y="101.116552766"/>
      </g>
     </g>
     <g id="line2d_50">
      <g>
       <use style="stroke:#000000;stroke-width:0.5;" x="380.676202965" xlink:href="#m741efc42ff" y="8.27562728176"/>
      </g>
     </g>
     <g id="text_28">
      <!-- $400$ -->
      <g transform="translate(374.719346535 110.29108747)scale(0.07 -0.07)">
       <use transform="scale(0.996264009963)" xlink:href="#CMR17-52"/>
       <use transform="translate(45.6904771171 0.0)scale(0.996264009963)" xlink:href="#CMR17-48"/>
       <use transform="translate(91.3809542341 0.0)scale(0.996264009963)" xlink:href="#CMR17-48"/>
      </g>
     </g>
    </g>
    <g id="xtick_9">
     <g id="line2d_51">
      <g>
       <use style="stroke:#000000;stroke-width:0.5;" x="417.147904555" xlink:href="#m93b0483c22" y="101.116552766"/>
      </g>
     </g>
     <g id="line2d_52">
      <g>
       <use style="stroke:#000000;stroke-width:0.5;" x="417.147904555" xlink:href="#m741efc42ff" y="8.27562728176"/>
      </g>
     </g>
     <g id="text_29">
      <!-- $500$ -->
      <g transform="translate(411.191048125 110.29108747)scale(0.07 -0.07)">
       <use transform="scale(0.996264009963)" xlink:href="#CMR17-53"/>
       <use transform="translate(45.6904771171 0.0)scale(0.996264009963)" xlink:href="#CMR17-48"/>
       <use transform="translate(91.3809542341 0.0)scale(0.996264009963)" xlink:href="#CMR17-48"/>
      </g>
     </g>
    </g>
    <g id="text_30">
     <!-- Processing Time (s) -->
     <defs>
      <path d="
M19.5938 7.59375
C14.0938 7.59375 13.7969 7.70312 12.5938 8.46875
C11.9062 8.90625 11.4062 10.1094 11.4062 11.2969
C11.4062 14.5781 14.0938 16 20.7969 16
C30.2969 16 31.7969 16.2031 35.0938 17.6875
C41.0938 20.3594 44.5 25.4844 44.5 31.9844
C44.5 35.9219 43.5938 38.3906 40.7969 41.6406
C42.5 43.4062 43.4062 44 44.2031 44
C44.7031 44 45 43.6875 45.2031 42.625
C45.5938 40.2656 47.2031 39 49.7031 39
C52.2031 39 54.2031 41.0938 54.2031 43.7812
C54.2031 47.1875 51.5 49.5781 47.5938 49.5781
C44.4062 49.5781 42.5938 48.5625 38 44.2969
C33.7969 47.0938 30.5938 48.0781 25.5938 48.0781
C13.7031 48.0781 5.90625 41.625 5.90625 31.8125
C5.90625 26.0312 9.09375 21.0312 14.2969 18.6875
C7.59375 17.1562 4.79688 14.0938 4.79688 8.46875
C4.79688 3.98438 6.79688 1.32812 11.5 -0.296875
C5.29688 -2.48438 2.29688 -5.67188 2.29688 -9.75
C2.29688 -16.3125 10 -20 23.4062 -20
C40.0938 -20 48.5 -14.7188 48.5 -4.25
C48.5 0.71875 46.2031 4.6875 42.5 6.1875
C39.9062 7.1875 36.7031 7.59375 29.7969 7.59375
z

M25.5 44
C31.7969 44 35.2969 39.6719 35.2969 32.0938
C35.2969 24.4219 31.5 19.7812 25.0938 19.7812
C18.9062 19.7812 15 24.4219 15 31.7969
C15 39.5625 18.7969 44 25.5 44
M24.5938 -1
C32.9062 -1 33.5 -1 35 -1.1875
C39 -1.59375 41.5 -3.78125 41.5 -6.95312
C41.5 -12.625 35 -15.9062 23.7969 -15.9062
C15.4062 -15.9062 10.5938 -13.4219 10.5938 -8.95312
C10.5938 -5.67188 12.4062 -3.46875 17.2031 -1
z
" id="Century_Schoolbook_L_Roman-103"/>
      <path d="
M63.2969 72
L3.40625 72
L1.90625 44.2656
L6.20312 44.2656
C6.90625 49.25 7.79688 53.0469 8.90625 56.2344
C11.5 63.5156 16.2969 67.3125 23.0938 67.3125
C26.4062 67.3125 27.7969 66.2031 27.7969 63.7188
L27.7969 12.2812
L27.7969 9.375
C27.7969 5.1875 26.9062 4.6875 18.7969 4.6875
L16.2031 4.6875
L16.2031 0
L50.5 0
L50.5 4.6875
L47.9062 4.6875
C39.9062 4.6875 39 5.1875 39 9.375
L39 12.2812
L39 63.7188
C39 66.2031 40.4062 67.3125 43.7031 67.3125
C49.7969 67.3125 54.7031 63.9062 57.2031 57.9219
C58.7031 54.25 59.7031 49.9531 60.5 44.2656
L64.7969 44.2656
z
" id="Century_Schoolbook_L_Roman-84"/>
      <path d="
M24.7969 32
L36.0938 32
C45.0938 32 49.7969 32.7031 53.7969 34.5938
C60.9062 38 64.9062 44.3594 64.9062 52.25
C64.9062 59.8438 61.4062 65.6094 54.7969 68.9062
C50.9062 70.9062 44.7031 72 37.7969 72
L2.79688 72
L2.79688 67.3125
L4.59375 67.3125
C12.7031 67.3125 13.5938 66.8125 13.5938 62.6094
L13.5938 59.7188
L13.5938 12.2812
L13.5938 9.375
C13.5938 5.1875 12.7031 4.6875 4.59375 4.6875
L2.79688 4.6875
L2.79688 0
L36.4062 0
L36.4062 4.6875
L33.7969 4.6875
C25.7031 4.6875 24.7969 5.1875 24.7969 9.375
L24.7969 12.2656
z

M24.7969 36.7031
L24.7969 62.2188
C24.7969 66.8125 25.4062 67.3125 30.9062 67.3125
L37.2969 67.3125
C47.7031 67.3125 52.5938 62.4219 52.5938 51.8594
C52.5938 41.5938 47.5 36.7031 36.9062 36.7031
z
" id="Century_Schoolbook_L_Roman-80"/>
     </defs>
     <g transform="translate(301.506959381 121.790624728)scale(0.07 -0.07)">
      <use transform="scale(0.996264009963)" xlink:href="#Century_Schoolbook_L_Roman-80"/>
      <use transform="translate(66.4500311333 0.0)scale(0.996264009963)" xlink:href="#Century_Schoolbook_L_Roman-114"/>
      <use transform="translate(110.683599831 0.0)scale(0.996264009963)" xlink:href="#Century_Schoolbook_L_Roman-111"/>
      <use transform="translate(160.496800329 0.0)scale(0.996264009963)" xlink:href="#Century_Schoolbook_L_Roman-99"/>
      <use transform="translate(204.730369026 0.0)scale(0.996264009963)" xlink:href="#Century_Schoolbook_L_Roman-101"/>
      <use transform="translate(254.543569524 0.0)scale(0.996264009963)" xlink:href="#Century_Schoolbook_L_Roman-115"/>
      <use transform="translate(300.669380083 0.0)scale(0.996264009963)" xlink:href="#Century_Schoolbook_L_Roman-115"/>
      <use transform="translate(346.795190643 0.0)scale(0.996264009963)" xlink:href="#Century_Schoolbook_L_Roman-105"/>
      <use transform="translate(378.176503639 0.0)scale(0.996264009963)" xlink:href="#Century_Schoolbook_L_Roman-110"/>
      <use transform="translate(439.048134316 0.0)scale(0.996264009963)" xlink:href="#Century_Schoolbook_L_Roman-103"/>
      <use transform="translate(520.24264781 0.0)scale(0.996264009963)" xlink:href="#Century_Schoolbook_L_Roman-84"/>
      <use transform="translate(586.692678943 0.0)scale(0.996264009963)" xlink:href="#Century_Schoolbook_L_Roman-105"/>
      <use transform="translate(618.073991939 0.0)scale(0.996264009963)" xlink:href="#Century_Schoolbook_L_Roman-109"/>
      <use transform="translate(706.640898632 0.0)scale(0.996264009963)" xlink:href="#Century_Schoolbook_L_Roman-101"/>
      <use transform="translate(784.149268733 0.0)scale(0.996264009963)" xlink:href="#Century_Schoolbook_L_Roman-40"/>
      <use transform="translate(817.324498463 0.0)scale(0.996264009963)" xlink:href="#Century_Schoolbook_L_Roman-115"/>
      <use transform="translate(863.450309022 0.0)scale(0.996264009963)" xlink:href="#Century_Schoolbook_L_Roman-41"/>
     </g>
    </g>
   </g>
   <g id="matplotlib.axis_4">
    <g id="ytick_9">
     <g id="line2d_53">
      <g>
       <use style="stroke:#000000;stroke-width:0.5;" x="242.473877958" xlink:href="#m728421d6d4" y="95.8447219877"/>
      </g>
     </g>
     <g id="line2d_54">
      <g>
       <use style="stroke:#000000;stroke-width:0.5;" x="423.303730921" xlink:href="#mcb0005524f" y="95.8447219877"/>
      </g>
     </g>
     <g id="text_31">
      <!-- $0$ -->
      <g transform="translate(234.502640338 97.7694880627)scale(0.07 -0.07)">
       <use transform="scale(0.996264009963)" xlink:href="#CMR17-48"/>
      </g>
     </g>
    </g>
    <g id="ytick_10">
     <g id="line2d_55">
      <g>
       <use style="stroke:#000000;stroke-width:0.5;" x="242.473877958" xlink:href="#m728421d6d4" y="77.1920180397"/>
      </g>
     </g>
     <g id="line2d_56">
      <g>
       <use style="stroke:#000000;stroke-width:0.5;" x="423.303730921" xlink:href="#mcb0005524f" y="77.1920180397"/>
      </g>
     </g>
     <g id="text_32">
      <!-- $1$ -->
      <g transform="translate(234.502640338 79.1167841147)scale(0.07 -0.07)">
       <use transform="scale(0.996264009963)" xlink:href="#CMR17-49"/>
      </g>
     </g>
    </g>
    <g id="ytick_11">
     <g id="line2d_57">
      <g>
       <use style="stroke:#000000;stroke-width:0.5;" x="242.473877958" xlink:href="#m728421d6d4" y="58.5393140918"/>
      </g>
     </g>
     <g id="line2d_58">
      <g>
       <use style="stroke:#000000;stroke-width:0.5;" x="423.303730921" xlink:href="#mcb0005524f" y="58.5393140918"/>
      </g>
     </g>
     <g id="text_33">
      <!-- $2$ -->
      <g transform="translate(234.502640338 60.4640801668)scale(0.07 -0.07)">
       <use transform="scale(0.996264009963)" xlink:href="#CMR17-50"/>
      </g>
     </g>
    </g>
    <g id="ytick_12">
     <g id="line2d_59">
      <g>
       <use style="stroke:#000000;stroke-width:0.5;" x="242.473877958" xlink:href="#m728421d6d4" y="39.8866101438"/>
      </g>
     </g>
     <g id="line2d_60">
      <g>
       <use style="stroke:#000000;stroke-width:0.5;" x="423.303730921" xlink:href="#mcb0005524f" y="39.8866101438"/>
      </g>
     </g>
     <g id="text_34">
      <!-- $3$ -->
      <g transform="translate(234.502640338 41.8113762188)scale(0.07 -0.07)">
       <use transform="scale(0.996264009963)" xlink:href="#CMR17-51"/>
      </g>
     </g>
    </g>
    <g id="ytick_13">
     <g id="line2d_61">
      <g>
       <use style="stroke:#000000;stroke-width:0.5;" x="242.473877958" xlink:href="#m728421d6d4" y="21.2339061959"/>
      </g>
     </g>
     <g id="line2d_62">
      <g>
       <use style="stroke:#000000;stroke-width:0.5;" x="423.303730921" xlink:href="#mcb0005524f" y="21.2339061959"/>
      </g>
     </g>
     <g id="text_35">
      <!-- $4$ -->
      <g transform="translate(234.502640338 23.1586722709)scale(0.07 -0.07)">
       <use transform="scale(0.996264009963)" xlink:href="#CMR17-52"/>
      </g>
     </g>
    </g>
    <g id="text_36">
     <!-- Memory Usage (GB) -->
     <defs>
      <path d="
M68.2969 50.5469
C68.2969 64.2188 70.2969 67.1094 79.9062 67.1094
L79.9062 72
L51.4062 72
L51.4062 67.1094
C60.9062 67.1094 62.9062 64.2188 62.9062 50.5312
L62.9062 28.4688
C62.9062 20.4844 62.4062 17.2812 60.5 13.7812
C57.2969 7.59375 50.7969 4 42.7031 4
C35.9062 4 30 6.57812 26.7031 11.0469
C24 14.7188 23.5 17.0938 23.5 26.3281
L23.5 59.5625
L23.5 62.4375
C23.5 66.6094 24.4062 67.1094 32.5 67.1094
L34.4062 67.1094
L34.4062 72
L1.70312 72
L1.70312 67.1094
L3.40625 67.1094
C11.4062 67.1094 12.2969 66.6094 12.2969 62.4375
L12.2969 59.5625
L12.2969 26.9062
L12.2969 20.0469
C12.5938 14.7812 13.4062 11.6094 15.2969 8.82812
C19.9062 2.29688 28.7031 -1.39062 40 -1.39062
C51.2969 -1.39062 59.0938 2 63.9062 9.09375
C67.0938 13.6875 68.2969 18.9844 68.2969 27.875
z
" id="Century_Schoolbook_L_Roman-85"/>
      <path d="
M65 72
L61.2031 72
L57.2969 65.8125
C50.7969 71 46.4062 72.7031 39.0938 72.7031
C31.2031 72.7031 25 70.5156 18.7031 65.4375
C8.79688 57.5 4.20312 47.4688 4.20312 34.0625
C4.20312 23.9219 7.20312 15.4844 13 9.03125
C19.2031 2.07812 28.4062 -2 38 -2
C46.4062 -2 52.2969 0.578125 58.7969 7.01562
L62.5 -2
L66.7031 -2
L66.7031 19.7969
C66.7031 25.1406 66.7031 25.2344 67.2969 25.9375
C68.2031 26.9219 70.2969 27.3125 75.7031 27.3125
L77.2031 27.3125
L77.2031 32
L45.4062 32
L45.4062 27.3125
L47.2969 27.3125
C55.7031 27.3125 56.4062 26.8125 56.4062 21.4062
C56.4062 17.1719 55.5938 13.2344 54.4062 10.875
C51.9062 6.04688 45.5 2.6875 39 2.6875
C32.5938 2.6875 26.0938 5.96875 22.7031 10.9375
C19 16.3906 17.4062 23.4375 17.4062 34.0625
C17.4062 56.1875 24.7969 68 38.7031 68
C50.0938 68 58 59.8594 62.0938 43.9688
L66.4062 43.9688
z
" id="Century_Schoolbook_L_Roman-71"/>
      <path d="
M3 72
L3 67.3125
L4.79688 67.3125
C12.9062 67.3125 13.7969 66.8125 13.7969 62.6094
L13.7969 59.7188
L13.7969 12.2812
L13.7969 9.375
C13.7969 5.1875 12.9062 4.6875 4.79688 4.6875
L3 4.6875
L3 0
L39.2969 0
C56.5938 0 67 7.40625 67 19.5938
C67 29.4844 60.5938 35.2969 47 37.6875
C51.7969 38.6875 54 39.5781 56.5 41.4688
C60.7031 44.5469 63.2031 49.4219 63.2031 54.5
C63.2031 60.8594 59.2031 67.125 53.4062 69.6094
C49.7969 71.2031 44.7969 72 38.9062 72
z

M25 39.6875
L25 62.3281
C25 66.2031 26.4062 67.3125 31.5938 67.3125
L35.5938 67.3125
C40.2031 67.3125 44 66.6094 46.0938 65.2188
C49.7031 63.0312 51.5938 58.75 51.5938 53.2031
C51.5938 43.4688 46.7031 39.6875 33.9062 39.6875
z

M25 35
L33.7969 35
C40.2031 35 44.5 34.3906 47.5 33.0938
C52.2031 30.8906 54.7031 26.5 54.7031 19.8906
C54.7031 13.5938 52.5 8.89062 48.5938 6.98438
C45.5 5.39062 41.2969 4.6875 35 4.6875
L30.7969 4.6875
C25.7031 4.6875 25 5.48438 25 11
z
" id="Century_Schoolbook_L_Roman-66"/>
     </defs>
     <g transform="translate(228.177637784 87.4972190908)rotate(-90.0)scale(0.07 -0.07)">
      <use transform="scale(0.996264009963)" xlink:href="#Century_Schoolbook_L_Roman-77"/>
      <use transform="translate(94.0467691956 0.0)scale(0.996264009963)" xlink:href="#Century_Schoolbook_L_Roman-101"/>
      <use transform="translate(143.859969694 0.0)scale(0.996264009963)" xlink:href="#Century_Schoolbook_L_Roman-109"/>
      <use transform="translate(232.426876386 0.0)scale(0.996264009963)" xlink:href="#Century_Schoolbook_L_Roman-111"/>
      <use transform="translate(282.240076885 0.0)scale(0.996264009963)" xlink:href="#Century_Schoolbook_L_Roman-114"/>
      <use transform="translate(326.473645582 0.0)scale(0.996264009963)" xlink:href="#Century_Schoolbook_L_Roman-121"/>
      <use transform="translate(407.668159076 0.0)scale(0.996264009963)" xlink:href="#Century_Schoolbook_L_Roman-85"/>
      <use transform="translate(488.862672571 0.0)scale(0.996264009963)" xlink:href="#Century_Schoolbook_L_Roman-115"/>
      <use transform="translate(534.98848313 0.0)scale(0.996264009963)" xlink:href="#Century_Schoolbook_L_Roman-97"/>
      <use transform="translate(590.380160093 0.0)scale(0.996264009963)" xlink:href="#Century_Schoolbook_L_Roman-103"/>
      <use transform="translate(643.879503984 0.0)scale(0.996264009963)" xlink:href="#Century_Schoolbook_L_Roman-101"/>
      <use transform="translate(721.387874085 0.0)scale(0.996264009963)" xlink:href="#Century_Schoolbook_L_Roman-40"/>
      <use transform="translate(754.563103815 0.0)scale(0.996264009963)" xlink:href="#Century_Schoolbook_L_Roman-71"/>
      <use transform="translate(832.071473916 0.0)scale(0.996264009963)" xlink:href="#Century_Schoolbook_L_Roman-66"/>
      <use transform="translate(904.001458763 0.0)scale(0.996264009963)" xlink:href="#Century_Schoolbook_L_Roman-41"/>
     </g>
    </g>
   </g>
   <g id="patch_8">
    <path d="
M242.474 8.27563
L423.304 8.27563" style="fill:none;stroke:#000000;"/>
   </g>
   <g id="patch_9">
    <path d="
M423.304 101.117
L423.304 8.27563" style="fill:none;stroke:#000000;"/>
   </g>
   <g id="patch_10">
    <path d="
M242.474 101.117
L423.304 101.117" style="fill:none;stroke:#000000;"/>
   </g>
   <g id="patch_11">
    <path d="
M242.474 101.117
L242.474 8.27563" style="fill:none;stroke:#000000;"/>
   </g>
   <g id="text_37">
    <!-- 5 -->
    <g transform="translate(307.698509172 71.8700547752)scale(0.07 -0.07)">
     <use transform="scale(0.996264009963)" xlink:href="#Century_Schoolbook_L_Roman-53"/>
    </g>
   </g>
   <g id="text_38">
    <!-- 2 -->
    <defs>
     <path d="
M50.5 21.5625
L46.0938 21.5625
L45.0938 16.4688
C43.7969 10.0781 43 9.375 36.7969 9.375
L14.4062 9.375
C21.2969 16.5625 23.5938 18.6562 30 23.6562
C39.0938 30.6562 43 34.1562 45.2969 37.1406
C48.5 41.5312 50.0938 46.0312 50.0938 50.8125
C50.0938 62.1094 40.5938 70.2969 27.5938 70.2969
C14.9062 70.2969 5.09375 62.1094 5.09375 51.5156
C5.09375 45.2344 8.29688 40.9375 13.0938 40.9375
C16.7969 40.9375 19.2969 43.4375 19.2969 47.0312
C19.2969 49.5156 17.9062 51.8125 15.7031 52.7188
C12 54.3281 11.7969 54.4219 11.7969 55.7188
C11.7969 57.2188 12.7969 59.5156 14.2031 61.2188
C16.7031 64.2031 20.9062 66 25.5938 66
C33.7969 66 38.7969 60.9062 38.7969 52.5312
C38.7969 45.125 35.2969 38.4375 27 29.6562
L21.0938 23.4688
C17.5938 19.7812 15 16.9688 13.2969 15.0781
C9.70312 10.875 7.90625 8.57812 3.5 2.79688
L3.5 0
L48.5938 0
z
" id="Century_Schoolbook_L_Roman-50"/>
    </defs>
    <g transform="translate(350.254444299 42.2601992068)scale(0.07 -0.07)">
     <use transform="scale(0.996264009963)" xlink:href="#Century_Schoolbook_L_Roman-50"/>
    </g>
   </g>
   <g id="text_39">
    <!-- 7 -->
    <g transform="translate(285.113212886 78.7996539415)scale(0.07 -0.07)">
     <use transform="scale(0.996264009963)" xlink:href="#Century_Schoolbook_L_Roman-55"/>
    </g>
   </g>
   <g id="text_40">
    <!-- 1 -->
    <g transform="translate(359.293135138 46.3666888295)scale(0.07 -0.07)">
     <use transform="scale(0.996264009963)" xlink:href="#Century_Schoolbook_L_Roman-49"/>
    </g>
   </g>
   <g id="text_41">
    <!-- 1 -->
    <g transform="translate(355.788603293 37.4231232956)scale(0.07 -0.07)">
     <use transform="scale(0.996264009963)" xlink:href="#Century_Schoolbook_L_Roman-49"/>
    </g>
   </g>
   <g id="text_42">
    <!-- 4 -->
    <g transform="translate(318.797690807 59.5037648366)scale(0.07 -0.07)">
     <use transform="scale(0.996264009963)" xlink:href="#Century_Schoolbook_L_Roman-52"/>
    </g>
   </g>
   <g id="text_43">
    <!-- 6 -->
    <g transform="translate(302.045486016 72.6836067044)scale(0.07 -0.07)">
     <use transform="scale(0.996264009963)" xlink:href="#Century_Schoolbook_L_Roman-54"/>
    </g>
   </g>
   <g id="text_44">
    <!-- 0 -->
    <g transform="translate(413.234576507 21.0123710721)scale(0.07 -0.07)">
     <use transform="scale(0.996264009963)" xlink:href="#Century_Schoolbook_L_Roman-48"/>
    </g>
   </g>
   <g id="text_45">
    <!-- 8 -->
    <defs>
     <path d="
M37.4062 39.5625
C44.9062 43.6719 48.4062 48.5781 48.4062 55.0781
C48.4062 64.2969 40 71 28.5 71
C16.2969 71 7.40625 62.875 7.40625 51.875
C7.40625 47.5625 9 43.0781 11.7969 39.9688
C13.5 37.9688 15.0938 36.8594 18.7031 34.9531
C14.2969 33.2656 12.4062 32.25 10.2031 30.4531
C6.29688 27.2344 4.09375 22.4375 4.09375 17.3281
C4.09375 11.9219 6.79688 6.51562 11 3.3125
C14.9062 0.5 20.2969 -1 26.7031 -1
C34.0938 -1 40.2969 1 44.4062 4.70312
C48.7031 8.42188 51.2969 14.5156 51.2969 20.6406
C51.2969 26.3438 49.0938 31.4531 45 35.0625
C43 36.75 41.2031 37.875 37.4062 39.5625
M26.7031 43.4688
C18.5938 46.4688 15.0938 50.2812 15.0938 56.0938
C15.0938 62.3906 20.2969 66.7031 28.2031 66.7031
C35.9062 66.7031 41 61.7969 41 54.4844
C41 49.2812 39 45.875 33.2969 41.0625
z

M32.5 29.6406
C40.0938 26.9375 43.2969 23.0312 43.2969 16.4219
C43.2969 8.40625 37 3.29688 27.2031 3.29688
C17.9062 3.29688 12.4062 8.5 12.4062 17.3125
C12.4062 24.8281 15.5 29.3438 23.2969 32.9531
z
" id="Century_Schoolbook_L_Roman-56"/>
    </defs>
    <g transform="translate(262.543032371 98.3798089759)scale(0.07 -0.07)">
     <use transform="scale(0.996264009963)" xlink:href="#Century_Schoolbook_L_Roman-56"/>
    </g>
   </g>
   <g id="text_46">
    <!-- f) First Response Cost Objectives (COLIN) -->
    <g transform="translate(242.473877958 132.285874132)scale(0.07 -0.07)">
     <use transform="scale(0.996264009963)" xlink:href="#Century_Schoolbook_L_Roman-102"/>
     <use transform="translate(33.1752297293 0.0)scale(0.996264009963)" xlink:href="#Century_Schoolbook_L_Roman-41"/>
     <use transform="translate(94.0456290619 0.0)scale(0.996264009963)" xlink:href="#Century_Schoolbook_L_Roman-70"/>
     <use transform="translate(159.499563405 0.0)scale(0.996264009963)" xlink:href="#Century_Schoolbook_L_Roman-105"/>
     <use transform="translate(190.880876401 0.0)scale(0.996264009963)" xlink:href="#Century_Schoolbook_L_Roman-114"/>
     <use transform="translate(235.114445098 0.0)scale(0.996264009963)" xlink:href="#Century_Schoolbook_L_Roman-115"/>
     <use transform="translate(281.240255657 0.0)scale(0.996264009963)" xlink:href="#Century_Schoolbook_L_Roman-116"/>
     <use transform="translate(347.689131455 0.0)scale(0.996264009963)" xlink:href="#Century_Schoolbook_L_Roman-82"/>
     <use transform="translate(419.619116302 0.0)scale(0.996264009963)" xlink:href="#Century_Schoolbook_L_Roman-101"/>
     <use transform="translate(469.4323168 0.0)scale(0.996264009963)" xlink:href="#Century_Schoolbook_L_Roman-115"/>
     <use transform="translate(515.558127359 0.0)scale(0.996264009963)" xlink:href="#Century_Schoolbook_L_Roman-112"/>
     <use transform="translate(572.743614643 0.0)scale(0.996264009963)" xlink:href="#Century_Schoolbook_L_Roman-111"/>
     <use transform="translate(622.556815141 0.0)scale(0.996264009963)" xlink:href="#Century_Schoolbook_L_Roman-110"/>
     <use transform="translate(683.428445818 0.0)scale(0.996264009963)" xlink:href="#Century_Schoolbook_L_Roman-115"/>
     <use transform="translate(729.554256377 0.0)scale(0.996264009963)" xlink:href="#Century_Schoolbook_L_Roman-101"/>
     <use transform="translate(807.062626479 0.0)scale(0.996264009963)" xlink:href="#Century_Schoolbook_L_Roman-67"/>
     <use transform="translate(878.992611326 0.0)scale(0.996264009963)" xlink:href="#Century_Schoolbook_L_Roman-111"/>
     <use transform="translate(928.805811824 0.0)scale(0.996264009963)" xlink:href="#Century_Schoolbook_L_Roman-115"/>
     <use transform="translate(974.931622383 0.0)scale(0.996264009963)" xlink:href="#Century_Schoolbook_L_Roman-116"/>
     <use transform="translate(1041.38049818 0.0)scale(0.996264009963)" xlink:href="#Century_Schoolbook_L_Roman-79"/>
     <use transform="translate(1118.88886828 0.0)scale(0.996264009963)" xlink:href="#Century_Schoolbook_L_Roman-98"/>
     <use transform="translate(1174.28054525 0.0)scale(0.996264009963)" xlink:href="#Century_Schoolbook_L_Roman-106"/>
     <use transform="translate(1203.76952517 0.0)scale(0.996264009963)" xlink:href="#Century_Schoolbook_L_Roman-101"/>
     <use transform="translate(1253.58272567 0.0)scale(0.996264009963)" xlink:href="#Century_Schoolbook_L_Roman-99"/>
     <use transform="translate(1297.81629436 0.0)scale(0.996264009963)" xlink:href="#Century_Schoolbook_L_Roman-116"/>
     <use transform="translate(1336.57000056 0.0)scale(0.996264009963)" xlink:href="#Century_Schoolbook_L_Roman-105"/>
     <use transform="translate(1367.95131356 0.0)scale(0.996264009963)" xlink:href="#Century_Schoolbook_L_Roman-118"/>
     <use transform="translate(1421.45065745 0.0)scale(0.996264009963)" xlink:href="#Century_Schoolbook_L_Roman-101"/>
     <use transform="translate(1471.26385794 0.0)scale(0.996264009963)" xlink:href="#Century_Schoolbook_L_Roman-115"/>
     <use transform="translate(1545.08483811 0.0)scale(0.996264009963)" xlink:href="#Century_Schoolbook_L_Roman-40"/>
     <use transform="translate(1578.26006784 0.0)scale(0.996264009963)" xlink:href="#Century_Schoolbook_L_Roman-67"/>
     <use transform="translate(1650.19005268 0.0)scale(0.996264009963)" xlink:href="#Century_Schoolbook_L_Roman-79"/>
     <use transform="translate(1727.69842278 0.0)scale(0.996264009963)" xlink:href="#Century_Schoolbook_L_Roman-76"/>
     <use transform="translate(1794.14845392 0.0)scale(0.996264009963)" xlink:href="#Century_Schoolbook_L_Roman-73"/>
     <use transform="translate(1834.69587922 0.0)scale(0.996264009963)" xlink:href="#Century_Schoolbook_L_Roman-78"/>
     <use transform="translate(1915.89039272 0.0)scale(0.996264009963)" xlink:href="#Century_Schoolbook_L_Roman-41"/>
    </g>
   </g>
  </g>
 </g>
 <defs>
  <clipPath id="p81edc15d31">
   <rect height="92.8409254845" width="180.829852963" x="242.473877958" y="8.27562728176"/>
  </clipPath>
  <clipPath id="p1cc5465780">
   <rect height="92.8409254845" width="180.829852963" x="34.6132501167" y="8.27562728176"/>
  </clipPath>
 </defs>
</svg>
