<?xml version="1.0" encoding="UTF-8" standalone="no"?>
<!DOCTYPE svg PUBLIC "-//W3C//DTD SVG 1.1//EN"
 "http://www.w3.org/Graphics/SVG/1.1/DTD/svg11.dtd">
<!-- Generated by graphviz version 2.28.0 (20170704.0136)
 -->
<!-- Title: _anonymous_0 Pages: 1 -->
<svg width="469pt" height="874pt"
 viewBox="0.00 0.00 468.96 873.86" xmlns="http://www.w3.org/2000/svg" xmlns:xlink="http://www.w3.org/1999/xlink">
<g id="graph1" class="graph" transform="scale(1 1) rotate(0) translate(4 869.861)">
<title>_anonymous_0</title>
<polygon fill="white" stroke="white" points="-4,5 -4,-869.861 465.961,-869.861 465.961,5 -4,5"/>
<!-- wpt_22 -->
<g id="node1" class="node"><title>wpt_22</title>
<ellipse fill="none" stroke="black" cx="84.6559" cy="-171.392" rx="39.9593" ry="40.1111"/>
<text text-anchor="middle" x="84.6559" y="-167.692" font-family="Times,serif" font-size="14.00">wpt_22</text>
</g>
<!-- wpt_17 -->
<g id="node2" class="node"><title>wpt_17</title>
<ellipse fill="none" stroke="black" cx="247.656" cy="-250.095" rx="39.9593" ry="40.1111"/>
<text text-anchor="middle" x="247.656" y="-246.395" font-family="Times,serif" font-size="14.00">wpt_17</text>
</g>
<!-- wpt_18 -->
<g id="node12" class="node"><title>wpt_18</title>
<ellipse fill="none" stroke="black" cx="140.281" cy="-283.78" rx="39.9593" ry="40.1111"/>
<text text-anchor="middle" x="140.281" y="-280.08" font-family="Times,serif" font-size="14.00">wpt_18</text>
</g>
<!-- wpt_17&#45;&#45;wpt_18 -->
<g id="edge64" class="edge"><title>wpt_17&#45;&#45;wpt_18</title>
<path fill="none" stroke="black" d="M209.194,-262.161C199.325,-265.257 188.708,-268.588 178.835,-271.685"/>
</g>
<!-- wpt_16 -->
<g id="node3" class="node"><title>wpt_16</title>
<ellipse fill="none" stroke="black" cx="310.52" cy="-148.919" rx="39.9593" ry="40.1111"/>
<text text-anchor="middle" x="310.52" y="-145.219" font-family="Times,serif" font-size="14.00">wpt_16</text>
</g>
<!-- wpt_16&#45;&#45;wpt_17 -->
<g id="edge20" class="edge"><title>wpt_16&#45;&#45;wpt_17</title>
<path fill="none" stroke="black" d="M289.237,-183.173C282.683,-193.721 275.47,-205.331 268.917,-215.877"/>
</g>
<!-- wpt_20 -->
<g id="node13" class="node"><title>wpt_20</title>
<ellipse fill="none" stroke="black" cx="251.407" cy="-40.3051" rx="39.9593" ry="40.1111"/>
<text text-anchor="middle" x="251.407" y="-36.6051" font-family="Times,serif" font-size="14.00">wpt_20</text>
</g>
<!-- wpt_16&#45;&#45;wpt_20 -->
<g id="edge58" class="edge"><title>wpt_16&#45;&#45;wpt_20</title>
<path fill="none" stroke="black" d="M291.164,-113.355C284.632,-101.352 277.342,-87.9578 270.806,-75.9492"/>
</g>
<!-- wpt_15 -->
<g id="node4" class="node"><title>wpt_15</title>
<ellipse fill="none" stroke="black" cx="74.0436" cy="-486.537" rx="39.9593" ry="40.1111"/>
<text text-anchor="middle" x="74.0436" y="-482.837" font-family="Times,serif" font-size="14.00">wpt_15</text>
</g>
<!-- wpt_19 -->
<g id="node11" class="node"><title>wpt_19</title>
<ellipse fill="none" stroke="black" cx="40.1525" cy="-366.896" rx="39.9593" ry="40.1111"/>
<text text-anchor="middle" x="40.1525" y="-363.196" font-family="Times,serif" font-size="14.00">wpt_19</text>
</g>
<!-- wpt_15&#45;&#45;wpt_19 -->
<g id="edge22" class="edge"><title>wpt_15&#45;&#45;wpt_19</title>
<path fill="none" stroke="black" d="M63.0401,-447.693C59.2518,-434.32 55.0099,-419.345 51.2168,-405.955"/>
</g>
<!-- wpt_14 -->
<g id="node5" class="node"><title>wpt_14</title>
<ellipse fill="none" stroke="black" cx="163.992" cy="-435.069" rx="39.9593" ry="40.1111"/>
<text text-anchor="middle" x="163.992" y="-431.369" font-family="Times,serif" font-size="14.00">wpt_14</text>
</g>
<!-- wpt_14&#45;&#45;wpt_15 -->
<g id="edge16" class="edge"><title>wpt_14&#45;&#45;wpt_15</title>
<path fill="none" stroke="black" d="M128.958,-455.115C122.447,-458.841 115.643,-462.734 109.13,-466.461"/>
</g>
<!-- wpt_13 -->
<g id="node6" class="node"><title>wpt_13</title>
<ellipse fill="none" stroke="black" cx="249.57" cy="-357.267" rx="39.9593" ry="40.1111"/>
<text text-anchor="middle" x="249.57" y="-353.567" font-family="Times,serif" font-size="14.00">wpt_13</text>
</g>
<!-- wpt_13&#45;&#45;wpt_17 -->
<g id="edge80" class="edge"><title>wpt_13&#45;&#45;wpt_17</title>
<path fill="none" stroke="black" d="M248.846,-316.75C248.694,-308.214 248.533,-299.208 248.381,-290.67"/>
</g>
<!-- wpt_13&#45;&#45;wpt_14 -->
<g id="edge54" class="edge"><title>wpt_13&#45;&#45;wpt_14</title>
<path fill="none" stroke="black" d="M219.639,-384.479C211.252,-392.103 202.139,-400.388 193.762,-408.004"/>
</g>
<!-- wpt_13&#45;&#45;wpt_18 -->
<g id="edge46" class="edge"><title>wpt_13&#45;&#45;wpt_18</title>
<path fill="none" stroke="black" d="M216.186,-334.819C202.752,-325.787 187.288,-315.388 173.837,-306.344"/>
</g>
<!-- wpt_12 -->
<g id="node7" class="node"><title>wpt_12</title>
<ellipse fill="none" stroke="black" cx="338.034" cy="-264.468" rx="39.9593" ry="40.1111"/>
<text text-anchor="middle" x="338.034" y="-260.768" font-family="Times,serif" font-size="14.00">wpt_12</text>
</g>
<!-- wpt_12&#45;&#45;wpt_17 -->
<g id="edge14" class="edge"><title>wpt_12&#45;&#45;wpt_17</title>
<path fill="none" stroke="black" d="M298.13,-258.122C294.63,-257.566 291.088,-257.002 287.589,-256.446"/>
</g>
<!-- wpt_12&#45;&#45;wpt_16 -->
<g id="edge56" class="edge"><title>wpt_12&#45;&#45;wpt_16</title>
<path fill="none" stroke="black" d="M328.642,-225.026C325.809,-213.127 322.7,-200.071 319.87,-188.184"/>
</g>
<!-- wpt_12&#45;&#45;wpt_13 -->
<g id="edge48" class="edge"><title>wpt_12&#45;&#45;wpt_13</title>
<path fill="none" stroke="black" d="M310.043,-293.831C299.616,-304.769 287.79,-317.175 277.378,-328.096"/>
</g>
<!-- wpt_11 -->
<g id="node8" class="node"><title>wpt_11</title>
<ellipse fill="none" stroke="black" cx="74.8938" cy="-599.686" rx="39.9593" ry="40.1111"/>
<text text-anchor="middle" x="74.8938" y="-595.986" font-family="Times,serif" font-size="14.00">wpt_11</text>
</g>
<!-- wpt_11&#45;&#45;wpt_15 -->
<g id="edge36" class="edge"><title>wpt_11&#45;&#45;wpt_15</title>
<path fill="none" stroke="black" d="M74.5893,-559.156C74.5111,-548.757 74.4271,-537.568 74.3489,-527.164"/>
</g>
<!-- wpt_10 -->
<g id="node9" class="node"><title>wpt_10</title>
<ellipse fill="none" stroke="black" cx="178.527" cy="-544.835" rx="39.9593" ry="40.1111"/>
<text text-anchor="middle" x="178.527" y="-541.135" font-family="Times,serif" font-size="14.00">wpt_10</text>
</g>
<!-- wpt_10&#45;&#45;wpt_15 -->
<g id="edge74" class="edge"><title>wpt_10&#45;&#45;wpt_15</title>
<path fill="none" stroke="black" d="M143.154,-525.098C132.261,-519.02 120.271,-512.33 109.381,-506.254"/>
</g>
<!-- wpt_10&#45;&#45;wpt_14 -->
<g id="edge6" class="edge"><title>wpt_10&#45;&#45;wpt_14</title>
<path fill="none" stroke="black" d="M173.197,-504.585C171.933,-495.04 170.585,-484.858 169.321,-475.314"/>
</g>
<!-- wpt_10&#45;&#45;wpt_11 -->
<g id="edge8" class="edge"><title>wpt_10&#45;&#45;wpt_11</title>
<path fill="none" stroke="black" d="M142.862,-563.711C132.441,-569.227 121.05,-575.256 110.624,-580.774"/>
</g>
<!-- wpt_21 -->
<g id="node10" class="node"><title>wpt_21</title>
<ellipse fill="none" stroke="black" cx="128.406" cy="-55.9181" rx="39.9593" ry="40.1111"/>
<text text-anchor="middle" x="128.406" y="-52.2181" font-family="Times,serif" font-size="14.00">wpt_21</text>
</g>
<!-- wpt_21&#45;&#45;wpt_22 -->
<g id="edge60" class="edge"><title>wpt_21&#45;&#45;wpt_22</title>
<path fill="none" stroke="black" d="M114.081,-93.7286C109.246,-106.489 103.851,-120.73 99.0135,-133.497"/>
</g>
<!-- wpt_18&#45;&#45;wpt_22 -->
<g id="edge38" class="edge"><title>wpt_18&#45;&#45;wpt_22</title>
<path fill="none" stroke="black" d="M122.374,-247.601C116.023,-234.767 108.878,-220.331 102.529,-207.503"/>
</g>
<!-- wpt_18&#45;&#45;wpt_19 -->
<g id="edge26" class="edge"><title>wpt_18&#45;&#45;wpt_19</title>
<path fill="none" stroke="black" d="M109.148,-309.623C97.0927,-319.63 83.3194,-331.063 71.2656,-341.069"/>
</g>
<!-- wpt_20&#45;&#45;wpt_21 -->
<g id="edge50" class="edge"><title>wpt_20&#45;&#45;wpt_21</title>
<path fill="none" stroke="black" d="M211.472,-45.3742C197.723,-47.1194 182.328,-49.0736 168.561,-50.821"/>
</g>
<!-- wpt_08 -->
<g id="node14" class="node"><title>wpt_08</title>
<ellipse fill="none" stroke="black" cx="420.808" cy="-480.217" rx="39.9593" ry="40.1111"/>
<text text-anchor="middle" x="420.808" y="-476.517" font-family="Times,serif" font-size="14.00">wpt_08</text>
</g>
<!-- wpt_09 -->
<g id="node15" class="node"><title>wpt_09</title>
<ellipse fill="none" stroke="black" cx="292.713" cy="-480.936" rx="39.9593" ry="40.1111"/>
<text text-anchor="middle" x="292.713" y="-477.236" font-family="Times,serif" font-size="14.00">wpt_09</text>
</g>
<!-- wpt_08&#45;&#45;wpt_09 -->
<g id="edge28" class="edge"><title>wpt_08&#45;&#45;wpt_09</title>
<path fill="none" stroke="black" d="M380.278,-480.444C365.326,-480.528 348.387,-480.623 333.419,-480.707"/>
</g>
<!-- wpt_09&#45;&#45;wpt_13 -->
<g id="edge82" class="edge"><title>wpt_09&#45;&#45;wpt_13</title>
<path fill="none" stroke="black" d="M279.417,-442.822C274.168,-427.776 268.149,-410.522 262.897,-395.468"/>
</g>
<!-- wpt_09&#45;&#45;wpt_10 -->
<g id="edge32" class="edge"><title>wpt_09&#45;&#45;wpt_10</title>
<path fill="none" stroke="black" d="M257.522,-500.629C243.63,-508.403 227.699,-517.318 213.799,-525.096"/>
</g>
<!-- wpt_00 -->
<g id="node16" class="node"><title>wpt_00</title>
<ellipse fill="none" stroke="black" cx="358.629" cy="-672.36" rx="39.9593" ry="40.1111"/>
<text text-anchor="middle" x="358.629" y="-668.66" font-family="Times,serif" font-size="14.00">wpt_00</text>
</g>
<!-- wpt_01 -->
<g id="node17" class="node"><title>wpt_01</title>
<ellipse fill="none" stroke="black" cx="258.798" cy="-715.53" rx="39.9593" ry="40.1111"/>
<text text-anchor="middle" x="258.798" y="-711.83" font-family="Times,serif" font-size="14.00">wpt_01</text>
</g>
<!-- wpt_00&#45;&#45;wpt_01 -->
<g id="edge10" class="edge"><title>wpt_00&#45;&#45;wpt_01</title>
<path fill="none" stroke="black" d="M321.456,-688.435C313.14,-692.03 304.319,-695.845 296.003,-699.441"/>
</g>
<!-- wpt_04 -->
<g id="node20" class="node"><title>wpt_04</title>
<ellipse fill="none" stroke="black" cx="373.309" cy="-562.952" rx="39.9593" ry="40.1111"/>
<text text-anchor="middle" x="373.309" y="-559.252" font-family="Times,serif" font-size="14.00">wpt_04</text>
</g>
<!-- wpt_00&#45;&#45;wpt_04 -->
<g id="edge70" class="edge"><title>wpt_00&#45;&#45;wpt_04</title>
<path fill="none" stroke="black" d="M364.012,-632.242C365.288,-622.728 366.65,-612.579 367.927,-603.066"/>
</g>
<!-- wpt_05 -->
<g id="node21" class="node"><title>wpt_05</title>
<ellipse fill="none" stroke="black" cx="269.342" cy="-598.047" rx="39.9593" ry="40.1111"/>
<text text-anchor="middle" x="269.342" y="-594.347" font-family="Times,serif" font-size="14.00">wpt_05</text>
</g>
<!-- wpt_00&#45;&#45;wpt_05 -->
<g id="edge4" class="edge"><title>wpt_00&#45;&#45;wpt_05</title>
<path fill="none" stroke="black" d="M327.651,-646.577C318.887,-639.283 309.345,-631.342 300.567,-624.035"/>
</g>
<!-- wpt_02 -->
<g id="node18" class="node"><title>wpt_02</title>
<ellipse fill="none" stroke="black" cx="159.789" cy="-775.324" rx="39.9593" ry="40.1111"/>
<text text-anchor="middle" x="159.789" y="-771.624" font-family="Times,serif" font-size="14.00">wpt_02</text>
</g>
<!-- wpt_01&#45;&#45;wpt_02 -->
<g id="edge52" class="edge"><title>wpt_01&#45;&#45;wpt_02</title>
<path fill="none" stroke="black" d="M224.17,-736.443C214.578,-742.236 204.165,-748.524 194.565,-754.322"/>
</g>
<!-- wpt_01&#45;&#45;wpt_05 -->
<g id="edge62" class="edge"><title>wpt_01&#45;&#45;wpt_05</title>
<path fill="none" stroke="black" d="M262.427,-675.099C263.487,-663.284 264.646,-650.371 265.707,-638.552"/>
</g>
<!-- wpt_06 -->
<g id="node22" class="node"><title>wpt_06</title>
<ellipse fill="none" stroke="black" cx="167.916" cy="-660.46" rx="39.9593" ry="40.1111"/>
<text text-anchor="middle" x="167.916" y="-656.76" font-family="Times,serif" font-size="14.00">wpt_06</text>
</g>
<!-- wpt_01&#45;&#45;wpt_06 -->
<g id="edge42" class="edge"><title>wpt_01&#45;&#45;wpt_06</title>
<path fill="none" stroke="black" d="M224.181,-694.553C217.057,-690.237 209.558,-685.692 202.438,-681.378"/>
</g>
<!-- wpt_03 -->
<g id="node19" class="node"><title>wpt_03</title>
<ellipse fill="none" stroke="black" cx="58.4286" cy="-825.556" rx="39.9593" ry="40.1111"/>
<text text-anchor="middle" x="58.4286" y="-821.856" font-family="Times,serif" font-size="14.00">wpt_03</text>
</g>
<!-- wpt_02&#45;&#45;wpt_03 -->
<g id="edge2" class="edge"><title>wpt_02&#45;&#45;wpt_03</title>
<path fill="none" stroke="black" d="M123.767,-793.176C114.322,-797.857 104.133,-802.906 94.6753,-807.593"/>
</g>
<!-- wpt_02&#45;&#45;wpt_06 -->
<g id="edge72" class="edge"><title>wpt_02&#45;&#45;wpt_06</title>
<path fill="none" stroke="black" d="M162.654,-734.828C163.431,-723.847 164.272,-711.96 165.049,-700.978"/>
</g>
<!-- wpt_07 -->
<g id="node23" class="node"><title>wpt_07</title>
<ellipse fill="none" stroke="black" cx="66.4107" cy="-713.642" rx="39.9593" ry="40.1111"/>
<text text-anchor="middle" x="66.4107" y="-709.942" font-family="Times,serif" font-size="14.00">wpt_07</text>
</g>
<!-- wpt_02&#45;&#45;wpt_07 -->
<g id="edge76" class="edge"><title>wpt_02&#45;&#45;wpt_07</title>
<path fill="none" stroke="black" d="M126.077,-753.056C117.614,-747.465 108.533,-741.467 100.073,-735.878"/>
</g>
<!-- wpt_03&#45;&#45;wpt_07 -->
<g id="edge78" class="edge"><title>wpt_03&#45;&#45;wpt_07</title>
<path fill="none" stroke="black" d="M61.3103,-785.153C62.0337,-775.01 62.81,-764.126 63.5332,-753.986"/>
</g>
<!-- wpt_04&#45;&#45;wpt_08 -->
<g id="edge66" class="edge"><title>wpt_04&#45;&#45;wpt_08</title>
<path fill="none" stroke="black" d="M393.453,-527.865C395.83,-523.725 398.256,-519.499 400.633,-515.358"/>
</g>
<!-- wpt_04&#45;&#45;wpt_09 -->
<g id="edge18" class="edge"><title>wpt_04&#45;&#45;wpt_09</title>
<path fill="none" stroke="black" d="M344.667,-533.805C336.975,-525.978 328.664,-517.52 320.992,-509.713"/>
</g>
<!-- wpt_04&#45;&#45;wpt_05 -->
<g id="edge34" class="edge"><title>wpt_04&#45;&#45;wpt_05</title>
<path fill="none" stroke="black" d="M335.186,-575.821C326.145,-578.873 316.501,-582.128 307.46,-585.18"/>
</g>
<!-- wpt_05&#45;&#45;wpt_10 -->
<g id="edge40" class="edge"><title>wpt_05&#45;&#45;wpt_10</title>
<path fill="none" stroke="black" d="M234.49,-577.626C227.587,-573.581 220.34,-569.335 213.435,-565.289"/>
</g>
<!-- wpt_05&#45;&#45;wpt_09 -->
<g id="edge44" class="edge"><title>wpt_05&#45;&#45;wpt_09</title>
<path fill="none" stroke="black" d="M277.254,-558.398C279.691,-546.188 282.372,-532.75 284.809,-520.543"/>
</g>
<!-- wpt_05&#45;&#45;wpt_06 -->
<g id="edge68" class="edge"><title>wpt_05&#45;&#45;wpt_06</title>
<path fill="none" stroke="black" d="M235.004,-619.177C224.429,-625.684 212.791,-632.846 202.219,-639.352"/>
</g>
<!-- wpt_06&#45;&#45;wpt_11 -->
<g id="edge84" class="edge"><title>wpt_06&#45;&#45;wpt_11</title>
<path fill="none" stroke="black" d="M134.07,-638.347C125.758,-632.917 116.862,-627.105 108.559,-621.681"/>
</g>
<!-- wpt_06&#45;&#45;wpt_10 -->
<g id="edge24" class="edge"><title>wpt_06&#45;&#45;wpt_10</title>
<path fill="none" stroke="black" d="M171.628,-620.02C172.667,-608.689 173.797,-596.376 174.836,-585.057"/>
</g>
<!-- wpt_06&#45;&#45;wpt_07 -->
<g id="edge12" class="edge"><title>wpt_06&#45;&#45;wpt_07</title>
<path fill="none" stroke="black" d="M132.129,-679.21C122.426,-684.294 111.921,-689.798 102.217,-694.882"/>
</g>
<!-- wpt_07&#45;&#45;wpt_11 -->
<g id="edge30" class="edge"><title>wpt_07&#45;&#45;wpt_11</title>
<path fill="none" stroke="black" d="M69.4254,-673.144C70.2255,-662.397 71.0893,-650.794 71.8888,-640.053"/>
</g>
</g>
</svg>
