<?xml version="1.0" encoding="UTF-8" standalone="no"?>
<!DOCTYPE svg PUBLIC "-//W3C//DTD SVG 1.1//EN"
 "http://www.w3.org/Graphics/SVG/1.1/DTD/svg11.dtd">
<!-- Generated by graphviz version 2.28.0 (20170704.0136)
 -->
<!-- Title: _anonymous_0 Pages: 1 -->
<svg width="653pt" height="761pt"
 viewBox="0.00 0.00 653.03 760.91" xmlns="http://www.w3.org/2000/svg" xmlns:xlink="http://www.w3.org/1999/xlink">
<g id="graph1" class="graph" transform="scale(1 1) rotate(0) translate(4 756.908)">
<title>_anonymous_0</title>
<polygon fill="white" stroke="white" points="-4,5 -4,-756.908 650.029,-756.908 650.029,5 -4,5"/>
<!-- wpt_08 -->
<g id="node1" class="node"><title>wpt_08</title>
<ellipse fill="none" stroke="black" cx="166.272" cy="-427.184" rx="39.9593" ry="40.1111"/>
<text text-anchor="middle" x="166.272" y="-423.484" font-family="Times,serif" font-size="14.00">wpt_08</text>
</g>
<!-- wpt_09 -->
<g id="node2" class="node"><title>wpt_09</title>
<ellipse fill="none" stroke="black" cx="274.45" cy="-421.63" rx="39.9593" ry="40.1111"/>
<text text-anchor="middle" x="274.45" y="-417.93" font-family="Times,serif" font-size="14.00">wpt_09</text>
</g>
<!-- wpt_08&#45;&#45;wpt_09 -->
<g id="edge22" class="edge"><title>wpt_08&#45;&#45;wpt_09</title>
<path fill="none" stroke="black" d="M206.554,-425.116C215.564,-424.653 225.123,-424.162 234.135,-423.7"/>
</g>
<!-- wpt_13 -->
<g id="node15" class="node"><title>wpt_13</title>
<ellipse fill="none" stroke="black" cx="182.8" cy="-549.45" rx="39.9593" ry="40.1111"/>
<text text-anchor="middle" x="182.8" y="-545.75" font-family="Times,serif" font-size="14.00">wpt_13</text>
</g>
<!-- wpt_08&#45;&#45;wpt_13 -->
<g id="edge50" class="edge"><title>wpt_08&#45;&#45;wpt_13</title>
<path fill="none" stroke="black" d="M171.684,-467.219C173.511,-480.73 175.549,-495.808 177.376,-509.326"/>
</g>
<!-- wpt_12 -->
<g id="node16" class="node"><title>wpt_12</title>
<ellipse fill="none" stroke="black" cx="80.2515" cy="-498.82" rx="39.9593" ry="40.1111"/>
<text text-anchor="middle" x="80.2515" y="-495.12" font-family="Times,serif" font-size="14.00">wpt_12</text>
</g>
<!-- wpt_08&#45;&#45;wpt_12 -->
<g id="edge52" class="edge"><title>wpt_08&#45;&#45;wpt_12</title>
<path fill="none" stroke="black" d="M135.217,-453.047C127.421,-459.539 119.055,-466.505 111.261,-472.996"/>
</g>
<!-- wpt_10 -->
<g id="node18" class="node"><title>wpt_10</title>
<ellipse fill="none" stroke="black" cx="369.141" cy="-501.586" rx="39.9593" ry="40.1111"/>
<text text-anchor="middle" x="369.141" y="-497.886" font-family="Times,serif" font-size="14.00">wpt_10</text>
</g>
<!-- wpt_09&#45;&#45;wpt_10 -->
<g id="edge26" class="edge"><title>wpt_09&#45;&#45;wpt_10</title>
<path fill="none" stroke="black" d="M305.193,-447.589C315.778,-456.526 327.63,-466.534 338.228,-475.483"/>
</g>
<!-- wpt_00 -->
<g id="node3" class="node"><title>wpt_00</title>
<ellipse fill="none" stroke="black" cx="379.814" cy="-40.3051" rx="39.9593" ry="40.1111"/>
<text text-anchor="middle" x="379.814" y="-36.6051" font-family="Times,serif" font-size="14.00">wpt_00</text>
</g>
<!-- wpt_01 -->
<g id="node4" class="node"><title>wpt_01</title>
<ellipse fill="none" stroke="black" cx="408.969" cy="-154.85" rx="39.9593" ry="40.1111"/>
<text text-anchor="middle" x="408.969" y="-151.15" font-family="Times,serif" font-size="14.00">wpt_01</text>
</g>
<!-- wpt_00&#45;&#45;wpt_01 -->
<g id="edge8" class="edge"><title>wpt_00&#45;&#45;wpt_01</title>
<path fill="none" stroke="black" d="M389.766,-79.4044C392.735,-91.0702 395.99,-103.858 398.963,-115.538"/>
</g>
<!-- wpt_02 -->
<g id="node5" class="node"><title>wpt_02</title>
<ellipse fill="none" stroke="black" cx="538.086" cy="-155.987" rx="39.9593" ry="40.1111"/>
<text text-anchor="middle" x="538.086" y="-152.287" font-family="Times,serif" font-size="14.00">wpt_02</text>
</g>
<!-- wpt_01&#45;&#45;wpt_02 -->
<g id="edge36" class="edge"><title>wpt_01&#45;&#45;wpt_02</title>
<path fill="none" stroke="black" d="M449.468,-155.206C464.851,-155.342 482.361,-155.496 497.731,-155.631"/>
</g>
<!-- wpt_05 -->
<g id="node8" class="node"><title>wpt_05</title>
<ellipse fill="none" stroke="black" cx="314.468" cy="-231.179" rx="39.9593" ry="40.1111"/>
<text text-anchor="middle" x="314.468" y="-227.479" font-family="Times,serif" font-size="14.00">wpt_05</text>
</g>
<!-- wpt_01&#45;&#45;wpt_05 -->
<g id="edge42" class="edge"><title>wpt_01&#45;&#45;wpt_05</title>
<path fill="none" stroke="black" d="M377.502,-180.266C367.407,-188.419 356.228,-197.449 346.12,-205.613"/>
</g>
<!-- wpt_06 -->
<g id="node9" class="node"><title>wpt_06</title>
<ellipse fill="none" stroke="black" cx="429.932" cy="-257.451" rx="39.9593" ry="40.1111"/>
<text text-anchor="middle" x="429.932" y="-253.751" font-family="Times,serif" font-size="14.00">wpt_06</text>
</g>
<!-- wpt_01&#45;&#45;wpt_06 -->
<g id="edge30" class="edge"><title>wpt_01&#45;&#45;wpt_06</title>
<path fill="none" stroke="black" d="M417.074,-194.518C418.641,-202.187 420.283,-210.223 421.849,-217.888"/>
</g>
<!-- wpt_03 -->
<g id="node6" class="node"><title>wpt_03</title>
<ellipse fill="none" stroke="black" cx="604.876" cy="-263.992" rx="39.9593" ry="40.1111"/>
<text text-anchor="middle" x="604.876" y="-260.292" font-family="Times,serif" font-size="14.00">wpt_03</text>
</g>
<!-- wpt_02&#45;&#45;wpt_03 -->
<g id="edge2" class="edge"><title>wpt_02&#45;&#45;wpt_03</title>
<path fill="none" stroke="black" d="M559.403,-190.457C567.114,-202.928 575.819,-217.004 583.533,-229.478"/>
</g>
<!-- wpt_07 -->
<g id="node10" class="node"><title>wpt_07</title>
<ellipse fill="none" stroke="black" cx="520.414" cy="-349.422" rx="39.9593" ry="40.1111"/>
<text text-anchor="middle" x="520.414" y="-345.722" font-family="Times,serif" font-size="14.00">wpt_07</text>
</g>
<!-- wpt_03&#45;&#45;wpt_07 -->
<g id="edge40" class="edge"><title>wpt_03&#45;&#45;wpt_07</title>
<path fill="none" stroke="black" d="M576.281,-292.915C567.476,-301.821 557.784,-311.624 548.98,-320.529"/>
</g>
<!-- wpt_04 -->
<g id="node7" class="node"><title>wpt_04</title>
<ellipse fill="none" stroke="black" cx="227.555" cy="-322.329" rx="39.9593" ry="40.1111"/>
<text text-anchor="middle" x="227.555" y="-318.629" font-family="Times,serif" font-size="14.00">wpt_04</text>
</g>
<!-- wpt_04&#45;&#45;wpt_08 -->
<g id="edge46" class="edge"><title>wpt_04&#45;&#45;wpt_08</title>
<path fill="none" stroke="black" d="M207.148,-357.244C200.603,-368.444 193.353,-380.849 186.798,-392.064"/>
</g>
<!-- wpt_04&#45;&#45;wpt_09 -->
<g id="edge14" class="edge"><title>wpt_04&#45;&#45;wpt_09</title>
<path fill="none" stroke="black" d="M244.883,-359.023C248.901,-367.531 253.177,-376.585 257.192,-385.087"/>
</g>
<!-- wpt_04&#45;&#45;wpt_05 -->
<g id="edge28" class="edge"><title>wpt_04&#45;&#45;wpt_05</title>
<path fill="none" stroke="black" d="M255.533,-292.987C265.458,-282.578 276.622,-270.87 286.542,-260.466"/>
</g>
<!-- wpt_05&#45;&#45;wpt_06 -->
<g id="edge48" class="edge"><title>wpt_05&#45;&#45;wpt_06</title>
<path fill="none" stroke="black" d="M353.881,-240.147C365.771,-242.853 378.818,-245.821 390.696,-248.524"/>
</g>
<!-- wpt_06&#45;&#45;wpt_07 -->
<g id="edge10" class="edge"><title>wpt_06&#45;&#45;wpt_07</title>
<path fill="none" stroke="black" d="M458.313,-286.299C469.093,-297.257 481.363,-309.729 492.134,-320.677"/>
</g>
<!-- wpt_11 -->
<g id="node17" class="node"><title>wpt_11</title>
<ellipse fill="none" stroke="black" cx="484.23" cy="-471.391" rx="39.9593" ry="40.1111"/>
<text text-anchor="middle" x="484.23" y="-467.691" font-family="Times,serif" font-size="14.00">wpt_11</text>
</g>
<!-- wpt_07&#45;&#45;wpt_11 -->
<g id="edge24" class="edge"><title>wpt_07&#45;&#45;wpt_11</title>
<path fill="none" stroke="black" d="M508.866,-388.349C504.688,-402.432 499.972,-418.328 495.793,-432.415"/>
</g>
<!-- wpt_17 -->
<g id="node11" class="node"><title>wpt_17</title>
<ellipse fill="none" stroke="black" cx="149.686" cy="-668.645" rx="39.9593" ry="40.1111"/>
<text text-anchor="middle" x="149.686" y="-664.945" font-family="Times,serif" font-size="14.00">wpt_17</text>
</g>
<!-- wpt_18 -->
<g id="node20" class="node"><title>wpt_18</title>
<ellipse fill="none" stroke="black" cx="271.658" cy="-712.603" rx="39.9593" ry="40.1111"/>
<text text-anchor="middle" x="271.658" y="-708.903" font-family="Times,serif" font-size="14.00">wpt_18</text>
</g>
<!-- wpt_17&#45;&#45;wpt_18 -->
<g id="edge44" class="edge"><title>wpt_17&#45;&#45;wpt_18</title>
<path fill="none" stroke="black" d="M187.61,-682.312C202.156,-687.555 218.754,-693.537 233.337,-698.792"/>
</g>
<!-- wpt_16 -->
<g id="node12" class="node"><title>wpt_16</title>
<ellipse fill="none" stroke="black" cx="40.1525" cy="-615.465" rx="39.9593" ry="40.1111"/>
<text text-anchor="middle" x="40.1525" y="-611.765" font-family="Times,serif" font-size="14.00">wpt_16</text>
</g>
<!-- wpt_16&#45;&#45;wpt_17 -->
<g id="edge16" class="edge"><title>wpt_16&#45;&#45;wpt_17</title>
<path fill="none" stroke="black" d="M76.6256,-633.173C88.4499,-638.914 101.56,-645.279 113.372,-651.014"/>
</g>
<!-- wpt_15 -->
<g id="node13" class="node"><title>wpt_15</title>
<ellipse fill="none" stroke="black" cx="426.085" cy="-580.312" rx="39.9593" ry="40.1111"/>
<text text-anchor="middle" x="426.085" y="-576.612" font-family="Times,serif" font-size="14.00">wpt_15</text>
</g>
<!-- wpt_19 -->
<g id="node19" class="node"><title>wpt_19</title>
<ellipse fill="none" stroke="black" cx="399.899" cy="-700.449" rx="39.9593" ry="40.1111"/>
<text text-anchor="middle" x="399.899" y="-696.749" font-family="Times,serif" font-size="14.00">wpt_19</text>
</g>
<!-- wpt_15&#45;&#45;wpt_19 -->
<g id="edge18" class="edge"><title>wpt_15&#45;&#45;wpt_19</title>
<path fill="none" stroke="black" d="M417.438,-619.982C414.578,-633.105 411.396,-647.701 408.537,-660.82"/>
</g>
<!-- wpt_14 -->
<g id="node14" class="node"><title>wpt_14</title>
<ellipse fill="none" stroke="black" cx="302.1" cy="-596.779" rx="39.9593" ry="40.1111"/>
<text text-anchor="middle" x="302.1" y="-593.079" font-family="Times,serif" font-size="14.00">wpt_14</text>
</g>
<!-- wpt_14&#45;&#45;wpt_15 -->
<g id="edge12" class="edge"><title>wpt_14&#45;&#45;wpt_15</title>
<path fill="none" stroke="black" d="M342.355,-591.433C356.355,-589.573 372.049,-587.489 386.033,-585.632"/>
</g>
<!-- wpt_14&#45;&#45;wpt_18 -->
<g id="edge6" class="edge"><title>wpt_14&#45;&#45;wpt_18</title>
<path fill="none" stroke="black" d="M291.794,-635.992C288.62,-648.067 285.127,-661.358 281.954,-673.431"/>
</g>
<!-- wpt_13&#45;&#45;wpt_17 -->
<g id="edge60" class="edge"><title>wpt_13&#45;&#45;wpt_17</title>
<path fill="none" stroke="black" d="M171.957,-588.479C168.298,-601.651 164.214,-616.35 160.553,-629.528"/>
</g>
<!-- wpt_13&#45;&#45;wpt_14 -->
<g id="edge38" class="edge"><title>wpt_13&#45;&#45;wpt_14</title>
<path fill="none" stroke="black" d="M220.22,-564.296C234.297,-569.88 250.301,-576.229 264.403,-581.824"/>
</g>
<!-- wpt_12&#45;&#45;wpt_16 -->
<g id="edge56" class="edge"><title>wpt_12&#45;&#45;wpt_16</title>
<path fill="none" stroke="black" d="M67.1216,-537.014C62.6905,-549.904 57.7454,-564.289 53.3119,-577.186"/>
</g>
<!-- wpt_12&#45;&#45;wpt_13 -->
<g id="edge34" class="edge"><title>wpt_12&#45;&#45;wpt_13</title>
<path fill="none" stroke="black" d="M116.406,-516.671C126.209,-521.511 136.822,-526.75 146.626,-531.591"/>
</g>
<!-- wpt_11&#45;&#45;wpt_15 -->
<g id="edge54" class="edge"><title>wpt_11&#45;&#45;wpt_15</title>
<path fill="none" stroke="black" d="M465.191,-507.056C458.766,-519.092 451.595,-532.524 445.167,-544.567"/>
</g>
<!-- wpt_10&#45;&#45;wpt_15 -->
<g id="edge58" class="edge"><title>wpt_10&#45;&#45;wpt_15</title>
<path fill="none" stroke="black" d="M392.96,-534.517C396.069,-538.814 399.254,-543.217 402.361,-547.513"/>
</g>
<!-- wpt_10&#45;&#45;wpt_14 -->
<g id="edge32" class="edge"><title>wpt_10&#45;&#45;wpt_14</title>
<path fill="none" stroke="black" d="M345.881,-534.613C339.225,-544.064 331.972,-554.363 325.319,-563.811"/>
</g>
<!-- wpt_10&#45;&#45;wpt_11 -->
<g id="edge4" class="edge"><title>wpt_10&#45;&#45;wpt_11</title>
<path fill="none" stroke="black" d="M408.105,-491.363C420.104,-488.215 433.31,-484.75 445.306,-481.603"/>
</g>
<!-- wpt_18&#45;&#45;wpt_19 -->
<g id="edge20" class="edge"><title>wpt_18&#45;&#45;wpt_19</title>
<path fill="none" stroke="black" d="M311.882,-708.791C327.161,-707.343 344.552,-705.694 359.817,-704.247"/>
</g>
</g>
</svg>
