<?xml version="1.0" encoding="UTF-8" standalone="no"?>
<!DOCTYPE svg PUBLIC "-//W3C//DTD SVG 1.1//EN"
 "http://www.w3.org/Graphics/SVG/1.1/DTD/svg11.dtd">
<!-- Generated by graphviz version 2.28.0 (20170704.0136)
 -->
<!-- Title: _anonymous_0 Pages: 1 -->
<svg width="430pt" height="665pt"
 viewBox="0.00 0.00 429.97 664.84" xmlns="http://www.w3.org/2000/svg" xmlns:xlink="http://www.w3.org/1999/xlink">
<g id="graph1" class="graph" transform="scale(1 1) rotate(0) translate(4 660.84)">
<title>_anonymous_0</title>
<polygon fill="white" stroke="white" points="-4,5 -4,-660.84 426.973,-660.84 426.973,5 -4,5"/>
<!-- wpt_08 -->
<g id="node1" class="node"><title>wpt_08</title>
<ellipse fill="none" stroke="black" cx="313.14" cy="-198.304" rx="39.9593" ry="40.1111"/>
<text text-anchor="middle" x="313.14" y="-194.604" font-family="Times,serif" font-size="14.00">wpt_08</text>
</g>
<!-- wpt_11 -->
<g id="node13" class="node"><title>wpt_11</title>
<ellipse fill="none" stroke="black" cx="381.82" cy="-294.198" rx="39.9593" ry="40.1111"/>
<text text-anchor="middle" x="381.82" y="-290.498" font-family="Times,serif" font-size="14.00">wpt_11</text>
</g>
<!-- wpt_08&#45;&#45;wpt_11 -->
<g id="edge16" class="edge"><title>wpt_08&#45;&#45;wpt_11</title>
<path fill="none" stroke="black" d="M336.776,-231.305C343.683,-240.949 351.231,-251.488 358.141,-261.136"/>
</g>
<!-- wpt_09 -->
<g id="node2" class="node"><title>wpt_09</title>
<ellipse fill="none" stroke="black" cx="288.63" cy="-508.636" rx="39.9593" ry="40.1111"/>
<text text-anchor="middle" x="288.63" y="-504.936" font-family="Times,serif" font-size="14.00">wpt_09</text>
</g>
<!-- wpt_13 -->
<g id="node11" class="node"><title>wpt_13</title>
<ellipse fill="none" stroke="black" cx="248.103" cy="-616.535" rx="39.9593" ry="40.1111"/>
<text text-anchor="middle" x="248.103" y="-612.835" font-family="Times,serif" font-size="14.00">wpt_13</text>
</g>
<!-- wpt_09&#45;&#45;wpt_13 -->
<g id="edge46" class="edge"><title>wpt_09&#45;&#45;wpt_13</title>
<path fill="none" stroke="black" d="M274.455,-546.374C270.529,-556.826 266.267,-568.174 262.338,-578.636"/>
</g>
<!-- wpt_12 -->
<g id="node12" class="node"><title>wpt_12</title>
<ellipse fill="none" stroke="black" cx="349.05" cy="-604.922" rx="39.9593" ry="40.1111"/>
<text text-anchor="middle" x="349.05" y="-601.222" font-family="Times,serif" font-size="14.00">wpt_12</text>
</g>
<!-- wpt_09&#45;&#45;wpt_12 -->
<g id="edge34" class="edge"><title>wpt_09&#45;&#45;wpt_12</title>
<path fill="none" stroke="black" d="M310.102,-542.854C315.732,-551.827 321.806,-561.506 327.444,-570.49"/>
</g>
<!-- wpt_10 -->
<g id="node14" class="node"><title>wpt_10</title>
<ellipse fill="none" stroke="black" cx="343.143" cy="-406.661" rx="39.9593" ry="40.1111"/>
<text text-anchor="middle" x="343.143" y="-402.961" font-family="Times,serif" font-size="14.00">wpt_10</text>
</g>
<!-- wpt_09&#45;&#45;wpt_10 -->
<g id="edge20" class="edge"><title>wpt_09&#45;&#45;wpt_10</title>
<path fill="none" stroke="black" d="M307.696,-472.97C312.977,-463.091 318.71,-452.367 323.995,-442.479"/>
</g>
<!-- wpt_00 -->
<g id="node3" class="node"><title>wpt_00</title>
<ellipse fill="none" stroke="black" cx="122.85" cy="-207.804" rx="39.9593" ry="40.1111"/>
<text text-anchor="middle" x="122.85" y="-204.104" font-family="Times,serif" font-size="14.00">wpt_00</text>
</g>
<!-- wpt_01 -->
<g id="node4" class="node"><title>wpt_01</title>
<ellipse fill="none" stroke="black" cx="40.1525" cy="-129.596" rx="39.9593" ry="40.1111"/>
<text text-anchor="middle" x="40.1525" y="-125.896" font-family="Times,serif" font-size="14.00">wpt_01</text>
</g>
<!-- wpt_00&#45;&#45;wpt_01 -->
<g id="edge6" class="edge"><title>wpt_00&#45;&#45;wpt_01</title>
<path fill="none" stroke="black" d="M93.4612,-180.011C85.6618,-172.635 77.2412,-164.671 69.4468,-157.3"/>
</g>
<!-- wpt_03 -->
<g id="node6" class="node"><title>wpt_03</title>
<ellipse fill="none" stroke="black" cx="162.045" cy="-320.382" rx="39.9593" ry="40.1111"/>
<text text-anchor="middle" x="162.045" y="-316.682" font-family="Times,serif" font-size="14.00">wpt_03</text>
</g>
<!-- wpt_00&#45;&#45;wpt_03 -->
<g id="edge26" class="edge"><title>wpt_00&#45;&#45;wpt_03</title>
<path fill="none" stroke="black" d="M136.12,-245.918C140.206,-257.655 144.703,-270.573 148.789,-282.308"/>
</g>
<!-- wpt_04 -->
<g id="node7" class="node"><title>wpt_04</title>
<ellipse fill="none" stroke="black" cx="82.4652" cy="-238.562" rx="39.9593" ry="40.1111"/>
<text text-anchor="middle" x="82.4652" y="-234.862" font-family="Times,serif" font-size="14.00">wpt_04</text>
</g>
<!-- wpt_00&#45;&#45;wpt_04 -->
<g id="edge36" class="edge"><title>wpt_00&#45;&#45;wpt_04</title>
<path fill="none" stroke="black" d="M90.6377,-232.337C90.4877,-232.451 90.3392,-232.565 90.1921,-232.677"/>
</g>
<!-- wpt_02 -->
<g id="node5" class="node"><title>wpt_02</title>
<ellipse fill="none" stroke="black" cx="128.789" cy="-40.3051" rx="39.9593" ry="40.1111"/>
<text text-anchor="middle" x="128.789" y="-36.6051" font-family="Times,serif" font-size="14.00">wpt_02</text>
</g>
<!-- wpt_01&#45;&#45;wpt_02 -->
<g id="edge30" class="edge"><title>wpt_01&#45;&#45;wpt_02</title>
<path fill="none" stroke="black" d="M68.6857,-100.852C78.8073,-90.656 90.1925,-79.1868 100.31,-68.9949"/>
</g>
<!-- wpt_01&#45;&#45;wpt_04 -->
<g id="edge8" class="edge"><title>wpt_01&#45;&#45;wpt_04</title>
<path fill="none" stroke="black" d="M54.8327,-167.401C59.0336,-178.219 63.6116,-190.009 67.811,-200.823"/>
</g>
<!-- wpt_05 -->
<g id="node8" class="node"><title>wpt_05</title>
<ellipse fill="none" stroke="black" cx="205.368" cy="-131.938" rx="39.9593" ry="40.1111"/>
<text text-anchor="middle" x="205.368" y="-128.238" font-family="Times,serif" font-size="14.00">wpt_05</text>
</g>
<!-- wpt_02&#45;&#45;wpt_05 -->
<g id="edge24" class="edge"><title>wpt_02&#45;&#45;wpt_05</title>
<path fill="none" stroke="black" d="M154.715,-71.3277C162.699,-80.881 171.487,-91.3957 179.469,-100.947"/>
</g>
<!-- wpt_03&#45;&#45;wpt_04 -->
<g id="edge32" class="edge"><title>wpt_03&#45;&#45;wpt_04</title>
<path fill="none" stroke="black" d="M133.764,-291.305C126.259,-283.588 118.155,-275.257 110.655,-267.545"/>
</g>
<!-- wpt_06 -->
<g id="node9" class="node"><title>wpt_06</title>
<ellipse fill="none" stroke="black" cx="230.381" cy="-410.967" rx="39.9593" ry="40.1111"/>
<text text-anchor="middle" x="230.381" y="-407.267" font-family="Times,serif" font-size="14.00">wpt_06</text>
</g>
<!-- wpt_03&#45;&#45;wpt_06 -->
<g id="edge12" class="edge"><title>wpt_03&#45;&#45;wpt_06</title>
<path fill="none" stroke="black" d="M186.33,-352.574C192.698,-361.016 199.568,-370.122 205.944,-378.574"/>
</g>
<!-- wpt_07 -->
<g id="node10" class="node"><title>wpt_07</title>
<ellipse fill="none" stroke="black" cx="280.44" cy="-312.392" rx="39.9593" ry="40.1111"/>
<text text-anchor="middle" x="280.44" y="-308.692" font-family="Times,serif" font-size="14.00">wpt_07</text>
</g>
<!-- wpt_03&#45;&#45;wpt_07 -->
<g id="edge44" class="edge"><title>wpt_03&#45;&#45;wpt_07</title>
<path fill="none" stroke="black" d="M202.128,-317.677C214.337,-316.853 227.762,-315.947 239.995,-315.121"/>
</g>
<!-- wpt_04&#45;&#45;wpt_05 -->
<g id="edge22" class="edge"><title>wpt_04&#45;&#45;wpt_05</title>
<path fill="none" stroke="black" d="M112.846,-212.205C131.754,-195.801 155.989,-174.777 174.911,-158.36"/>
</g>
<!-- wpt_05&#45;&#45;wpt_08 -->
<g id="edge42" class="edge"><title>wpt_05&#45;&#45;wpt_08</title>
<path fill="none" stroke="black" d="M239.764,-153.119C252.208,-160.781 266.254,-169.431 278.701,-177.096"/>
</g>
<!-- wpt_06&#45;&#45;wpt_09 -->
<g id="edge40" class="edge"><title>wpt_06&#45;&#45;wpt_09</title>
<path fill="none" stroke="black" d="M251.081,-445.676C256.575,-454.888 262.506,-464.833 267.996,-474.038"/>
</g>
<!-- wpt_06&#45;&#45;wpt_07 -->
<g id="edge10" class="edge"><title>wpt_06&#45;&#45;wpt_07</title>
<path fill="none" stroke="black" d="M248.737,-374.821C253.09,-366.249 257.734,-357.105 262.086,-348.533"/>
</g>
<!-- wpt_06&#45;&#45;wpt_10 -->
<g id="edge14" class="edge"><title>wpt_06&#45;&#45;wpt_10</title>
<path fill="none" stroke="black" d="M270.772,-409.425C281.136,-409.029 292.286,-408.603 302.655,-408.207"/>
</g>
<!-- wpt_07&#45;&#45;wpt_08 -->
<g id="edge38" class="edge"><title>wpt_07&#45;&#45;wpt_08</title>
<path fill="none" stroke="black" d="M291.602,-273.448C294.969,-261.7 298.664,-248.809 302.028,-237.072"/>
</g>
<!-- wpt_07&#45;&#45;wpt_11 -->
<g id="edge18" class="edge"><title>wpt_07&#45;&#45;wpt_11</title>
<path fill="none" stroke="black" d="M320.217,-305.253C327.429,-303.959 334.949,-302.609 342.158,-301.316"/>
</g>
<!-- wpt_07&#45;&#45;wpt_10 -->
<g id="edge2" class="edge"><title>wpt_07&#45;&#45;wpt_10</title>
<path fill="none" stroke="black" d="M302.9,-346.159C308.733,-354.929 315.014,-364.372 320.84,-373.13"/>
</g>
<!-- wpt_12&#45;&#45;wpt_13 -->
<g id="edge28" class="edge"><title>wpt_12&#45;&#45;wpt_13</title>
<path fill="none" stroke="black" d="M309.153,-609.512C302.209,-610.311 294.986,-611.142 288.041,-611.94"/>
</g>
<!-- wpt_10&#45;&#45;wpt_11 -->
<g id="edge4" class="edge"><title>wpt_10&#45;&#45;wpt_11</title>
<path fill="none" stroke="black" d="M356.345,-368.272C360.328,-356.691 364.698,-343.984 368.677,-332.414"/>
</g>
</g>
</svg>
