<?xml version="1.0" encoding="utf-8" ?>
<svg baseProfile="tiny" height="874.861" version="1.2" viewBox="-4 -869 569 874" width="569.961" xmlns="http://www.w3.org/2000/svg" xmlns:ev="http://www.w3.org/2001/xml-events" xmlns:xlink="http://www.w3.org/1999/xlink"><defs /><rect fill="white" height="874.861" stroke="none" width="569.961" x="-4.0" y="-869.861" /><path d="M123.767,-793.176C114.322,-797.857 104.133,-802.906 94.6753,-807.593" fill="none" stroke="black" stroke-dasharray="1,0" /><path d="M327.651,-646.577C318.887,-639.283 309.345,-631.342 300.567,-624.035" fill="none" stroke="black" stroke-dasharray="1,0" /><path d="M173.197,-504.585C171.933,-495.04 170.585,-484.858 169.321,-475.314" fill="none" stroke="black" stroke-dasharray="1,0" /><path d="M142.862,-563.711C132.441,-569.227 121.05,-575.256 110.624,-580.774" fill="none" stroke="black" stroke-dasharray="1,0" /><path d="M321.456,-688.435C313.14,-692.03 304.319,-695.845 296.003,-699.441" fill="none" stroke="black" stroke-dasharray="1,0" /><path d="M132.129,-679.21C122.426,-684.294 111.921,-689.798 102.217,-694.882" fill="none" stroke="black" stroke-dasharray="1,0" /><path d="M298.13,-258.122C294.63,-257.566 291.088,-257.002 287.589,-256.446" fill="none" stroke="black" stroke-dasharray="1,0" /><path d="M128.958,-455.115C122.447,-458.841 115.643,-462.734 109.13,-466.461" fill="none" stroke="black" stroke-dasharray="6,4"><animate attributeName="stroke-dasharray" begin="3.00175" dur="0.5" fill="freeze" from="6,4" to="1,0" /></path><path d="M344.667,-533.805C336.975,-525.978 328.664,-517.52 320.992,-509.713" fill="none" stroke="black" stroke-dasharray="1,0" /><path d="M289.237,-183.173C282.683,-193.721 275.47,-205.331 268.917,-215.877" fill="none" stroke="black" stroke-dasharray="1,0" /><path d="M63.0401,-447.693C59.2518,-434.32 55.0099,-419.345 51.2168,-405.955" fill="none" stroke="black" stroke-dasharray="1,0" /><path d="M171.628,-620.02C172.667,-608.689 173.797,-596.376 174.836,-585.057" fill="none" stroke="black" stroke-dasharray="1,0" /><path d="M109.148,-309.623C97.0927,-319.63 83.3194,-331.063 71.2656,-341.069" fill="none" stroke="black" stroke-dasharray="1,0" /><path d="M380.278,-480.444C365.326,-480.528 348.387,-480.623 333.419,-480.707" fill="none" stroke="black" stroke-dasharray="1,0" /><path d="M69.4254,-673.144C70.2255,-662.397 71.0893,-650.794 71.8888,-640.053" fill="none" stroke="black" stroke-dasharray="1,0" /><path d="M257.522,-500.629C243.63,-508.403 227.699,-517.318 213.799,-525.096" fill="none" stroke="black" stroke-dasharray="1,0" /><path d="M335.186,-575.821C326.145,-578.873 316.501,-582.128 307.46,-585.18" fill="none" stroke="black" stroke-dasharray="1,0" /><path d="M74.5893,-559.156C74.5111,-548.757 74.4271,-537.568 74.3489,-527.164" fill="none" stroke="black" stroke-dasharray="6,4"><animate attributeName="stroke-dasharray" begin="1.00075" dur="0.5" fill="freeze" from="6,4" to="1,0" /></path><path d="M122.374,-247.601C116.023,-234.767 108.878,-220.331 102.529,-207.503" fill="none" stroke="black" stroke-dasharray="1,0" /><path d="M234.49,-577.626C227.587,-573.581 220.34,-569.335 213.435,-565.289" fill="none" stroke="black" stroke-dasharray="1,0" /><path d="M224.181,-694.553C217.057,-690.237 209.558,-685.692 202.438,-681.378" fill="none" stroke="black" stroke-dasharray="1,0" /><path d="M277.254,-558.398C279.691,-546.188 282.372,-532.75 284.809,-520.543" fill="none" stroke="black" stroke-dasharray="1,0" /><path d="M216.186,-334.819C202.752,-325.787 187.288,-315.388 173.837,-306.344" fill="none" stroke="black" stroke-dasharray="1,0" /><path d="M310.043,-293.831C299.616,-304.769 287.79,-317.175 277.378,-328.096" fill="none" stroke="black" stroke-dasharray="1,0" /><path d="M211.472,-45.3742C197.723,-47.1194 182.328,-49.0736 168.561,-50.821" fill="none" stroke="black" stroke-dasharray="1,0" /><path d="M224.17,-736.443C214.578,-742.236 204.165,-748.524 194.565,-754.322" fill="none" stroke="black" stroke-dasharray="1,0" /><path d="M219.639,-384.479C211.252,-392.103 202.139,-400.388 193.762,-408.004" fill="none" stroke="black" stroke-dasharray="1,0" /><path d="M328.642,-225.026C325.809,-213.127 322.7,-200.071 319.87,-188.184" fill="none" stroke="black" stroke-dasharray="1,0" /><path d="M291.164,-113.355C284.632,-101.352 277.342,-87.9578 270.806,-75.9492" fill="none" stroke="black" stroke-dasharray="1,0" /><path d="M114.081,-93.7286C109.246,-106.489 103.851,-120.73 99.0135,-133.497" fill="none" stroke="black" stroke-dasharray="1,0" /><path d="M262.427,-675.099C263.487,-663.284 264.646,-650.371 265.707,-638.552" fill="none" stroke="black" stroke-dasharray="1,0" /><path d="M209.194,-262.161C199.325,-265.257 188.708,-268.588 178.835,-271.685" fill="none" stroke="black" stroke-dasharray="1,0" /><path d="M393.453,-527.865C395.83,-523.725 398.256,-519.499 400.633,-515.358" fill="none" stroke="black" stroke-dasharray="1,0" /><path d="M235.004,-619.177C224.429,-625.684 212.791,-632.846 202.219,-639.352" fill="none" stroke="black" stroke-dasharray="1,0" /><path d="M364.012,-632.242C365.288,-622.728 366.65,-612.579 367.927,-603.066" fill="none" stroke="black" stroke-dasharray="1,0" /><path d="M162.654,-734.828C163.431,-723.847 164.272,-711.96 165.049,-700.978" fill="none" stroke="black" stroke-dasharray="1,0" /><path d="M143.154,-525.098C132.261,-519.02 120.271,-512.33 109.381,-506.254" fill="none" stroke="black" stroke-dasharray="1,0" /><path d="M126.077,-753.056C117.614,-747.465 108.533,-741.467 100.073,-735.878" fill="none" stroke="black" stroke-dasharray="1,0" /><path d="M61.3103,-785.153C62.0337,-775.01 62.81,-764.126 63.5332,-753.986" fill="none" stroke="black" stroke-dasharray="1,0" /><path d="M248.846,-316.75C248.694,-308.214 248.533,-299.208 248.381,-290.67" fill="none" stroke="black" stroke-dasharray="6,4"><animate attributeName="stroke-dasharray" begin="2.2515" dur="0.5" fill="freeze" from="6,4" to="1,0" /></path><path d="M279.417,-442.822C274.168,-427.776 268.149,-410.522 262.897,-395.468" fill="none" stroke="black" stroke-dasharray="1,0" /><path d="M134.07,-638.347C125.758,-632.917 116.862,-627.105 108.559,-621.681" fill="none" stroke="black" stroke-dasharray="1,0" /><ellipse cx="84.6559" cy="-171.392" fill="white" rx="39.9593" ry="40.1111" stroke="black" stroke-width="1" /><text fill="black" font-family="sans-serif" font-size="10" text-anchor="middle" x="84.6559" y="-171.392">wpt_22</text><ellipse cx="247.656" cy="-250.095" fill="white" rx="39.9593" ry="40.1111" stroke="black" stroke-width="1" /><text fill="black" font-family="sans-serif" font-size="10" text-anchor="middle" x="247.656" y="-250.095">wpt_17</text><ellipse cx="310.52" cy="-148.919" fill="white" rx="39.9593" ry="40.1111" stroke="black" stroke-width="1" /><text fill="black" font-family="sans-serif" font-size="10" text-anchor="middle" x="310.52" y="-148.919">wpt_16</text><ellipse cx="74.0436" cy="-486.537" fill="none" rx="39.9593" ry="40.1111" stroke="black" stroke-dasharray="6,4"><animate attributeName="stroke-dasharray" begin="0.5005" dur="0.75" fill="freeze" from="6,4" to="1,0" /></ellipse><text fill="black" font-family="sans-serif" font-size="10" text-anchor="middle" x="74.0436" y="-486.537">wpt_15</text><ellipse cx="163.992" cy="-435.069" fill="white" rx="39.9593" ry="40.1111" stroke="black" stroke-width="1" /><text fill="black" font-family="sans-serif" font-size="10" text-anchor="middle" x="163.992" y="-435.069">wpt_14</text><ellipse cx="249.57" cy="-357.267" fill="white" rx="39.9593" ry="40.1111" stroke="black" stroke-width="1" /><text fill="black" font-family="sans-serif" font-size="10" text-anchor="middle" x="249.57" y="-357.267">wpt_13</text><ellipse cx="251.407" cy="-40.3051" fill="white" rx="39.9593" ry="40.1111" stroke="black" stroke-width="1" /><text fill="black" font-family="sans-serif" font-size="10" text-anchor="middle" x="251.407" y="-40.3051">wpt_20</text><ellipse cx="74.8938" cy="-599.686" fill="white" rx="39.9593" ry="40.1111" stroke="black" stroke-width="1" /><text fill="black" font-family="sans-serif" font-size="10" text-anchor="middle" x="74.8938" y="-599.686">wpt_11</text><ellipse cx="178.527" cy="-544.835" fill="white" rx="39.9593" ry="40.1111" stroke="black" stroke-width="1" /><text fill="black" font-family="sans-serif" font-size="10" text-anchor="middle" x="178.527" y="-544.835">wpt_10</text><ellipse cx="66.4107" cy="-713.642" fill="white" rx="39.9593" ry="40.1111" stroke="black" stroke-width="1" /><text fill="black" font-family="sans-serif" font-size="10" text-anchor="middle" x="66.4107" y="-713.642">wpt_07</text><ellipse cx="40.1525" cy="-366.896" fill="none" rx="39.9593" ry="40.1111" stroke="black" stroke-dasharray="6,4"><animate attributeName="stroke-dasharray" begin="1.50075" dur="0.75" fill="freeze" from="6,4" to="1,0" /></ellipse><text fill="black" font-family="sans-serif" font-size="10" text-anchor="middle" x="40.1525" y="-366.896">wpt_19</text><ellipse cx="140.281" cy="-283.78" fill="white" rx="39.9593" ry="40.1111" stroke="black" stroke-width="1" /><text fill="black" font-family="sans-serif" font-size="10" text-anchor="middle" x="140.281" y="-283.78">wpt_18</text><ellipse cx="420.808" cy="-480.217" fill="white" rx="39.9593" ry="40.1111" stroke="black" stroke-width="1" /><text fill="black" font-family="sans-serif" font-size="10" text-anchor="middle" x="420.808" y="-480.217">wpt_08</text><ellipse cx="292.713" cy="-480.936" fill="white" rx="39.9593" ry="40.1111" stroke="black" stroke-width="1" /><text fill="black" font-family="sans-serif" font-size="10" text-anchor="middle" x="292.713" y="-480.936">wpt_09</text><ellipse cx="358.629" cy="-672.36" fill="white" rx="39.9593" ry="40.1111" stroke="black" stroke-width="1" /><text fill="black" font-family="sans-serif" font-size="10" text-anchor="middle" x="358.629" y="-672.36">wpt_00</text><ellipse cx="258.798" cy="-715.53" fill="white" rx="39.9593" ry="40.1111" stroke="black" stroke-width="1" /><text fill="black" font-family="sans-serif" font-size="10" text-anchor="middle" x="258.798" y="-715.53">wpt_01</text><ellipse cx="159.789" cy="-775.324" fill="white" rx="39.9593" ry="40.1111" stroke="black" stroke-width="1" /><text fill="black" font-family="sans-serif" font-size="10" text-anchor="middle" x="159.789" y="-775.324">wpt_02</text><ellipse cx="58.4286" cy="-825.556" fill="white" rx="39.9593" ry="40.1111" stroke="black" stroke-width="1" /><text fill="black" font-family="sans-serif" font-size="10" text-anchor="middle" x="58.4286" y="-825.556">wpt_03</text><ellipse cx="373.309" cy="-562.952" fill="white" rx="39.9593" ry="40.1111" stroke="black" stroke-width="1" /><text fill="black" font-family="sans-serif" font-size="10" text-anchor="middle" x="373.309" y="-562.952">wpt_04</text><ellipse cx="269.342" cy="-598.047" fill="white" rx="39.9593" ry="40.1111" stroke="black" stroke-width="1" /><text fill="black" font-family="sans-serif" font-size="10" text-anchor="middle" x="269.342" y="-598.047">wpt_05</text><ellipse cx="167.916" cy="-660.46" fill="white" rx="39.9593" ry="40.1111" stroke="black" stroke-width="1" /><text fill="black" font-family="sans-serif" font-size="10" text-anchor="middle" x="167.916" y="-660.46">wpt_06</text><ellipse cx="128.406" cy="-55.9181" fill="white" rx="39.9593" ry="40.1111" stroke="black" stroke-width="1" /><text fill="black" font-family="sans-serif" font-size="10" text-anchor="middle" x="128.406" y="-55.9181">wpt_21</text><ellipse cx="338.034" cy="-264.468" fill="none" rx="39.9593" ry="40.1111" stroke="black" stroke-dasharray="6,4"><animate attributeName="stroke-dasharray" begin="0.5005" dur="0.75" fill="freeze" from="6,4" to="1,0" /></ellipse><text fill="black" font-family="sans-serif" font-size="10" text-anchor="middle" x="338.034" y="-264.468">wpt_12</text><ellipse cx="292.713" cy="-480.936" fill="none" rx="43.9593" ry="44.1111" stroke="red" stroke-width="2" /><ellipse cx="358.629" cy="-672.36" fill="none" rx="43.9593" ry="44.1111" stroke="navy" stroke-width="2" /><ellipse cx="163.992" cy="-435.069" fill="none" rx="43.9593" ry="44.1111" stroke="orange" stroke-width="2" /><ellipse cx="292.713" cy="-480.936" fill="none" rx="35.9593" ry="36.1111" stroke="green" stroke-width="2" /><ellipse cx="163.992" cy="-435.069" fill="none" rx="35.9593" ry="36.1111" stroke="green" stroke-width="2" /><ellipse cx="358.629" cy="-672.36" fill="none" rx="35.9593" ry="36.1111" stroke="green" stroke-width="2" /><rect fill="white" fill-opacity="1" height="7" stroke="black" stroke-opacity="1" width="7" x="84.0436" y="-486.537"><animate attributeName="stroke-opacity" begin="1.25125" dur="1.25" fill="freeze" from="1" to="0" /><animate attributeName="fill-opacity" begin="1.25125" dur="1.25" fill="freeze" from="1" to="0" /></rect><rect fill="white" fill-opacity="0" height="7" stroke="black" stroke-opacity="0" width="7" x="302.713" y="-480.936"><animate attributeName="stroke-opacity" begin="3.002" dur="0.25" fill="freeze" from="0" to="1" /><animate attributeName="fill-opacity" begin="3.002" dur="0.25" fill="freeze" from="0" to="1" /></rect><rect fill="grey" fill-opacity="1" height="7" stroke="black" stroke-opacity="1" width="7" x="64.0436" y="-486.537"><animate attributeName="stroke-opacity" begin="1.75175" dur="1.25" fill="freeze" from="1" to="0" /><animate attributeName="fill-opacity" begin="1.75175" dur="1.25" fill="freeze" from="1" to="0" /></rect><rect fill="grey" fill-opacity="0" height="7" stroke="black" stroke-opacity="0" width="7" x="348.629" y="-672.36"><animate attributeName="stroke-opacity" begin="3.75275" dur="0.25" fill="freeze" from="0" to="1" /><animate attributeName="fill-opacity" begin="3.75275" dur="0.25" fill="freeze" from="0" to="1" /></rect><ellipse cx="74.0436" cy="-486.537" fill="white" fill-opacity="1.0" rx="8" ry="3" stroke="black" stroke-opacity="1.0"><animate attributeName="fill" begin="0.5005" dur="0.5" fill="freeze" from="white" to="pink" /><animate attributeName="stroke-opacity" begin="2.0015" dur="0.5" fill="freeze" from="1.0" to="0.0" /><animate attributeName="fill-opacity" begin="2.0015" dur="0.5" fill="freeze" from="1.0" to="0.0" /></ellipse><ellipse cx="292.713" cy="-480.936" fill="pink" fill-opacity="0.0" rx="8" ry="3" stroke="black" stroke-opacity="0.0"><animate attributeName="stroke-opacity" begin="3.00225" dur="0.5" fill="freeze" from="0.0" to="1.0" /><animate attributeName="fill-opacity" begin="3.00225" dur="0.5" fill="freeze" from="0.0" to="1.0" /></ellipse><g transform="translate(337.415796564,-651.146796564)"><ellipse cx="0" cy="0" fill="navy" rx="5" ry="5" stroke="black" /><rect fill="pink" height="3" width="12" x="-6" y="-10" /><rect fill="red" height="3" width="0.0" x="-6" y="-10"><animate attributeName="width" begin="0.50075" dur="0.5" fill="freeze" from="0" to="12.0" /><animate attributeName="width" begin="1.001" dur="0.25" fill="freeze" from="12.0" to="11.6571" /><animate attributeName="width" begin="1.25125" dur="0.25" fill="freeze" from="11.6571" to="11.3143" /><animate attributeName="width" begin="1.5015" dur="0.25" fill="freeze" from="11.3143" to="10.9714" /><animate attributeName="width" begin="1.75175" dur="1.25" fill="freeze" from="10.9714" to="10.6286" /><animate attributeName="width" begin="3.002" dur="0.25" fill="freeze" from="10.6286" to="10.2857" /><animate attributeName="width" begin="3.25225" dur="0.25" fill="freeze" from="10.2857" to="9.9429" /><animate attributeName="width" begin="3.5025" dur="0.25" fill="freeze" from="9.9429" to="9.6" /><animate attributeName="width" begin="3.75275" dur="0.25" fill="freeze" from="9.6" to="9.2571" /></rect><animateTransform attributeName="transform" begin="1.001" dur="0.25" fill="freeze" from="337.415796564 -651.146796564" to="248.128796564 -576.833796564" type="translate" /><animateTransform attributeName="transform" begin="1.25125" dur="0.25" fill="freeze" from="248.128796564 -576.833796564" to="157.313796564 -523.621796564" type="translate" /><animateTransform attributeName="transform" begin="1.5015" dur="0.25" fill="freeze" from="157.313796564 -523.621796564" to="52.8303965644 -465.323796564" type="translate" /><animateTransform attributeName="transform" begin="3.002" dur="0.25" fill="freeze" from="52.8303965644 -465.323796564" to="157.313796564 -523.621796564" type="translate" /><animateTransform attributeName="transform" begin="3.25225" dur="0.25" fill="freeze" from="157.313796564 -523.621796564" to="248.128796564 -576.833796564" type="translate" /><animateTransform attributeName="transform" begin="3.5025" dur="0.25" fill="freeze" from="248.128796564 -576.833796564" to="337.415796564 -651.146796564" type="translate" /></g><g transform="translate(133.992,-435.069)"><ellipse cx="0" cy="0" fill="red" rx="3" ry="8" stroke="black" /><animateTransform attributeName="transform" begin="0.0" dur="0.25" fill="freeze" from="133.992 -435.069" to="219.57 -357.267" type="translate" /><animateTransform attributeName="transform" begin="0.25025" dur="0.25" fill="freeze" from="219.57 -357.267" to="308.034 -264.468" type="translate" /></g><g transform="translate(337.415796564,-693.573203436)"><ellipse cx="0" cy="0" fill="navy" rx="3" ry="8" stroke="black" /><animateTransform attributeName="transform" begin="0.0" dur="0.25" fill="freeze" from="337.415796564 -693.573203436" to="248.128796564 -619.260203436" type="translate" /><animateTransform attributeName="transform" begin="0.25025" dur="0.25" fill="freeze" from="248.128796564 -619.260203436" to="157.313796564 -566.048203436" type="translate" /><animateTransform attributeName="transform" begin="0.5005" dur="0.25" fill="freeze" from="157.313796564 -566.048203436" to="52.8303965644 -507.750203436" type="translate" /></g><g transform="translate(185.205203436,-456.282203436)"><ellipse cx="0" cy="0" fill="red" rx="3" ry="8" stroke="black" /><animateTransform attributeName="transform" begin="0.0" dur="0.25" fill="freeze" from="185.205203436 -456.282203436" to="199.740203436 -566.048203436" type="translate" /><animateTransform attributeName="transform" begin="0.25025" dur="0.25" fill="freeze" from="199.740203436 -566.048203436" to="95.2568034356 -507.750203436" type="translate" /><animateTransform attributeName="transform" begin="1.2505" dur="0.25" fill="freeze" from="95.2568034356 -507.750203436" to="61.3657034356 -388.109203436" type="translate" /></g><g transform="translate(322.713,-480.936)"><ellipse cx="0" cy="0" fill="white" rx="3" ry="8" stroke="black" /><animateTransform attributeName="transform" begin="0.0" dur="0.25" fill="freeze" from="322.713 -480.936" to="208.527 -544.835" type="translate" /><animateTransform attributeName="transform" begin="0.25025" dur="0.25" fill="freeze" from="208.527 -544.835" to="104.0436 -486.537" type="translate" /></g><g transform="translate(313.926203436,-459.722796564)"><ellipse cx="0" cy="0" fill="white" rx="5" ry="5" stroke="black" /><rect fill="pink" height="3" width="12" x="-6" y="-10" /><rect fill="red" height="3" width="0.0" x="-6" y="-10"><animate attributeName="width" begin="0.2505" dur="0.5" fill="freeze" from="0" to="12.0" /><animate attributeName="width" begin="0.75075" dur="0.25" fill="freeze" from="12.0" to="11.6571" /><animate attributeName="width" begin="1.001" dur="0.25" fill="freeze" from="11.6571" to="11.3143" /><animate attributeName="width" begin="1.25125" dur="1.25" fill="freeze" from="11.3143" to="10.9714" /><animate attributeName="width" begin="2.5015" dur="0.25" fill="freeze" from="10.9714" to="10.6286" /><animate attributeName="width" begin="2.75175" dur="0.25" fill="freeze" from="10.6286" to="10.2857" /><animate attributeName="width" begin="3.002" dur="0.25" fill="freeze" from="10.2857" to="9.9429" /></rect><animateTransform attributeName="transform" begin="0.75075" dur="0.25" fill="freeze" from="313.926203436 -459.722796564" to="199.740203436 -523.621796564" type="translate" /><animateTransform attributeName="transform" begin="1.001" dur="0.25" fill="freeze" from="199.740203436 -523.621796564" to="95.2568034356 -465.323796564" type="translate" /><animateTransform attributeName="transform" begin="2.5015" dur="0.25" fill="freeze" from="95.2568034356 -465.323796564" to="199.740203436 -523.621796564" type="translate" /><animateTransform attributeName="transform" begin="2.75175" dur="0.25" fill="freeze" from="199.740203436 -523.621796564" to="313.926203436 -459.722796564" type="translate" /></g><g transform="translate(292.713,-450.936)"><ellipse cx="0" cy="0" fill="white" rx="5" ry="5" stroke="black" /><rect fill="pink" height="3" width="12" x="-6" y="-10" /><rect fill="red" height="3" width="0.0" x="-6" y="-10"><animate attributeName="width" begin="1.00075" dur="0.5" fill="freeze" from="0" to="12.0" /><animate attributeName="width" begin="1.501" dur="0.25" fill="freeze" from="12.0" to="11.6571" /><animate attributeName="width" begin="1.75125" dur="0.25" fill="freeze" from="11.6571" to="11.3143" /><animate attributeName="width" begin="2.0015" dur="0.5" fill="freeze" from="11.3143" to="10.9714" /><animate attributeName="width" begin="2.50175" dur="0.25" fill="freeze" from="10.9714" to="10.6286" /><animate attributeName="width" begin="2.752" dur="0.25" fill="freeze" from="10.6286" to="10.2857" /><animate attributeName="width" begin="3.00225" dur="0.5" fill="freeze" from="10.2857" to="9.9429" /></rect><animateTransform attributeName="transform" begin="1.501" dur="0.25" fill="freeze" from="292.713 -450.936" to="178.527 -514.835" type="translate" /><animateTransform attributeName="transform" begin="1.75125" dur="0.25" fill="freeze" from="178.527 -514.835" to="74.0436 -456.537" type="translate" /><animateTransform attributeName="transform" begin="2.50175" dur="0.25" fill="freeze" from="74.0436 -456.537" to="178.527 -514.835" type="translate" /><animateTransform attributeName="transform" begin="2.752" dur="0.25" fill="freeze" from="178.527 -514.835" to="292.713 -450.936" type="translate" /></g><g transform="translate(271.499796564,-459.722796564)"><ellipse cx="0" cy="0" fill="white" rx="3" ry="8" stroke="black" /><animateTransform attributeName="transform" begin="0.0" dur="0.25" fill="freeze" from="271.499796564 -459.722796564" to="157.313796564 -523.621796564" type="translate" /><animateTransform attributeName="transform" begin="0.25025" dur="0.25" fill="freeze" from="157.313796564 -523.621796564" to="52.8303965644 -465.323796564" type="translate" /></g><g transform="translate(133.992,-435.069)"><ellipse cx="0" cy="0" fill="red" rx="5" ry="5" stroke="black" /><rect fill="pink" height="3" width="12" x="-6" y="-10" /><rect fill="red" height="3" width="0.0" x="-6" y="-10"><animate attributeName="width" begin="0.0" dur="0.5" fill="freeze" from="0" to="12.0" /><animate attributeName="width" begin="0.50025" dur="0.25" fill="freeze" from="12.0" to="11.6571" /><animate attributeName="width" begin="0.7505" dur="0.25" fill="freeze" from="11.6571" to="11.3143" /><animate attributeName="width" begin="1.00075" dur="0.5" fill="freeze" from="11.3143" to="10.9714" /><animate attributeName="width" begin="1.50075" dur="0.25" fill="freeze" from="10.9714" to="10.6286" /><animate attributeName="width" begin="1.751" dur="0.25" fill="freeze" from="10.6286" to="10.2857" /><animate attributeName="width" begin="2.00125" dur="0.25" fill="freeze" from="10.2857" to="9.9429" /><animate attributeName="width" begin="2.2515" dur="0.5" fill="freeze" from="9.9429" to="9.6" /><animate attributeName="width" begin="2.7515" dur="0.25" fill="freeze" from="9.6" to="9.2571" /><animate attributeName="width" begin="3.00175" dur="0.5" fill="freeze" from="9.2571" to="8.9143" /></rect><animateTransform attributeName="transform" begin="0.50025" dur="0.25" fill="freeze" from="133.992 -435.069" to="148.527 -544.835" type="translate" /><animateTransform attributeName="transform" begin="0.7505" dur="0.25" fill="freeze" from="148.527 -544.835" to="44.8938 -599.686" type="translate" /><animateTransform attributeName="transform" begin="1.50075" dur="0.25" fill="freeze" from="44.8938 -599.686" to="148.527 -544.835" type="translate" /><animateTransform attributeName="transform" begin="1.751" dur="0.25" fill="freeze" from="148.527 -544.835" to="262.713 -480.936" type="translate" /><animateTransform attributeName="transform" begin="2.00125" dur="0.25" fill="freeze" from="262.713 -480.936" to="219.57 -357.267" type="translate" /><animateTransform attributeName="transform" begin="2.7515" dur="0.25" fill="freeze" from="219.57 -357.267" to="133.992 -435.069" type="translate" /></g><g transform="translate(464.961,-864.861)"><rect fill="white" height="300" stroke="black" width="100" x="0" y="0" /><ellipse cx="10" cy="10" fill="none" rx="5" ry="5" stroke="green" stroke-width="2" /><text fill="black" font-family="sans-serif" font-size="10" text-anchor="start" x="20" y="13">battery_charger</text><rect fill="white" height="7" stroke="black" stroke-width="1" width="7" x="7" y="27" /><text fill="black" font-family="sans-serif" font-size="10" text-anchor="start" x="20" y="33">drugs</text><ellipse cx="10" cy="50" fill="white" rx="3" ry="8" stroke="black" stroke-width="1" /><text fill="black" font-family="sans-serif" font-size="10" text-anchor="start" x="20" y="53">ems</text><ellipse cx="10" cy="70" fill="white" rx="5" ry="5" stroke="black" stroke-width="1" /><text fill="black" font-family="sans-serif" font-size="10" text-anchor="start" x="20" y="73">emsbot</text><ellipse cx="10" cy="90" fill="none" rx="5" ry="5" stroke="orange" stroke-width="2" /><text fill="black" font-family="sans-serif" font-size="10" text-anchor="start" x="20" y="93">fire_base</text><ellipse cx="10" cy="110" fill="red" rx="5" ry="5" stroke="black" stroke-width="1" /><text fill="black" font-family="sans-serif" font-size="10" text-anchor="start" x="20" y="113">firebot</text><ellipse cx="10" cy="130" fill="red" rx="3" ry="8" stroke="black" stroke-width="1" /><text fill="black" font-family="sans-serif" font-size="10" text-anchor="start" x="20" y="133">firefighter</text><ellipse cx="10" cy="150" fill="none" rx="5" ry="5" stroke="red" stroke-width="2" /><text fill="black" font-family="sans-serif" font-size="10" text-anchor="start" x="20" y="153">hospital</text><ellipse cx="10" cy="170" fill="navy" rx="3" ry="8" stroke="black" stroke-width="1" /><text fill="black" font-family="sans-serif" font-size="10" text-anchor="start" x="20" y="173">police</text><ellipse cx="10" cy="190" fill="none" rx="5" ry="5" stroke="navy" stroke-width="2" /><text fill="black" font-family="sans-serif" font-size="10" text-anchor="start" x="20" y="193">police_base</text><ellipse cx="10" cy="210" fill="navy" rx="5" ry="5" stroke="black" stroke-width="1" /><text fill="black" font-family="sans-serif" font-size="10" text-anchor="start" x="20" y="213">policebot</text><ellipse cx="10" cy="230" fill="green" rx="5" ry="5" stroke="black" stroke-width="1" /><text fill="black" font-family="sans-serif" font-size="10" text-anchor="start" x="20" y="233">quadrotor</text><ellipse cx="10" cy="250" fill="white" rx="8" ry="3" stroke="black" stroke-width="1" /><text fill="black" font-family="sans-serif" font-size="10" text-anchor="start" x="20" y="253">victim</text><rect fill="grey" height="7" stroke="black" stroke-width="1" width="7" x="7" y="267" /><text fill="black" font-family="sans-serif" font-size="10" text-anchor="start" x="20" y="273">weapons</text><ellipse cx="10" cy="290" fill="pink" rx="8" ry="3" stroke="black" stroke-width="1" /><text fill="black" font-family="sans-serif" font-size="10" text-anchor="start" x="20" y="293">Triaged Victim</text></g></svg>