<?xml version="1.0" encoding="UTF-8" standalone="no"?>
<!DOCTYPE svg PUBLIC "-//W3C//DTD SVG 1.1//EN"
 "http://www.w3.org/Graphics/SVG/1.1/DTD/svg11.dtd">
<!-- Generated by graphviz version 2.28.0 (20170704.0136)
 -->
<!-- Title: _anonymous_0 Pages: 1 -->
<svg width="652pt" height="555pt"
 viewBox="0.00 0.00 651.84 554.73" xmlns="http://www.w3.org/2000/svg" xmlns:xlink="http://www.w3.org/1999/xlink">
<g id="graph1" class="graph" transform="scale(1 1) rotate(0) translate(4 550.729)">
<title>_anonymous_0</title>
<polygon fill="white" stroke="white" points="-4,5 -4,-550.729 648.841,-550.729 648.841,5 -4,5"/>
<!-- wpt_08 -->
<g id="node1" class="node"><title>wpt_08</title>
<ellipse fill="none" stroke="black" cx="247.328" cy="-319.747" rx="39.9593" ry="40.1111"/>
<text text-anchor="middle" x="247.328" y="-316.047" font-family="Times,serif" font-size="14.00">wpt_08</text>
</g>
<!-- wpt_11 -->
<g id="node14" class="node"><title>wpt_11</title>
<ellipse fill="none" stroke="black" cx="332.081" cy="-389.441" rx="39.9593" ry="40.1111"/>
<text text-anchor="middle" x="332.081" y="-385.741" font-family="Times,serif" font-size="14.00">wpt_11</text>
</g>
<!-- wpt_08&#45;&#45;wpt_11 -->
<g id="edge14" class="edge"><title>wpt_08&#45;&#45;wpt_11</title>
<path fill="none" stroke="black" d="M278.887,-345.699C286.04,-351.581 293.635,-357.826 300.778,-363.7"/>
</g>
<!-- wpt_09 -->
<g id="node2" class="node"><title>wpt_09</title>
<ellipse fill="none" stroke="black" cx="568.14" cy="-392.359" rx="39.9593" ry="40.1111"/>
<text text-anchor="middle" x="568.14" y="-388.659" font-family="Times,serif" font-size="14.00">wpt_09</text>
</g>
<!-- wpt_12 -->
<g id="node13" class="node"><title>wpt_12</title>
<ellipse fill="none" stroke="black" cx="603.688" cy="-506.424" rx="39.9593" ry="40.1111"/>
<text text-anchor="middle" x="603.688" y="-502.724" font-family="Times,serif" font-size="14.00">wpt_12</text>
</g>
<!-- wpt_09&#45;&#45;wpt_12 -->
<g id="edge34" class="edge"><title>wpt_09&#45;&#45;wpt_12</title>
<path fill="none" stroke="black" d="M580.175,-430.976C583.881,-442.868 587.96,-455.957 591.666,-467.847"/>
</g>
<!-- wpt_10 -->
<g id="node15" class="node"><title>wpt_10</title>
<ellipse fill="none" stroke="black" cx="444.886" cy="-391.792" rx="39.9593" ry="40.1111"/>
<text text-anchor="middle" x="444.886" y="-388.092" font-family="Times,serif" font-size="14.00">wpt_10</text>
</g>
<!-- wpt_09&#45;&#45;wpt_10 -->
<g id="edge18" class="edge"><title>wpt_09&#45;&#45;wpt_10</title>
<path fill="none" stroke="black" d="M527.782,-392.173C514.162,-392.111 498.962,-392.041 485.335,-391.978"/>
</g>
<!-- wpt_00 -->
<g id="node3" class="node"><title>wpt_00</title>
<ellipse fill="none" stroke="black" cx="175.626" cy="-40.3051" rx="39.9593" ry="40.1111"/>
<text text-anchor="middle" x="175.626" y="-36.6051" font-family="Times,serif" font-size="14.00">wpt_00</text>
</g>
<!-- wpt_01 -->
<g id="node4" class="node"><title>wpt_01</title>
<ellipse fill="none" stroke="black" cx="96.0262" cy="-141.632" rx="39.9593" ry="40.1111"/>
<text text-anchor="middle" x="96.0262" y="-137.932" font-family="Times,serif" font-size="14.00">wpt_01</text>
</g>
<!-- wpt_00&#45;&#45;wpt_01 -->
<g id="edge8" class="edge"><title>wpt_00&#45;&#45;wpt_01</title>
<path fill="none" stroke="black" d="M150.658,-72.0877C141.266,-84.0437 130.588,-97.6368 121.179,-109.614"/>
</g>
<!-- wpt_03 -->
<g id="node6" class="node"><title>wpt_03</title>
<ellipse fill="none" stroke="black" cx="293.969" cy="-81.2464" rx="39.9593" ry="40.1111"/>
<text text-anchor="middle" x="293.969" y="-77.5464" font-family="Times,serif" font-size="14.00">wpt_03</text>
</g>
<!-- wpt_00&#45;&#45;wpt_03 -->
<g id="edge26" class="edge"><title>wpt_00&#45;&#45;wpt_03</title>
<path fill="none" stroke="black" d="M213.722,-53.4845C227.101,-58.113 242.133,-63.3134 255.539,-67.9513"/>
</g>
<!-- wpt_04 -->
<g id="node7" class="node"><title>wpt_04</title>
<ellipse fill="none" stroke="black" cx="190.57" cy="-127.417" rx="39.9593" ry="40.1111"/>
<text text-anchor="middle" x="190.57" y="-123.717" font-family="Times,serif" font-size="14.00">wpt_04</text>
</g>
<!-- wpt_00&#45;&#45;wpt_04 -->
<g id="edge40" class="edge"><title>wpt_00&#45;&#45;wpt_04</title>
<path fill="none" stroke="black" d="M182.442,-80.0374C182.873,-82.5503 183.307,-85.0803 183.738,-87.5935"/>
</g>
<!-- wpt_02 -->
<g id="node5" class="node"><title>wpt_02</title>
<ellipse fill="none" stroke="black" cx="40.1525" cy="-237.785" rx="39.9593" ry="40.1111"/>
<text text-anchor="middle" x="40.1525" y="-234.085" font-family="Times,serif" font-size="14.00">wpt_02</text>
</g>
<!-- wpt_01&#45;&#45;wpt_02 -->
<g id="edge30" class="edge"><title>wpt_01&#45;&#45;wpt_02</title>
<path fill="none" stroke="black" d="M75.6965,-176.618C70.7665,-185.102 65.4944,-194.174 60.5608,-202.664"/>
</g>
<!-- wpt_01&#45;&#45;wpt_04 -->
<g id="edge44" class="edge"><title>wpt_01&#45;&#45;wpt_04</title>
<path fill="none" stroke="black" d="M135.847,-135.645C140.793,-134.902 145.85,-134.141 150.795,-133.398"/>
</g>
<!-- wpt_05 -->
<g id="node8" class="node"><title>wpt_05</title>
<ellipse fill="none" stroke="black" cx="154.139" cy="-241.946" rx="39.9593" ry="40.1111"/>
<text text-anchor="middle" x="154.139" y="-238.246" font-family="Times,serif" font-size="14.00">wpt_05</text>
</g>
<!-- wpt_01&#45;&#45;wpt_05 -->
<g id="edge24" class="edge"><title>wpt_01&#45;&#45;wpt_05</title>
<path fill="none" stroke="black" d="M116.351,-176.717C122.046,-186.548 128.235,-197.23 133.924,-207.05"/>
</g>
<!-- wpt_02&#45;&#45;wpt_05 -->
<g id="edge22" class="edge"><title>wpt_02&#45;&#45;wpt_05</title>
<path fill="none" stroke="black" d="M80.34,-239.252C91.2364,-239.649 103.033,-240.08 113.93,-240.478"/>
</g>
<!-- wpt_03&#45;&#45;wpt_04 -->
<g id="edge36" class="edge"><title>wpt_03&#45;&#45;wpt_04</title>
<path fill="none" stroke="black" d="M257.223,-97.6545C247.588,-101.957 237.193,-106.598 227.546,-110.906"/>
</g>
<!-- wpt_06 -->
<g id="node9" class="node"><title>wpt_06</title>
<ellipse fill="none" stroke="black" cx="385.1" cy="-168.505" rx="39.9593" ry="40.1111"/>
<text text-anchor="middle" x="385.1" y="-164.805" font-family="Times,serif" font-size="14.00">wpt_06</text>
</g>
<!-- wpt_03&#45;&#45;wpt_06 -->
<g id="edge12" class="edge"><title>wpt_03&#45;&#45;wpt_06</title>
<path fill="none" stroke="black" d="M323.054,-109.096C333.576,-119.171 345.454,-130.543 355.979,-140.621"/>
</g>
<!-- wpt_04&#45;&#45;wpt_05 -->
<g id="edge20" class="edge"><title>wpt_04&#45;&#45;wpt_05</title>
<path fill="none" stroke="black" d="M178.338,-165.872C174.493,-177.959 170.248,-191.304 166.401,-203.397"/>
</g>
<!-- wpt_05&#45;&#45;wpt_08 -->
<g id="edge48" class="edge"><title>wpt_05&#45;&#45;wpt_08</title>
<path fill="none" stroke="black" d="M185.17,-267.852C195.23,-276.251 206.383,-285.563 216.433,-293.954"/>
</g>
<!-- wpt_07 -->
<g id="node10" class="node"><title>wpt_07</title>
<ellipse fill="none" stroke="black" cx="371.859" cy="-292.832" rx="39.9593" ry="40.1111"/>
<text text-anchor="middle" x="371.859" y="-289.132" font-family="Times,serif" font-size="14.00">wpt_07</text>
</g>
<!-- wpt_06&#45;&#45;wpt_07 -->
<g id="edge10" class="edge"><title>wpt_06&#45;&#45;wpt_07</title>
<path fill="none" stroke="black" d="M380.801,-208.871C379.306,-222.909 377.63,-238.647 376.136,-252.669"/>
</g>
<!-- wpt_07&#45;&#45;wpt_08 -->
<g id="edge42" class="edge"><title>wpt_07&#45;&#45;wpt_08</title>
<path fill="none" stroke="black" d="M332.456,-301.348C317.92,-304.49 301.453,-308.049 286.901,-311.194"/>
</g>
<!-- wpt_07&#45;&#45;wpt_11 -->
<g id="edge16" class="edge"><title>wpt_07&#45;&#45;wpt_11</title>
<path fill="none" stroke="black" d="M356.48,-330.184C353.506,-337.405 350.391,-344.971 347.419,-352.189"/>
</g>
<!-- wpt_07&#45;&#45;wpt_10 -->
<g id="edge2" class="edge"><title>wpt_07&#45;&#45;wpt_10</title>
<path fill="none" stroke="black" d="M395.771,-325.235C403.84,-336.171 412.846,-348.375 420.92,-359.316"/>
</g>
<!-- wpt_14 -->
<g id="node11" class="node"><title>wpt_14</title>
<ellipse fill="none" stroke="black" cx="382.65" cy="-488.176" rx="39.9593" ry="40.1111"/>
<text text-anchor="middle" x="382.65" y="-484.476" font-family="Times,serif" font-size="14.00">wpt_14</text>
</g>
<!-- wpt_13 -->
<g id="node12" class="node"><title>wpt_13</title>
<ellipse fill="none" stroke="black" cx="486.376" cy="-505.713" rx="39.9593" ry="40.1111"/>
<text text-anchor="middle" x="486.376" y="-502.013" font-family="Times,serif" font-size="14.00">wpt_13</text>
</g>
<!-- wpt_13&#45;&#45;wpt_14 -->
<g id="edge32" class="edge"><title>wpt_13&#45;&#45;wpt_14</title>
<path fill="none" stroke="black" d="M446.569,-498.983C438.685,-497.65 430.408,-496.251 422.521,-494.917"/>
</g>
<!-- wpt_12&#45;&#45;wpt_13 -->
<g id="edge28" class="edge"><title>wpt_12&#45;&#45;wpt_13</title>
<path fill="none" stroke="black" d="M563.316,-506.179C551.518,-506.108 538.624,-506.03 526.822,-505.958"/>
</g>
<!-- wpt_11&#45;&#45;wpt_14 -->
<g id="edge46" class="edge"><title>wpt_11&#45;&#45;wpt_14</title>
<path fill="none" stroke="black" d="M350.481,-425.366C354.943,-434.078 359.714,-443.394 364.179,-452.113"/>
</g>
<!-- wpt_10&#45;&#45;wpt_14 -->
<g id="edge4" class="edge"><title>wpt_10&#45;&#45;wpt_14</title>
<path fill="none" stroke="black" d="M422.944,-425.773C416.994,-434.987 410.554,-444.962 404.604,-454.177"/>
</g>
<!-- wpt_10&#45;&#45;wpt_13 -->
<g id="edge38" class="edge"><title>wpt_10&#45;&#45;wpt_13</title>
<path fill="none" stroke="black" d="M458.701,-429.726C463.133,-441.894 468.041,-455.372 472.479,-467.556"/>
</g>
<!-- wpt_10&#45;&#45;wpt_11 -->
<g id="edge6" class="edge"><title>wpt_10&#45;&#45;wpt_11</title>
<path fill="none" stroke="black" d="M404.479,-390.95C394.111,-390.734 382.957,-390.501 372.584,-390.285"/>
</g>
</g>
</svg>
