<?xml version="1.0" encoding="UTF-8" standalone="no"?>
<!DOCTYPE svg PUBLIC "-//W3C//DTD SVG 1.1//EN"
 "http://www.w3.org/Graphics/SVG/1.1/DTD/svg11.dtd">
<!-- Generated by graphviz version 2.28.0 (20170704.0136)
 -->
<!-- Title: _anonymous_0 Pages: 1 -->
<svg width="557pt" height="579pt"
 viewBox="0.00 0.00 557.34 578.68" xmlns="http://www.w3.org/2000/svg" xmlns:xlink="http://www.w3.org/1999/xlink">
<g id="graph1" class="graph" transform="scale(1 1) rotate(0) translate(4 574.684)">
<title>_anonymous_0</title>
<polygon fill="white" stroke="white" points="-4,5 -4,-574.684 554.336,-574.684 554.336,5 -4,5"/>
<!-- wpt_08 -->
<g id="node1" class="node"><title>wpt_08</title>
<ellipse fill="none" stroke="black" cx="209.941" cy="-300.792" rx="39.9593" ry="40.1111"/>
<text text-anchor="middle" x="209.941" y="-297.092" font-family="Times,serif" font-size="14.00">wpt_08</text>
</g>
<!-- wpt_11 -->
<g id="node14" class="node"><title>wpt_11</title>
<ellipse fill="none" stroke="black" cx="214.389" cy="-423.804" rx="39.9593" ry="40.1111"/>
<text text-anchor="middle" x="214.389" y="-420.104" font-family="Times,serif" font-size="14.00">wpt_11</text>
</g>
<!-- wpt_08&#45;&#45;wpt_11 -->
<g id="edge16" class="edge"><title>wpt_08&#45;&#45;wpt_11</title>
<path fill="none" stroke="black" d="M211.41,-341.412C211.896,-354.848 212.436,-369.794 212.922,-383.227"/>
</g>
<!-- wpt_09 -->
<g id="node2" class="node"><title>wpt_09</title>
<ellipse fill="none" stroke="black" cx="454.776" cy="-431.393" rx="39.9593" ry="40.1111"/>
<text text-anchor="middle" x="454.776" y="-427.693" font-family="Times,serif" font-size="14.00">wpt_09</text>
</g>
<!-- wpt_13 -->
<g id="node12" class="node"><title>wpt_13</title>
<ellipse fill="none" stroke="black" cx="397.043" cy="-528.668" rx="39.9593" ry="40.1111"/>
<text text-anchor="middle" x="397.043" y="-524.968" font-family="Times,serif" font-size="14.00">wpt_13</text>
</g>
<!-- wpt_09&#45;&#45;wpt_13 -->
<g id="edge48" class="edge"><title>wpt_09&#45;&#45;wpt_13</title>
<path fill="none" stroke="black" d="M434.096,-466.236C428.79,-475.177 423.081,-484.796 417.772,-493.74"/>
</g>
<!-- wpt_12 -->
<g id="node13" class="node"><title>wpt_12</title>
<ellipse fill="none" stroke="black" cx="509.184" cy="-530.379" rx="39.9593" ry="40.1111"/>
<text text-anchor="middle" x="509.184" y="-526.679" font-family="Times,serif" font-size="14.00">wpt_12</text>
</g>
<!-- wpt_09&#45;&#45;wpt_12 -->
<g id="edge32" class="edge"><title>wpt_09&#45;&#45;wpt_12</title>
<path fill="none" stroke="black" d="M474.265,-466.849C479.265,-475.947 484.645,-485.735 489.648,-494.837"/>
</g>
<!-- wpt_10 -->
<g id="node15" class="node"><title>wpt_10</title>
<ellipse fill="none" stroke="black" cx="335.929" cy="-437.848" rx="39.9593" ry="40.1111"/>
<text text-anchor="middle" x="335.929" y="-434.148" font-family="Times,serif" font-size="14.00">wpt_10</text>
</g>
<!-- wpt_09&#45;&#45;wpt_10 -->
<g id="edge20" class="edge"><title>wpt_09&#45;&#45;wpt_10</title>
<path fill="none" stroke="black" d="M414.54,-433.578C402.284,-434.244 388.808,-434.976 376.528,-435.643"/>
</g>
<!-- wpt_00 -->
<g id="node3" class="node"><title>wpt_00</title>
<ellipse fill="none" stroke="black" cx="40.1525" cy="-58.9686" rx="39.9593" ry="40.1111"/>
<text text-anchor="middle" x="40.1525" y="-55.2686" font-family="Times,serif" font-size="14.00">wpt_00</text>
</g>
<!-- wpt_01 -->
<g id="node4" class="node"><title>wpt_01</title>
<ellipse fill="none" stroke="black" cx="148.559" cy="-104.997" rx="39.9593" ry="40.1111"/>
<text text-anchor="middle" x="148.559" y="-101.297" font-family="Times,serif" font-size="14.00">wpt_01</text>
</g>
<!-- wpt_00&#45;&#45;wpt_01 -->
<g id="edge34" class="edge"><title>wpt_00&#45;&#45;wpt_01</title>
<path fill="none" stroke="black" d="M77.4598,-74.8091C88.3617,-79.438 100.277,-84.4971 111.183,-89.1277"/>
</g>
<!-- wpt_02 -->
<g id="node5" class="node"><title>wpt_02</title>
<ellipse fill="none" stroke="black" cx="200.118" cy="-40.3051" rx="39.9593" ry="40.1111"/>
<text text-anchor="middle" x="200.118" y="-36.6051" font-family="Times,serif" font-size="14.00">wpt_02</text>
</g>
<!-- wpt_01&#45;&#45;wpt_02 -->
<g id="edge28" class="edge"><title>wpt_01&#45;&#45;wpt_02</title>
<path fill="none" stroke="black" d="M173.734,-73.4093C174.143,-72.8962 174.553,-72.3827 174.962,-71.8695"/>
</g>
<!-- wpt_04 -->
<g id="node7" class="node"><title>wpt_04</title>
<ellipse fill="none" stroke="black" cx="282.237" cy="-135.217" rx="39.9593" ry="40.1111"/>
<text text-anchor="middle" x="282.237" y="-131.517" font-family="Times,serif" font-size="14.00">wpt_04</text>
</g>
<!-- wpt_01&#45;&#45;wpt_04 -->
<g id="edge10" class="edge"><title>wpt_01&#45;&#45;wpt_04</title>
<path fill="none" stroke="black" d="M187.944,-113.901C205.195,-117.801 225.4,-122.368 242.672,-126.273"/>
</g>
<!-- wpt_05 -->
<g id="node8" class="node"><title>wpt_05</title>
<ellipse fill="none" stroke="black" cx="188.011" cy="-181.234" rx="39.9593" ry="40.1111"/>
<text text-anchor="middle" x="188.011" y="-177.534" font-family="Times,serif" font-size="14.00">wpt_05</text>
</g>
<!-- wpt_01&#45;&#45;wpt_05 -->
<g id="edge24" class="edge"><title>wpt_01&#45;&#45;wpt_05</title>
<path fill="none" stroke="black" d="M167.13,-140.883C167.849,-142.274 168.571,-143.668 169.29,-145.059"/>
</g>
<!-- wpt_02&#45;&#45;wpt_05 -->
<g id="edge26" class="edge"><title>wpt_02&#45;&#45;wpt_05</title>
<path fill="none" stroke="black" d="M196.649,-80.6896C195.027,-99.5596 193.102,-121.973 191.481,-140.843"/>
</g>
<!-- wpt_03 -->
<g id="node6" class="node"><title>wpt_03</title>
<ellipse fill="none" stroke="black" cx="378.259" cy="-213.629" rx="39.9593" ry="40.1111"/>
<text text-anchor="middle" x="378.259" y="-209.929" font-family="Times,serif" font-size="14.00">wpt_03</text>
</g>
<!-- wpt_03&#45;&#45;wpt_04 -->
<g id="edge36" class="edge"><title>wpt_03&#45;&#45;wpt_04</title>
<path fill="none" stroke="black" d="M346.818,-187.954C336.098,-179.2 324.121,-169.419 313.421,-160.682"/>
</g>
<!-- wpt_06 -->
<g id="node9" class="node"><title>wpt_06</title>
<ellipse fill="none" stroke="black" cx="447.181" cy="-306.372" rx="39.9593" ry="40.1111"/>
<text text-anchor="middle" x="447.181" y="-302.672" font-family="Times,serif" font-size="14.00">wpt_06</text>
</g>
<!-- wpt_03&#45;&#45;wpt_06 -->
<g id="edge14" class="edge"><title>wpt_03&#45;&#45;wpt_06</title>
<path fill="none" stroke="black" d="M402.365,-246.066C409.042,-255.051 416.29,-264.804 422.973,-273.797"/>
</g>
<!-- wpt_07 -->
<g id="node10" class="node"><title>wpt_07</title>
<ellipse fill="none" stroke="black" cx="334.038" cy="-317.152" rx="39.9593" ry="40.1111"/>
<text text-anchor="middle" x="334.038" y="-313.452" font-family="Times,serif" font-size="14.00">wpt_07</text>
</g>
<!-- wpt_03&#45;&#45;wpt_07 -->
<g id="edge46" class="edge"><title>wpt_03&#45;&#45;wpt_07</title>
<path fill="none" stroke="black" d="M362.419,-250.711C358.355,-260.226 353.982,-270.462 349.916,-279.981"/>
</g>
<!-- wpt_04&#45;&#45;wpt_05 -->
<g id="edge22" class="edge"><title>wpt_04&#45;&#45;wpt_05</title>
<path fill="none" stroke="black" d="M246.076,-152.876C238.914,-156.374 231.394,-160.047 224.23,-163.545"/>
</g>
<!-- wpt_05&#45;&#45;wpt_08 -->
<g id="edge44" class="edge"><title>wpt_05&#45;&#45;wpt_08</title>
<path fill="none" stroke="black" d="M195.313,-221.045C197.656,-233.816 200.25,-247.96 202.596,-260.747"/>
</g>
<!-- wpt_06&#45;&#45;wpt_09 -->
<g id="edge42" class="edge"><title>wpt_06&#45;&#45;wpt_09</title>
<path fill="none" stroke="black" d="M449.626,-346.618C450.485,-360.751 451.449,-376.632 452.31,-390.794"/>
</g>
<!-- wpt_06&#45;&#45;wpt_07 -->
<g id="edge12" class="edge"><title>wpt_06&#45;&#45;wpt_07</title>
<path fill="none" stroke="black" d="M406.973,-310.203C396.302,-311.22 384.781,-312.317 374.117,-313.333"/>
</g>
<!-- wpt_07&#45;&#45;wpt_08 -->
<g id="edge40" class="edge"><title>wpt_07&#45;&#45;wpt_08</title>
<path fill="none" stroke="black" d="M294.09,-311.885C279.919,-310.017 263.979,-307.916 249.814,-306.049"/>
</g>
<!-- wpt_07&#45;&#45;wpt_10 -->
<g id="edge2" class="edge"><title>wpt_07&#45;&#45;wpt_10</title>
<path fill="none" stroke="black" d="M334.673,-357.678C334.873,-370.416 335.093,-384.479 335.293,-397.224"/>
</g>
<!-- wpt_14 -->
<g id="node11" class="node"><title>wpt_14</title>
<ellipse fill="none" stroke="black" cx="276.506" cy="-521.146" rx="39.9593" ry="40.1111"/>
<text text-anchor="middle" x="276.506" y="-517.446" font-family="Times,serif" font-size="14.00">wpt_14</text>
</g>
<!-- wpt_13&#45;&#45;wpt_14 -->
<g id="edge30" class="edge"><title>wpt_13&#45;&#45;wpt_14</title>
<path fill="none" stroke="black" d="M356.906,-526.163C344.031,-525.36 329.771,-524.47 316.879,-523.666"/>
</g>
<!-- wpt_12&#45;&#45;wpt_13 -->
<g id="edge18" class="edge"><title>wpt_12&#45;&#45;wpt_13</title>
<path fill="none" stroke="black" d="M469.015,-529.766C458.708,-529.609 447.62,-529.44 437.308,-529.282"/>
</g>
<!-- wpt_11&#45;&#45;wpt_14 -->
<g id="edge8" class="edge"><title>wpt_11&#45;&#45;wpt_14</title>
<path fill="none" stroke="black" d="M236.115,-457.85C242.132,-467.28 248.665,-477.517 254.688,-486.955"/>
</g>
<!-- wpt_10&#45;&#45;wpt_14 -->
<g id="edge4" class="edge"><title>wpt_10&#45;&#45;wpt_14</title>
<path fill="none" stroke="black" d="M312.444,-470.77C308.356,-476.5 304.104,-482.46 300.016,-488.191"/>
</g>
<!-- wpt_10&#45;&#45;wpt_13 -->
<g id="edge38" class="edge"><title>wpt_10&#45;&#45;wpt_13</title>
<path fill="none" stroke="black" d="M358.512,-471.408C363.748,-479.189 369.32,-487.47 374.553,-495.246"/>
</g>
<!-- wpt_10&#45;&#45;wpt_11 -->
<g id="edge6" class="edge"><title>wpt_10&#45;&#45;wpt_11</title>
<path fill="none" stroke="black" d="M295.795,-433.21C282.52,-431.676 267.753,-429.97 254.48,-428.436"/>
</g>
</g>
</svg>
