<?xml version="1.0" encoding="UTF-8" standalone="no"?>
<!DOCTYPE svg PUBLIC "-//W3C//DTD SVG 1.1//EN"
 "http://www.w3.org/Graphics/SVG/1.1/DTD/svg11.dtd">
<!-- Generated by graphviz version 2.28.0 (20170704.0136)
 -->
<!-- Title: _anonymous_0 Pages: 1 -->
<svg width="487pt" height="715pt"
 viewBox="0.00 0.00 486.91 714.84" xmlns="http://www.w3.org/2000/svg" xmlns:xlink="http://www.w3.org/1999/xlink">
<g id="graph1" class="graph" transform="scale(1 1) rotate(0) translate(4 710.837)">
<title>_anonymous_0</title>
<polygon fill="white" stroke="white" points="-4,5 -4,-710.837 483.911,-710.837 483.911,5 -4,5"/>
<!-- wpt_08 -->
<g id="node1" class="node"><title>wpt_08</title>
<ellipse fill="none" stroke="black" cx="75.4306" cy="-372.418" rx="39.9593" ry="40.1111"/>
<text text-anchor="middle" x="75.4306" y="-368.718" font-family="Times,serif" font-size="14.00">wpt_08</text>
</g>
<!-- wpt_09 -->
<g id="node2" class="node"><title>wpt_09</title>
<ellipse fill="none" stroke="black" cx="203.852" cy="-372.47" rx="39.9593" ry="40.1111"/>
<text text-anchor="middle" x="203.852" y="-368.77" font-family="Times,serif" font-size="14.00">wpt_09</text>
</g>
<!-- wpt_08&#45;&#45;wpt_09 -->
<g id="edge20" class="edge"><title>wpt_08&#45;&#45;wpt_09</title>
<path fill="none" stroke="black" d="M116.064,-372.434C131.202,-372.441 148.369,-372.448 163.483,-372.454"/>
</g>
<!-- wpt_14 -->
<g id="node14" class="node"><title>wpt_14</title>
<ellipse fill="none" stroke="black" cx="289.523" cy="-458.661" rx="39.9593" ry="40.1111"/>
<text text-anchor="middle" x="289.523" y="-454.961" font-family="Times,serif" font-size="14.00">wpt_14</text>
</g>
<!-- wpt_09&#45;&#45;wpt_14 -->
<g id="edge12" class="edge"><title>wpt_09&#45;&#45;wpt_14</title>
<path fill="none" stroke="black" d="M232.379,-401.17C241.53,-410.377 251.666,-420.573 260.829,-429.792"/>
</g>
<!-- wpt_13 -->
<g id="node15" class="node"><title>wpt_13</title>
<ellipse fill="none" stroke="black" cx="203.282" cy="-497.181" rx="39.9593" ry="40.1111"/>
<text text-anchor="middle" x="203.282" y="-493.481" font-family="Times,serif" font-size="14.00">wpt_13</text>
</g>
<!-- wpt_09&#45;&#45;wpt_13 -->
<g id="edge56" class="edge"><title>wpt_09&#45;&#45;wpt_13</title>
<path fill="none" stroke="black" d="M203.667,-412.96C203.603,-426.9 203.532,-442.509 203.468,-456.467"/>
</g>
<!-- wpt_10 -->
<g id="node18" class="node"><title>wpt_10</title>
<ellipse fill="none" stroke="black" cx="303.616" cy="-314.517" rx="39.9593" ry="40.1111"/>
<text text-anchor="middle" x="303.616" y="-310.817" font-family="Times,serif" font-size="14.00">wpt_10</text>
</g>
<!-- wpt_09&#45;&#45;wpt_10 -->
<g id="edge24" class="edge"><title>wpt_09&#45;&#45;wpt_10</title>
<path fill="none" stroke="black" d="M238.745,-352.201C248.409,-346.587 258.902,-340.492 268.575,-334.872"/>
</g>
<!-- wpt_00 -->
<g id="node3" class="node"><title>wpt_00</title>
<ellipse fill="none" stroke="black" cx="128.649" cy="-40.3051" rx="39.9593" ry="40.1111"/>
<text text-anchor="middle" x="128.649" y="-36.6051" font-family="Times,serif" font-size="14.00">wpt_00</text>
</g>
<!-- wpt_01 -->
<g id="node4" class="node"><title>wpt_01</title>
<ellipse fill="none" stroke="black" cx="214.019" cy="-123.898" rx="39.9593" ry="40.1111"/>
<text text-anchor="middle" x="214.019" y="-120.198" font-family="Times,serif" font-size="14.00">wpt_01</text>
</g>
<!-- wpt_00&#45;&#45;wpt_01 -->
<g id="edge8" class="edge"><title>wpt_00&#45;&#45;wpt_01</title>
<path fill="none" stroke="black" d="M157.551,-68.6059C166.452,-77.3211 176.248,-86.9133 185.146,-95.6265"/>
</g>
<!-- wpt_02 -->
<g id="node5" class="node"><title>wpt_02</title>
<ellipse fill="none" stroke="black" cx="314.236" cy="-48.096" rx="39.9593" ry="40.1111"/>
<text text-anchor="middle" x="314.236" y="-44.396" font-family="Times,serif" font-size="14.00">wpt_02</text>
</g>
<!-- wpt_01&#45;&#45;wpt_02 -->
<g id="edge40" class="edge"><title>wpt_01&#45;&#45;wpt_02</title>
<path fill="none" stroke="black" d="M246.28,-99.4967C257.724,-90.8406 270.597,-81.104 282.036,-72.4518"/>
</g>
<!-- wpt_05 -->
<g id="node8" class="node"><title>wpt_05</title>
<ellipse fill="none" stroke="black" cx="220.768" cy="-248.103" rx="39.9593" ry="40.1111"/>
<text text-anchor="middle" x="220.768" y="-244.403" font-family="Times,serif" font-size="14.00">wpt_05</text>
</g>
<!-- wpt_01&#45;&#45;wpt_05 -->
<g id="edge44" class="edge"><title>wpt_01&#45;&#45;wpt_05</title>
<path fill="none" stroke="black" d="M216.21,-164.224C216.965,-178.107 217.809,-193.653 218.565,-207.554"/>
</g>
<!-- wpt_06 -->
<g id="node9" class="node"><title>wpt_06</title>
<ellipse fill="none" stroke="black" cx="303.948" cy="-161.079" rx="39.9593" ry="40.1111"/>
<text text-anchor="middle" x="303.948" y="-157.379" font-family="Times,serif" font-size="14.00">wpt_06</text>
</g>
<!-- wpt_01&#45;&#45;wpt_06 -->
<g id="edge32" class="edge"><title>wpt_01&#45;&#45;wpt_06</title>
<path fill="none" stroke="black" d="M251.376,-139.343C256.395,-141.418 261.544,-143.547 266.563,-145.623"/>
</g>
<!-- wpt_03 -->
<g id="node6" class="node"><title>wpt_03</title>
<ellipse fill="none" stroke="black" cx="438.759" cy="-59.7708" rx="39.9593" ry="40.1111"/>
<text text-anchor="middle" x="438.759" y="-56.0708" font-family="Times,serif" font-size="14.00">wpt_03</text>
</g>
<!-- wpt_02&#45;&#45;wpt_03 -->
<g id="edge2" class="edge"><title>wpt_02&#45;&#45;wpt_03</title>
<path fill="none" stroke="black" d="M354.321,-51.8542C368.399,-53.1741 384.216,-54.657 398.322,-55.9796"/>
</g>
<!-- wpt_02&#45;&#45;wpt_06 -->
<g id="edge28" class="edge"><title>wpt_02&#45;&#45;wpt_06</title>
<path fill="none" stroke="black" d="M310.58,-88.2479C309.621,-98.7768 308.587,-110.134 307.627,-120.676"/>
</g>
<!-- wpt_07 -->
<g id="node10" class="node"><title>wpt_07</title>
<ellipse fill="none" stroke="black" cx="428.481" cy="-179.312" rx="39.9593" ry="40.1111"/>
<text text-anchor="middle" x="428.481" y="-175.612" font-family="Times,serif" font-size="14.00">wpt_07</text>
</g>
<!-- wpt_03&#45;&#45;wpt_07 -->
<g id="edge54" class="edge"><title>wpt_03&#45;&#45;wpt_07</title>
<path fill="none" stroke="black" d="M435.279,-100.242C434.208,-112.705 433.028,-126.422 431.957,-138.882"/>
</g>
<!-- wpt_04 -->
<g id="node7" class="node"><title>wpt_04</title>
<ellipse fill="none" stroke="black" cx="123.975" cy="-294.444" rx="39.9593" ry="40.1111"/>
<text text-anchor="middle" x="123.975" y="-290.744" font-family="Times,serif" font-size="14.00">wpt_04</text>
</g>
<!-- wpt_04&#45;&#45;wpt_08 -->
<g id="edge48" class="edge"><title>wpt_04&#45;&#45;wpt_08</title>
<path fill="none" stroke="black" d="M102.541,-328.871C100.611,-331.972 98.6564,-335.111 96.7273,-338.21"/>
</g>
<!-- wpt_04&#45;&#45;wpt_09 -->
<g id="edge16" class="edge"><title>wpt_04&#45;&#45;wpt_09</title>
<path fill="none" stroke="black" d="M152.812,-322.613C160.052,-329.685 167.82,-337.273 175.057,-344.342"/>
</g>
<!-- wpt_04&#45;&#45;wpt_05 -->
<g id="edge26" class="edge"><title>wpt_04&#45;&#45;wpt_05</title>
<path fill="none" stroke="black" d="M160.293,-277.056C168.125,-273.307 176.407,-269.341 184.247,-265.588"/>
</g>
<!-- wpt_05&#45;&#45;wpt_09 -->
<g id="edge34" class="edge"><title>wpt_05&#45;&#45;wpt_09</title>
<path fill="none" stroke="black" d="M215.323,-288.138C213.391,-302.34 211.218,-318.314 209.287,-332.51"/>
</g>
<!-- wpt_05&#45;&#45;wpt_06 -->
<g id="edge50" class="edge"><title>wpt_05&#45;&#45;wpt_06</title>
<path fill="none" stroke="black" d="M248.929,-218.641C257.696,-209.469 267.354,-199.365 276.099,-190.216"/>
</g>
<!-- wpt_05&#45;&#45;wpt_10 -->
<g id="edge30" class="edge"><title>wpt_05&#45;&#45;wpt_10</title>
<path fill="none" stroke="black" d="M252.563,-273.59C258.951,-278.711 265.663,-284.092 272.044,-289.207"/>
</g>
<!-- wpt_06&#45;&#45;wpt_07 -->
<g id="edge10" class="edge"><title>wpt_06&#45;&#45;wpt_07</title>
<path fill="none" stroke="black" d="M343.694,-166.898C358.072,-169.003 374.303,-171.38 388.686,-173.485"/>
</g>
<!-- wpt_11 -->
<g id="node17" class="node"><title>wpt_11</title>
<ellipse fill="none" stroke="black" cx="425.639" cy="-303.361" rx="39.9593" ry="40.1111"/>
<text text-anchor="middle" x="425.639" y="-299.661" font-family="Times,serif" font-size="14.00">wpt_11</text>
</g>
<!-- wpt_07&#45;&#45;wpt_11 -->
<g id="edge22" class="edge"><title>wpt_07&#45;&#45;wpt_11</title>
<path fill="none" stroke="black" d="M427.55,-219.93C427.236,-233.638 426.886,-248.936 426.572,-262.651"/>
</g>
<!-- wpt_17 -->
<g id="node11" class="node"><title>wpt_17</title>
<ellipse fill="none" stroke="black" cx="121.445" cy="-586.144" rx="39.9593" ry="40.1111"/>
<text text-anchor="middle" x="121.445" y="-582.444" font-family="Times,serif" font-size="14.00">wpt_17</text>
</g>
<!-- wpt_18 -->
<g id="node19" class="node"><title>wpt_18</title>
<ellipse fill="none" stroke="black" cx="228.314" cy="-575.408" rx="39.9593" ry="40.1111"/>
<text text-anchor="middle" x="228.314" y="-571.708" font-family="Times,serif" font-size="14.00">wpt_18</text>
</g>
<!-- wpt_17&#45;&#45;wpt_18 -->
<g id="edge46" class="edge"><title>wpt_17&#45;&#45;wpt_18</title>
<path fill="none" stroke="black" d="M161.847,-582.085C170.477,-581.218 179.59,-580.303 188.208,-579.437"/>
</g>
<!-- wpt_16 -->
<g id="node12" class="node"><title>wpt_16</title>
<ellipse fill="none" stroke="black" cx="40.1525" cy="-666.532" rx="39.9593" ry="40.1111"/>
<text text-anchor="middle" x="40.1525" y="-662.832" font-family="Times,serif" font-size="14.00">wpt_16</text>
</g>
<!-- wpt_16&#45;&#45;wpt_17 -->
<g id="edge18" class="edge"><title>wpt_16&#45;&#45;wpt_17</title>
<path fill="none" stroke="black" d="M69.0421,-637.964C76.709,-630.382 84.9865,-622.197 92.6485,-614.62"/>
</g>
<!-- wpt_15 -->
<g id="node13" class="node"><title>wpt_15</title>
<ellipse fill="none" stroke="black" cx="414.461" cy="-425.468" rx="39.9593" ry="40.1111"/>
<text text-anchor="middle" x="414.461" y="-421.768" font-family="Times,serif" font-size="14.00">wpt_15</text>
</g>
<!-- wpt_14&#45;&#45;wpt_15 -->
<g id="edge14" class="edge"><title>wpt_14&#45;&#45;wpt_15</title>
<path fill="none" stroke="black" d="M328.37,-448.34C343.269,-444.382 360.271,-439.865 375.208,-435.896"/>
</g>
<!-- wpt_14&#45;&#45;wpt_18 -->
<g id="edge6" class="edge"><title>wpt_14&#45;&#45;wpt_18</title>
<path fill="none" stroke="black" d="M270.659,-494.641C263.212,-508.845 254.672,-525.133 247.221,-539.345"/>
</g>
<!-- wpt_13&#45;&#45;wpt_17 -->
<g id="edge58" class="edge"><title>wpt_13&#45;&#45;wpt_17</title>
<path fill="none" stroke="black" d="M176.031,-526.804C167.29,-536.307 157.608,-546.832 148.856,-556.346"/>
</g>
<!-- wpt_13&#45;&#45;wpt_14 -->
<g id="edge42" class="edge"><title>wpt_13&#45;&#45;wpt_14</title>
<path fill="none" stroke="black" d="M240.357,-480.621C244.465,-478.786 248.649,-476.917 252.754,-475.084"/>
</g>
<!-- wpt_13&#45;&#45;wpt_18 -->
<g id="edge36" class="edge"><title>wpt_13&#45;&#45;wpt_18</title>
<path fill="none" stroke="black" d="M215.651,-535.836C215.75,-536.144 215.848,-536.452 215.947,-536.76"/>
</g>
<!-- wpt_12 -->
<g id="node16" class="node"><title>wpt_12</title>
<ellipse fill="none" stroke="black" cx="303.315" cy="-607.516" rx="39.9593" ry="40.1111"/>
<text text-anchor="middle" x="303.315" y="-603.816" font-family="Times,serif" font-size="14.00">wpt_12</text>
</g>
<!-- wpt_12&#45;&#45;wpt_13 -->
<g id="edge38" class="edge"><title>wpt_12&#45;&#45;wpt_13</title>
<path fill="none" stroke="black" d="M275.98,-577.366C261.866,-561.798 244.693,-542.857 230.583,-527.294"/>
</g>
<!-- wpt_11&#45;&#45;wpt_15 -->
<g id="edge52" class="edge"><title>wpt_11&#45;&#45;wpt_15</title>
<path fill="none" stroke="black" d="M421.948,-343.682C420.727,-357.019 419.369,-371.855 418.148,-385.189"/>
</g>
<!-- wpt_10&#45;&#45;wpt_11 -->
<g id="edge4" class="edge"><title>wpt_10&#45;&#45;wpt_11</title>
<path fill="none" stroke="black" d="M343.909,-310.833C357.238,-309.614 372.063,-308.259 385.389,-307.041"/>
</g>
</g>
</svg>
